<?xml version="1.0" standalone="no"?>
<!DOCTYPE svg PUBLIC "-//W3C//DTD SVG 20010904//EN"
 "http://www.w3.org/TR/2001/REC-SVG-20010904/DTD/svg10.dtd">
<svg version="1.0" xmlns="http://www.w3.org/2000/svg"
 width="500.000000pt" height="500.000000pt" viewBox="0 0 500.000000 500.000000"
 preserveAspectRatio="xMidYMid meet">

<g transform="translate(0.000000,500.000000) scale(0.100000,-0.100000)"
fill="#e7ab5c" stroke="none">
<path d="M2461 4464 c-58 -48 -114 -175 -142 -315 -7 -33 -15 -57 -19 -52 -4
4 -22 45 -40 91 -57 141 -74 136 -85 -25 l-7 -105 -35 59 c-88 146 -201 253
-268 253 -86 0 -121 -88 -112 -275 4 -66 9 -133 12 -150 6 -27 -2 -21 -68 49
-55 59 -78 78 -91 73 -19 -8 -20 -6 20 -130 14 -44 24 -80 22 -82 -2 -2 -35
20 -73 49 -90 67 -137 94 -204 117 -62 22 -90 24 -124 8 -77 -35 -56 -206 48
-395 l35 -64 -101 51 c-142 71 -150 57 -48 -76 28 -37 49 -68 47 -71 -3 -2
-31 5 -63 16 -94 32 -222 53 -283 45 -67 -8 -112 -46 -112 -93 0 -58 59 -152
158 -251 l94 -94 -43 6 c-24 3 -75 9 -113 13 -63 6 -68 6 -65 -12 2 -11 41
-43 88 -74 l84 -55 -119 -13 c-177 -18 -261 -48 -300 -107 -42 -64 38 -160
201 -240 50 -24 102 -47 117 -50 33 -8 37 -25 8 -25 -12 0 -59 -10 -106 -21
-118 -30 -112 -46 26 -80 77 -20 100 -29 85 -34 -11 -4 -65 -29 -120 -55 -114
-54 -198 -123 -215 -175 -29 -88 81 -157 274 -170 45 -3 96 -8 115 -11 l33 -5
-86 -56 c-126 -83 -118 -101 37 -80 53 7 97 12 97 10 0 -1 -36 -37 -80 -79
-157 -150 -210 -281 -134 -330 62 -41 181 -36 343 15 103 32 102 36 16 -74
-30 -38 -55 -75 -55 -82 0 -23 38 -13 125 32 47 25 85 43 85 40 0 -3 -18 -40
-39 -83 -83 -166 -104 -294 -57 -348 20 -24 30 -28 75 -27 66 1 169 50 271
129 40 30 74 54 76 52 2 -2 -8 -38 -21 -79 -28 -90 -34 -130 -19 -136 6 -2 46
33 88 77 l78 81 -9 -58 c-4 -32 -8 -112 -8 -178 1 -104 4 -126 23 -162 35 -66
73 -78 141 -44 53 28 123 102 191 203 l58 87 7 -104 c11 -163 31 -157 105 29
l24 60 16 -75 c62 -280 165 -396 266 -298 47 46 82 121 114 246 15 57 29 106
32 108 2 3 19 -32 37 -78 37 -89 59 -123 74 -108 4 4 12 57 15 117 l7 109 50
-80 c103 -165 228 -261 294 -224 64 35 91 169 68 342 -7 53 -11 97 -8 97 2 0
36 -34 74 -75 103 -113 118 -101 68 55 -16 49 -27 90 -25 90 3 0 37 -24 77
-54 190 -141 325 -171 363 -80 33 78 11 155 -114 407 -2 5 37 -12 87 -37 143
-72 155 -59 61 65 -34 43 -57 79 -53 79 4 0 46 -12 93 -26 380 -112 478 38
203 310 l-92 92 101 -14 c142 -19 162 -7 81 50 -26 18 -67 45 -91 59 -51 30
-44 35 53 38 196 6 335 67 335 146 0 83 -122 175 -345 260 -15 5 9 14 85 31
57 13 109 29 115 35 17 18 -20 36 -116 55 -49 10 -89 21 -89 25 0 3 21 14 48
24 66 24 189 91 226 122 159 134 68 236 -237 265 l-117 12 91 58 c126 81 112
102 -54 75 -48 -7 -87 -13 -87 -13 0 1 45 47 100 102 263 266 174 411 -188
307 -48 -13 -96 -27 -107 -30 -21 -7 -25 -13 72 116 40 53 44 86 11 76 -13 -4
-61 -27 -107 -52 -45 -24 -81 -41 -79 -36 1 4 25 52 51 106 83 170 96 279 40
334 -22 23 -30 25 -76 20 -66 -8 -171 -60 -265 -132 -40 -30 -75 -55 -77 -55
-1 0 10 41 26 92 49 155 36 165 -70 53 -39 -41 -73 -75 -74 -75 -2 0 0 24 5
53 14 82 14 257 -1 302 -28 86 -84 114 -157 79 -46 -22 -141 -125 -200 -219
l-49 -78 -6 107 c-6 103 -18 141 -38 121 -6 -6 -28 -53 -50 -105 -22 -53 -42
-88 -44 -80 -3 8 -15 56 -27 107 -28 118 -84 230 -129 260 -44 30 -72 29 -110
-3z m105 -139 c33 -33 77 -130 108 -236 21 -75 23 -95 16 -165 -5 -43 -11
-135 -15 -204 -3 -69 -12 -204 -20 -300 -8 -96 -15 -178 -15 -183 0 -5 -25 12
-55 38 l-54 47 22 30 c27 36 27 100 2 233 -18 98 -24 218 -12 255 l8 25 -20
-23 c-19 -22 -20 -22 -26 -2 -3 11 -11 20 -16 20 -12 0 -12 -17 1 -25 16 -10
11 -109 -10 -240 -25 -154 -25 -201 0 -243 l20 -33 -31 -27 c-59 -49 -69 -55
-73 -40 -7 21 -30 317 -41 528 -3 58 -8 134 -11 170 -8 105 57 301 124 373 32
34 65 35 98 2z m-588 -124 c47 -38 166 -184 183 -226 29 -71 215 -733 208
-740 -3 -2 -31 5 -62 17 l-57 21 6 47 c6 45 2 56 -85 223 -65 126 -91 187 -92
214 l-1 38 -12 -27 c-11 -26 -13 -27 -29 -11 -9 9 -20 14 -24 10 -4 -4 3 -14
14 -22 26 -18 45 -76 73 -220 33 -174 46 -210 82 -239 l32 -25 -19 -34 c-48
-89 -46 -89 -95 15 -23 51 -83 185 -132 298 -49 113 -101 230 -116 260 -23 49
-27 70 -30 183 -8 243 39 310 156 218z m1215 -8 c19 -42 22 -64 21 -183 l-1
-136 -116 -264 c-63 -146 -136 -310 -161 -364 -51 -110 -44 -108 -96 -23 l-23
39 35 28 c40 33 47 55 83 240 27 136 55 220 74 220 6 0 11 5 11 11 0 7 -10 5
-25 -5 -24 -16 -25 -15 -25 3 0 38 -15 29 -16 -9 -1 -27 -21 -74 -65 -157
-118 -221 -126 -243 -106 -300 7 -19 2 -23 -45 -39 -29 -9 -59 -19 -66 -22
-10 -3 -11 3 -6 24 14 59 126 453 160 560 18 61 34 117 34 126 0 41 159 239
225 280 17 10 43 18 58 18 24 0 31 -7 50 -47z m-966 21 c-3 -3 -12 -4 -19 -1
-8 3 -5 6 6 6 11 1 17 -2 13 -5z m610 0 c-3 -3 -12 -4 -19 -1 -8 3 -5 6 6 6
11 1 17 -2 13 -5z m-607 -28 c-1 -5 4 -13 12 -18 8 -5 2 -6 -17 -2 -39 9 -44
14 -14 15 22 0 23 1 4 10 -17 7 -17 8 -2 6 10 -1 17 -6 17 -11z m595 4 c-28
-12 -37 -12 -30 0 3 6 16 10 28 9 21 0 21 -1 2 -9z m0 -20 l-20 -9 20 -1 20
-1 -20 -9 -20 -9 20 -1 20 -1 -20 -9 c-19 -8 -19 -9 -1 -9 11 -1 17 -3 14 -6
-3 -3 -20 -2 -39 2 -33 7 -33 7 -9 14 l25 7 -25 2 -25 2 25 8 c21 7 22 8 5 10
l-20 1 20 9 c11 5 27 9 35 9 9 0 8 -4 -5 -9z m-608 -16 c-3 -3 -12 -4 -19 -1
-8 3 -5 6 6 6 11 1 17 -2 13 -5z m33 -14 c-13 -8 -12 -10 4 -10 11 0 17 -3 14
-6 -3 -3 -23 -2 -44 2 -36 7 -37 8 -14 15 14 4 32 7 40 8 13 1 13 0 0 -9z m0
-30 c20 -6 21 -8 5 -8 -11 0 -31 4 -45 8 -20 6 -21 8 -5 8 11 0 31 -4 45 -8z
m570 -10 c21 -7 22 -8 5 -10 l-20 -1 20 -9 20 -9 -20 1 c-11 0 -33 4 -50 8
l-30 8 30 2 c30 2 30 2 5 10 -20 6 -21 8 -5 8 11 0 31 -4 45 -8z m-565 -9 c29
-7 29 -7 -14 -14 -24 -4 -46 -5 -49 -2 -3 3 3 5 14 6 18 0 18 1 -1 9 l-20 9
20 -1 c11 0 34 -3 50 -7z m28 -38 c-2 -7 3 -13 10 -13 8 0 7 -4 -3 -10 -13 -8
-12 -10 4 -10 11 0 17 -2 14 -5 -2 -3 -31 0 -64 7 -49 10 -55 13 -34 19 l25 7
-25 2 -25 2 25 8 c35 12 75 7 73 -7z m537 8 c23 -7 21 -9 -20 -18 -37 -9 -40
-11 -16 -12 38 -1 31 -7 -19 -14 -28 -5 -34 -4 -20 3 l20 9 -20 1 c-13 1 -6 7
20 16 38 13 38 14 8 11 -18 -2 -30 0 -27 5 6 10 39 9 74 -1z m594 -38 c-4 -16
-11 -33 -15 -39 -5 -6 -5 -15 -1 -19 4 -5 -1 -5 -11 -2 -13 5 -16 3 -10 -6 10
-17 13 -37 4 -37 -4 0 -8 -6 -9 -12 0 -7 -3 -22 -6 -33 -2 -11 -5 -23 -5 -27
-1 -4 -13 -14 -28 -23 -28 -15 -28 -16 -3 -10 14 2 19 2 12 -1 -6 -3 -10 -10
-6 -15 3 -5 -1 -12 -10 -15 -8 -3 -13 -14 -11 -25 2 -10 0 -21 -5 -24 -5 -3
-7 4 -5 15 3 14 0 20 -8 17 -7 -2 -12 -19 -12 -37 0 -18 -6 -35 -13 -38 -6 -2
-10 -8 -6 -13 3 -5 -2 -12 -10 -15 -9 -3 -13 -10 -10 -15 3 -5 -2 -12 -10 -15
-9 -3 -13 -10 -10 -15 3 -5 -2 -12 -10 -15 -9 -3 -13 -10 -10 -15 3 -5 -2 -12
-10 -15 -9 -3 -14 -10 -11 -14 9 -14 -26 -20 -47 -9 -15 8 -19 8 -14 0 9 -14
-4 -14 -24 -1 -11 7 -11 10 -2 10 7 0 10 5 7 10 -9 14 1 12 38 -6 18 -9 28
-13 24 -8 -4 4 3 14 15 21 22 13 22 14 1 8 -12 -3 -24 -1 -28 5 -3 5 -11 10
-16 10 -6 0 -7 -4 -4 -10 3 -5 2 -10 -4 -10 -5 0 -13 5 -16 10 -3 6 -1 10 5
10 6 0 8 5 5 10 -3 6 1 13 10 16 13 6 14 8 3 15 -10 7 -11 9 0 9 7 0 10 5 7
10 -3 6 0 13 9 16 8 3 13 14 11 25 -2 11 2 22 10 26 8 3 12 9 9 14 -3 5 2 12
11 15 13 6 14 8 3 15 -10 7 -11 9 0 9 7 0 11 4 7 9 -3 5 4 16 15 24 11 7 17
17 14 20 -4 4 1 9 10 13 9 3 14 10 11 15 -8 12 31 30 52 23 16 -5 16 -4 -1 10
-11 9 -14 16 -7 16 7 0 9 4 6 10 -4 6 1 7 11 3 12 -4 15 -3 10 5 -4 7 -2 12 4
12 6 0 8 5 5 10 -3 6 1 13 9 16 9 3 13 11 9 17 -4 6 0 8 11 4 9 -4 15 -3 11 2
-4 7 33 60 43 61 1 0 -1 -12 -4 -27z m-577 11 c-3 -3 -12 -4 -19 -1 -8 3 -5 6
6 6 11 1 17 -2 13 -5z m-1201 -13 c-3 -5 1 -12 10 -15 9 -3 12 -11 8 -18 -5
-8 -2 -9 10 -5 9 4 14 3 11 -2 -3 -5 4 -12 15 -16 11 -4 18 -10 15 -15 -3 -4
3 -11 12 -15 16 -6 15 -8 -7 -27 -20 -16 -21 -19 -5 -13 30 11 40 11 42 1 0
-5 9 -13 18 -18 13 -8 14 -12 3 -26 -11 -13 -11 -15 4 -9 11 4 17 2 15 -5 -1
-6 4 -13 12 -16 9 -3 11 0 6 9 -5 8 -5 11 -1 7 4 -3 7 -9 6 -13 -1 -4 7 -13
17 -21 13 -10 13 -12 3 -9 -12 4 -16 -1 -16 -20 0 -14 5 -24 11 -21 5 2 9 9 7
15 -1 7 2 10 8 6 6 -3 7 -12 3 -18 -9 -14 -11 -117 -3 -117 3 0 15 7 26 16 13
11 14 14 3 11 -9 -3 -16 1 -16 8 0 10 5 11 19 4 10 -6 16 -14 13 -20 -4 -5 -1
-9 6 -9 7 0 4 -7 -7 -16 -17 -14 -17 -15 -1 -10 10 3 16 2 13 -3 -3 -5 1 -12
10 -15 8 -3 13 -10 10 -15 -4 -5 0 -11 6 -13 8 -3 0 -12 -17 -22 -28 -16 -19
-16 22 1 11 4 14 3 9 -5 -4 -7 -2 -12 6 -12 9 0 9 -3 -2 -10 -8 -5 -19 -10
-25 -10 -5 0 -3 5 5 10 8 5 11 10 5 10 -5 0 -17 -5 -25 -10 -11 -7 -11 -10 -2
-10 7 0 10 -5 6 -11 -5 -8 -1 -8 14 0 29 16 29 15 52 -29 19 -37 19 -40 2 -50
-14 -9 -13 -10 7 -4 16 4 21 3 17 -5 -4 -6 -1 -11 6 -11 7 0 5 -5 -6 -12 -26
-15 -53 17 -33 41 9 12 9 13 0 7 -7 -4 -20 -3 -29 2 -14 8 -14 11 7 26 13 9
18 16 12 16 -7 0 -15 -4 -18 -10 -3 -5 -11 -10 -17 -10 -6 0 -5 7 3 17 11 13
11 15 1 9 -9 -5 -21 0 -33 13 -11 12 -16 21 -12 21 4 0 -2 6 -12 14 -18 13
-18 14 4 25 13 7 20 15 18 18 -3 2 -14 0 -26 -6 -17 -9 -22 -8 -31 9 -6 11 -7
20 -3 20 4 0 0 5 -10 11 -9 6 -14 15 -11 21 5 8 1 9 -10 5 -10 -4 -15 -3 -11
3 3 5 -4 14 -15 20 -11 6 -18 15 -15 19 3 5 -2 12 -11 15 -8 3 -13 10 -10 15
3 5 -1 12 -10 15 -8 3 -13 10 -9 15 3 5 1 12 -5 16 -6 4 -8 11 -5 16 4 5 1 9
-6 9 -7 0 -4 7 7 16 17 14 17 15 1 10 -11 -3 -16 -2 -12 4 3 6 0 10 -7 11 -9
0 -10 2 -1 5 8 4 5 12 -8 25 -11 11 -17 24 -14 29 4 6 2 10 -4 10 -5 0 -8 9
-6 20 2 11 0 20 -5 20 -5 0 -7 9 -5 20 2 11 -2 20 -8 20 -8 0 -8 3 1 9 11 7
10 9 -3 15 -14 5 -13 26 1 26 3 0 3 -4 0 -9z m644 -17 c16 -3 32 -9 35 -14 3
-5 -9 -5 -27 1 -60 17 -74 7 -18 -12 35 -12 43 -16 20 -12 -51 8 -110 31 -85
33 l20 1 -20 10 c-21 9 2 7 75 -7z m550 6 c-8 -5 -26 -9 -40 -9 l-25 1 25 8
c14 4 32 8 40 9 13 1 13 0 0 -9z m-70 -14 c0 -2 -9 -6 -20 -9 -11 -3 -18 -1
-14 4 5 9 34 13 34 5z m78 -2 c-9 -8 -119 -36 -125 -31 -2 3 22 11 54 20 67
17 79 19 71 11z m-568 -41 c9 -9 -65 9 -74 18 -5 4 8 3 30 -2 21 -6 41 -13 44
-16z m565 18 c-6 -5 -37 -16 -69 -25 -32 -8 -55 -11 -50 -6 7 7 85 31 124 39
2 1 0 -3 -5 -8z m-568 -38 c51 -12 62 -18 47 -24 -19 -7 -19 -8 0 -8 11 -1 17
-3 14 -6 -2 -3 -34 2 -69 10 l-64 14 55 -4 55 -5 -45 14 c-99 28 -94 35 7 9z
m47 8 c4 -5 -3 -7 -14 -4 -23 6 -26 13 -6 13 8 0 17 -4 20 -9z m523 3 c-4 -4
-30 -12 -59 -20 -31 -7 -42 -13 -28 -13 14 -1 40 3 58 8 18 6 30 6 27 1 -3 -4
-24 -11 -48 -15 -23 -3 -51 -9 -62 -11 -16 -4 -17 -3 -5 5 12 9 13 11 1 11
-26 0 -3 12 51 25 65 16 73 17 65 9z m-1377 -45 c54 -23 230 -140 230 -152 0
-5 44 -68 98 -140 179 -239 332 -455 332 -467 0 -4 -29 -8 -64 -8 l-63 -1 -6
39 c-7 51 -26 74 -144 177 -121 104 -172 161 -173 191 0 12 -5 22 -11 22 -7 0
-9 -10 -7 -24 5 -23 3 -24 -25 -19 -21 4 -28 3 -23 -5 4 -7 13 -12 20 -12 23
0 80 -72 151 -190 77 -130 117 -177 157 -188 16 -4 28 -11 28 -17 2 -33 -14
-115 -21 -115 -10 0 -121 111 -360 361 -185 193 -208 226 -254 363 -33 98 -34
178 -2 201 26 19 68 14 137 -16z m2261 10 c19 -19 21 -30 16 -78 -10 -112 -81
-273 -153 -346 -27 -28 -148 -153 -268 -279 -239 -248 -227 -241 -240 -140
l-7 51 31 6 c45 9 77 47 154 177 75 127 130 200 151 200 8 0 17 5 21 11 5 8
-1 10 -20 7 -23 -5 -26 -2 -26 21 0 22 -3 19 -22 -19 -15 -30 -66 -83 -151
-160 -142 -128 -155 -144 -161 -192 l-3 -33 -67 -2 c-36 -1 -66 1 -66 4 0 7
161 233 306 429 61 82 116 160 122 171 21 38 191 148 274 177 59 21 84 20 109
-5z m-1441 -24 c30 -7 46 -14 35 -14 -11 0 -42 6 -70 13 -65 18 -37 19 35 1z
m547 9 c-3 -3 -12 -4 -19 -1 -8 3 -5 6 6 6 11 1 17 -2 13 -5z m-57 -14 c-14
-4 -34 -8 -45 -8 -16 0 -15 2 5 8 14 4 34 8 45 8 16 0 15 -2 -5 -8z m-501 -16
c2 -2 -7 -4 -22 -4 -14 0 -29 5 -32 10 -6 10 42 4 54 -6z m547 7 c-3 -4 -23
-11 -45 -15 -22 -3 -48 -9 -58 -13 -10 -3 -15 -2 -10 3 5 5 32 14 60 20 29 7
53 12 55 13 2 0 1 -3 -2 -8z m-492 -20 c3 -4 -6 -6 -19 -3 -14 2 -25 6 -25 8
0 8 39 4 44 -5z m-44 -11 c20 -6 21 -8 5 -8 -11 0 -31 4 -45 8 -20 6 -21 8 -5
8 11 0 31 -4 45 -8z m495 -5 c-22 -8 -49 -13 -60 -13 -11 0 -2 5 20 13 22 7
49 13 60 13 11 0 2 -6 -20 -13z m24 -15 c-9 -5 -36 -12 -60 -14 l-44 -5 50 13
c60 17 75 18 54 6z m-489 -10 c20 -6 21 -8 5 -8 -11 0 -31 4 -45 8 -20 6 -21
8 -5 8 11 0 31 -4 45 -8z m5 -24 c11 -3 0 -3 -25 0 -25 3 -49 9 -54 14 -9 9 4
6 79 -14z m478 7 c-7 -2 -19 -2 -25 0 -7 3 -2 5 12 5 14 0 19 -2 13 -5z m-50
-10 c-7 -2 -21 -2 -30 0 -10 3 -4 5 12 5 17 0 24 -2 18 -5z m-439 -14 c29 -8
36 -13 25 -20 -12 -7 -12 -9 1 -9 26 -1 -11 -20 -40 -21 -26 -1 -22 -4 21 -13
21 -4 26 -11 25 -33 -2 -24 -7 -28 -31 -30 l-30 -2 30 9 30 8 -30 2 c-30 2
-30 2 -5 10 25 8 25 8 -5 10 l-30 2 30 8 30 8 -27 1 c-16 1 -32 9 -38 20 -9
18 -7 19 27 16 l38 -5 -33 9 c-48 13 -51 21 -6 16 l39 -5 -39 10 c-22 6 -42
13 -45 15 -8 8 22 5 63 -6z m451 -5 l-40 -14 40 5 c22 2 35 1 29 -3 -6 -4 -10
-15 -8 -24 1 -10 -2 -18 -7 -18 -5 0 -8 -6 -6 -12 3 -16 -37 -22 -60 -9 -14 8
-9 9 22 6 38 -4 39 -4 7 4 -35 9 -54 21 -33 21 7 0 10 4 7 8 -2 4 12 7 32 5
40 -3 35 1 -12 12 -32 7 -25 21 14 28 48 8 55 5 15 -9z m-221 -149 c9 -55 19
-113 22 -130 l6 -30 -25 29 -24 30 -12 -23 c-22 -41 -23 -14 -5 108 10 66 19
119 21 118 1 -1 9 -47 17 -102z m223 42 c-2 -6 -14 -14 -28 -18 l-24 -7 25 -2
c24 -2 23 -3 -5 -10 -24 -6 -26 -8 -7 -9 12 0 22 -7 22 -16 0 -10 -10 -15 -32
-14 l-33 1 30 8 c24 6 26 8 8 9 -20 1 -22 6 -20 39 2 36 3 37 35 34 18 -3 31
-9 29 -15z m-1606 -24 c13 -16 12 -17 -3 -4 -10 7 -18 15 -18 17 0 8 8 3 21
-13z m1009 -104 c56 -101 73 -143 40 -104 -19 23 -37 18 -47 -12 -8 -23 -13
-7 -35 100 -14 70 -24 127 -23 127 1 0 30 -50 65 -111z m759 -5 c-22 -115 -38
-161 -39 -111 0 29 -26 37 -48 15 -7 -7 -12 -9 -12 -4 0 9 114 215 117 212 2
-1 -7 -51 -18 -112z m-586 99 c-7 -2 -21 -2 -30 0 -10 3 -4 5 12 5 17 0 24 -2
18 -5z m1544 -10 c0 -7 -4 -13 -9 -13 -5 0 -6 -5 -2 -12 4 -6 3 -8 -3 -5 -5 3
-17 -9 -26 -28 -15 -32 -27 -40 -51 -36 -5 1 -6 -5 -2 -14 4 -11 2 -14 -6 -9
-8 5 -9 2 -5 -9 7 -18 -24 -42 -38 -29 -5 4 -5 -1 -2 -10 4 -12 1 -16 -14 -13
-20 4 -26 -9 -9 -20 6 -4 8 -11 4 -16 -4 -6 -11 -6 -20 2 -8 6 -14 8 -14 4 0
-4 -7 -2 -15 5 -8 7 -15 9 -15 5 0 -4 -7 -2 -15 5 -8 7 -15 8 -15 2 0 -5 7
-15 15 -22 8 -7 15 -9 15 -5 0 4 6 2 13 -4 8 -6 18 -7 22 -3 5 4 5 1 1 -6 -4
-7 -11 -10 -16 -7 -4 3 -11 -2 -14 -11 -4 -9 -9 -14 -13 -10 -3 3 -13 -3 -21
-15 -12 -17 -16 -18 -30 -7 -13 11 -15 11 -10 -4 9 -22 -2 -30 -20 -15 -13 10
-15 9 -9 -6 4 -10 3 -16 -2 -13 -5 3 -12 -1 -15 -10 -3 -8 -10 -12 -16 -9 -5
3 -10 2 -10 -4 0 -6 -17 -19 -38 -30 -37 -19 -40 -19 -58 -3 -18 16 -18 16 -1
-4 26 -32 20 -40 -10 -13 -20 17 -23 18 -10 3 24 -29 21 -41 -5 -18 -13 10
-17 12 -10 4 18 -21 15 -27 -28 -51 -22 -13 -40 -27 -40 -31 0 -5 -4 -7 -9 -3
-6 3 -15 -4 -21 -16 -7 -11 -14 -19 -16 -16 -3 3 -17 -6 -31 -19 -31 -29 -53
-32 -28 -4 10 11 20 18 22 16 7 -7 49 39 45 48 -3 5 0 6 6 2 7 -4 12 -2 12 4
0 5 38 49 85 96 84 85 86 86 106 68 22 -20 49 -27 49 -14 0 5 -4 12 -10 15 -5
3 -10 0 -10 -7 0 -7 -9 -2 -19 12 -15 18 -17 29 -9 43 9 18 11 18 29 1 10 -9
19 -12 19 -6 0 6 -5 14 -10 17 -6 4 -8 11 -4 16 4 6 14 3 25 -7 10 -9 19 -14
19 -9 0 4 7 2 15 -5 8 -7 15 -8 15 -2 0 5 -7 15 -15 22 -8 7 -15 9 -15 5 0 -4
-7 -2 -15 5 -8 7 -12 16 -9 22 3 5 12 4 21 -3 12 -11 14 -10 11 2 -1 7 2 15 7
16 6 0 9 -4 7 -10 -2 -9 0 -8 9 0 9 10 10 15 0 27 -7 8 -8 17 -3 20 11 7 34
-17 27 -28 -3 -3 0 -2 7 3 8 8 8 14 0 24 -19 23 7 41 30 20 10 -9 18 -11 18
-5 0 6 -5 14 -10 17 -6 4 -8 11 -4 16 4 6 13 4 24 -6 16 -14 18 -14 24 0 3 9
2 13 -3 10 -5 -3 -12 -1 -16 4 -3 5 3 14 12 20 13 7 23 5 35 -6 12 -11 18 -12
18 -4 0 7 5 9 13 4 18 -11 37 -12 37 -2 0 6 5 7 12 3 7 -4 8 -3 4 5 -4 6 -12
9 -17 6 -5 -3 -6 1 -3 10 5 13 9 13 23 3 13 -10 14 -10 4 2 -15 17 -43 22 -43
9 0 -6 -5 -7 -12 -3 -7 4 -8 3 -4 -5 4 -6 12 -9 17 -6 5 3 6 -1 3 -9 -3 -9
-11 -13 -18 -9 -6 4 -14 8 -18 8 -3 0 -9 3 -12 8 -3 4 -3 5 0 3 3 -2 14 4 25
15 11 11 24 17 29 14 6 -4 10 -1 10 6 0 7 9 5 22 -7 17 -14 20 -15 9 -2 -13
18 -6 43 10 33 5 -4 9 -2 9 3 0 5 6 9 13 9 8 0 14 -6 14 -14z m-2685 -12 c-5
-14 -3 -14 10 -3 19 15 34 0 22 -20 -5 -9 -2 -9 9 1 12 9 17 10 17 2 0 -7 5
-9 12 -5 7 4 8 3 4 -5 -4 -6 -11 -9 -16 -6 -5 3 -12 0 -16 -6 -4 -8 -3 -9 4
-5 7 4 12 2 12 -5 0 -8 6 -7 18 4 22 20 54 5 45 -21 -6 -14 -4 -15 8 -5 13 10
19 10 34 -1 12 -9 15 -15 7 -20 -7 -4 -12 -12 -12 -18 0 -6 9 -3 19 6 13 12
21 14 26 6 3 -5 12 -7 18 -4 7 4 10 5 7 1 -3 -3 -8 -5 -11 -4 -8 3 -39 -24
-39 -33 0 -12 25 -6 43 8 13 11 18 9 31 -10 10 -15 12 -26 6 -32 -18 -18 -10
-29 9 -12 11 10 21 13 25 7 4 -5 2 -12 -4 -16 -5 -3 -10 -11 -10 -17 0 -7 5
-6 14 1 9 8 16 8 20 2 4 -5 2 -12 -4 -16 -5 -3 -10 -11 -10 -17 0 -6 8 -4 18
5 21 19 34 13 25 -11 -4 -10 -2 -13 5 -8 13 8 26 -10 17 -25 -5 -6 -11 -4 -19
6 -10 14 -12 11 -13 -19 0 -20 3 -33 9 -30 5 3 7 13 4 21 -3 8 -2 12 3 9 5 -3
14 1 21 10 21 25 32 -6 13 -36 l-16 -25 28 25 29 25 -24 -35 -24 -35 25 22
c17 16 29 19 39 13 8 -5 12 -10 8 -10 -4 0 15 -22 42 -50 28 -27 50 -54 50
-60 0 -5 3 -9 8 -8 4 2 32 -21 62 -50 30 -30 43 -46 28 -37 -16 10 -28 22 -28
27 0 5 -5 6 -12 2 -6 -4 -8 -3 -5 3 7 10 -20 28 -35 25 -5 -1 -8 2 -8 8 0 5
-18 19 -40 30 -22 11 -40 25 -40 31 0 6 -4 8 -9 5 -8 -6 -33 12 -81 56 -10 9
-22 13 -26 10 -10 -10 6 19 25 43 9 11 1 7 -16 -9 -28 -25 -33 -27 -39 -13 -3
9 -10 14 -15 11 -5 -3 -6 3 -2 13 6 15 4 16 -9 6 -18 -15 -29 -7 -20 15 5 15
4 15 -11 3 -9 -7 -17 -11 -17 -7 0 3 0 9 0 14 0 4 5 7 12 7 6 0 13 5 15 12 2
6 -3 10 -14 8 -10 -2 -18 -4 -18 -5 0 -1 -8 -3 -17 -5 -11 -2 -15 2 -11 11 3
9 -2 12 -18 9 -17 -4 -20 -2 -11 7 16 16 16 33 0 21 -7 -5 -19 -9 -25 -9 -16
1 -17 21 -1 21 6 0 13 5 15 12 3 9 -11 11 -34 4 -9 -3 -13 0 -10 7 1 4 5 6 9
5 3 -1 12 4 19 13 10 12 10 17 0 27 -7 7 -11 8 -9 2 2 -5 0 -10 -3 -10 -4 0
-16 -8 -26 -18 -22 -19 -35 -14 -26 11 4 10 2 13 -5 8 -8 -5 -10 -2 -6 9 4 9
3 15 -2 14 -20 -3 -35 2 -30 10 3 5 -1 11 -9 15 -9 3 -12 12 -8 22 4 12 3 15
-5 10 -8 -5 -10 -1 -5 11 6 16 5 17 -13 3 -15 -11 -16 -11 -6 0 16 19 16 35
-1 21 -17 -13 -28 -4 -20 17 5 11 3 13 -7 7 -8 -5 -11 -4 -7 2 10 16 36 11 29
-6z m1146 2 c-10 -2 -26 -2 -35 0 -10 3 -2 5 17 5 19 0 27 -2 18 -5z m-8 -22
l-25 -8 25 -5 c25 -5 25 -5 -2 -7 -19 -1 -28 4 -28 14 0 10 9 15 28 14 l27 -1
-25 -7z m398 -23 c-3 -7 -13 -13 -24 -14 -17 -1 -17 -1 1 4 18 5 18 6 -5 13
l-25 7 28 1 c19 1 27 -3 25 -11z m-385 -15 c-7 -2 -19 -2 -25 0 -7 3 -2 5 12
5 14 0 19 -2 13 -5z m813 -16 c4 -4 2 -7 -5 -7 -7 0 -9 -5 -6 -10 3 -6 -1 -13
-9 -16 -9 -3 -13 -10 -10 -15 3 -5 1 -9 -4 -9 -5 0 -14 -12 -21 -26 -8 -18
-17 -24 -28 -20 -13 5 -14 4 -4 -8 10 -12 8 -16 -9 -21 -11 -3 -18 -11 -15
-16 4 -5 -4 -19 -17 -32 -13 -13 -24 -27 -25 -32 -1 -5 -7 -11 -15 -13 -9 -2
-8 0 2 7 8 6 11 11 5 11 -5 0 -1 7 9 15 14 11 16 15 5 15 -12 0 -12 2 1 10 8
5 11 10 7 10 -4 0 -3 9 3 21 7 12 18 18 26 15 10 -4 13 -2 7 7 -14 23 -12 39
5 32 13 -5 14 -4 5 6 -9 9 -8 20 7 49 16 32 24 37 49 36 16 -1 33 -5 37 -9z
m-813 -4 c-7 -2 -19 -2 -25 0 -7 3 -2 5 12 5 14 0 19 -2 13 -5z m370 0 c-7 -2
-19 -2 -25 0 -7 3 -2 5 12 5 14 0 19 -2 13 -5z m-366 -19 c-3 -3 -12 -4 -19
-1 -8 3 -5 6 6 6 11 1 17 -2 13 -5z m360 0 c-3 -3 -12 -4 -19 -1 -8 3 -5 6 6
6 11 1 17 -2 13 -5z m-360 -20 c-3 -3 -12 -4 -19 -1 -8 3 -5 6 6 6 11 1 17 -2
13 -5z m356 0 c-7 -3 -9 -12 -6 -20 3 -8 0 -14 -6 -14 -6 0 -11 9 -11 20 0 13
6 20 18 19 9 0 12 -3 5 -5z m-348 -24 c3 -5 2 -10 -4 -10 -5 0 -13 5 -16 10
-3 6 -2 10 4 10 5 0 13 -4 16 -10z m-1165 -35 c57 -14 114 -34 125 -44 11 -10
94 -67 185 -126 233 -153 420 -284 420 -296 0 -5 -8 -9 -17 -9 -10 0 -37 -9
-61 -20 l-42 -19 -14 33 c-19 45 -40 58 -190 117 -166 64 -206 85 -233 117
-16 19 -23 22 -23 12 0 -9 5 -21 12 -28 9 -9 6 -12 -15 -12 -15 0 -27 -4 -27
-10 0 -5 6 -7 14 -4 24 9 88 -31 212 -131 137 -110 173 -129 218 -121 l32 6
10 -65 c5 -36 6 -65 1 -65 -14 0 -253 113 -469 221 -108 55 -201 99 -206 99
-6 0 -40 33 -77 73 -144 155 -187 254 -123 285 41 19 157 13 268 -13z m2920
12 c61 -31 21 -131 -103 -261 l-82 -86 -335 -165 c-184 -91 -341 -165 -349
-165 -10 0 -12 9 -7 38 16 94 15 92 45 86 42 -9 89 16 202 108 138 112 184
141 220 141 16 0 29 4 29 9 0 4 -11 8 -25 8 -28 0 -29 3 -15 31 15 27 8 24
-33 -15 -26 -24 -79 -50 -184 -91 -159 -62 -210 -92 -226 -136 l-11 -27 -45
17 c-25 10 -55 21 -65 25 -24 8 19 41 373 277 263 176 263 176 426 212 43 10
161 6 185 -6z m-2236 -140 c28 -27 41 -43 28 -37 -34 17 -54 6 -46 -25 3 -14
4 -25 1 -25 -3 0 -31 44 -63 98 -31 53 -62 104 -68 112 -15 20 85 -62 148
-123z m1371 19 c-31 -53 -60 -98 -64 -100 -4 -3 -7 8 -6 22 0 24 -3 27 -30 24
-29 -2 -28 -1 25 45 30 27 71 62 90 80 19 17 37 30 39 28 2 -2 -23 -47 -54
-99z m-875 44 c0 -13 -1 -13 -10 0 -5 8 -10 22 -10 30 0 13 1 13 10 0 5 -8 10
-22 10 -30z m313 20 c-3 -11 -7 -20 -9 -20 -2 0 -4 9 -4 20 0 11 4 20 9 20 5
0 7 -9 4 -20z m-663 -10 c6 -11 8 -20 6 -20 -3 0 8 -21 24 -47 32 -50 42 -84
13 -43 -10 14 -17 28 -15 33 1 4 -2 7 -8 7 -5 0 -10 7 -10 15 0 9 -7 18 -15
21 -8 4 -12 10 -9 15 3 5 -2 12 -10 15 -9 3 -13 10 -10 15 9 15 23 10 34 -11z
m569 -118 l44 -38 -58 -37 -59 -37 -30 21 c-17 11 -41 25 -53 31 -13 6 -23 15
-23 19 0 4 23 28 51 53 57 51 56 51 128 -12z m391 17 c-7 -11 -14 -19 -16 -16
-7 7 7 37 17 37 6 0 5 -9 -1 -21z m-676 -32 c33 -12 61 -26 63 -32 1 -5 -16
-31 -40 -57 l-42 -48 -58 15 c-33 7 -61 15 -62 17 -6 5 65 128 73 127 4 0 34
-10 66 -22z m533 -38 c18 -30 31 -58 30 -64 -2 -5 -30 -15 -63 -22 -65 -13
-64 -14 -125 70 l-21 27 34 14 c59 24 93 34 103 32 5 -1 24 -27 42 -57z m-371
-45 l51 -33 64 39 c35 22 66 36 69 32 4 -4 25 -30 48 -58 l42 -51 57 13 c89
21 87 22 109 -53 l19 -68 65 -11 c36 -7 68 -12 73 -13 4 -1 7 -35 7 -76 l0
-75 59 -30 c33 -16 62 -33 65 -38 3 -5 -6 -39 -21 -75 l-26 -66 47 -51 c25
-29 46 -55 46 -59 0 -3 -21 -30 -46 -59 l-46 -52 26 -65 c14 -36 26 -67 26
-69 0 -2 -29 -21 -65 -41 l-65 -36 0 -74 0 -74 -47 -6 c-90 -12 -95 -16 -117
-82 -12 -34 -24 -64 -27 -68 -4 -3 -37 1 -74 10 -37 8 -69 14 -71 13 -1 -2
-22 -29 -46 -60 l-44 -57 -63 40 -63 40 -64 -40 -64 -40 -45 60 c-37 47 -51
58 -68 54 -63 -14 -113 -25 -119 -25 -4 0 -17 31 -29 69 -22 69 -23 70 -63 76
-23 4 -56 9 -73 12 l-33 5 0 77 0 77 -64 31 -64 32 20 53 c10 28 23 59 28 69
7 12 -3 30 -41 73 l-51 56 50 58 49 57 -28 67 -28 68 65 36 64 36 0 73 c0 82
-8 76 101 91 l46 6 22 69 c25 77 23 76 112 55 l56 -13 47 58 c29 35 53 56 59
52 7 -4 35 -21 63 -39z m-336 -46 c0 -30 -35 -118 -49 -122 -9 -3 -40 -8 -68
-11 -47 -6 -53 -5 -53 12 0 18 17 97 25 121 6 16 145 17 145 0z m929 -38 c6
-28 11 -62 11 -76 0 -25 -1 -25 -57 -19 -32 4 -62 11 -67 16 -9 8 -46 106 -46
121 0 4 33 8 74 8 l74 0 11 -50z m-2172 13 c6 -15 7 -14 13 3 6 15 9 13 15
-15 l7 -35 14 30 14 29 -5 -35 -5 -35 14 35 c10 24 15 29 15 15 1 -17 3 -18
11 -5 8 11 9 7 5 -15 l-5 -30 14 30 c12 24 15 26 16 10 l1 -20 9 20 9 20 0
-20 c1 -17 3 -17 11 -5 9 13 10 13 10 0 0 -13 1 -13 10 0 9 13 10 13 10 0 0
-12 2 -13 9 -1 7 11 11 8 16 -10 7 -22 8 -23 15 -5 6 19 7 19 12 -2 4 -12 2
-20 -3 -16 -12 7 -11 -7 1 -26 9 -13 10 -13 10 0 1 9 6 5 15 -10 8 -14 14 -19
14 -10 0 8 -6 26 -14 40 -8 14 -14 30 -14 35 0 6 8 -6 19 -25 11 -19 19 -28
20 -20 0 13 1 13 10 0 9 -13 10 -13 10 0 1 9 6 5 15 -10 9 -15 15 -19 15 -10
0 9 6 6 16 -10 14 -24 15 -24 11 -2 -7 32 2 27 15 -9 l11 -32 12 23 13 23 7
-23 c6 -17 9 -20 16 -9 7 11 9 11 9 1 0 -7 5 -10 10 -7 6 3 10 1 10 -5 0 -6 5
-8 11 -5 6 4 13 -3 16 -15 4 -17 8 -19 15 -8 5 8 7 2 3 -17 l-6 -30 16 30 15
30 -5 -30 -5 -30 15 25 c8 14 14 19 15 12 0 -7 5 -10 10 -7 6 3 10 1 10 -6 0
-7 3 -10 6 -6 8 8 64 -21 64 -33 0 -5 9 -7 19 -5 18 3 38 -21 26 -33 -3 -3 -5
1 -5 9 0 11 -2 11 -10 -1 -5 -8 -10 -10 -10 -3 0 6 -8 10 -17 8 -10 -1 -26 2
-35 6 -9 5 -28 10 -42 11 -21 2 -25 6 -20 23 4 15 3 17 -5 6 -10 -16 -41 -24
-41 -12 0 4 -6 8 -12 9 -46 4 -53 10 -51 43 l2 34 -14 -35 c-10 -25 -14 -29
-15 -15 -1 13 -3 15 -7 6 -5 -11 -7 -11 -14 0 -7 12 -9 11 -9 -1 0 -13 -1 -13
-10 0 -9 13 -10 13 -10 0 -1 -9 -6 -5 -15 10 -13 22 -14 23 -15 5 -1 -16 -4
-14 -16 10 l-14 30 5 -30 c4 -22 3 -26 -5 -15 -5 8 -10 11 -10 5 0 -5 -7 -1
-15 9 -11 14 -15 16 -15 5 0 -12 -2 -12 -10 1 -9 13 -10 13 -10 0 -1 -8 -10 1
-21 20 l-20 35 5 -30 c3 -16 3 -24 0 -17 -3 6 -10 10 -15 6 -5 -3 -12 2 -15
11 -5 13 -9 14 -15 4 -5 -9 -10 -4 -15 16 -6 26 -8 27 -15 10 -7 -20 -8 -20
-8 0 -1 16 -3 17 -10 6 -8 -12 -11 -8 -17 14 -6 26 -8 27 -15 10 -7 -20 -8
-20 -8 0 -1 17 -3 17 -11 5 -7 -11 -10 -11 -10 -2 0 7 -4 11 -9 7 -5 -3 -12 4
-16 15 -4 11 -11 18 -16 15 -5 -4 -9 -1 -9 5 0 6 -5 8 -10 5 -6 -3 -13 1 -16
9 -3 9 -9 14 -13 12 -4 -3 -13 -1 -21 5 -11 6 -6 9 18 9 21 0 35 -6 39 -17z
m698 -34 c95 -38 106 -44 78 -47 -35 -3 -39 -12 -22 -44 9 -16 8 -19 -3 -12
-13 8 -164 129 -183 147 -12 12 -14 13 130 -44z m1995 47 c0 -6 -187 -156
-194 -156 -4 0 0 10 9 23 18 27 11 37 -23 37 -39 0 -19 12 96 57 59 22 108 41
110 42 1 1 2 -1 2 -3z m565 -20 c-5 -17 -3 -16 9 4 10 15 15 19 16 10 0 -13 1
-13 10 0 6 9 10 10 10 3 0 -6 -13 -20 -30 -30 -16 -9 -30 -22 -30 -28 -1 -5
-7 1 -15 15 l-15 25 6 -30 c4 -21 3 -26 -4 -16 -8 11 -11 9 -17 -8 -3 -12 -11
-19 -16 -16 -5 4 -9 0 -9 -7 0 -9 -3 -9 -10 2 -8 12 -10 12 -11 -5 0 -20 -1
-20 -8 0 -7 17 -9 16 -15 -10 -6 -22 -9 -26 -17 -14 -7 12 -9 12 -9 -1 0 -12
-2 -12 -8 -2 -6 9 -12 5 -20 -13 -7 -14 -16 -24 -21 -21 -5 4 -11 3 -14 -1 -2
-5 -2 -1 1 7 13 44 11 51 -6 20 -11 -19 -23 -33 -27 -32 -4 2 -12 -2 -16 -10
-7 -10 -9 -10 -9 2 0 13 -1 13 -10 0 -8 -13 -10 -13 -10 -1 0 11 -4 9 -16 -5
-15 -18 -15 -18 -5 3 19 38 11 49 -9 13 -11 -19 -20 -28 -20 -20 -1 12 -3 12
-7 1 -5 -11 -7 -11 -14 0 -7 11 -9 10 -9 -3 0 -9 -4 -19 -9 -22 -5 -4 -7 4 -4
16 4 23 4 23 -10 -1 l-14 -23 -16 38 c-10 26 -16 32 -17 19 0 -17 -2 -17 -10
-5 -5 8 -10 11 -10 5 0 -5 5 -17 10 -25 9 -13 10 -13 11 0 0 10 3 8 9 -5 13
-30 12 -34 -10 -30 -11 2 -20 -2 -20 -8 0 -7 -4 -6 -10 3 -9 13 -10 13 -10 0
-1 -9 -6 -5 -15 10 l-15 25 6 -30 c4 -23 3 -26 -5 -15 -8 11 -11 12 -11 2 0
-7 -4 -10 -10 -7 -5 3 -10 0 -10 -7 0 -9 -3 -9 -10 2 -7 11 -10 11 -10 2 0 -7
-4 -10 -10 -7 -5 3 -10 0 -10 -7 0 -9 -3 -9 -10 2 -9 13 -10 13 -10 0 0 -13
-1 -13 -10 0 -8 12 -10 12 -10 -5 0 -17 -2 -17 -10 -5 -9 13 -10 13 -10 0 0
-12 -2 -12 -9 -2 -7 11 -9 11 -14 -2 -4 -9 -14 -13 -27 -11 -11 2 -20 0 -20
-4 0 -5 -12 -12 -27 -15 -16 -4 -37 -9 -48 -12 -15 -4 -14 -1 5 10 14 8 28 12
32 10 5 -3 8 0 8 5 0 6 3 10 8 9 4 -1 17 3 29 10 17 9 22 9 26 -1 4 -7 6 -6 6
4 1 15 43 35 64 31 4 -1 7 4 7 10 0 9 4 8 10 -2 8 -13 10 -13 10 2 0 18 53 52
64 41 3 -4 6 -1 6 6 0 7 5 9 10 6 6 -3 10 0 11 7 0 9 2 10 5 1 4 -8 12 -5 25
8 11 11 24 17 29 14 6 -4 10 0 10 7 0 9 3 9 10 -2 8 -13 10 -13 10 2 0 9 4 19
9 22 5 4 7 -4 4 -16 -4 -22 -3 -22 11 2 10 16 16 19 16 10 0 -9 6 -6 14 9 10
18 15 20 19 10 4 -10 6 -10 6 3 1 9 5 19 10 22 5 4 7 -4 4 -16 -4 -22 -3 -22
11 2 10 16 16 19 16 10 0 -9 6 -5 15 10 8 14 14 19 15 11 0 -11 4 -10 15 5 14
17 14 16 0 -13 -24 -51 -16 -62 10 -13 13 25 24 38 25 30 0 -13 1 -13 10 0 9
13 10 13 10 0 1 -12 3 -11 11 3 6 9 14 15 20 12 5 -4 9 0 9 7 1 7 8 2 16 -12
14 -23 15 -23 11 -3 -4 17 -1 21 14 18 11 -2 19 2 19 8 0 7 4 6 10 -3 5 -8 10
-19 10 -25 0 -5 -5 -3 -10 5 -9 13 -10 13 -10 0 0 -8 5 -22 10 -30 8 -13 10
-12 11 5 1 11 2 27 1 37 -2 22 29 16 40 -8 6 -15 7 -13 3 7 -3 18 0 26 10 26
11 0 14 -7 10 -21z m-2202 -199 l6 -67 -59 -30 c-32 -16 -61 -26 -64 -22 -6
10 -27 135 -23 139 4 4 132 51 133 50 1 -1 4 -32 7 -70z m1236 42 c41 -17 51
-26 51 -45 0 -28 -20 -124 -26 -124 -2 0 -29 14 -59 31 l-55 31 0 64 c0 75 5
77 89 43z m-2085 -9 c17 -6 144 -37 281 -70 227 -54 378 -93 413 -105 9 -3 -6
-21 -40 -49 l-53 -44 -26 24 c-37 36 -79 44 -219 44 -146 0 -235 13 -261 36
-18 16 -19 16 -19 0 0 -9 7 -19 17 -23 14 -5 13 -8 -5 -14 -38 -14 -24 -24 27
-21 40 3 81 -7 198 -46 187 -64 202 -67 247 -48 35 15 37 14 51 -9 8 -14 22
-36 30 -50 30 -48 47 -48 -280 -14 -104 10 -258 27 -341 38 -146 18 -154 20
-244 67 -119 62 -190 127 -190 172 0 26 7 36 33 52 82 51 303 86 381 60z
m3021 -1 c165 -23 255 -68 241 -122 -10 -41 -106 -119 -207 -168 l-94 -46
-330 -36 c-334 -37 -445 -46 -445 -40 0 16 65 113 74 109 72 -31 75 -30 256
29 142 47 182 56 222 53 49 -5 65 5 27 17 -19 7 -20 8 -3 26 9 11 14 22 10 26
-4 4 -10 3 -14 -3 -18 -29 -61 -37 -211 -41 -212 -5 -236 -9 -274 -43 l-32
-28 -48 44 -49 44 26 10 c15 5 165 44 334 85 169 41 321 79 337 84 42 13 92
13 180 0z m-2485 -103 c0 -10 -34 2 -38 13 -3 10 0 10 17 2 11 -7 21 -13 21
-15z m57 -22 c-6 -6 -47 9 -47 17 0 5 11 3 25 -3 14 -6 24 -13 22 -14z m159
-131 l23 -57 -42 -45 c-23 -25 -46 -46 -50 -46 -5 0 -24 27 -43 61 l-34 61 57
46 c32 25 59 44 62 42 2 -3 14 -30 27 -62z m1443 10 c49 -43 49 -38 -6 -127
l-25 -38 -35 33 c-54 53 -57 62 -32 129 24 67 25 68 98 3z m-1780 26 c50 0 53
-2 29 -11 -32 -11 -36 -32 -11 -47 10 -5 16 -12 13 -14 -3 -3 -59 15 -125 40
l-120 44 79 -6 c43 -3 104 -5 135 -6z m2219 6 c-3 -3 -58 -23 -123 -45 -97
-33 -115 -36 -100 -20 20 22 14 49 -12 52 -20 2 114 13 191 16 27 1 47 0 44
-3z m-2721 -242 c-2 -21 -4 -6 -4 32 0 39 2 55 4 38 2 -18 2 -50 0 -70z m26
-5 c-10 -41 -11 -40 -11 32 0 66 1 71 10 43 8 -23 8 -46 1 -75z m24 5 c-2 -21
-4 -6 -4 32 0 39 2 55 4 38 2 -18 2 -50 0 -70z m20 0 c-2 -21 -4 -6 -4 32 0
39 2 55 4 38 2 -18 2 -50 0 -70z m2901 31 c0 -37 -3 -61 -7 -55 -4 6 -7 27 -6
45 0 24 -3 32 -12 29 -8 -3 -13 3 -13 15 0 11 8 23 18 25 9 3 18 5 19 6 1 0 1
-29 1 -65z m19 29 c-3 -10 -5 -4 -5 12 0 17 2 24 5 18 2 -7 2 -21 0 -30z m30
18 c0 -11 -5 -18 -9 -15 -4 3 -5 11 -1 19 7 21 12 19 10 -4z m-3090 -73 c-2
-18 -4 -6 -4 27 0 33 2 48 4 33 2 -15 2 -42 0 -60z m20 0 c-2 -18 -4 -6 -4 27
0 33 2 48 4 33 2 -15 2 -42 0 -60z m24 20 c-2 -75 -11 -73 -11 2 0 35 3 60 7
57 3 -4 5 -30 4 -59z m149 8 c0 -45 -3 -54 -20 -59 -16 -4 -20 0 -20 20 0 14
8 32 18 40 16 14 16 14 0 9 -14 -4 -18 0 -18 19 0 18 5 25 20 25 18 0 20 -7
20 -54z m17 -28 c-2 -18 -4 -6 -4 27 0 33 2 48 4 33 2 -15 2 -42 0 -60z m20 0
c-2 -18 -4 -6 -4 27 0 33 2 48 4 33 2 -15 2 -42 0 -60z m2740 0 c-2 -18 -4 -6
-4 27 0 33 2 48 4 33 2 -15 2 -42 0 -60z m20 -10 c-2 -18 -4 -4 -4 32 0 36 2
50 4 33 2 -18 2 -48 0 -65z m120 60 c-3 -7 -5 -2 -5 12 0 14 2 19 5 13 2 -7 2
-19 0 -25z m20 -60 c-2 -18 -4 -4 -4 32 0 36 2 50 4 33 2 -18 2 -48 0 -65z
m-3170 5 c-2 -16 -4 -3 -4 27 0 30 2 43 4 28 2 -16 2 -40 0 -55z m20 0 c-2
-16 -4 -3 -4 27 0 30 2 43 4 28 2 -16 2 -40 0 -55z m283 27 c0 -27 -4 -50 -10
-50 -5 0 -10 23 -10 50 0 28 5 50 10 50 6 0 10 -22 10 -50z m17 -17 c-2 -16
-4 -5 -4 22 0 28 2 40 4 28 2 -13 2 -35 0 -50z m20 0 c-2 -16 -4 -5 -4 22 0
28 2 40 4 28 2 -13 2 -35 0 -50z m20 0 c-2 -16 -4 -5 -4 22 0 28 2 40 4 28 2
-13 2 -35 0 -50z m2543 25 c0 -42 -1 -43 -35 -45 -27 -1 -35 2 -35 15 0 15 -2
15 -10 2 -7 -11 -10 -4 -10 25 0 29 3 36 10 25 6 -9 10 -10 10 -3 0 6 15 14
33 16 17 2 33 5 35 5 1 1 2 -17 2 -40z m17 -25 c-2 -16 -4 -5 -4 22 0 28 2 40
4 28 2 -13 2 -35 0 -50z m20 -10 c-2 -16 -4 -3 -4 27 0 30 2 43 4 28 2 -16 2
-40 0 -55z m20 0 c-2 -16 -4 -3 -4 27 0 30 2 43 4 28 2 -16 2 -40 0 -55z m33
73 c0 -3 -4 -8 -10 -11 -5 -3 -10 -1 -10 4 0 6 5 11 10 11 6 0 10 -2 10 -4z
m263 -5 c11 -1 8 -39 -4 -47 -8 -4 -9 1 -5 17 6 21 5 21 -4 6 -6 -9 -15 -15
-21 -12 -5 4 -9 1 -9 -4 0 -10 21 -16 43 -12 4 0 7 -6 7 -14 0 -8 -9 -15 -21
-15 -12 0 -18 4 -13 11 4 7 1 10 -7 7 -8 -3 -13 -11 -11 -17 1 -6 -4 -11 -11
-11 -8 0 -14 7 -14 15 0 8 4 15 9 15 4 0 8 5 8 11 0 5 -5 7 -10 4 -6 -4 -10 5
-8 22 2 30 7 31 71 24z m-3316 -53 c-2 -13 -4 -5 -4 17 -1 22 1 32 4 23 2 -10
2 -28 0 -40z m20 -10 c-2 -13 -4 -3 -4 22 0 25 2 35 4 23 2 -13 2 -33 0 -45z
m20 0 c-2 -13 -4 -3 -4 22 0 25 2 35 4 23 2 -13 2 -33 0 -45z m400 0 c-2 -13
-4 -3 -4 22 0 25 2 35 4 23 2 -13 2 -33 0 -45z m20 0 c-2 -13 -4 -3 -4 22 0
25 2 35 4 23 2 -13 2 -33 0 -45z m20 0 c-2 -13 -4 -3 -4 22 0 25 2 35 4 23 2
-13 2 -33 0 -45z m20 10 c-2 -13 -4 -5 -4 17 -1 22 1 32 4 23 2 -10 2 -28 0
-40z m2840 -10 c-2 -13 -4 -3 -4 22 0 25 2 35 4 23 2 -13 2 -33 0 -45z m-3380
15 c-3 -10 -5 -4 -5 12 0 17 2 24 5 18 2 -7 2 -21 0 -30z m20 -10 c-3 -10 -5
-2 -5 17 0 19 2 27 5 18 2 -10 2 -26 0 -35z m540 0 c-3 -10 -5 -2 -5 17 0 19
2 27 5 18 2 -10 2 -26 0 -35z m20 0 c-3 -10 -5 -2 -5 17 0 19 2 27 5 18 2 -10
2 -26 0 -35z m47 41 c25 -10 19 -41 -9 -46 -22 -5 -25 -2 -25 23 0 30 6 34 34
23z m2193 -31 c-3 -10 -5 -4 -5 12 0 17 2 24 5 18 2 -7 2 -21 0 -30z m20 -10
c-3 -10 -5 -2 -5 17 0 19 2 27 5 18 2 -10 2 -26 0 -35z m20 0 c-3 -10 -5 -2
-5 17 0 19 2 27 5 18 2 -10 2 -26 0 -35z m36 38 c3 8 6 -2 6 -21 0 -23 -2 -30
-8 -21 -7 11 -9 11 -14 0 -3 -8 -6 2 -6 21 0 23 2 30 8 21 7 -11 9 -11 14 0z
m504 -38 c-3 -10 -5 -2 -5 17 0 19 2 27 5 18 2 -10 2 -26 0 -35z m20 0 c-3
-10 -5 -2 -5 17 0 19 2 27 5 18 2 -10 2 -26 0 -35z m20 10 c-3 -10 -5 -4 -5
12 0 17 2 24 5 18 2 -7 2 -21 0 -30z m-3457 8 c0 -14 -5 -18 -20 -14 -25 7
-26 20 -2 26 9 3 18 5 20 6 1 0 2 -8 2 -18z m700 -1 c0 -11 -7 -20 -15 -20 -8
0 -15 9 -15 20 0 11 7 20 15 20 8 0 15 -9 15 -20z m17 -2 c-3 -8 -6 -5 -6 6
-1 11 2 17 5 13 3 -3 4 -12 1 -19z m2060 -10 c-3 -7 -5 -2 -5 12 0 14 2 19 5
13 2 -7 2 -19 0 -25z m20 0 c-3 -7 -5 -2 -5 12 0 14 2 19 5 13 2 -7 2 -19 0
-25z m20 0 c-3 -7 -5 -2 -5 12 0 14 2 19 5 13 2 -7 2 -19 0 -25z m287 1 c-3
-43 -11 -46 -12 -4 -1 19 2 35 6 35 5 0 7 -14 6 -31z m373 -1 c-3 -7 -5 -2 -5
12 0 14 2 19 5 13 2 -7 2 -19 0 -25z m20 10 c-3 -8 -6 -5 -6 6 -1 11 2 17 5
13 3 -3 4 -12 1 -19z m-3547 2 c0 -5 -2 -10 -4 -10 -3 0 -8 5 -11 10 -3 6 -1
10 4 10 6 0 11 -4 11 -10z m840 0 c0 -5 -4 -10 -10 -10 -5 0 -10 5 -10 10 0 6
5 10 10 10 6 0 10 -4 10 -10z m45 0 c-27 -12 -35 -12 -35 0 0 6 12 10 28 9 24
0 25 -1 7 -9z m1835 0 c0 -13 -11 -13 -30 0 -12 8 -11 10 8 10 12 0 22 -4 22
-10z m70 0 c0 -5 -4 -10 -10 -10 -5 0 -10 5 -10 10 0 6 5 10 10 10 6 0 10 -4
10 -10z m434 -15 c3 -8 1 -15 -4 -15 -6 0 -10 7 -10 15 0 8 2 15 4 15 2 0 6
-7 10 -15z m43 -37 c-2 -13 -4 -5 -4 17 -1 22 1 32 4 23 2 -10 2 -28 0 -40z
m-2247 35 c0 -5 -14 -32 -30 -61 l-31 -52 -29 15 c-16 8 -40 15 -53 15 -13 0
-99 -25 -192 -56 -134 -44 -178 -55 -212 -51 -45 5 -59 -7 -21 -19 19 -6 19
-7 5 -16 -10 -5 -17 -16 -17 -24 0 -11 7 -9 30 8 28 20 45 23 218 29 103 3
196 10 207 14 11 4 32 19 46 31 l25 24 52 -44 52 -45 -53 -15 c-28 -8 -182
-47 -342 -86 -159 -39 -307 -76 -327 -82 -44 -13 -201 4 -292 32 -106 33 -131
81 -75 144 57 66 240 165 314 171 22 2 162 17 310 34 149 17 293 32 320 34 28
2 60 4 73 5 12 1 22 -1 22 -5z m1855 -24 c110 -11 245 -26 300 -33 55 -7 105
-11 112 -9 17 7 174 -69 243 -118 68 -47 105 -98 95 -129 -3 -11 -25 -31 -48
-44 -75 -43 -295 -78 -359 -57 -18 6 -171 45 -340 86 -170 41 -322 81 -339 88
l-31 12 52 44 c46 38 54 42 62 28 22 -41 66 -50 265 -57 154 -5 196 -10 217
-23 33 -22 43 -21 22 2 -16 17 -15 19 6 33 22 15 20 15 -27 11 -42 -4 -77 4
-216 51 -92 31 -178 56 -190 56 -13 0 -37 -7 -53 -15 -16 -9 -30 -14 -31 -13
-7 8 -65 110 -65 114 0 6 27 4 325 -27z m442 -6 c-3 -10 -5 -4 -5 12 0 17 2
24 5 18 2 -7 2 -21 0 -30z m-2220 -21 l41 -48 -24 -59 c-13 -32 -26 -60 -28
-62 -6 -6 -106 88 -106 100 0 17 59 117 69 117 4 0 26 -22 48 -48z m1451 21
c11 -16 27 -44 37 -63 l18 -34 -49 -43 c-27 -23 -54 -43 -60 -43 -11 0 -54 91
-54 113 0 11 71 95 82 96 4 1 15 -11 26 -26z m749 8 c0 -11 -5 -18 -9 -15 -4
3 -5 11 -1 19 7 21 12 19 10 -4z m-2495 -107 c-30 -21 -28 -40 6 -52 21 -8 1
-11 -90 -11 -64 -1 -125 -4 -135 -8 -10 -3 -15 -3 -12 0 6 7 228 86 244 87 5
0 -1 -7 -13 -16z m2068 -20 c57 -19 111 -40 120 -45 12 -9 12 -10 -3 -5 -10 3
-69 6 -130 7 -88 0 -107 3 -89 11 26 13 28 25 5 50 -9 10 -14 18 -11 18 3 0
51 -16 108 -36z m-1804 -174 l-12 -65 -37 3 c-47 4 -78 -13 -205 -116 -131
-106 -172 -132 -204 -132 -16 0 -28 -4 -28 -10 0 -5 12 -10 27 -10 21 0 24 -3
15 -12 -7 -7 -12 -18 -12 -25 0 -8 15 2 34 21 26 25 74 50 192 96 182 71 197
80 218 125 l17 34 57 -21 c31 -12 59 -23 62 -25 7 -7 -26 -31 -315 -225 -148
-99 -280 -189 -292 -198 -38 -30 -198 -65 -294 -65 -72 0 -91 3 -108 19 -12
11 -21 27 -21 36 0 39 65 142 138 219 l77 81 255 127 c247 122 443 214 446
210 1 -1 -4 -31 -10 -67z m97 39 l57 -30 -7 -62 c-3 -34 -7 -64 -9 -66 -4 -5
-99 28 -117 42 -15 11 -15 20 -5 80 6 37 14 67 18 67 3 0 32 -14 63 -31z
m1320 17 c3 -8 9 -41 13 -74 l6 -58 -57 -22 c-85 -33 -85 -33 -85 46 l0 68 53
26 c62 32 63 32 70 14z m402 -171 l310 -152 82 -86 c45 -47 93 -108 107 -136
56 -109 22 -148 -119 -138 -162 12 -220 35 -414 163 -238 158 -470 318 -471
325 0 3 24 13 53 23 28 9 57 20 64 22 7 3 15 -6 19 -20 10 -42 55 -71 186
-121 154 -59 236 -102 243 -126 4 -11 11 -17 16 -14 5 4 5 14 -1 26 -9 16 -7
19 9 19 11 0 23 5 26 10 4 6 -6 10 -22 10 -37 0 -89 34 -232 148 -112 90 -155
111 -200 99 -21 -5 -24 3 -36 85 l-7 48 38 -16 c22 -9 179 -85 349 -169z
m-1945 140 c-14 -7 -27 -11 -30 -9 -6 7 22 24 40 23 9 0 5 -6 -10 -14z m1726
0 c17 -13 16 -14 -13 -4 -34 11 -42 19 -20 19 7 0 22 -7 33 -15z m-1781 -22
c-19 -13 -31 -11 -21 5 3 5 13 9 22 9 15 0 15 -2 -1 -14z m1825 4 c0 18 40 3
40 -16 0 -14 2 -14 10 -1 9 13 10 13 10 0 0 -13 1 -13 10 0 8 13 10 13 10 -2
0 -27 -18 -30 -40 -8 -12 12 -20 15 -20 8 0 -10 -2 -10 -9 0 -4 8 -12 13 -17
12 -5 -1 -10 4 -12 12 -2 9 0 8 7 -2 6 -9 11 -10 11 -3z m-1869 -6 c6 10 9 10
9 2 0 -7 -9 -17 -20 -23 -11 -6 -20 -7 -20 -3 0 4 -5 1 -10 -7 -9 -13 -10 -13
-10 0 -1 8 -6 4 -11 -10 -10 -25 -11 -25 -26 -5 -15 19 -15 19 -8 -4 5 -16 4
-21 -4 -17 -6 4 -11 2 -11 -4 0 -6 -4 -8 -10 -5 -5 3 -10 0 -11 -7 0 -7 -7 1
-15 17 l-15 30 6 -27 c7 -37 0 -36 -13 1 -9 26 -8 29 9 26 10 -2 19 0 19 4 0
4 6 8 13 9 6 0 22 3 35 6 12 3 32 8 43 11 12 2 24 7 28 10 3 4 7 1 10 -6 2 -8
6 -7 12 2z m1980 -20 c7 11 9 11 9 1 0 -7 5 -10 10 -7 12 7 12 -2 0 -30 l-9
-20 0 20 c-1 17 -3 17 -11 5 -7 -11 -10 -11 -10 -2 0 7 -4 10 -10 7 -12 -7
-12 -3 -3 21 5 13 8 14 11 5 4 -11 6 -11 13 0z m44 -31 c-4 -12 -9 -19 -12
-17 -3 3 -2 15 2 27 4 12 9 19 12 17 3 -3 2 -15 -2 -27z m20 -7 l-6 -28 16 30
15 30 -5 -30 -5 -30 15 25 15 25 -5 -30 -6 -30 15 30 c8 17 15 23 15 15 0 -8
-6 -26 -14 -40 -8 -14 -14 -19 -15 -12 0 7 -4 10 -10 7 -5 -3 -10 -1 -10 5 0
6 -4 9 -9 5 -14 -8 -23 12 -16 35 9 30 16 24 10 -7z m-2222 -11 c9 -20 8 -26
-7 -38 -11 -7 -23 -11 -27 -8 -5 3 -9 0 -9 -6 0 -6 -4 -8 -10 -5 -5 3 -10 0
-11 -7 0 -10 -2 -10 -6 1 -4 10 -9 8 -19 -10 -8 -15 -13 -18 -14 -9 0 13 -1
13 -10 0 -9 -13 -10 -13 -10 0 0 13 -1 13 -10 0 -9 -13 -10 -13 -10 0 -1 8 -9
-1 -20 -20 -11 -19 -19 -29 -20 -21 0 11 -4 9 -15 -5 -8 -10 -15 -14 -15 -9 0
6 -5 3 -10 -5 -8 -13 -10 -13 -10 -1 0 11 -4 9 -15 -5 -14 -18 -14 -17 -3 9 7
17 14 23 18 16 5 -7 9 -5 14 6 9 26 7 42 -4 25 -9 -13 -10 -13 -10 0 -1 8 -12
-7 -26 -33 -14 -26 -29 -45 -34 -42 -6 4 -10 0 -10 -7 0 -9 -3 -9 -10 2 -9 13
-10 13 -10 0 0 -13 -1 -13 -10 0 -9 13 -10 13 -10 0 0 -13 -1 -13 -10 0 -9 13
-10 13 -10 0 0 -13 -1 -13 -10 0 -8 12 -10 12 -10 -5 -1 -12 -9 -3 -21 25 -11
25 -17 35 -14 23 15 -66 15 -68 0 -38 l-16 30 6 -30 c4 -22 3 -26 -5 -15 -8
13 -10 12 -10 -5 -1 -16 -4 -14 -15 10 l-14 30 5 -30 c4 -25 3 -27 -6 -12 -12
19 -4 61 11 52 5 -4 9 0 9 7 0 11 2 10 9 0 6 -10 10 -8 14 8 3 12 10 19 16 15
6 -3 11 0 11 7 1 7 7 2 15 -12 9 -15 14 -19 15 -10 0 12 2 12 9 2 7 -11 10
-10 15 3 9 26 7 42 -4 25 -5 -8 -10 -10 -10 -5 0 6 5 17 10 25 9 13 10 13 10
0 0 -13 1 -13 10 0 9 13 10 13 10 0 1 -8 7 -3 16 13 23 42 27 32 4 -13 -11
-21 -20 -45 -20 -52 1 -7 14 12 30 42 16 30 29 48 30 40 0 -13 1 -13 10 0 9
13 10 13 10 0 1 -9 6 -5 15 10 9 15 14 19 15 10 0 -13 1 -13 10 0 8 13 10 13
10 1 0 -11 4 -9 16 5 15 18 15 18 5 -3 -16 -32 -12 -52 4 -23 9 16 15 20 15
10 1 -8 8 -1 15 15 11 24 14 26 15 10 l1 -20 9 20 9 20 1 -20 1 -20 9 20 9 20
1 -20 c1 -14 3 -16 7 -5 15 41 60 48 76 12z m2317 8 c0 13 1 13 10 0 9 -13 10
-13 10 0 0 12 2 12 9 2 4 -8 12 -13 17 -12 4 1 11 -7 15 -17 7 -17 8 -16 9 2
1 16 4 14 15 -10 7 -16 14 -23 15 -15 0 10 6 6 15 -10 16 -29 20 -9 4 23 -10
21 -10 21 5 3 12 -15 16 -16 16 -5 1 8 7 3 15 -11 9 -15 14 -19 15 -10 0 13 1
13 11 0 9 -12 10 -11 6 8 -8 36 1 25 25 -30 12 -28 24 -46 26 -39 4 11 6 10
13 0 7 -12 9 -11 9 1 0 8 -5 22 -10 30 -9 13 -10 13 -10 0 -1 -16 -29 28 -29
45 0 6 6 -1 14 -15 9 -15 15 -19 15 -10 0 9 6 5 15 -10 13 -22 14 -23 15 -5
l1 20 9 -20 c6 -13 9 -15 9 -5 1 12 3 12 10 2 4 -8 12 -13 17 -12 4 1 11 -7
15 -17 6 -13 8 -14 8 -3 1 12 3 12 10 2 4 -8 12 -14 17 -15 5 -1 8 -15 7 -32
l-2 -30 13 30 c8 17 15 23 15 15 0 -8 -6 -26 -14 -40 -8 -14 -14 -20 -15 -14
0 7 -13 10 -30 9 -16 -1 -30 1 -30 5 0 4 -10 7 -22 6 -11 0 -23 6 -25 14 -4
12 -3 13 5 1 8 -11 11 -9 17 8 4 13 4 25 1 28 -3 4 -6 0 -6 -8 0 -12 -2 -12
-9 0 -8 12 -11 9 -16 -12 -7 -26 -8 -25 -35 30 -16 32 -29 52 -29 45 -1 -7 8
-30 19 -52 21 -40 27 -67 10 -40 -9 13 -10 13 -10 0 -1 -8 -12 5 -26 30 -23
41 -27 35 -9 -15 5 -16 5 -17 -4 -5 -6 8 -11 11 -11 5 0 -5 -7 -1 -15 9 -8 11
-15 16 -15 10 0 -5 -7 0 -15 10 -11 14 -15 16 -15 5 -1 -8 -7 -3 -15 11 -9 15
-14 19 -15 10 0 -13 -1 -13 -10 0 -5 8 -10 11 -10 5 0 -5 -7 -1 -15 9 -11 14
-15 16 -15 5 0 -11 -2 -12 -9 -1 -4 8 -12 14 -17 13 -5 0 -8 14 -7 32 l2 32
-13 -30 c-8 -16 -15 -25 -15 -18 -1 7 4 24 11 38 8 18 14 22 20 13 6 -10 8
-10 8 2z m-2071 -81 c-13 -25 -4 -36 31 -41 18 -2 -12 -17 -100 -50 l-125 -47
40 32 c21 18 64 53 95 79 60 52 77 59 59 27z m1868 -69 c45 -36 80 -66 79 -67
-1 -1 -56 19 -122 45 -94 37 -113 48 -90 50 26 3 28 6 22 33 -7 35 -13 38 111
-61z m-1416 42 c4 -4 14 -31 24 -61 20 -61 14 -71 -41 -71 -78 0 -89 7 -102
69 -18 88 -21 85 51 77 34 -4 65 -10 68 -14z m979 -8 c0 -14 -5 -45 -11 -69
-12 -46 -29 -55 -103 -55 -54 0 -58 9 -35 78 20 58 22 61 57 65 90 9 92 9 92
-19z m-1116 -31 c3 -27 7 -56 8 -66 2 -13 -8 -22 -37 -32 -49 -17 -58 -29
-146 -176 -76 -127 -132 -199 -155 -199 -8 0 -14 -5 -14 -10 0 -6 10 -8 24 -4
21 5 23 3 19 -20 -3 -15 -1 -26 6 -26 6 0 11 9 11 20 0 34 27 66 157 182 131
116 163 155 163 201 0 27 1 27 65 27 36 0 65 -4 65 -9 0 -9 -146 -213 -345
-484 -99 -136 -115 -152 -189 -201 -134 -87 -232 -118 -271 -86 -38 31 -7 190
66 332 23 45 539 598 558 598 5 0 11 -21 15 -47z m1569 -391 c110 -116 143
-167 187 -292 28 -78 33 -186 10 -200 -27 -17 -88 -11 -146 15 -67 30 -220
130 -227 150 -3 7 -57 82 -120 166 -142 191 -277 379 -300 419 l-18 30 68 0
68 0 2 -34 c2 -49 22 -75 132 -170 125 -110 176 -164 189 -201 l10 -30 1 28
c1 24 4 27 26 21 14 -3 25 -2 25 4 0 5 -11 13 -25 16 -27 7 -82 81 -170 229
-63 106 -102 147 -142 147 -24 0 -25 2 -18 48 15 106 1 112 179 -69 89 -90
210 -215 269 -277z m627 348 c0 12 2 12 9 2 4 -8 12 -13 17 -12 5 1 10 -4 12
-12 2 -8 1 -9 -5 -2 -4 5 -25 10 -45 9 -21 -1 -38 0 -38 1 0 2 6 15 12 30 l12
27 13 -29 c7 -16 12 -22 13 -14z m-3245 -18 c-3 -3 -5 1 -5 9 0 12 -2 11 -11
-1 -9 -12 -10 -12 -5 3 3 10 6 24 7 30 0 7 5 1 10 -12 5 -13 7 -26 4 -29z
m930 28 c-10 -11 -23 -20 -29 -20 -6 1 0 10 13 20 30 26 39 26 16 0z m1416
-32 c5 -10 14 -16 20 -13 5 4 12 -1 15 -9 3 -9 11 -13 17 -9 6 4 8 0 5 -9 -4
-8 0 -15 8 -15 7 0 11 5 8 11 -3 6 2 2 10 -8 9 -11 16 -17 16 -13 0 4 10 -1
22 -12 18 -18 19 -23 7 -38 -13 -17 -12 -17 6 -2 23 19 47 15 39 -6 -4 -10 0
-13 16 -10 17 3 20 0 16 -12 -5 -13 -4 -14 8 -4 12 10 16 8 21 -9 3 -11 11
-18 16 -15 5 4 6 -2 2 -12 -6 -16 -5 -16 10 -4 14 11 18 11 23 -3 3 -9 10 -13
15 -10 5 3 12 -2 15 -10 3 -9 10 -13 15 -10 5 3 12 -2 15 -10 3 -9 10 -14 14
-11 5 3 13 -3 19 -12 5 -10 13 -17 18 -16 4 1 6 -6 5 -15 -3 -13 -1 -14 12 -3
9 8 16 11 16 7 0 -3 0 -8 0 -11 0 -3 -2 -4 -3 -2 -7 4 -37 -25 -37 -35 0 -6 7
-5 15 2 8 7 15 9 15 5 0 -4 6 -3 13 2 6 5 18 9 25 9 15 -1 16 -21 0 -21 -6 0
-13 -5 -15 -12 -4 -12 14 -12 34 0 9 5 17 -1 24 -17 7 -14 16 -23 22 -19 6 3
7 1 3 -6 -4 -6 -12 -9 -17 -6 -5 3 -6 -1 -3 -10 5 -12 10 -13 20 -4 11 9 16 5
25 -15 7 -14 16 -23 20 -20 5 3 6 -3 2 -12 -4 -12 -3 -15 5 -10 8 5 10 1 5
-10 -4 -12 -3 -15 6 -10 9 6 9 3 -1 -13 -7 -12 -14 -17 -16 -11 -2 6 -8 8 -13
4 -5 -3 -9 0 -9 6 0 6 -4 8 -10 5 -6 -4 -7 1 -3 12 6 15 4 16 -9 5 -20 -16
-37 3 -19 21 8 8 11 8 11 0 0 -13 25 -11 37 2 4 4 2 5 -4 1 -13 -7 -17 5 -14
33 2 7 -3 10 -9 6 -6 -4 -9 -14 -5 -23 3 -9 3 -13 -1 -9 -4 4 -16 0 -26 -10
-13 -12 -18 -13 -18 -3 0 7 -3 10 -6 7 -13 -13 -43 13 -37 31 6 14 4 15 -9 4
-13 -10 -18 -10 -24 -1 -4 7 -3 9 4 5 6 -3 13 -2 17 4 4 6 11 8 16 5 5 -3 6 1
3 10 -5 12 -9 13 -20 4 -8 -6 -14 -8 -14 -4 0 4 -6 2 -14 -4 -11 -9 -17 -8
-28 7 -7 11 -17 20 -22 20 -5 0 -16 12 -26 26 -9 15 -20 23 -24 19 -4 -5 -7
-3 -6 2 5 21 0 36 -9 30 -12 -7 -22 9 -26 40 -1 15 2 22 8 18 6 -3 7 -1 3 5
-3 6 -2 13 4 17 5 3 10 11 10 17 0 7 -4 7 -13 -1 -8 -6 -16 -9 -19 -6 -3 3
-11 -3 -19 -12 -13 -16 -12 -17 4 -4 18 14 18 11 7 -39 0 -3 -7 3 -15 13 -7
11 -11 26 -7 35 5 15 4 16 -14 2 -18 -14 -18 -14 -5 2 7 10 17 16 21 13 5 -3
12 0 16 6 5 8 3 9 -6 4 -10 -6 -12 -4 -6 11 6 16 3 15 -18 -5 l-25 -23 -50 50
c-38 38 -49 56 -44 69 6 16 5 17 -13 3 -10 -8 -16 -11 -12 -6 4 4 -23 37 -60
73 -37 36 -54 57 -39 48 15 -10 32 -26 38 -37z m-2383 10 c-2 -6 -15 -13 -29
-15 -18 -2 -20 -1 -9 6 8 5 18 7 22 5 4 -3 8 0 8 5 0 6 3 11 6 11 3 0 4 -5 2
-12z m911 -29 c-13 -10 -28 -19 -32 -19 -5 0 -5 -6 -1 -12 5 -9 2 -8 -9 1 -15
12 -17 12 -11 -2 4 -11 -11 -33 -44 -66 -27 -27 -47 -53 -43 -57 3 -4 1 -4 -6
0 -7 4 -14 -2 -18 -15 -7 -20 -8 -20 -26 -3 -22 20 -49 27 -49 14 0 -5 5 -12
10 -15 6 -3 10 0 10 7 0 9 5 8 16 -4 13 -13 14 -20 4 -38 -11 -21 -12 -21 -31
-4 -10 9 -19 12 -19 6 0 -6 5 -14 10 -17 7 -4 7 -13 0 -26 -6 -11 -14 -17 -19
-15 -4 3 -15 -9 -25 -25 -12 -21 -21 -27 -29 -20 -7 5 -16 11 -22 13 -5 1 -9
8 -7 13 2 6 -2 5 -9 -2 -10 -10 -9 -15 1 -27 7 -9 17 -13 23 -9 6 3 7 1 3 -6
-4 -6 -12 -9 -17 -5 -6 3 -9 -2 -7 -12 3 -20 -19 -26 -39 -11 -9 6 -13 6 -13
-1 0 -6 5 -14 10 -17 6 -4 8 -11 4 -16 -3 -5 -9 -7 -14 -4 -4 3 -11 -2 -14
-11 -6 -15 -8 -15 -25 0 -17 15 -19 15 -25 1 -3 -9 -2 -13 3 -10 5 3 13 0 17
-7 4 -7 4 -10 0 -6 -4 3 -16 -2 -27 -13 -11 -11 -24 -17 -29 -14 -6 4 -10 1
-10 -6 0 -8 -4 -8 -15 1 -18 15 -20 34 -2 23 22 -14 36 -12 29 5 -5 14 -3 15
9 5 12 -10 15 -8 15 7 0 10 -4 16 -8 14 -4 -3 -5 1 -2 9 3 8 -2 20 -11 27 -9
8 -15 8 -15 2 0 -6 4 -13 10 -17 5 -3 7 -12 3 -21 -5 -13 -8 -12 -27 3 -21 18
-21 18 -4 -3 21 -24 24 -39 6 -27 -17 10 -38 13 -38 5 0 -3 8 -14 17 -25 17
-18 17 -19 -1 -33 -10 -7 -22 -11 -27 -9 -4 3 -9 2 -12 -2 -2 -5 -2 -3 -1 4 2
7 -2 15 -8 19 -7 4 -8 3 -4 -4 7 -12 -27 -52 -45 -52 -7 0 0 11 15 25 15 14
23 25 19 25 -4 0 1 7 11 15 11 8 17 15 13 15 -4 0 1 9 10 19 9 11 21 18 25 14
5 -3 8 1 6 8 -1 8 6 24 17 36 14 17 22 20 32 11 9 -7 13 -7 13 0 0 6 -5 14
-10 17 -10 6 44 68 55 63 4 -2 11 5 16 15 6 9 14 15 19 12 4 -3 11 2 14 11 3
8 10 12 16 9 5 -3 10 -2 10 4 0 11 49 48 70 53 7 2 22 11 32 21 10 10 23 15
28 12 5 -3 12 4 15 16 l7 21 23 -22 c16 -15 25 -18 30 -10 4 7 2 17 -4 23 -17
17 -13 25 20 43 17 8 29 12 26 6 -4 -5 0 -9 8 -9 8 0 12 4 10 8 -3 4 -2 14 1
23 5 13 9 14 20 5 12 -9 13 -9 9 3 -4 9 4 21 19 32 15 9 26 13 26 9 0 -5 5 0
11 10 6 9 15 14 21 11 7 -4 2 -14 -13 -25z m554 -38 c20 -27 37 -51 37 -54 0
-5 -70 -35 -111 -47 -23 -7 -29 -3 -57 44 -44 75 -44 77 13 91 75 19 77 18
118 -34z m495 33 c23 -4 42 -11 42 -16 0 -6 -16 -37 -35 -69 l-36 -58 -54 19
c-92 32 -91 29 -44 89 33 41 47 51 63 47 12 -3 40 -8 64 -12z m-251 -61 l57
-36 -35 -29 c-18 -16 -45 -38 -59 -48 l-26 -19 -54 49 c-30 26 -53 50 -50 53
7 6 103 67 107 67 1 0 28 -16 60 -37z m-393 -29 l29 -56 -31 -25 c-36 -28 -50
-68 -82 -234 -28 -148 -47 -206 -73 -224 -17 -12 -18 -15 -5 -15 9 0 20 5 24
11 4 7 12 1 20 -17 l12 -29 1 40 c1 40 14 69 129 288 52 96 62 140 42 177 -9
16 -2 21 52 39 34 11 63 19 65 17 7 -7 -140 -537 -181 -655 -9 -24 -16 -51
-16 -60 0 -39 -143 -218 -208 -261 -59 -39 -89 -37 -117 10 -18 31 -20 52 -20
190 0 139 2 160 22 200 12 25 61 135 108 245 104 239 186 415 194 415 3 0 19
-25 35 -56z m756 -46 c26 -57 99 -220 161 -363 l113 -260 0 -130 c1 -182 -25
-245 -94 -230 -78 17 -237 213 -269 332 -10 37 -50 176 -89 308 -76 261 -103
365 -94 365 3 0 31 -10 64 -21 52 -19 58 -24 51 -43 -17 -47 -3 -91 75 -235
90 -166 104 -203 95 -239 -4 -17 -2 -23 6 -18 6 4 11 16 11 27 0 18 1 19 25 3
30 -19 33 -9 6 20 -25 28 -45 94 -76 255 -23 118 -47 190 -65 191 -3 0 -13 7
-23 14 -17 13 -17 17 13 70 18 31 34 56 37 56 2 0 26 -46 53 -102z m-1320 10
c0 -6 -7 -5 -15 2 -8 7 -15 17 -15 22 0 6 7 5 15 -2 8 -7 15 -17 15 -22z m237
13 c-8 -31 6 -43 36 -32 15 6 27 9 27 7 0 -2 -46 -44 -102 -92 -57 -49 -95
-77 -86 -62 10 15 40 65 68 112 50 84 67 105 57 67z m1391 -87 c34 -58 58
-104 54 -102 -15 6 -180 153 -181 161 -1 4 8 3 19 -3 27 -14 43 -3 37 26 -2
13 -1 24 2 24 3 0 34 -48 69 -106z m-589 -149 c6 -82 14 -199 17 -260 3 -60 9
-146 14 -190 6 -64 3 -95 -12 -155 -41 -157 -110 -280 -158 -280 -50 0 -117
110 -159 259 -20 72 -20 79 -6 315 8 133 19 296 25 364 5 68 10 134 10 148 0
33 18 30 69 -15 l44 -39 -22 -27 c-27 -35 -27 -90 -1 -250 22 -130 26 -230 10
-240 -5 -3 -10 -12 -10 -18 1 -7 9 -2 19 10 l19 23 16 -23 c15 -20 16 -20 11
-2 -17 51 -15 92 9 253 27 176 26 209 -4 251 -17 24 -17 25 34 67 l51 41 6
-41 c4 -22 12 -108 18 -191z m-586 205 c-5 -19 -23 -39 -23 -25 0 9 20 45 24
45 2 0 2 -9 -1 -20z m911 -29 c-6 -6 -24 19 -24 34 1 6 7 1 15 -9 8 -11 12
-22 9 -25z m-939 -21 c-3 -5 -12 -10 -18 -10 -7 0 -6 4 3 10 19 12 23 12 15 0z
m965 -5 c7 -8 10 -15 7 -15 -3 0 5 -12 19 -27 14 -15 23 -32 20 -39 -3 -9 1
-11 11 -7 11 4 14 2 9 -5 -4 -7 -3 -12 3 -12 13 0 42 -55 34 -64 -11 -11 -12
-36 -2 -36 6 0 7 -4 4 -10 -3 -5 -11 -10 -17 -10 -6 0 -8 3 -5 7 4 3 -1 12
-11 19 -16 12 -16 14 2 27 18 13 18 14 -3 13 -17 -1 -26 8 -35 36 -10 27 -10
40 -2 48 8 8 6 9 -8 4 -13 -5 -17 -4 -12 4 4 7 2 12 -6 12 -11 0 -10 2 0 9 11
6 10 10 -4 15 -9 3 -14 9 -11 13 4 3 -1 12 -11 19 -9 7 -12 14 -6 14 6 0 17
-7 24 -15z m-978 -22 c-6 -2 -10 -9 -6 -14 3 -5 -1 -12 -10 -15 -8 -3 -13 -14
-11 -25 3 -16 0 -19 -18 -14 -19 5 -20 5 -5 -5 17 -10 17 -13 -2 -50 -23 -44
-23 -45 -52 -29 -12 7 -18 7 -14 1 3 -6 1 -12 -6 -14 -7 -3 -5 -7 6 -11 10 -4
15 -3 11 3 -8 13 5 13 25 0 11 -7 11 -10 2 -10 -7 0 -10 -4 -7 -10 8 -13 -1
-13 -28 0 -22 11 -22 11 0 -6 21 -15 22 -18 7 -46 -12 -23 -20 -28 -37 -23
-20 5 -19 4 3 -9 14 -9 19 -15 12 -16 -7 0 -10 -5 -7 -10 3 -6 0 -13 -9 -16
-8 -3 -13 -14 -11 -25 2 -11 -2 -22 -10 -25 -7 -3 -12 -14 -10 -25 2 -10 -4
-23 -13 -29 -9 -5 -12 -10 -7 -10 6 0 -1 -10 -15 -21 -21 -17 -22 -20 -5 -15
19 6 19 5 3 -7 -10 -8 -15 -17 -12 -20 4 -3 -5 -12 -19 -18 -15 -7 -24 -16
-21 -20 3 -5 -3 -6 -13 -2 -15 6 -16 4 -6 -8 9 -11 7 -19 -12 -37 -15 -14 -29
-21 -37 -16 -8 5 -7 1 2 -11 15 -18 14 -18 -19 -1 -18 10 -30 13 -27 7 4 -6 2
-11 -4 -11 -7 0 -10 6 -7 13 2 6 11 11 20 11 9 -1 14 2 11 7 -7 12 3 11 28 -2
12 -7 18 -7 14 -1 -3 6 -1 12 5 14 6 2 -1 9 -16 16 -14 7 -24 8 -21 3 6 -10
-24 -25 -32 -16 -3 3 0 5 7 5 7 0 9 5 6 10 -3 6 -2 10 4 10 5 0 8 9 6 19 -3
15 0 18 13 14 15 -6 15 -5 3 10 -11 14 -11 18 4 23 13 5 14 9 3 15 -10 7 -11
9 0 9 7 0 11 4 7 9 -3 6 3 14 12 20 14 8 15 11 3 11 -12 0 -11 3 3 11 9 6 15
14 12 20 -3 5 1 6 9 3 11 -4 14 0 11 16 -3 15 3 24 20 32 13 6 22 15 19 20 -3
4 2 11 11 14 12 5 13 9 5 14 -9 5 -6 10 9 15 12 3 19 10 16 15 -3 5 3 18 15
30 11 11 17 20 13 20 -5 0 1 7 11 15 11 8 17 15 13 15 -4 0 1 9 12 21 16 17
23 19 43 9 22 -11 22 -11 -2 10 -19 17 -21 20 -6 16 15 -5 17 -4 7 8 -9 11 -8
15 5 20 9 3 21 3 27 -1 7 -4 7 0 -1 9 -11 14 -10 20 7 37 12 12 18 21 14 21
-5 0 1 7 11 15 11 8 25 15 30 14 6 0 5 -3 -2 -6z m333 -43 c-4 -12 -9 -19 -12
-17 -3 3 -2 15 2 27 4 12 9 19 12 17 3 -3 2 -15 -2 -27z m317 5 c3 -14 1 -25
-3 -25 -5 0 -9 11 -9 25 0 14 2 25 4 25 2 0 6 -11 8 -25z m-509 -65 c6 0 19 8
30 18 11 9 18 13 16 7 -8 -19 -121 -225 -123 -225 -3 0 4 39 36 200 10 52 11
53 20 28 5 -16 15 -28 21 -28z m742 -65 c9 -49 19 -101 22 -115 3 -14 -23 25
-57 85 -34 61 -65 114 -68 119 -3 5 5 2 19 -7 34 -24 49 -21 49 11 1 47 17 4
35 -93z m-559 58 c-2 -9 -8 -18 -15 -19 -6 -1 -7 0 -2 2 6 3 7 12 4 20 -3 8
-1 14 5 14 6 0 9 -8 8 -17z m339 7 c3 -5 2 -10 -4 -10 -5 0 -13 5 -16 10 -3 6
-2 10 4 10 5 0 13 -4 16 -10z m-179 -60 c7 0 18 9 24 21 7 11 13 19 15 17 2
-1 -6 -57 -16 -123 -10 -66 -19 -124 -20 -130 -2 -16 -38 207 -38 235 l0 25
11 -22 c6 -13 17 -23 24 -23z m-170 13 c-15 -4 -16 -7 -5 -14 12 -7 12 -9 -1
-9 -13 0 -13 -1 0 -10 12 -8 12 -10 -5 -11 l-20 0 20 -9 20 -9 -20 -1 -20 -1
20 -9 20 -9 -20 -1 -20 -1 20 -10 c18 -8 18 -8 -5 -6 -26 2 -27 6 -14 75 5 25
11 32 28 31 19 -1 19 -2 2 -6z m361 1 c-3 -3 -12 -4 -19 -1 -8 3 -5 6 6 6 11
1 17 -2 13 -5z m428 -4 c-3 -5 -1 -10 5 -10 6 0 9 -3 7 -7 -3 -5 6 -17 18 -28
21 -17 22 -20 7 -32 -14 -11 -14 -13 -2 -12 37 4 44 -1 24 -16 -18 -14 -18
-15 6 -12 20 2 25 -2 24 -21 -1 -15 3 -21 11 -18 17 6 26 -4 18 -18 -12 -18
-11 -57 1 -53 6 2 10 13 10 25 -1 12 3 19 7 16 5 -3 7 -9 4 -14 -3 -4 2 -11
11 -14 9 -4 14 -9 10 -13 -3 -3 3 -12 13 -20 12 -8 18 -22 16 -33 -2 -11 0
-20 5 -20 5 0 7 -9 5 -19 -2 -11 3 -22 11 -25 9 -3 12 -10 9 -16 -3 -5 -2 -10
4 -10 5 0 8 -9 6 -20 -2 -11 1 -20 6 -20 6 0 7 -4 4 -10 -3 -5 0 -10 7 -10 9
0 9 -3 -2 -10 -11 -7 -11 -10 -2 -10 7 0 10 -4 7 -10 -3 -5 0 -10 7 -10 11 0
10 -2 0 -9 -11 -7 -10 -9 3 -15 9 -3 13 -10 10 -16 -3 -5 -2 -10 2 -10 5 0 9
-10 10 -22 2 -22 2 -22 -9 -3 -6 11 -17 24 -25 28 -7 5 -11 12 -8 18 4 5 2 9
-4 9 -14 0 -67 51 -63 61 1 5 -3 9 -9 9 -5 0 -7 5 -4 10 3 6 2 10 -2 10 -5 0
-17 6 -28 13 -14 11 -15 16 -5 22 9 5 11 4 6 -3 -10 -17 7 -15 30 4 17 14 17
15 1 10 -11 -3 -16 -2 -12 4 8 13 -1 13 -24 1 -13 -7 -18 -6 -18 4 0 7 6 11
12 9 8 -3 11 5 11 22 -1 15 -8 30 -15 32 -8 3 -11 0 -7 -7 4 -7 1 -9 -8 -5
-11 4 -14 0 -11 -15 2 -12 0 -19 -4 -16 -5 2 -7 19 -6 35 2 24 -1 30 -12 26
-8 -3 -11 -1 -8 4 3 6 -1 13 -10 16 -13 5 -14 9 -4 15 16 10 21 42 6 36 -17
-6 -49 12 -42 24 4 5 1 9 -6 9 -7 0 -4 7 7 16 16 13 16 15 2 10 -11 -3 -22 2
-28 14 -8 15 -6 21 11 30 11 7 18 14 16 17 -3 2 -15 -1 -27 -7 -15 -8 -20 -8
-16 -1 4 6 1 11 -6 11 -7 0 1 9 17 20 17 11 24 20 17 20 -7 0 -10 5 -7 10 3 6
0 10 -7 10 -9 0 -9 3 2 10 19 12 23 12 15 0z m-409 -60 c7 -25 15 -53 19 -62
6 -15 2 -18 -26 -17 -32 1 -32 2 -9 9 l25 8 -25 2 c-23 1 -23 2 -5 10 18 8 18
9 -5 10 -21 2 -22 3 -5 8 l20 5 -20 8 -20 8 20 1 20 1 -20 9 -20 9 20 1 20 1
-20 9 -20 9 20 1 20 1 -20 10 -20 9 20 -3 c15 -2 23 -14 31 -47z m-377 -56 c2
-2 -9 -4 -25 -5 -29 -1 -29 -1 -4 -9 25 -8 25 -8 -5 -10 l-30 -2 30 -8 30 -8
-30 -2 -30 -2 30 -8 30 -8 -30 -2 -30 -2 30 -8 30 -8 -35 -2 -35 -3 35 -7 c35
-7 35 -7 5 -9 -16 0 -37 4 -45 9 -8 5 -10 10 -4 10 6 0 11 6 12 13 0 6 3 21 6
32 2 11 5 28 5 38 1 14 7 16 29 11 15 -4 29 -8 31 -10z m1536 -6 c5 4 5 1 1
-6 -5 -9 -12 -9 -27 -2 -11 6 -16 16 -13 22 5 7 11 6 19 -5 7 -9 16 -13 20 -9z
m-1130 -53 c-1 -11 4 -23 9 -27 12 -8 -38 -22 -56 -15 -7 3 1 6 17 7 l30 2
-30 8 -30 8 30 2 30 3 -35 7 -35 7 35 3 35 3 -35 7 -35 8 35 -1 c28 -2 35 -6
35 -22z m-443 -55 c32 0 18 -7 -27 -13 -22 -4 -34 -4 -27 -1 6 3 9 11 5 17 -4
7 0 8 11 4 10 -4 27 -7 38 -7z m458 0 c-8 -5 -28 -9 -45 -9 l-30 1 30 8 c17 4
37 8 45 9 13 1 13 0 0 -9z m1 -19 c-12 -8 -12 -10 0 -14 8 -2 5 -3 -6 -1 -11
2 -31 4 -45 5 -20 1 -18 3 10 9 50 11 57 11 41 1z m-432 -5 c-2 -2 -24 -6 -49
-9 -30 -4 -38 -3 -25 3 19 8 83 14 74 6z m-29 -26 c-14 -4 -36 -8 -50 -8 l-25
0 25 8 c14 4 36 8 50 8 l25 0 -25 -8z m454 1 c16 -3 30 -13 31 -22 2 -14 -4
-14 -49 -5 -39 8 -45 12 -26 15 l25 4 -25 8 c-19 5 -20 7 -5 7 11 0 33 -3 49
-7z m-474 -26 c-30 -7 -57 -12 -59 -10 -5 6 61 23 89 23 14 0 0 -6 -30 -13z
m30 -14 c-18 -10 -97 -25 -89 -17 5 5 73 23 94 25 6 0 3 -3 -5 -8z m475 -12
c13 -6 5 -6 -20 -2 -22 3 -49 10 -60 14 -13 6 -5 6 20 2 22 -3 49 -10 60 -14z
m-470 -8 c-6 -5 -19 -11 -30 -14 -15 -3 -12 -5 10 -7 24 -1 20 -4 -25 -15 -70
-18 -87 -17 -35 1 38 13 39 14 8 11 -43 -4 -33 5 20 19 56 15 63 16 52 5z
m446 -7 c22 -4 42 -11 46 -17 4 -6 0 -8 -11 -4 -10 4 -36 9 -59 12 l-42 5 35
-11 c83 -26 86 -28 40 -24 l-45 4 50 -13 c28 -8 41 -14 30 -15 -32 -1 -125 27
-95 29 22 1 23 2 6 9 -11 4 -20 15 -22 25 -2 12 2 16 13 12 8 -3 32 -9 54 -12z
m-446 -39 c-5 -2 -36 -11 -68 -19 -66 -16 -69 -7 -4 11 38 10 96 17 72 8z m3
-21 c-8 -7 -122 -34 -126 -29 -4 3 34 14 93 28 31 7 39 7 33 1z m441 -10 c10
-9 -35 -3 -49 6 -11 8 -7 9 15 4 17 -4 32 -8 34 -10z m-443 -11 c-3 -4 -36
-15 -72 -24 -79 -20 -76 -11 4 13 65 19 78 21 68 11z m504 -3 c13 -9 13 -10 0
-9 -8 0 -24 4 -35 9 l-20 9 20 0 c11 0 27 -4 35 -9z m-35 -12 c25 -7 45 -15
45 -19 0 -4 -19 -2 -42 6 -24 8 -52 16 -63 18 -16 4 -16 5 -3 6 10 0 38 -4 63
-11z m-525 -29 c-67 -20 -87 -23 -78 -13 9 8 99 32 123 32 11 0 -9 -8 -45 -19z
m517 5 c30 -9 53 -18 51 -20 -4 -4 -120 25 -127 32 -9 8 23 3 76 -12z m-1102
-4 c6 -10 -29 -50 -46 -50 -5 0 -8 -4 -5 -9 3 -5 -1 -14 -9 -21 -10 -9 -15 -9
-15 -1 0 6 4 11 9 11 6 0 8 9 6 20 -2 12 5 30 15 40 22 22 36 25 45 10z m630
-10 c-3 -5 -16 -10 -28 -11 -12 0 -31 -5 -42 -10 -15 -7 -8 -8 25 -5 25 2 36
2 25 -1 -20 -6 -20 -6 0 -13 15 -5 8 -10 -32 -19 -29 -7 -58 -11 -65 -8 -7 2
10 8 37 12 l50 8 -50 11 -50 11 65 17 c36 9 66 17 68 17 2 1 0 -3 -3 -9z m525
-27 c3 -3 -6 -3 -20 0 -14 3 -42 9 -63 12 -20 4 -39 11 -42 15 -6 9 116 -17
125 -27z m-20 -14 l25 -7 -25 -2 -25 -2 25 -9 c18 -6 12 -7 -20 -3 -48 7 -88
23 -60 24 10 1 9 4 -5 10 -23 11 43 2 85 -11z m-597 -6 c-7 -2 -19 -2 -25 0
-7 3 -2 5 12 5 14 0 19 -2 13 -5z m42 -33 c-16 -4 -41 -8 -55 -8 -22 0 -22 1
5 8 17 4 41 8 55 8 22 0 22 -1 -5 -8z m550 1 c29 -7 29 -7 -14 -14 -24 -4 -46
-5 -49 -2 -3 3 6 6 19 6 21 1 21 2 -6 9 -27 7 -27 8 -5 8 14 0 39 -3 55 -7z
m-545 -19 c-23 -4 -24 -5 -5 -13 l20 -8 -20 0 c-17 -1 -17 -3 -5 -11 13 -9 13
-10 0 -10 -13 0 -13 -2 0 -11 12 -9 12 -10 -3 -5 -10 3 -31 7 -45 7 -23 1 -22
3 8 9 l35 7 -35 3 -35 3 35 7 35 7 -35 3 -35 3 35 7 c19 4 44 7 55 7 13 0 12
-1 -5 -5z m550 -12 c-14 -4 -36 -8 -50 -8 l-25 0 25 8 c14 4 36 8 50 8 l25 0
-25 -8z m0 -20 l-25 -8 24 -1 c13 -1 22 -4 18 -7 -3 -4 -23 -3 -44 1 -36 8
-37 8 -13 15 14 5 34 8 45 8 16 0 15 -2 -5 -8z m19 -36 c2 -2 -7 -4 -20 -5
l-24 -1 25 -8 25 -8 -25 -2 -25 -2 25 -8 25 -8 -25 -2 -25 -2 25 -9 c24 -8 24
-8 2 -6 -18 1 -27 12 -37 39 l-12 37 31 -6 c17 -3 33 -7 35 -9z m-589 -4 c10
-6 11 -10 3 -10 -7 0 -12 -6 -10 -12 1 -8 -9 -13 -23 -14 l-25 -1 25 5 c25 5
25 5 -5 12 l-30 8 30 2 30 2 -30 8 c-28 7 -28 8 -5 9 14 0 32 -4 40 -9z m-23
-56 c-3 -3 -12 -4 -19 -1 -8 3 -5 6 6 6 11 1 17 -2 13 -5z m-5 -23 c-8 -4 -13
-11 -12 -15 1 -4 -1 -12 -3 -19 -3 -6 -6 0 -6 16 -1 19 4 27 17 27 13 0 14 -2
4 -9z"/>
<path d="M2506 3986 c-8 -34 3 -83 15 -64 5 7 9 24 9 38 0 40 -16 57 -24 26z"/>
<path d="M1990 3887 c0 -13 9 -32 20 -42 20 -18 20 -17 20 11 0 29 -15 54 -32
54 -4 0 -8 -11 -8 -23z"/>
<path d="M3018 3895 c-19 -25 -24 -65 -10 -65 14 0 34 45 30 68 -3 20 -3 19
-20 -3z"/>
<path d="M2243 4053 c9 -2 23 -2 30 0 6 3 -1 5 -18 5 -16 0 -22 -2 -12 -5z"/>
<path d="M2243 4033 c9 -2 23 -2 30 0 6 3 -1 5 -18 5 -16 0 -22 -2 -12 -5z"/>
<path d="M3350 3950 c8 -5 20 -10 25 -10 6 0 3 5 -5 10 -8 5 -19 10 -25 10 -5
0 -3 -5 5 -10z"/>
<path d="M3345 3931 c3 -5 -4 -13 -16 -16 -19 -6 -20 -7 -2 -21 15 -11 15 -14
3 -15 -8 -1 -22 -3 -30 -4 -8 -1 -22 -3 -30 -4 -12 -1 -13 -3 -1 -10 11 -7 9
-10 -8 -16 -12 -3 -19 -10 -16 -15 3 -5 -2 -13 -12 -18 -19 -11 -28 -45 -10
-39 7 3 11 9 10 15 -2 6 6 16 16 21 16 9 18 7 16 -19 -3 -35 -4 -35 35 -11 25
15 28 20 15 25 -23 9 -32 7 -17 -3 11 -7 11 -9 -1 -14 -11 -4 -15 0 -12 13 2
11 -3 24 -12 28 -13 8 -13 10 2 16 10 3 20 4 23 1 3 -3 0 -5 -7 -5 -7 0 -9 -4
-6 -10 3 -5 11 -10 16 -10 6 0 7 5 4 11 -4 6 -1 10 6 8 27 -3 40 1 34 11 -3 6
0 10 7 10 9 0 9 3 -2 10 -11 7 -11 10 -2 10 7 0 10 5 7 10 -3 6 0 10 7 10 10
0 10 2 -1 9 -11 7 -11 9 0 13 9 3 8 6 -5 11 -9 4 -15 3 -11 -2z m-13 -69 c-6
-2 -9 -8 -6 -14 5 -8 -29 5 -43 17 -2 1 12 2 30 2 17 0 26 -2 19 -5z"/>
<path d="M3215 3759 c-16 -10 -25 -19 -20 -19 6 0 16 4 24 9 8 5 21 7 28 4 12
-5 12 -7 1 -14 -10 -7 -10 -9 2 -9 13 0 13 -1 0 -10 -13 -9 -13 -10 0 -10 9
-1 5 -6 -10 -15 -15 -9 -19 -15 -10 -15 12 0 11 -3 -3 -11 -9 -6 -15 -14 -12
-20 4 -5 -2 -6 -11 -2 -12 4 -15 3 -10 -5 5 -8 1 -10 -10 -5 -13 5 -15 3 -9
-7 5 -8 4 -11 -3 -7 -5 4 -18 4 -27 1 -15 -6 -14 -9 6 -19 24 -14 74 0 63 17
-3 4 2 11 10 14 9 3 14 10 11 14 -3 5 3 13 12 19 14 8 15 11 3 11 -9 0 -5 6
10 15 15 9 19 14 10 15 -13 0 -13 1 0 10 13 9 13 10 0 10 -12 0 -12 2 -2 9 11
7 10 9 -3 15 -9 3 -13 10 -10 16 9 15 -6 11 -40 -11z"/>
<path d="M3200 3730 c-19 -11 -31 -19 -27 -20 5 0 16 4 26 9 13 7 18 6 18 -4
0 -7 -7 -11 -14 -8 -16 6 -14 -17 2 -30 6 -5 1 -6 -10 -3 -11 3 -27 1 -35 -4
-13 -9 -13 -10 0 -10 13 0 13 -1 0 -10 -24 -15 -2 -12 31 5 16 9 27 20 24 25
-3 5 0 12 7 17 10 6 23 56 14 53 0 -1 -17 -9 -36 -20z"/>
<path d="M1670 3950 c-13 -9 -13 -10 0 -10 13 0 13 -1 0 -10 -11 -7 -11 -10
-2 -10 7 0 10 -4 7 -10 -9 -14 7 -12 28 4 18 14 17 15 -2 21 -12 3 -19 11 -16
16 8 11 4 11 -15 -1z"/>
<path d="M1706 3881 c-28 -19 -28 -19 -6 -26 15 -5 19 -10 11 -14 -16 -10 34
-32 56 -25 11 4 14 2 8 -3 -14 -11 -13 -35 2 -40 8 -3 11 3 8 16 -3 15 1 19
13 15 9 -3 0 5 -21 19 -32 21 -35 25 -20 31 16 7 16 9 -6 20 -18 10 -20 15
-10 19 8 3 10 6 4 6 -5 1 -23 -8 -39 -18z m28 -7 c16 -6 12 -24 -5 -24 -6 0
-7 5 -3 12 5 8 2 9 -10 5 -10 -4 -15 -3 -11 3 7 12 8 12 29 4z m16 -44 c8 -5
11 -10 5 -10 -5 0 -17 5 -25 10 -8 5 -10 10 -5 10 6 0 17 -5 25 -10z"/>
<path d="M1717 3803 c-8 -17 -1 -37 13 -40 13 -4 13 -3 0 6 -11 8 -12 11 -2
11 7 0 10 4 7 10 -4 6 1 7 12 4 15 -5 16 -4 3 5 -18 13 -27 14 -33 4z"/>
<path d="M1745 3770 c3 -6 -1 -13 -10 -17 -16 -5 -16 -7 -1 -15 9 -5 14 -13
11 -18 -3 -4 2 -11 11 -14 8 -3 13 -10 10 -14 -6 -10 53 -46 61 -38 4 3 0 6
-8 6 -11 0 -11 2 1 10 13 9 13 10 0 10 -13 0 -13 1 0 10 13 9 13 10 0 10 -13
0 -13 1 0 10 13 9 13 10 0 10 -12 0 -13 2 -1 9 11 7 9 10 -9 16 -18 6 -20 9
-9 17 10 7 8 8 -8 3 -12 -3 -24 -1 -28 5 -3 5 -11 10 -16 10 -6 0 -7 -5 -4
-10z m55 -38 c-9 -3 -9 -7 1 -13 12 -7 11 -9 -1 -9 -13 0 -13 -1 0 -10 13 -9
13 -10 0 -10 -13 0 -13 -1 0 -11 13 -9 13 -10 0 -6 -8 2 -14 14 -14 26 1 15
-3 20 -13 17 -8 -3 -11 -1 -8 4 3 6 -1 13 -10 16 -12 5 -14 9 -4 14 7 5 23 3
37 -3 13 -6 19 -13 12 -15z"/>
<path d="M1767 3739 c7 -7 15 -10 18 -7 3 3 -2 9 -12 12 -14 6 -15 5 -6 -5z"/>
<path d="M1860 3640 c-8 -5 -24 -7 -35 -4 -16 4 -15 2 4 -9 18 -11 20 -16 10
-20 -11 -4 -11 -6 -1 -6 7 -1 10 -6 6 -12 -5 -8 -1 -8 14 0 11 6 29 8 39 5 10
-3 3 3 -14 13 -29 17 -31 19 -15 30 20 14 13 17 -8 3z"/>
<path d="M1876 3565 c-11 -8 -15 -15 -10 -15 6 0 19 7 30 15 10 8 15 14 9 14
-5 0 -19 -6 -29 -14z"/>
<path d="M1945 3460 c-3 -6 1 -7 9 -4 18 7 21 14 7 14 -6 0 -13 -4 -16 -10z"/>
<path d="M1540 3637 c0 -16 37 -57 52 -57 14 0 -9 44 -30 58 -19 13 -22 13
-22 -1z"/>
<path d="M3460 3630 c-11 -11 -20 -27 -20 -36 0 -15 2 -15 22 -2 23 16 44 58
28 58 -6 0 -19 -9 -30 -20z"/>
<path d="M2728 3713 c6 -2 18 -2 25 0 6 3 1 5 -13 5 -14 0 -19 -2 -12 -5z"/>
<path d="M2713 3653 c9 -2 23 -2 30 0 6 3 -1 5 -18 5 -16 0 -22 -2 -12 -5z"/>
<path d="M3836 3598 c3 -5 10 -6 15 -3 13 9 11 12 -6 12 -8 0 -12 -4 -9 -9z"/>
<path d="M3715 3518 c2 -13 7 -22 13 -21 6 2 9 -4 5 -12 -4 -12 -9 -13 -19 -4
-8 6 -14 8 -14 4 0 -5 -10 0 -22 11 -20 17 -21 17 -9 1 12 -16 12 -20 -4 -35
-10 -9 -15 -12 -12 -6 8 15 -19 39 -27 25 -4 -5 -1 -13 5 -16 5 -4 8 -13 5
-20 -7 -19 5 -27 21 -13 8 6 13 7 11 2 -2 -5 0 -9 3 -9 3 0 14 -7 25 -15 18
-14 18 -14 2 6 -24 27 -23 34 4 29 16 -4 19 -2 10 7 -16 16 -15 31 1 21 18
-11 37 -12 37 -2 0 6 5 7 12 3 7 -4 8 -3 4 5 -4 6 -12 9 -17 6 -5 -3 -6 1 -3
9 3 9 11 13 17 9 6 -4 7 -1 3 6 -5 7 -11 10 -14 7 -3 -3 -13 1 -22 9 -15 14
-16 13 -15 -7z m-21 -56 c3 -5 -1 -9 -9 -9 -8 0 -12 4 -9 9 3 4 7 8 9 8 2 0 6
-4 9 -8z"/>
<path d="M3594 3407 c-3 -9 -11 -14 -18 -10 -6 3 -3 -3 7 -15 11 -11 16 -25
13 -31 -4 -5 -2 -12 3 -16 6 -3 15 4 21 16 7 13 8 19 2 15 -6 -3 -13 -2 -16 3
-7 10 13 9 30 -2 7 -4 15 1 18 10 4 10 4 14 0 10 -4 -4 -18 3 -30 14 -21 20
-24 20 -30 6z"/>
<path d="M3529 3368 c19 -26 3 -43 -20 -22 -19 17 -20 17 -13 -1 6 -14 4 -16
-7 -10 -12 8 -12 6 0 -8 8 -10 16 -15 19 -12 3 3 11 0 19 -7 11 -8 12 -7 7 5
-6 16 10 18 32 5 6 -4 10 1 9 15 -1 12 -4 20 -7 17 -3 -3 -16 4 -29 15 -16 14
-20 15 -10 3z"/>
<path d="M3460 3301 c0 -7 -4 -9 -10 -6 -6 4 -7 -1 -3 -11 4 -12 3 -15 -5 -10
-8 5 -10 1 -5 -11 6 -16 5 -17 -13 -3 -15 11 -16 11 -7 0 19 -20 43 -22 35 -2
-5 15 -4 15 11 3 16 -12 17 -12 10 5 -6 17 -5 18 13 4 18 -14 18 -14 -1 10
-11 14 -21 27 -22 29 -2 2 -3 -1 -3 -8z"/>
<path d="M3350 3206 c0 -2 8 -10 18 -17 15 -13 16 -12 3 4 -13 16 -21 21 -21
13z"/>
<path d="M3336 3182 c-3 -5 1 -9 9 -9 8 0 12 4 9 9 -3 4 -7 8 -9 8 -2 0 -6 -4
-9 -8z"/>
<path d="M1266 3539 c-24 -35 -4 -58 30 -36 7 4 15 0 18 -9 3 -8 2 -12 -3 -9
-5 3 -13 0 -17 -6 -4 -8 -3 -9 4 -5 16 10 15 -6 0 -24 -7 -8 -4 -7 8 3 11 9
24 14 29 10 4 -5 5 -2 1 5 -5 8 0 22 11 34 10 12 12 18 6 14 -7 -4 -13 -2 -13
4 0 6 -5 8 -12 3 -18 -10 -38 -13 -38 -4 0 4 6 13 13 21 9 11 8 11 -7 0 -18
-14 -19 -13 -13 3 9 23 1 22 -17 -4z"/>
<path d="M1369 3483 c-13 -16 -12 -17 4 -4 9 7 17 15 17 17 0 8 -8 3 -21 -13z"/>
<path d="M1411 3457 c-7 -9 -21 -14 -31 -12 -11 2 -23 -1 -26 -7 -4 -6 -2 -8
4 -4 17 10 25 -13 10 -31 -11 -14 -11 -16 2 -8 33 21 53 12 28 -13 -9 -9 -6
-11 11 -7 18 3 21 1 17 -12 -5 -12 -3 -13 6 -6 7 6 21 9 30 8 9 -2 23 4 30 13
11 15 11 15 -4 4 -22 -17 -35 3 -17 26 12 14 10 14 -8 -1 -23 -20 -43 -6 -24
17 8 9 7 18 -2 30 -12 16 -14 16 -26 3z m11 -9 c-19 -19 -14 -32 6 -17 14 11
15 11 5 -1 -16 -17 -46 -23 -36 -7 11 21 25 37 31 37 3 0 1 -5 -6 -12z m12
-56 c3 -5 -1 -9 -9 -9 -8 0 -12 4 -9 9 3 4 7 8 9 8 2 0 6 -4 9 -8z"/>
<path d="M1512 3358 c-7 -7 -18 -13 -24 -13 -6 0 -12 -10 -13 -22 -1 -15 2
-20 9 -14 6 5 16 10 21 11 6 1 9 7 7 12 -1 6 3 16 9 24 14 17 7 18 -9 2z"/>
<path d="M1600 3250 c-6 -12 -7 -20 -2 -16 6 3 13 -3 17 -14 4 -11 10 -18 15
-15 5 3 10 0 12 -7 3 -7 7 -5 11 6 5 11 3 15 -5 10 -8 -5 -9 -1 -4 12 4 10 4
15 0 11 -5 -4 -13 2 -20 14 l-11 22 -13 -23z"/>
<path d="M3117 3509 c7 -7 15 -10 18 -7 3 3 -2 9 -12 12 -14 6 -15 5 -6 -5z"/>
<path d="M3080 3506 c0 -2 7 -7 16 -10 8 -3 12 -2 9 4 -6 10 -25 14 -25 6z"/>
<path d="M3087 3479 c7 -7 15 -10 18 -7 3 3 -2 9 -12 12 -14 6 -15 5 -6 -5z"/>
<path d="M3077 3459 c7 -7 15 -10 18 -7 3 3 -2 9 -12 12 -14 6 -15 5 -6 -5z"/>
<path d="M1200 3240 c0 -15 38 -40 60 -40 22 0 22 1 6 19 -17 19 -66 35 -66
21z"/>
<path d="M3814 3243 c-12 -2 -30 -13 -40 -24 -16 -18 -16 -19 2 -19 10 0 24 4
29 8 11 8 40 43 34 41 -2 -1 -14 -4 -25 -6z"/>
<path d="M2505 3230 c-7 -12 2 -30 16 -30 5 0 9 9 9 20 0 21 -15 27 -25 10z"/>
<path d="M2250 3175 c0 -8 7 -15 15 -15 8 0 15 7 15 15 0 8 -7 15 -15 15 -8 0
-15 -7 -15 -15z"/>
<path d="M2755 3181 c-7 -12 12 -24 25 -16 11 7 4 25 -10 25 -5 0 -11 -4 -15
-9z"/>
<path d="M2411 3064 c0 -11 3 -14 6 -6 3 7 2 16 -1 19 -3 4 -6 -2 -5 -13z"/>
<path d="M2510 3050 c0 -19 3 -21 12 -12 9 9 9 15 0 24 -9 9 -12 7 -12 -12z"/>
<path d="M2611 3034 c0 -11 3 -14 6 -6 3 7 2 16 -1 19 -3 4 -6 -2 -5 -13z"/>
<path d="M2310 3021 c0 -6 5 -13 10 -16 6 -3 10 1 10 9 0 9 -4 16 -10 16 -5 0
-10 -4 -10 -9z"/>
<path d="M2700 3015 c0 -8 5 -15 10 -15 6 0 10 7 10 15 0 8 -4 15 -10 15 -5 0
-10 -7 -10 -15z"/>
<path d="M2421 3004 c0 -11 3 -14 6 -6 3 7 2 16 -1 19 -3 4 -6 -2 -5 -13z"/>
<path d="M2225 2980 c9 -16 18 -30 21 -30 2 0 -2 14 -11 30 -9 17 -18 30 -21
30 -2 0 2 -13 11 -30z"/>
<path d="M2510 2897 l-5 -108 -31 60 -32 61 -7 -57 c-13 -102 -19 -104 -94
-32 -29 28 -50 45 -46 38 14 -21 34 -134 26 -142 -8 -8 -98 19 -119 36 -13 10
29 -74 50 -100 13 -16 -1 -21 -61 -25 -25 -2 -46 -7 -47 -13 -2 -5 14 -23 35
-40 31 -24 35 -31 22 -37 -13 -5 -13 -7 4 -8 38 -3 -80 -38 -135 -41 l-55 -2
55 -7 c30 -4 78 -16 105 -26 46 -17 48 -19 25 -25 -20 -6 -21 -7 -5 -8 16 -1
12 -9 -25 -41 -50 -44 -49 -45 45 -41 l40 1 -25 -20 c-23 -19 -23 -20 -2 -10
12 6 22 8 22 5 0 -15 -48 -91 -75 -119 -19 -19 -21 -22 -5 -9 29 25 137 66
152 57 5 -3 6 -13 4 -22 -3 -10 -8 -35 -12 -57 -3 -22 -9 -44 -12 -50 -3 -5
20 12 51 38 65 55 70 52 82 -45 l7 -57 32 61 31 61 5 -109 6 -109 4 110 5 110
28 -48 c15 -26 32 -45 36 -42 5 2 12 26 16 52 4 27 9 51 12 56 5 9 46 -19 92
-65 21 -20 30 -25 24 -13 -15 29 -25 122 -14 129 13 9 103 -24 131 -48 l25
-21 -21 25 c-32 39 -69 103 -70 124 -1 16 4 18 40 13 22 -3 49 -2 60 2 16 6
13 12 -24 44 -34 29 -39 37 -24 38 18 0 18 1 0 8 -15 6 -6 12 40 28 32 12 68
23 79 26 14 3 11 5 -10 6 -32 1 -140 40 -115 41 11 0 12 2 2 8 -8 6 2 20 37
49 l50 40 -62 2 c-34 1 -66 6 -70 10 -9 9 30 78 72 126 25 29 25 29 1 8 -29
-25 -129 -65 -142 -57 -12 8 0 101 18 135 9 18 -5 9 -43 -29 -35 -33 -59 -50
-61 -42 -4 10 -6 10 -12 0 -5 -8 -10 5 -15 31 -13 86 -15 87 -49 28 l-31 -54
-5 110 -6 110 -4 -108z m-26 -102 c23 -38 25 -48 15 -67 -17 -33 -17 -33 -43
-9 -20 19 -22 27 -15 64 4 23 8 45 9 50 0 15 9 6 34 -38z m110 -6 c6 -41 4
-55 -10 -70 -23 -25 -32 -24 -46 6 -9 21 -7 32 12 70 13 25 26 45 30 45 4 0
10 -23 14 -51z m-216 -24 c32 -29 38 -39 34 -65 -5 -34 -3 -34 -36 -19 -19 9
-28 24 -35 61 -16 72 -17 72 37 23z m317 -19 c-6 -38 -13 -50 -36 -61 -38 -20
-39 -20 -39 19 0 27 7 40 38 64 20 17 38 29 40 27 2 -2 0 -24 -3 -49z m-165
-37 c15 -26 -5 -56 -26 -38 -10 8 -10 16 -2 35 14 29 14 29 28 3z m-236 -9
c25 -10 46 -23 46 -27 0 -4 3 -18 6 -30 6 -20 3 -23 -24 -23 -26 0 -35 8 -61
50 -17 28 -27 50 -22 50 5 0 30 -9 55 -20z m479 -30 c-24 -44 -32 -50 -60 -50
-31 0 -31 1 -23 31 11 37 5 32 55 52 58 23 59 22 28 -33z m-309 17 c8 -12 7
-20 -1 -28 -16 -16 -33 -2 -33 27 0 28 17 28 34 1z m146 -8 c0 -24 -29 -37
-41 -18 -5 8 -2 20 8 31 18 21 33 15 33 -13z m-214 -23 c15 -11 16 -17 7 -27
-16 -16 -43 -4 -43 21 0 24 9 25 36 6z m276 -11 c-5 -31 -42 -35 -42 -6 0 17
10 24 41 30 3 0 4 -10 1 -24z m-172 0 c0 -8 -4 -15 -9 -15 -13 0 -22 16 -14
24 11 11 23 6 23 -9z m60 7 c0 -13 -12 -22 -22 -16 -10 6 -1 24 13 24 5 0 9
-4 9 -8z m-118 -27 c0 -5 -5 -11 -11 -13 -6 -2 -11 4 -11 13 0 9 5 15 11 13 6
-2 11 -8 11 -13z m168 0 c0 -8 -4 -15 -10 -15 -5 0 -10 7 -10 15 0 8 5 15 10
15 6 0 10 -7 10 -15z m-315 -41 c19 -30 18 -32 -21 -39 -23 -5 -37 1 -69 29
l-40 35 56 1 c50 0 59 -3 74 -26z m63 3 c2 -8 -2 -18 -8 -22 -13 -8 -40 12
-40 31 0 19 44 11 48 -9z m372 16 c-1 -14 -27 -43 -38 -43 -21 0 -25 23 -7 37
20 14 45 18 45 6z m120 -8 c-31 -37 -70 -57 -100 -50 l-30 7 17 29 c16 26 22
29 71 29 48 0 53 -2 42 -15z m-450 -4 c0 -17 -18 -21 -24 -6 -3 9 0 15 9 15 8
0 15 -4 15 -9z m258 -2 c-2 -6 -8 -10 -13 -10 -5 0 -11 4 -13 10 -2 6 4 11 13
11 9 0 15 -5 13 -11z m-65 -39 c20 -23 27 -41 27 -71 0 -105 -148 -141 -196
-47 -18 35 -18 62 1 98 34 66 117 76 168 20z m-223 -9 c0 -17 -18 -21 -24 -6
-3 9 0 15 9 15 8 0 15 -4 15 -9z m318 -2 c-2 -6 -8 -10 -13 -10 -5 0 -11 4
-13 10 -2 6 4 11 13 11 9 0 15 -5 13 -11z m-355 -13 c9 -24 -15 -36 -38 -20
-17 13 -18 16 -5 24 21 14 37 12 43 -4z m420 4 c7 -1 1 -10 -12 -20 -18 -16
-27 -18 -37 -9 -18 15 2 43 23 34 8 -3 20 -5 26 -5z m-477 -29 l24 -19 -25
-20 c-24 -19 -29 -20 -66 -7 -65 23 -66 28 -13 46 27 10 51 18 52 18 2 1 15
-8 28 -18z m557 3 c26 -9 47 -19 47 -23 0 -4 -22 -14 -49 -23 -45 -14 -50 -14
-72 3 l-24 19 25 20 c14 11 25 20 26 20 0 0 21 -7 47 -16z m-133 -25 c0 -5 -7
-9 -15 -9 -15 0 -20 12 -9 23 8 8 24 -1 24 -14z m-340 1 c0 -5 -4 -10 -9 -10
-6 0 -13 5 -16 10 -3 6 1 10 9 10 9 0 16 -4 16 -10z m-20 -29 c-1 -18 -18 -30
-38 -24 -26 6 -28 19 -5 31 17 10 43 6 43 -7z m404 0 c16 -17 16 -19 -6 -24
-27 -7 -43 5 -35 27 8 21 20 20 41 -3z m-374 -26 c0 -8 -7 -15 -15 -15 -9 0
-12 6 -9 15 4 8 10 15 15 15 5 0 9 -7 9 -15z m320 -6 c0 -5 -7 -9 -15 -9 -15
0 -20 12 -9 23 8 8 24 -1 24 -14z m-380 -15 c0 -3 -7 -16 -16 -29 -14 -22 -24
-25 -73 -25 l-56 1 44 38 c39 35 47 38 72 29 16 -5 29 -12 29 -14z m519 -16
l42 -33 -53 -3 c-48 -3 -55 -1 -75 25 -21 26 -21 28 -5 35 32 12 48 8 91 -24z
m-469 -8 c0 -15 -7 -20 -25 -20 -27 0 -32 9 -13 28 18 18 38 14 38 -8z m360 0
c9 -17 8 -20 -14 -20 -27 0 -41 14 -31 30 10 17 34 11 45 -10z m-320 -5 c0 -8
-4 -15 -10 -15 -5 0 -10 7 -10 15 0 8 5 15 10 15 6 0 10 -7 10 -15z m260 -6
c0 -5 -7 -9 -15 -9 -15 0 -20 12 -9 23 8 8 24 -1 24 -14z m-254 -58 c-3 -5
-15 -11 -26 -14 -15 -4 -20 0 -20 13 0 26 32 44 43 24 4 -8 6 -18 3 -23z m36
24 c0 -5 -5 -11 -11 -13 -6 -2 -11 4 -11 13 0 9 5 15 11 13 6 -2 11 -8 11 -13z
m168 0 c0 -8 -4 -15 -10 -15 -5 0 -10 7 -10 15 0 8 5 15 10 15 6 0 10 -7 10
-15z m64 -18 c7 -28 2 -31 -23 -17 -27 14 -29 50 -2 43 11 -3 22 -14 25 -26z
m-324 16 c-1 -35 -17 -53 -62 -73 -27 -12 -52 -20 -54 -17 -2 2 10 24 26 50
25 39 35 47 60 47 16 0 30 -3 30 -7z m423 -37 c15 -24 27 -46 27 -49 0 -9 -88
23 -98 36 -5 7 -12 22 -15 35 -4 19 -1 22 26 22 27 0 37 -7 60 -44z m-273 26
c0 -13 -12 -22 -22 -16 -10 6 -1 24 13 24 5 0 9 -4 9 -8z m60 -7 c0 -8 -4 -15
-9 -15 -13 0 -22 16 -14 24 11 11 23 6 23 -9z m-95 -16 c4 -5 -1 -19 -11 -31
l-19 -20 -6 24 c-3 12 -4 26 -2 31 6 11 31 9 38 -4z m143 -22 c2 -15 0 -27 -4
-27 -16 0 -42 33 -37 46 9 24 38 11 41 -19z m-71 2 c2 -8 -2 -21 -7 -29 -9
-13 -12 -12 -25 4 -11 15 -12 23 -3 33 13 16 32 12 35 -8z m-126 -1 c0 -7 2
-21 4 -30 3 -16 -73 -94 -82 -84 -2 2 2 27 8 55 8 38 17 55 32 61 31 12 37 12
38 -2z m257 -5 c13 -11 23 -36 28 -67 l7 -49 -41 34 c-33 27 -42 41 -42 67 0
37 16 42 48 15z m-171 -35 c8 -18 5 -33 -14 -71 -13 -27 -26 -47 -29 -45 -2 3
-8 27 -13 54 -9 44 -8 51 12 66 29 23 32 22 44 -4z m87 3 c14 -15 16 -29 10
-70 -4 -28 -10 -51 -14 -51 -3 0 -17 22 -29 49 -19 39 -21 52 -12 70 14 26 23
26 45 2z"/>
<path d="M2473 2542 c-67 -52 -10 -157 70 -130 53 19 65 92 21 127 -32 25 -62
26 -91 3z"/>
<path d="M2602 2980 c0 -14 2 -19 5 -12 2 6 2 18 0 25 -3 6 -5 1 -5 -13z"/>
<path d="M2800 2980 c-6 -11 -8 -20 -6 -20 3 0 10 9 16 20 6 11 8 20 6 20 -3
0 -10 -9 -16 -20z"/>
<path d="M2432 2950 c0 -14 2 -19 5 -12 2 6 2 18 0 25 -3 6 -5 1 -5 -13z"/>
<path d="M2765 2920 c-9 -16 -13 -30 -11 -30 3 0 12 14 21 30 9 17 13 30 11
30 -3 0 -12 -13 -21 -30z"/>
<path d="M2265 2910 c9 -16 18 -30 21 -30 2 0 -2 14 -11 30 -9 17 -18 30 -21
30 -2 0 2 -13 11 -30z"/>
<path d="M2592 2920 c0 -14 2 -19 5 -12 2 6 2 18 0 25 -3 6 -5 1 -5 -13z"/>
<path d="M2140 2920 c0 -5 5 -10 10 -10 6 0 10 5 10 10 0 6 -4 10 -10 10 -5 0
-10 -4 -10 -10z"/>
<path d="M2870 2914 c0 -14 3 -14 15 -4 8 7 15 14 15 16 0 2 -7 4 -15 4 -8 0
-15 -7 -15 -16z"/>
<path d="M2974 2868 l-19 -23 23 19 c12 11 22 21 22 23 0 8 -8 2 -26 -19z"/>
<path d="M2200 2855 c13 -14 26 -25 28 -25 3 0 -5 11 -18 25 -13 14 -26 25
-28 25 -3 0 5 -11 18 -25z"/>
<path d="M2080 2845 c13 -14 26 -25 28 -25 3 0 -5 11 -18 25 -13 14 -26 25
-28 25 -3 0 5 -11 18 -25z"/>
<path d="M2799 2823 l-24 -28 28 24 c25 23 32 31 24 31 -2 0 -14 -12 -28 -27z"/>
<path d="M2909 2813 l-24 -28 28 24 c25 23 32 31 24 31 -2 0 -14 -12 -28 -27z"/>
<path d="M2120 2817 c0 -2 15 -16 33 -33 l32 -29 -29 33 c-28 30 -36 37 -36
29z"/>
<path d="M2250 2795 c13 -14 26 -25 28 -25 3 0 -5 11 -18 25 -13 14 -26 25
-28 25 -3 0 5 -11 18 -25z"/>
<path d="M2749 2763 l-24 -28 28 24 c25 23 32 31 24 31 -2 0 -14 -12 -28 -27z"/>
<path d="M2012 2769 c2 -7 10 -15 17 -17 8 -3 12 1 9 9 -2 7 -10 15 -17 17 -8
3 -12 -1 -9 -9z"/>
<path d="M3000 2764 c0 -8 5 -12 10 -9 6 3 10 10 10 16 0 5 -4 9 -10 9 -5 0
-10 -7 -10 -16z"/>
<path d="M2295 2740 c10 -11 20 -20 23 -20 3 0 -3 9 -13 20 -10 11 -20 20 -23
20 -3 0 3 -9 13 -20z"/>
<path d="M2914 2714 c-18 -14 -18 -15 4 -4 12 6 22 13 22 15 0 8 -5 6 -26 -11z"/>
<path d="M2110 2716 c0 -3 9 -10 20 -16 11 -6 20 -8 20 -6 0 3 -9 10 -20 16
-11 6 -20 8 -20 6z"/>
<path d="M2864 2684 c-18 -14 -18 -15 4 -4 12 6 22 13 22 15 0 8 -5 6 -26 -11z"/>
<path d="M1990 2670 c8 -5 20 -10 25 -10 6 0 3 5 -5 10 -8 5 -19 10 -25 10 -5
0 -3 -5 5 -10z"/>
<path d="M2180 2676 c0 -3 9 -10 20 -16 11 -6 20 -8 20 -6 0 3 -9 10 -20 16
-11 6 -20 8 -20 6z"/>
<path d="M2800 2650 c-9 -6 -10 -10 -3 -10 6 0 15 5 18 10 8 12 4 12 -15 0z"/>
<path d="M2970 2650 c-8 -5 -10 -10 -5 -10 6 0 17 5 25 10 8 5 11 10 5 10 -5
0 -17 -5 -25 -10z"/>
<path d="M1945 2580 c3 -5 10 -10 16 -10 5 0 9 5 9 10 0 6 -7 10 -16 10 -8 0
-12 -4 -9 -10z"/>
<path d="M3065 2580 c-3 -5 1 -10 9 -10 9 0 16 5 16 10 0 6 -4 10 -9 10 -6 0
-13 -4 -16 -10z"/>
<path d="M2038 2563 c7 -3 16 -2 19 1 4 3 -2 6 -13 5 -11 0 -14 -3 -6 -6z"/>
<path d="M2978 2563 c6 -2 18 -2 25 0 6 3 1 5 -13 5 -14 0 -19 -2 -12 -5z"/>
<path d="M2088 2553 c6 -2 18 -2 25 0 6 3 1 5 -13 5 -14 0 -19 -2 -12 -5z"/>
<path d="M2928 2553 c7 -3 16 -2 19 1 4 3 -2 6 -13 5 -11 0 -14 -3 -6 -6z"/>
<path d="M2148 2543 c7 -3 16 -2 19 1 4 3 -2 6 -13 5 -11 0 -14 -3 -6 -6z"/>
<path d="M2868 2543 c6 -2 18 -2 25 0 6 3 1 5 -13 5 -14 0 -19 -2 -12 -5z"/>
<path d="M2988 2483 c6 -2 18 -2 25 0 6 3 1 5 -13 5 -14 0 -19 -2 -12 -5z"/>
<path d="M2128 2413 c6 -2 18 -2 25 0 6 3 1 5 -13 5 -14 0 -19 -2 -12 -5z"/>
<path d="M2888 2413 c7 -3 16 -2 19 1 4 3 -2 6 -13 5 -11 0 -14 -3 -6 -6z"/>
<path d="M2078 2403 c7 -3 16 -2 19 1 4 3 -2 6 -13 5 -11 0 -14 -3 -6 -6z"/>
<path d="M2938 2403 c6 -2 18 -2 25 0 6 3 1 5 -13 5 -14 0 -19 -2 -12 -5z"/>
<path d="M2018 2393 c6 -2 18 -2 25 0 6 3 1 5 -13 5 -14 0 -19 -2 -12 -5z"/>
<path d="M2998 2393 c7 -3 16 -2 19 1 4 3 -2 6 -13 5 -11 0 -14 -3 -6 -6z"/>
<path d="M1940 2380 c0 -5 7 -10 15 -10 8 0 15 5 15 10 0 6 -7 10 -15 10 -8 0
-15 -4 -15 -10z"/>
<path d="M3065 2380 c3 -5 10 -10 16 -10 5 0 9 5 9 10 0 6 -7 10 -16 10 -8 0
-12 -4 -9 -10z"/>
<path d="M2950 2320 c8 -5 20 -10 25 -10 6 0 3 5 -5 10 -8 5 -19 10 -25 10 -5
0 -3 -5 5 -10z"/>
<path d="M2010 2300 c-8 -5 -10 -10 -5 -10 6 0 17 5 25 10 8 5 11 10 5 10 -5
0 -17 -5 -25 -10z"/>
<path d="M2820 2306 c0 -3 9 -10 20 -16 11 -6 20 -8 20 -6 0 3 -9 10 -20 16
-11 6 -20 8 -20 6z"/>
<path d="M2154 2274 c-18 -14 -18 -15 4 -4 12 6 22 13 22 15 0 8 -5 6 -26 -11z"/>
<path d="M2870 2276 c0 -3 14 -12 30 -21 17 -9 30 -13 30 -11 0 3 -13 12 -30
21 -16 9 -30 13 -30 11z"/>
<path d="M2104 2244 c-18 -14 -18 -15 4 -4 12 6 22 13 22 15 0 8 -5 6 -26 -11z"/>
<path d="M2284 2208 l-29 -33 33 29 c17 17 32 31 32 33 0 8 -8 1 -36 -29z"/>
<path d="M2947 2229 c7 -7 15 -10 18 -7 3 3 -2 9 -12 12 -14 6 -15 5 -6 -5z"/>
<path d="M2015 2199 c-4 -6 -5 -13 -2 -16 7 -7 27 6 27 18 0 12 -17 12 -25 -2z"/>
<path d="M3000 2201 c0 -6 5 -13 10 -16 6 -3 10 1 10 9 0 9 -4 16 -10 16 -5 0
-10 -4 -10 -9z"/>
<path d="M2765 2180 c10 -11 20 -20 23 -20 3 0 -3 9 -13 20 -10 11 -20 20 -23
20 -3 0 3 -9 13 -20z"/>
<path d="M2900 2155 c13 -14 26 -25 28 -25 3 0 -5 11 -18 25 -13 14 -26 25
-28 25 -3 0 5 -11 18 -25z"/>
<path d="M2229 2143 l-24 -28 28 24 c25 23 32 31 24 31 -2 0 -14 -12 -28 -27z"/>
<path d="M2099 2133 l-24 -28 28 24 c25 23 32 31 24 31 -2 0 -14 -12 -28 -27z"/>
<path d="M2790 2147 c0 -2 15 -16 33 -33 l32 -29 -29 33 c-28 30 -36 37 -36
29z"/>
<path d="M2960 2105 c13 -14 26 -25 28 -25 3 0 -5 11 -18 25 -13 14 -26 25
-28 25 -3 0 5 -11 18 -25z"/>
<path d="M2189 2093 c-13 -16 -12 -17 4 -4 9 7 17 15 17 17 0 8 -8 3 -21 -13z"/>
<path d="M2039 2083 c-13 -16 -12 -17 4 -4 16 13 21 21 13 21 -2 0 -10 -8 -17
-17z"/>
<path d="M2275 2070 c-9 -16 -13 -30 -11 -30 3 0 12 14 21 30 9 17 13 30 11
30 -3 0 -12 -13 -21 -30z"/>
<path d="M2755 2060 c9 -16 18 -30 21 -30 2 0 -2 14 -11 30 -9 17 -18 30 -21
30 -2 0 2 -13 11 -30z"/>
<path d="M2147 2053 c-10 -9 -9 -23 2 -23 5 0 11 7 15 15 5 15 -5 20 -17 8z"/>
<path d="M2592 2040 c0 -14 2 -19 5 -12 2 6 2 18 0 25 -3 6 -5 1 -5 -13z"/>
<path d="M2872 2048 c2 -6 10 -14 16 -16 7 -2 10 2 6 12 -7 18 -28 22 -22 4z"/>
<path d="M2240 2010 c-6 -11 -8 -20 -6 -20 3 0 10 9 16 20 6 11 8 20 6 20 -3
0 -10 -9 -16 -20z"/>
<path d="M2431 2014 c0 -11 3 -14 6 -6 3 7 2 16 -1 19 -3 4 -6 -2 -5 -13z"/>
<path d="M2790 2000 c6 -11 13 -20 16 -20 2 0 0 9 -6 20 -6 11 -13 20 -16 20
-2 0 0 -9 6 -20z"/>
<path d="M2602 1980 c0 -14 2 -19 5 -12 2 6 2 18 0 25 -3 6 -5 1 -5 -13z"/>
<path d="M2422 1960 c0 -14 2 -19 5 -12 2 6 2 18 0 25 -3 6 -5 1 -5 -13z"/>
<path d="M2205 1949 c-4 -6 -5 -12 -2 -15 2 -3 7 2 10 11 7 17 1 20 -8 4z"/>
<path d="M2316 1951 c-4 -7 -5 -15 -2 -18 9 -9 19 4 14 18 -4 11 -6 11 -12 0z"/>
<path d="M2700 1951 c0 -6 5 -13 10 -16 6 -3 10 1 10 9 0 9 -4 16 -10 16 -5 0
-10 -4 -10 -9z"/>
<path d="M2611 1924 c0 -11 3 -14 6 -6 3 7 2 16 -1 19 -3 4 -6 -2 -5 -13z"/>
<path d="M2510 1910 c0 -19 3 -21 12 -12 9 9 9 15 0 24 -9 9 -12 7 -12 -12z"/>
<path d="M2412 1900 c0 -14 2 -19 5 -12 2 6 2 18 0 25 -3 6 -5 1 -5 -13z"/>
<path d="M2621 1874 c0 -11 3 -14 6 -6 3 7 2 16 -1 19 -3 4 -6 -2 -5 -13z"/>
<path d="M2030 3045 c0 -8 7 -15 15 -15 8 0 15 7 15 15 0 8 -7 15 -15 15 -8 0
-15 -7 -15 -15z"/>
<path d="M2980 3044 c0 -9 5 -14 12 -12 18 6 21 28 4 28 -9 0 -16 -7 -16 -16z"/>
<path d="M961 3044 c0 -11 3 -14 6 -6 3 7 2 16 -1 19 -3 4 -6 -2 -5 -13z"/>
<path d="M996 3035 c-9 -25 -6 -43 4 -20 l9 20 1 -20 c1 -18 2 -17 11 4 5 13
7 26 4 29 -3 3 -5 -1 -5 -9 0 -11 -2 -12 -9 -1 -7 11 -10 10 -15 -3z"/>
<path d="M1037 3036 c-4 -10 -4 -29 -1 -43 l7 -25 13 32 c16 36 19 63 5 41 -7
-11 -9 -11 -13 0 -3 9 -6 8 -11 -5z"/>
<path d="M1072 3017 c-7 -19 -9 -42 -5 -52 6 -17 7 -16 14 3 5 12 6 30 3 40
-3 9 6 -3 20 -28 31 -56 34 -31 3 28 l-23 43 -12 -34z"/>
<path d="M1166 2976 c-4 -15 -3 -34 2 -43 8 -13 10 -11 16 11 4 15 3 34 -2 43
-8 13 -10 11 -16 -11z"/>
<path d="M1196 2980 c3 -14 10 -32 15 -40 7 -13 8 -13 8 0 0 8 -6 26 -15 40
l-15 25 7 -25z"/>
<path d="M1131 2985 c1 -19 18 -51 18 -35 0 8 -4 22 -9 30 -5 8 -9 11 -9 5z"/>
<path d="M1226 2960 c3 -14 10 -32 15 -40 7 -13 8 -13 9 0 0 13 1 13 10 0 9
-13 10 -13 10 0 0 8 -5 22 -10 30 -9 13 -10 13 -10 0 -1 -9 -6 -5 -16 10 l-15
25 7 -25z"/>
<path d="M1285 2941 c-4 -13 -4 -25 -1 -28 3 -4 6 2 7 13 0 18 1 18 9 -1 6
-13 9 -15 9 -5 0 8 -3 21 -8 29 -7 11 -10 9 -16 -8z"/>
<path d="M1336 2915 c-3 -9 -6 -22 -5 -28 0 -7 5 -1 10 12 5 13 8 26 5 28 -2
2 -6 -3 -10 -12z"/>
<path d="M1357 2916 c-10 -26 -8 -43 3 -26 8 12 10 12 11 -5 0 -11 3 -15 5 -9
3 6 1 21 -4 34 -8 20 -9 21 -15 6z"/>
<path d="M4036 3046 c-4 -16 -5 -31 -1 -34 3 -3 5 3 6 14 0 18 1 18 9 -1 11
-25 12 2 1 30 -7 17 -9 16 -15 -9z"/>
<path d="M3976 3045 c-9 -26 -6 -43 5 -20 7 15 8 12 4 -15 -4 -27 -3 -30 4
-15 l10 20 1 -20 c1 -16 3 -15 11 7 7 18 7 33 0 45 -8 14 -10 15 -11 3 0 -12
-2 -12 -9 -2 -7 11 -10 10 -15 -3z m31 -27 c-3 -8 -6 -5 -6 6 -1 11 2 17 5 13
3 -3 4 -12 1 -19z"/>
<path d="M3915 3000 c-15 -33 -20 -38 -27 -25 -5 8 -7 25 -4 38 3 12 -3 4 -14
-18 -17 -36 -19 -37 -14 -10 4 24 3 27 -6 13 -6 -10 -8 -29 -4 -44 l7 -27 13
29 13 29 -5 -30 c-4 -21 -3 -26 4 -16 8 10 10 11 14 0 2 -7 14 11 27 40 12 29
21 55 18 57 -2 2 -12 -14 -22 -36z"/>
<path d="M3949 3035 c-1 -5 -3 -29 -3 -53 -2 -43 -2 -43 12 -17 10 19 11 34 3
53 -5 15 -10 23 -12 17z"/>
<path d="M3792 2965 c-15 -32 -16 -56 -2 -35 9 13 10 13 10 0 1 -9 6 -5 15 10
19 34 19 62 -1 30 -14 -23 -14 -23 -9 -2 8 30 1 28 -13 -3z"/>
<path d="M3766 2955 c-3 -9 -6 -22 -5 -28 0 -7 5 -1 10 12 5 13 8 26 5 28 -2
2 -6 -3 -10 -12z"/>
<path d="M3727 2932 c1 -8 3 -19 3 -25 0 -7 4 -6 10 3 5 8 10 22 10 30 0 12
-2 13 -9 1 -5 -7 -11 -9 -13 -5 -3 5 -3 3 -1 -4z"/>
<path d="M1864 2859 c-3 -6 -1 -16 5 -22 9 -9 14 -8 21 3 9 15 4 30 -10 30 -5
0 -12 -5 -16 -11z"/>
<path d="M3145 2860 c-8 -13 4 -32 16 -25 12 8 12 35 0 35 -6 0 -13 -4 -16
-10z"/>
<path d="M1035 2751 c-19 -8 -19 -8 4 -20 13 -7 34 -10 49 -6 l27 7 -25 13
c-29 16 -28 16 -55 6z"/>
<path d="M3951 2745 c-12 -6 -18 -14 -15 -18 12 -11 48 -7 67 7 16 13 16 14
-7 18 -13 3 -34 0 -45 -7z"/>
<path d="M1774 2619 c-10 -17 13 -36 27 -22 12 12 4 33 -11 33 -5 0 -12 -5
-16 -11z"/>
<path d="M3235 2620 c-4 -6 -3 -16 3 -22 6 -6 12 -6 17 2 4 6 3 16 -3 22 -6 6
-12 6 -17 -2z"/>
<path d="M1030 2225 c-11 -13 -8 -15 17 -15 16 0 38 7 49 15 18 13 17 14 -17
15 -21 0 -42 -7 -49 -15z"/>
<path d="M3930 2231 c0 -12 26 -21 63 -21 30 1 31 1 13 15 -22 16 -76 20 -76
6z"/>
<path d="M1775 2360 c-3 -6 1 -13 10 -16 19 -8 30 0 20 15 -8 14 -22 14 -30 1z"/>
<path d="M3230 2355 c0 -8 7 -15 15 -15 8 0 15 7 15 15 0 8 -7 15 -15 15 -8 0
-15 -7 -15 -15z"/>
<path d="M1254 1763 c-12 -2 -30 -13 -40 -24 -16 -18 -16 -19 8 -19 16 0 32 9
42 25 9 14 15 24 14 24 -2 -1 -13 -4 -24 -6z"/>
<path d="M1867 2123 c-12 -11 -8 -23 8 -23 8 0 15 7 15 15 0 16 -12 20 -23 8z"/>
<path d="M3145 2120 c-8 -13 4 -32 16 -25 12 8 12 35 0 35 -6 0 -13 -4 -16
-10z"/>
<path d="M3760 1761 c0 -14 36 -41 53 -41 20 0 22 14 5 27 -17 14 -58 23 -58
14z"/>
<path d="M1351 2080 c0 -8 4 -24 9 -35 l9 -20 0 20 c1 17 3 17 11 5 12 -18 12
-2 0 25 l-9 20 -1 -20 -1 -20 -9 20 c-5 13 -9 14 -9 5z"/>
<path d="M1326 2056 c-4 -16 -5 -31 -1 -34 3 -3 5 3 5 14 0 16 2 17 10 4 11
-18 12 -3 1 25 -7 17 -9 16 -15 -9z"/>
<path d="M1255 2030 c-4 -12 -5 -24 -2 -27 3 -2 8 5 12 17 4 12 5 24 2 27 -3
2 -8 -5 -12 -17z"/>
<path d="M1281 2043 c-1 -6 -4 -20 -7 -30 -5 -15 -4 -15 5 -3 9 13 11 13 11 0
0 -13 1 -13 10 0 5 8 10 22 10 30 0 12 -2 13 -9 1 -7 -11 -9 -11 -14 0 -3 9
-6 9 -6 2z"/>
<path d="M1165 2020 c-4 -12 -5 -24 -2 -27 3 -2 8 5 12 17 4 12 5 24 2 27 -3
2 -8 -5 -12 -17z"/>
<path d="M1190 2030 c-1 -8 -3 -32 -4 -54 l-3 -38 14 26 c10 20 12 34 4 54 -5
15 -10 20 -11 12z"/>
<path d="M1221 1999 c-14 -42 -7 -49 9 -9 7 17 10 33 8 36 -3 3 -11 -9 -17
-27z"/>
<path d="M1102 1975 c-25 -51 -29 -83 -6 -45 l15 25 -6 -25 c-3 -15 4 -8 19
20 14 25 25 52 25 60 0 8 -7 0 -15 -17 -17 -39 -28 -44 -13 -7 16 44 4 37 -19
-11z"/>
<path d="M991 1955 c1 -19 18 -51 18 -35 0 8 -4 22 -9 30 -5 8 -9 11 -9 5z"/>
<path d="M1045 1941 c-4 -13 -4 -25 -1 -28 3 -4 6 2 7 13 0 18 1 18 9 -1 6
-13 9 -15 9 -5 0 8 -3 21 -8 29 -7 11 -10 9 -16 -8z"/>
<path d="M1021 1924 c0 -11 3 -14 6 -6 3 7 2 16 -1 19 -3 4 -6 -2 -5 -13z"/>
<path d="M941 1914 c0 -11 3 -14 6 -6 3 7 2 16 -1 19 -3 4 -6 -2 -5 -13z"/>
<path d="M3706 2046 c-4 -16 -5 -31 -1 -34 3 -3 5 3 6 14 0 18 1 18 9 -1 l9
-20 1 20 c1 16 4 14 15 -10 l14 -30 -5 30 -5 30 15 -30 c19 -39 20 -17 1 26
-10 25 -15 29 -15 14 l-1 -20 -9 20 -9 20 -1 -20 c-1 -20 -2 -20 -9 0 -7 17
-9 16 -15 -9z"/>
<path d="M3786 2020 c3 -14 10 -32 15 -40 7 -13 8 -13 9 0 0 9 6 6 16 -10 l15
-25 -7 25 c-3 14 -10 32 -15 40 -7 13 -8 13 -9 0 0 -9 -6 -6 -16 10 l-15 25 7
-25z"/>
<path d="M3846 2005 c-4 -14 -1 -36 7 -52 14 -25 14 -25 12 20 -1 54 -10 69
-19 32z"/>
<path d="M3881 2000 c0 -15 38 -91 39 -79 0 4 -9 26 -20 50 -11 24 -19 37 -19
29z"/>
<path d="M3981 1964 c0 -11 3 -14 6 -6 3 7 2 16 -1 19 -3 4 -6 -2 -5 -13z"/>
<path d="M4004 1943 c0 -23 4 -36 8 -30 5 9 8 8 8 -3 0 -13 1 -13 10 0 8 12
10 12 11 -5 l0 -20 9 20 9 20 1 -20 c1 -18 2 -17 11 4 5 13 8 29 5 35 -2 6 -5
2 -6 -9 l-1 -20 -9 20 -9 20 -1 -20 c-1 -14 -5 -10 -15 15 -10 25 -14 29 -15
15 l-1 -20 -8 20 c-6 14 -8 8 -7 -22z m23 -15 c-3 -8 -6 -5 -6 6 -1 11 2 17 5
13 3 -3 4 -12 1 -19z"/>
<path d="M2030 1915 c0 -8 7 -15 15 -15 8 0 15 7 15 15 0 8 -7 15 -15 15 -8 0
-15 -7 -15 -15z"/>
<path d="M2977 1924 c-9 -10 2 -24 19 -24 8 0 14 7 14 15 0 15 -21 21 -33 9z"/>
<path d="M1560 1360 c-11 -11 -20 -27 -20 -36 0 -15 2 -15 22 -2 23 16 44 58
28 58 -6 0 -19 -9 -30 -20z"/>
<path d="M3444 1364 c3 -9 6 -19 6 -23 0 -4 11 -13 25 -19 21 -10 23 -9 18 6
-8 23 -34 52 -46 52 -5 0 -6 -7 -3 -16z"/>
<path d="M4121 1894 c0 -11 3 -14 6 -6 3 7 2 16 -1 19 -3 4 -6 -2 -5 -13z"/>
<path d="M3359 1763 c-13 -16 -12 -17 4 -4 16 13 21 21 13 21 -2 0 -10 -8 -17
-17z"/>
<path d="M3389 1733 c-13 -16 -12 -17 4 -4 9 7 17 15 17 17 0 8 -8 3 -21 -13z"/>
<path d="M3403 1717 c-4 -6 -1 -7 7 -2 10 6 12 4 7 -9 -4 -10 -3 -15 3 -11 6
3 10 1 10 -6 0 -9 3 -10 10 -3 6 6 8 17 5 26 -7 17 -33 20 -42 5z"/>
<path d="M3523 1647 c-3 -6 -1 -7 5 -3 17 10 15 -9 -2 -24 -15 -12 -11 -41 4
-37 5 1 15 -7 23 -17 11 -15 16 -16 22 -6 6 9 4 11 -6 5 -8 -5 -11 -4 -6 1 5
5 13 9 19 9 6 0 18 11 27 25 9 14 11 21 3 16 -7 -4 -15 -1 -18 8 -3 9 -10 13
-15 10 -5 -3 -12 1 -15 9 -6 16 -32 18 -41 4z m62 -39 c3 1 5 -1 5 -5 0 -5 -4
-8 -9 -8 -5 0 -13 -3 -17 -7 -12 -12 -24 2 -17 20 6 15 5 16 -13 2 -18 -14
-18 -14 1 8 18 22 20 22 33 5 7 -10 15 -17 17 -15z"/>
<path d="M3601 1576 c-24 -26 -29 -40 -16 -43 6 -2 10 2 10 9 0 6 8 12 18 14
15 2 15 -1 -4 -27 -11 -16 -16 -28 -11 -27 6 2 17 -6 25 -16 11 -15 16 -16 22
-6 6 9 4 11 -5 5 -9 -5 -11 -4 -6 4 6 8 12 9 20 2 7 -6 16 -8 20 -4 3 4 13 8
21 9 16 2 17 -34 1 -55 -8 -11 -8 -13 2 -7 6 4 12 3 12 -3 0 -13 28 -8 43 9
10 12 9 12 -4 2 -14 -10 -18 -10 -22 3 -4 8 -1 14 5 12 10 -2 13 16 9 54 -1 6
-7 7 -13 2 -34 -21 -59 -4 -36 25 12 16 11 16 -6 2 -11 -8 -21 -13 -23 -12 -3
2 -8 0 -11 -4 -4 -4 -1 -4 7 1 10 6 12 4 6 -4 -6 -10 -11 -10 -22 2 -9 9 -12
20 -7 28 26 42 -1 61 -35 25z m33 -67 c-3 -5 -10 -7 -15 -3 -5 3 -7 10 -3 15
3 5 10 7 15 3 5 -3 7 -10 3 -15z m106 -13 c0 -2 -8 -10 -17 -17 -16 -13 -17
-12 -4 4 13 16 21 21 21 13z"/>
<path d="M1585 1700 c10 -11 20 -20 23 -20 3 0 -3 9 -13 20 -10 11 -20 20 -23
20 -3 0 3 -9 13 -20z"/>
<path d="M1525 1677 c5 -12 2 -15 -14 -12 -12 2 -21 -1 -21 -6 0 -6 -5 -7 -10
-4 -6 3 -13 -1 -16 -9 -3 -9 -10 -14 -15 -11 -4 3 -13 -4 -19 -15 -6 -11 -15
-18 -19 -15 -5 3 -12 -2 -15 -11 -3 -8 -10 -12 -16 -9 -6 3 -7 0 -4 -9 4 -11
0 -14 -15 -11 -22 4 -48 -28 -42 -54 2 -13 0 -13 -16 0 -16 13 -17 12 -5 -2 7
-9 11 -21 10 -27 -2 -5 2 -11 7 -12 6 -1 19 -9 29 -18 17 -15 17 -13 -2 15
-20 28 -20 31 -5 29 10 -2 18 -9 18 -16 0 -7 8 -14 18 -16 14 -2 16 0 7 11
-14 17 -4 38 13 28 32 -20 47 11 19 39 -15 15 -16 32 -2 23 6 -3 13 1 16 9 3
9 10 13 16 10 5 -3 7 -13 3 -22 -3 -9 -3 -13 1 -9 4 4 13 2 21 -5 11 -8 12 -7
7 6 -4 11 -2 16 7 14 8 -2 13 4 11 14 -2 12 3 16 17 13 15 -3 18 0 14 12 -5
12 -3 14 8 8 12 -8 12 -6 0 8 -7 9 -17 14 -22 11 -5 -3 -6 2 -3 9 6 18 26 16
48 -2 14 -12 16 -11 10 4 -6 14 -4 16 6 10 9 -6 11 -4 6 4 -5 7 -11 10 -14 7
-3 -3 -14 2 -24 11 -17 15 -18 15 -13 0z m-31 -39 c-3 -5 -1 -15 6 -23 8 -10
8 -13 -2 -11 -7 1 -19 5 -25 9 -18 11 -16 -3 3 -24 13 -15 14 -17 1 -15 -8 1
-21 7 -29 14 -8 6 -19 8 -23 4 -5 -4 -5 -1 -1 6 4 7 12 9 18 6 7 -5 9 -1 5 9
-4 12 -1 15 14 12 14 -3 19 0 16 9 -3 7 1 13 9 13 7 0 11 -4 8 -9z m-80 -56
c3 -5 -1 -9 -9 -9 -8 0 -12 4 -9 9 3 4 7 8 9 8 2 0 6 -4 9 -8z m-6 -47 c16
-18 16 -18 0 -6 -21 15 -24 2 -5 -19 10 -12 9 -12 -5 -2 -11 9 -18 10 -23 2
-3 -6 -12 -7 -18 -3 -7 4 -15 8 -19 9 -5 1 -11 2 -14 3 -3 0 -2 6 1 11 4 6 12
7 18 3 20 -12 38 -12 34 0 -2 7 -9 12 -14 12 -6 0 -14 3 -17 6 -4 3 5 5 19 5
14 -1 33 -10 43 -21z"/>
<path d="M1207 1397 c-3 -8 -1 -20 4 -28 7 -11 9 -11 9 -1 0 8 5 10 13 6 7 -5
7 -1 -3 12 -8 10 -15 20 -16 22 -1 2 -4 -3 -7 -11z"/>
<path d="M2250 1785 c0 -8 7 -15 15 -15 8 0 15 7 15 15 0 8 -7 15 -15 15 -8 0
-15 -7 -15 -15z"/>
<path d="M2752 1788 c5 -15 28 -18 29 -3 0 6 -7 12 -17 13 -10 3 -15 -1 -12
-10z"/>
<path d="M2505 1750 c-8 -13 4 -32 16 -25 12 8 12 35 0 35 -6 0 -13 -4 -16
-10z"/>
<path d="M2008 1115 c-19 -25 -24 -65 -10 -65 14 0 34 45 30 68 -3 20 -3 19
-20 -3z"/>
<path d="M3000 1111 c0 -10 9 -29 20 -42 l19 -24 1 23 c0 28 -17 62 -30 62 -6
0 -10 -9 -10 -19z"/>
<path d="M2506 1025 c-8 -31 1 -68 15 -60 11 8 12 55 0 73 -6 10 -10 7 -15
-13z"/>
<path d="M3058 1533 c6 -2 10 -9 7 -14 -4 -5 1 -6 10 -2 13 5 14 7 3 14 -7 5
-17 8 -23 8 -5 0 -4 -3 3 -6z"/>
<path d="M3070 1500 c-9 -6 -10 -10 -3 -10 6 0 15 5 18 10 8 12 4 12 -15 0z"/>
<path d="M1957 1519 c7 -7 15 -10 18 -7 3 3 -2 9 -12 12 -14 6 -15 5 -6 -5z"/>
<path d="M1870 1426 c0 -2 7 -7 16 -10 8 -3 12 -2 9 4 -6 10 -25 14 -25 6z"/>
<path d="M1875 1399 c6 -9 3 -11 -9 -6 -10 4 -15 3 -11 -3 3 -6 1 -10 -5 -10
-6 0 -8 -5 -5 -10 3 -6 -1 -13 -9 -16 -9 -3 -13 -10 -10 -15 3 -5 -2 -12 -10
-15 -9 -3 -14 -10 -11 -15 3 -4 -7 -15 -22 -23 -15 -8 -24 -15 -20 -16 5 0 18
5 29 11 16 8 19 8 13 -1 -5 -8 -3 -11 6 -8 8 3 13 14 13 26 -1 14 3 19 13 15
12 -5 12 -7 1 -14 -10 -7 -10 -9 2 -9 13 0 13 -1 0 -10 -13 -9 -13 -10 0 -10
13 0 13 -1 0 -10 -8 -5 -10 -10 -5 -10 6 0 17 5 25 10 13 9 13 10 0 10 -13 0
-13 1 0 10 13 9 13 10 0 10 -9 1 -5 6 10 15 15 9 19 14 10 15 -12 0 -13 2 -1
9 10 7 11 9 1 13 -8 2 -14 12 -16 22 -2 12 2 16 12 12 9 -4 12 -2 8 5 -4 8 1
9 17 4 28 -9 24 -3 -10 15 -19 10 -22 10 -16 -1z m-17 -70 c-11 -7 -10 -9 1
-9 8 0 12 -3 8 -6 -3 -3 -14 -1 -24 5 -11 6 -13 11 -5 11 7 0 10 4 7 10 -3 6
1 7 10 3 13 -5 14 -7 3 -14z"/>
<path d="M1769 1258 c-11 -8 -10 -9 4 -4 12 4 16 2 11 -6 -5 -8 -2 -9 9 -5 10
4 16 2 14 -5 -1 -6 4 -13 12 -16 8 -3 11 0 7 7 -5 7 -1 9 11 5 17 -5 17 -5 0
6 -9 6 -16 14 -13 18 7 11 -40 11 -55 0z"/>
<path d="M1750 1230 c-8 -5 -15 -14 -15 -20 0 -6 -7 -15 -15 -20 -13 -9 -13
-10 0 -10 13 0 13 -1 0 -10 -8 -5 -10 -10 -5 -10 6 0 17 5 25 10 13 8 13 10 1
10 -11 0 -9 4 5 15 14 11 16 15 4 15 -12 0 -12 3 2 11 13 7 24 5 42 -6 20 -13
29 -14 43 -5 17 11 17 11 0 6 -10 -3 -28 1 -40 9 -25 18 -27 18 -47 5z"/>
<path d="M1765 1211 c3 -5 1 -12 -5 -16 -6 -4 -8 -11 -5 -16 4 -5 -10 -17 -30
-26 -32 -15 -34 -19 -20 -29 15 -11 14 -13 -5 -19 -21 -7 -20 -8 10 -27 18
-10 35 -17 38 -14 2 3 -3 9 -13 12 -14 6 -9 12 26 30 l44 23 -42 -4 c-24 -2
-45 1 -48 6 -4 5 8 7 28 5 25 -4 34 -1 34 10 0 9 -6 13 -16 9 -12 -4 -12 -2 2
9 13 10 14 15 6 18 -9 3 -7 7 5 11 10 4 15 3 11 -3 -3 -6 0 -10 7 -10 9 0 9
-3 -2 -10 -8 -5 -12 -10 -7 -10 4 0 16 5 26 12 19 11 18 13 -10 30 -33 20 -43
23 -34 9z m-25 -106 c-14 -8 -29 -14 -35 -14 -5 0 1 6 15 14 14 8 30 14 35 14
6 0 -1 -6 -15 -14z"/>
<path d="M3128 1416 c-15 -11 -14 -13 15 -13 18 0 26 2 19 5 -6 2 -10 8 -6 13
8 13 -8 11 -28 -5z"/>
<path d="M3129 1369 c-11 -7 -11 -9 -1 -9 7 0 10 -5 6 -12 -4 -6 -3 -8 4 -5 5
4 17 4 26 1 15 -6 15 -8 -1 -20 -17 -13 -17 -14 2 -8 20 6 20 5 1 -10 -15 -12
-16 -16 -5 -17 8 -1 19 -2 24 -4 6 -1 17 -3 25 -4 12 -1 12 -3 2 -10 -11 -6
-10 -10 4 -15 9 -3 19 -4 22 -1 3 3 -1 5 -9 5 -11 0 -11 2 1 10 13 8 13 10 1
10 -11 0 -10 4 5 16 10 8 14 13 7 10 -6 -3 -19 -3 -28 0 -13 5 -14 8 -3 15 10
7 10 9 -2 9 -13 0 -13 2 0 11 13 9 12 10 -2 5 -10 -3 -25 -3 -33 0 -14 6 -14
8 0 18 13 9 12 11 -9 12 -13 1 -30 -2 -37 -7z m80 -68 c10 -7 7 -9 -12 -8 -14
1 -23 5 -20 10 6 9 15 9 32 -2z"/>
<path d="M3195 1240 c-3 -5 6 -15 20 -22 19 -8 22 -14 13 -20 -9 -6 -6 -7 9
-3 12 3 24 1 28 -5 12 -20 21 -10 21 25 0 37 -5 42 -23 24 -8 -8 -17 -8 -31 0
-25 14 -29 14 -37 1z m64 -16 c4 3 8 -1 8 -9 0 -12 -5 -12 -29 1 -15 8 -28 17
-28 20 0 2 9 0 20 -6 11 -6 24 -9 29 -6z"/>
<path d="M3295 1200 c2 -11 -3 -24 -13 -30 -14 -8 -14 -9 -2 -10 12 0 12 -2 2
-9 -10 -6 -5 -12 18 -21 l31 -13 -27 -17 c-26 -17 -26 -18 -5 -25 12 -3 19
-11 16 -16 -3 -5 2 -6 12 -3 17 5 17 5 0 -9 -18 -15 -18 -15 2 -22 12 -3 19
-10 16 -15 -6 -9 25 -23 33 -15 3 3 0 5 -7 5 -7 0 -9 5 -6 10 3 6 0 10 -7 10
-9 0 -9 3 2 10 11 7 11 10 2 10 -7 0 -10 5 -7 10 3 6 0 10 -7 10 -9 0 -9 3 2
10 11 7 11 10 2 10 -7 0 -10 5 -7 10 3 6 0 10 -7 10 -10 0 -10 2 1 9 11 7 9
10 -9 16 -18 6 -20 9 -9 17 10 6 7 7 -11 3 -22 -5 -23 -4 -9 7 21 17 24 29 7
39 -10 7 -10 9 0 9 7 0 10 5 7 10 -11 17 -24 11 -20 -10z m30 -110 c-3 -5 -1
-10 6 -10 7 0 10 -2 7 -5 -8 -9 -38 6 -32 16 3 5 10 9 15 9 6 0 7 -4 4 -10z"/>
<path d="M2753 1173 c9 -2 23 -2 30 0 6 3 -1 5 -18 5 -16 0 -22 -2 -12 -5z"/>
<path d="M1643 975 c0 -7 6 -11 14 -8 7 3 13 6 13 8 0 2 -6 5 -13 8 -8 3 -14
-1 -14 -8z"/>
<path d="M2763 943 c9 -2 23 -2 30 0 6 3 -1 5 -18 5 -16 0 -22 -2 -12 -5z"/>
</g>
</svg>
