<?xml version="1.0" standalone="no"?>
<!DOCTYPE svg PUBLIC "-//W3C//DTD SVG 20010904//EN"
 "http://www.w3.org/TR/2001/REC-SVG-20010904/DTD/svg10.dtd">
<svg version="1.0" xmlns="http://www.w3.org/2000/svg"
 width="500.000000pt" height="500.000000pt" viewBox="0 0 500.000000 500.000000"
 preserveAspectRatio="xMidYMid meet">

<g transform="translate(0.000000,500.000000) scale(0.100000,-0.100000)"
fill="#e7ab5c" stroke="none">
<path d="M2478 4476 c-7 -13 -57 -69 -110 -125 -105 -110 -153 -183 -164 -249
-4 -23 -9 -42 -13 -42 -3 1 -18 19 -34 41 -31 46 -133 114 -227 154 -36 15
-91 40 -122 56 -32 16 -61 29 -66 29 -5 0 -20 -33 -34 -72 -14 -40 -42 -118
-62 -173 -34 -91 -37 -107 -34 -186 l4 -85 -67 34 c-67 35 -67 35 -260 44
-105 4 -193 7 -195 5 -2 -1 0 -90 5 -196 l8 -192 35 -68 34 -67 -80 4 c-87 4
-137 -8 -309 -77 -43 -17 -86 -31 -95 -31 -39 0 -39 -19 2 -103 23 -45 56
-115 75 -156 44 -93 81 -143 132 -181 43 -30 42 -32 -16 -45 -56 -12 -131 -64
-234 -162 -57 -54 -114 -104 -127 -111 -24 -12 -33 -32 -15 -32 5 0 61 -48
124 -108 128 -119 205 -171 266 -179 23 -3 41 -8 41 -12 -1 -3 -18 -18 -40
-33 -47 -33 -108 -120 -147 -213 -17 -39 -45 -100 -63 -138 -18 -37 -31 -69
-29 -71 2 -2 36 -15 74 -29 39 -14 115 -41 170 -61 91 -34 107 -37 186 -34
l85 4 -34 -67 c-34 -66 -34 -66 -43 -259 -5 -107 -7 -195 -5 -197 1 -1 89 1
195 6 l193 8 67 35 67 34 -4 -81 c-4 -75 -1 -90 33 -186 21 -57 49 -135 62
-174 14 -38 27 -72 29 -74 2 -2 46 15 96 39 51 24 121 56 155 72 74 34 155 96
179 137 22 37 30 33 39 -19 9 -55 74 -151 163 -242 41 -42 86 -93 100 -112 24
-34 42 -46 42 -28 0 5 49 62 110 126 109 117 162 194 175 251 13 59 15 60 40
22 32 -46 102 -100 179 -136 255 -120 266 -124 266 -80 0 11 15 57 34 102 62
150 79 220 74 306 l-4 77 68 -35 c67 -34 69 -35 245 -42 97 -5 183 -11 190
-14 8 -2 16 1 19 8 2 7 1 96 -4 199 -8 186 -9 188 -43 256 l-34 69 77 -5 c85
-5 155 12 305 74 45 19 90 34 100 34 40 0 40 19 -1 104 -23 45 -55 114 -73
152 -40 88 -83 146 -133 183 -41 29 -42 41 -5 41 48 0 145 62 247 158 56 53
116 108 133 120 l30 24 -30 21 c-17 12 -73 62 -126 112 -110 102 -190 154
-248 162 -48 7 -51 14 -15 34 40 21 97 91 131 161 55 112 123 260 123 267 0 5
-33 19 -72 33 -40 14 -120 42 -178 63 -95 34 -112 37 -186 33 l-80 -4 34 67
35 67 8 193 c5 106 8 194 6 195 -2 2 -90 0 -196 -5 l-192 -8 -68 -35 -68 -35
5 73 c5 87 -5 132 -64 281 -24 62 -44 122 -44 133 0 34 -22 33 -96 -4 -38 -18
-97 -45 -130 -59 -83 -33 -179 -100 -214 -148 -31 -43 -34 -42 -44 12 -9 53
-70 141 -173 250 -50 53 -96 106 -102 118 -15 27 -27 27 -43 -3z m132 -171
c134 -139 155 -180 155 -295 0 -69 -4 -94 -23 -132 -24 -47 -24 -48 -72 -48
-27 0 -51 4 -54 9 -3 5 5 33 19 63 44 94 28 193 -39 241 -24 17 -45 22 -96 22
-76 0 -118 -24 -146 -83 -21 -45 -14 -132 15 -190 12 -23 21 -46 21 -52 0 -5
-23 -10 -53 -10 l-53 0 -25 48 c-34 68 -35 195 0 266 21 42 228 276 241 272 3
0 52 -51 110 -111z m-666 -104 c171 -83 236 -153 252 -273 13 -97 -1 -123 -78
-142 l-28 -6 0 68 c0 94 -34 162 -94 191 -51 25 -70 26 -127 6 -53 -19 -76
-40 -95 -84 -30 -71 -7 -147 65 -216 22 -21 41 -42 41 -46 0 -14 -73 -50 -90
-44 -31 10 -92 77 -116 129 -36 78 -33 158 12 287 20 57 47 125 60 152 31 59
27 60 198 -22z m1320 -3 c93 -204 109 -310 63 -410 -25 -55 -99 -138 -124
-138 -15 0 -83 40 -83 49 0 4 19 25 41 46 122 118 98 265 -49 305 -115 30
-201 -57 -202 -203 l0 -67 -27 6 c-65 16 -71 21 -79 70 -15 105 37 216 132
279 57 38 259 135 282 135 7 0 28 -33 46 -72z m-674 -107 c33 -27 35 -33 34
-87 0 -42 -7 -73 -25 -109 l-25 -50 -72 -3 -71 -3 -26 51 c-36 72 -42 136 -16
178 25 40 50 51 116 51 42 1 57 -4 85 -28z m-600 -94 c13 -7 35 -28 48 -47 20
-29 22 -44 20 -108 l-3 -73 -60 -25 c-33 -13 -66 -24 -73 -24 -23 0 -110 96
-120 131 -16 61 13 119 73 145 38 17 83 17 115 1z m1159 -14 c14 -11 34 -36
44 -56 16 -32 17 -42 6 -74 -14 -42 -94 -133 -118 -133 -21 0 -124 42 -134 55
-4 5 -6 42 -5 82 4 77 22 116 69 141 32 17 104 9 138 -15z m-1714 -143 c147
-18 222 -75 262 -198 l17 -54 -39 -33 c-22 -18 -43 -30 -46 -27 -3 4 -14 29
-24 56 -20 55 -65 110 -106 132 -123 63 -279 -92 -215 -214 27 -51 126 -122
171 -122 23 0 18 -21 -14 -60 l-29 -34 -53 17 c-160 52 -198 132 -212 453 l-5
101 107 -4 c58 -2 142 -8 186 -13z m2419 -97 c-13 -292 -46 -370 -184 -432
-63 -29 -83 -27 -114 13 -30 40 -33 56 -10 56 36 0 130 61 157 102 50 77 24
175 -59 224 -110 64 -208 2 -268 -169 -5 -16 -10 -15 -46 14 -24 19 -40 41
-40 53 0 24 53 131 78 159 47 52 138 77 307 87 72 4 142 8 157 8 l27 2 -5
-117z m-1297 45 c44 -36 60 -156 29 -217 -19 -35 -62 -71 -86 -71 -26 0 -71
39 -86 76 -18 44 -18 138 1 174 28 54 100 73 142 38z m-159 -11 c4 -20 -25
-34 -40 -19 -15 15 -1 44 19 40 10 -2 19 -11 21 -21z m250 0 c4 -20 -25 -34
-40 -19 -15 15 -1 44 19 40 10 -2 19 -11 21 -21z m-319 -26 c72 -77 64 -231
-14 -261 -73 -28 -153 80 -143 191 7 66 37 99 91 99 30 0 45 -7 66 -29z m475
-2 c21 -25 26 -41 26 -85 0 -66 -17 -109 -59 -148 -99 -94 -193 48 -127 190
28 59 46 73 98 74 28 0 42 -7 62 -31z m-654 -19 c0 -24 -29 -38 -40 -20 -12
19 -1 40 21 40 12 0 19 -7 19 -20z m744 11 c10 -16 -5 -41 -25 -41 -14 0 -19
7 -19 25 0 18 5 25 19 25 11 0 22 -4 25 -9z m-787 -64 c34 -32 63 -101 63
-151 0 -46 -33 -93 -70 -101 -97 -21 -197 168 -133 253 36 48 88 48 140 -1z
m915 15 c27 -23 38 -74 27 -124 -29 -129 -147 -191 -200 -105 -34 57 -19 140
38 206 44 53 93 61 135 23z m-1502 -32 c28 -30 64 -98 75 -141 5 -19 -4 -34
-44 -73 -49 -48 -49 -48 -87 -36 -50 16 -132 67 -144 91 -40 75 40 188 133
189 30 0 45 -7 67 -30z m2103 5 c44 -31 67 -71 67 -121 0 -29 -7 -44 -35 -70
-29 -27 -126 -74 -153 -74 -4 0 -30 22 -56 49 l-49 50 18 48 c51 135 122 176
208 118z m-1703 -35 c0 -24 -25 -33 -40 -14 -10 11 -10 17 0 28 15 19 40 10
40 -14z m1200 15 c10 -12 10 -18 0 -29 -14 -18 -40 -10 -40 13 0 32 20 40 40
16z m-1221 -74 c34 -25 81 -112 81 -152 0 -102 -100 -128 -177 -46 -68 71 -84
157 -37 204 21 21 32 25 64 20 22 -3 52 -14 69 -26z m1336 4 c64 -63 -11 -227
-114 -250 -60 -13 -107 38 -98 106 16 122 146 211 212 144z m-817 -52 c-2 -10
-10 -18 -18 -18 -8 0 -16 8 -18 18 -2 12 3 17 18 17 15 0 20 -5 18 -17z m200
0 c-2 -10 -10 -18 -18 -18 -8 0 -16 8 -18 18 -2 12 3 17 18 17 15 0 20 -5 18
-17z m718 -42 c-9 -14 -43 -14 -52 1 -4 6 1 17 12 25 15 11 20 11 32 -1 8 -8
11 -19 8 -25z m-1623 15 c7 -17 -1 -26 -24 -26 -21 0 -33 15 -24 30 9 15 42
12 48 -4z m507 -12 c0 -8 -9 -14 -20 -14 -22 0 -28 26 -7 33 16 6 27 -1 27
-19z m598 3 c2 -12 -3 -17 -17 -17 -12 0 -21 6 -21 13 0 31 32 34 38 4z m-58
-45 c161 -43 289 -120 426 -257 133 -132 214 -266 256 -425 31 -117 36 -347
10 -471 -41 -192 -114 -322 -266 -475 -215 -214 -417 -293 -726 -281 -207 8
-326 43 -479 142 -177 114 -355 338 -409 515 -43 138 -54 354 -27 501 21 110
30 139 76 232 94 190 266 362 456 456 88 44 107 51 208 72 120 25 363 20 475
-9z m-1073 -3 c34 -12 90 -64 109 -101 38 -72 3 -148 -68 -148 -50 0 -86 19
-131 69 -92 102 -31 226 90 180z m1745 -19 c20 -25 24 -80 7 -113 -17 -32 -70
-87 -101 -103 -40 -21 -104 -18 -128 6 -24 24 -27 88 -6 128 15 29 68 82 101
101 31 18 106 7 127 -19z m-1397 -10 c0 -8 -8 -16 -17 -18 -13 -2 -18 3 -18
18 0 15 5 20 18 18 9 -2 17 -10 17 -18z m969 12 c2 -4 1 -14 -4 -21 -11 -19
-41 -6 -34 14 6 16 29 20 38 7z m1046 -99 c121 -41 220 -90 220 -108 0 -9 -32
-82 -70 -161 -62 -126 -77 -149 -121 -184 -104 -82 -266 -96 -283 -23 -4 15
-9 36 -12 46 -5 15 3 17 63 17 170 0 253 111 186 248 -21 43 -83 82 -131 82
-48 0 -116 -36 -162 -86 l-40 -44 -25 41 c-15 23 -24 48 -20 58 8 27 75 90
118 113 83 42 154 42 277 1z m-2834 3 c51 -24 134 -99 134 -122 0 -16 -40 -84
-49 -84 -4 0 -25 19 -46 41 -69 72 -147 95 -219 65 -45 -19 -73 -57 -87 -121
-11 -48 -10 -57 10 -98 31 -64 97 -97 194 -97 76 0 76 1 47 -74 -16 -44 -123
-48 -215 -7 -72 32 -119 89 -185 225 -82 171 -82 170 -28 197 23 12 90 39 148
60 132 48 217 52 296 15z m312 -14 c3 -17 -2 -22 -17 -22 -14 0 -21 6 -21 18
0 38 33 41 38 4z m1982 12 c11 -12 11 -18 -2 -31 -19 -18 -38 -10 -38 16 0 33
20 40 40 15z m-1640 -29 c0 -8 -9 -15 -20 -15 -11 0 -20 7 -20 15 0 8 9 15 20
15 11 0 20 -7 20 -15z m1300 -1 c0 -9 -7 -14 -17 -12 -25 5 -28 28 -4 28 12 0
21 -6 21 -16z m-1607 -50 c81 -41 130 -119 107 -173 -23 -56 -88 -65 -168 -25
-60 30 -92 69 -99 124 -5 32 -1 43 20 64 31 31 90 35 140 10z m2012 -9 c52
-51 19 -138 -70 -187 -68 -37 -118 -37 -156 1 -33 33 -35 48 -15 94 41 97 183
151 241 92z m-2394 -51 c29 -15 99 -91 99 -108 0 -6 -12 -39 -26 -73 l-27 -63
-63 0 c-101 0 -158 33 -170 98 -13 69 29 143 92 162 31 9 54 5 95 -16z m2769
-3 c55 -38 76 -126 43 -181 -25 -43 -76 -62 -156 -58 l-68 3 -25 60 c-13 33
-22 70 -19 82 7 28 90 101 129 112 36 11 62 6 96 -18z m-2230 -31 c0 -11 -7
-20 -15 -20 -8 0 -15 9 -15 20 0 11 7 20 15 20 8 0 15 -9 15 -20z m1590 0 c0
-11 -7 -20 -15 -20 -8 0 -15 9 -15 20 0 11 7 20 15 20 8 0 15 -9 15 -20z
m-1922 -48 c3 -16 -2 -22 -16 -22 -24 0 -35 23 -19 39 16 16 31 8 35 -17z
m2262 13 c15 -18 5 -35 -21 -35 -12 0 -19 7 -19 18 0 33 20 42 40 17z m-2185
-78 c73 -27 122 -91 109 -143 -8 -32 -58 -64 -100 -64 -91 0 -186 69 -186 135
0 79 76 110 177 72z m2212 -3 c29 -18 45 -57 37 -88 -13 -54 -113 -116 -186
-116 -42 0 -83 25 -97 59 -24 56 26 121 120 155 48 17 90 14 126 -10z m-2069
-51 c-2 -10 -10 -18 -18 -18 -8 0 -16 8 -18 18 -2 12 3 17 18 17 15 0 20 -5
18 -17z m1820 0 c-2 -10 -10 -18 -18 -18 -8 0 -16 8 -18 18 -2 12 3 17 18 17
15 0 20 -5 18 -17z m-2130 -112 c-2 -9 -13 -17 -26 -19 -16 -3 -22 2 -22 16 0
11 6 22 13 25 20 7 38 -4 35 -22z m2450 1 c3 -16 -2 -22 -17 -22 -26 0 -36 17
-20 36 16 19 33 13 37 -14z m-2337 -53 c40 -14 87 -55 100 -86 12 -33 -5 -70
-43 -93 -58 -35 -164 -20 -219 31 -51 47 -34 128 31 152 26 10 96 7 131 -4z
m2346 -23 c49 -57 20 -132 -64 -160 -106 -36 -195 -6 -201 68 -6 72 78 129
182 123 49 -3 63 -8 83 -31z m-2227 4 c0 -11 -6 -20 -13 -20 -19 0 -27 10 -20
26 8 21 33 17 33 -6z m1975 0 c0 -8 -8 -16 -17 -18 -13 -2 -18 3 -18 18 0 15
5 20 18 18 9 -2 17 -10 17 -18z m-2382 -60 l47 -24 0 -53 c0 -30 -5 -53 -10
-53 -6 0 -29 9 -52 21 -94 48 -203 33 -251 -35 -32 -46 -32 -148 2 -195 47
-65 145 -80 239 -36 30 14 58 22 63 19 5 -3 9 -27 9 -54 0 -48 -1 -48 -47 -71
-57 -28 -156 -36 -217 -19 -62 17 -109 51 -224 162 l-101 96 93 91 c161 158
206 183 326 178 55 -3 89 -10 123 -27z m3022 0 c42 -21 270 -223 270 -240 0
-3 -53 -56 -117 -117 -93 -88 -129 -116 -173 -132 -65 -24 -142 -27 -209 -7
-65 20 -86 41 -86 85 0 60 9 65 71 36 95 -44 193 -29 240 36 19 28 24 46 24
99 0 53 -5 71 -24 99 -46 65 -133 78 -236 36 -68 -28 -75 -24 -75 41 0 39 2
41 48 62 71 31 72 32 147 29 50 -2 84 -9 120 -27z m-2897 -113 c4 -20 -25 -34
-40 -19 -15 15 -1 44 19 40 10 -2 19 -11 21 -21z m2550 0 c4 -20 -25 -34 -40
-19 -15 15 -1 44 19 40 10 -2 19 -11 21 -21z m-2694 -30 l56 -26 0 -70 0 -71
-52 -27 c-39 -20 -68 -27 -112 -27 -54 -1 -60 1 -87 34 -23 27 -29 44 -29 81
0 65 13 95 52 120 42 26 94 21 172 -14z m2956 18 c45 -23 60 -53 60 -116 0
-122 -98 -161 -232 -93 l-48 24 0 70 0 70 43 21 c80 42 130 48 177 24z m-2565
-15 c0 -8 -8 -16 -17 -18 -13 -2 -18 3 -18 18 0 15 5 20 18 18 9 -2 17 -10 17
-18z m2045 0 c0 -21 -24 -28 -35 -10 -8 14 3 30 21 30 8 0 14 -9 14 -20z
m-2093 -26 c15 -12 35 -33 43 -47 13 -24 13 -30 0 -54 -28 -50 -75 -73 -150
-73 -53 0 -74 5 -101 23 -62 42 -61 118 3 158 45 28 163 24 205 -7z m2314 3
c94 -64 35 -180 -92 -179 -68 1 -113 18 -144 53 -31 37 -31 58 -3 94 30 38 72
54 144 55 47 0 69 -5 95 -23z m-2266 -177 c0 -8 -8 -16 -17 -18 -13 -2 -18 3
-18 18 0 15 5 20 18 18 9 -2 17 -10 17 -18z m2045 0 c0 -21 -24 -28 -35 -10
-8 14 3 30 21 30 8 0 14 -9 14 -20z m-2292 -23 c4 -20 -25 -34 -40 -19 -15 15
-1 44 19 40 10 -2 19 -11 21 -21z m2550 0 c4 -20 -25 -34 -40 -19 -15 15 -1
44 19 40 10 -2 19 -11 21 -21z m-2343 -11 c43 -18 68 -56 59 -90 -9 -36 -76
-94 -119 -102 -98 -18 -175 19 -175 83 0 51 16 72 73 99 59 27 112 30 162 10z
m2227 2 c96 -29 131 -118 67 -172 -53 -45 -167 -31 -230 28 -25 24 -30 35 -27
70 5 73 88 105 190 74z m-2152 -168 c0 -21 -24 -28 -35 -10 -8 14 3 30 21 30
8 0 14 -9 14 -20z m1975 0 c0 -8 -8 -16 -17 -18 -13 -2 -18 3 -18 18 0 15 5
20 18 18 9 -2 17 -10 17 -18z m-2345 -6 c31 -7 40 -18 54 -76 l6 -28 -64 0
c-146 0 -236 -88 -206 -202 16 -58 37 -86 81 -109 72 -36 151 -15 224 60 21
22 42 41 46 41 9 0 49 -68 49 -84 0 -24 -84 -99 -139 -124 -77 -35 -141 -34
-266 8 -118 39 -215 85 -215 103 0 22 96 223 134 279 68 103 183 154 296 132z
m2855 -23 c72 -32 119 -89 184 -224 88 -181 88 -171 0 -211 -257 -116 -392
-115 -507 5 -47 48 -48 50 -27 87 32 59 29 59 89 5 31 -28 72 -57 92 -63 84
-28 170 14 198 97 20 59 20 78 -3 129 -27 59 -99 94 -193 94 -37 0 -68 1 -68
3 0 1 6 22 14 47 9 32 20 47 37 52 37 11 136 0 184 -21z m-2471 -24 c78 -51
11 -168 -112 -196 -84 -18 -147 19 -145 87 1 30 9 44 42 73 22 20 55 41 73 47
43 14 111 9 142 -11z m2057 8 c130 -46 155 -174 39 -205 -71 -19 -173 29 -205
96 -14 30 -15 40 -4 65 23 56 88 73 170 44z m-2301 -19 c0 -18 -27 -39 -40
-31 -5 3 -10 15 -10 26 0 14 7 19 25 19 15 0 25 -6 25 -14z m2450 -5 c0 -27
-19 -36 -37 -18 -18 18 -9 37 18 37 12 0 19 -7 19 -19z m-2498 -131 c15 -30
27 -64 27 -75 1 -27 -73 -99 -120 -119 -91 -38 -185 52 -165 158 12 65 69 96
166 93 l65 -2 27 -55z m2675 49 c67 -25 96 -87 74 -158 -21 -72 -88 -109 -156
-86 -42 15 -113 79 -121 110 -6 23 37 123 58 136 19 12 112 11 145 -2z m-2317
-34 c0 -7 -7 -16 -15 -19 -20 -7 -33 23 -14 34 16 10 29 4 29 -15z m1820 -1
c0 -8 -9 -14 -20 -14 -19 0 -27 19 -14 33 10 9 34 -4 34 -19z m-1779 -63 c32
-32 34 -45 18 -88 -25 -67 -109 -123 -183 -123 -59 0 -91 35 -83 94 7 53 34
86 97 119 70 36 113 36 151 -2z m1847 3 c60 -30 92 -69 99 -124 5 -32 1 -43
-20 -64 -47 -47 -133 -33 -199 31 -64 63 -71 129 -16 167 32 23 76 20 136 -10z
m-2105 -48 c3 -8 -1 -20 -9 -27 -12 -10 -18 -9 -31 3 -8 9 -12 21 -9 27 10 16
43 14 49 -3z m2263 3 c8 -14 -21 -43 -35 -35 -6 4 -11 16 -11 27 0 21 34 27
46 8z m-1936 -59 c0 -11 -7 -20 -15 -20 -8 0 -15 9 -15 20 0 11 7 20 15 20 8
0 15 -9 15 -20z m1590 0 c0 -11 -7 -20 -15 -20 -15 0 -21 21 -8 33 12 13 23 7
23 -13z m-1520 -60 c23 -23 27 -87 9 -123 -17 -32 -70 -87 -101 -103 -93 -48
-174 25 -137 123 36 96 174 158 229 103z m1548 6 c31 -16 84 -71 101 -103 32
-63 -6 -143 -68 -143 -121 0 -230 162 -159 237 25 27 83 31 126 9z m-1810
-100 c6 -27 -14 -42 -32 -27 -12 10 -13 18 -5 33 12 22 32 19 37 -6z m342 10
c0 -15 -24 -28 -34 -19 -13 14 -5 33 14 33 11 0 20 -6 20 -14z m1300 -1 c0 -8
-9 -15 -20 -15 -20 0 -26 11 -13 23 12 13 33 7 33 -8z m-1721 -35 c29 -36 30
-41 14 -46 -171 -60 -233 -158 -169 -268 49 -83 147 -109 224 -59 41 27 102
121 102 157 0 24 21 19 59 -13 30 -25 33 -32 27 -63 -9 -50 -66 -139 -105
-165 -57 -38 -128 -53 -295 -63 -88 -5 -161 -8 -162 -7 -9 8 18 332 30 372 29
94 80 147 176 181 54 20 64 17 99 -26z m2064 26 c7 -17 -18 -40 -33 -31 -5 3
-10 15 -10 26 0 23 35 27 43 5z m136 -1 c23 -8 62 -28 87 -46 80 -55 106 -142
118 -396 l5 -112 -112 5 c-262 12 -343 37 -401 126 -19 29 -40 72 -47 96 -12
42 -12 43 22 72 37 32 59 38 59 17 0 -8 13 -40 30 -73 40 -81 94 -117 166
-112 59 5 97 30 131 86 52 84 14 180 -91 232 -33 17 -65 30 -73 30 -20 0 -16
18 15 56 31 39 34 39 91 19z m-1698 -44 c37 -38 38 -80 2 -152 -48 -93 -135
-128 -188 -74 -72 71 26 250 138 254 10 1 32 -12 48 -28z m1186 18 c99 -37
158 -185 98 -244 -49 -50 -132 -22 -180 59 -49 84 -42 162 18 186 29 12 31 12
64 -1z m-1102 -79 c0 -8 -8 -16 -17 -18 -13 -2 -18 3 -18 18 0 15 5 20 18 18
9 -2 17 -10 17 -18z m968 14 c9 -9 -4 -34 -18 -34 -14 0 -27 25 -18 34 4 3 12
6 18 6 6 0 14 -3 18 -6z m-1449 -53 c48 -49 48 -49 36 -87 -16 -50 -67 -132
-91 -144 -98 -53 -242 102 -171 185 31 37 129 93 167 94 6 1 32 -21 59 -48z
m2033 18 c69 -33 103 -71 103 -114 0 -73 -71 -145 -141 -145 -54 1 -99 48
-134 143 l-18 48 49 50 c54 55 61 56 141 18z m-1472 -1 c74 -33 70 -166 -7
-245 -35 -37 -66 -47 -102 -33 -94 35 -68 219 39 274 36 19 37 19 70 4z m860
-16 c108 -81 101 -266 -10 -266 -86 0 -166 161 -121 243 28 50 82 60 131 23z
m-1259 -33 c3 -6 -1 -18 -10 -27 -15 -15 -17 -15 -32 0 -19 19 -11 38 16 38
10 0 22 -5 26 -11z m502 -6 c-2 -10 -10 -18 -18 -18 -8 0 -16 8 -18 18 -2 12
3 17 18 17 15 0 20 -5 18 -17z m600 0 c-2 -10 -10 -18 -18 -18 -8 0 -16 8 -18
18 -2 12 3 17 18 17 15 0 20 -5 18 -17z m518 6 c8 -14 -21 -43 -35 -35 -6 4
-11 16 -11 27 0 21 34 27 46 8z m-983 -40 c40 -55 31 -169 -19 -229 -34 -40
-98 -43 -134 -5 -48 51 -36 170 24 233 26 28 37 32 70 30 28 -2 44 -10 59 -29z
m425 -2 c59 -60 71 -172 26 -226 -54 -64 -143 -29 -172 67 -31 103 5 192 78
192 28 0 43 -8 68 -33z m-361 7 c8 -20 -8 -36 -26 -25 -15 10 -8 41 9 41 6 0
13 -7 17 -16z m127 -5 c39 -31 56 -72 57 -137 2 -120 -80 -190 -153 -132 -38
29 -51 71 -46 145 4 70 25 110 69 132 33 17 42 16 73 -8z m74 -2 c2 -12 -3
-17 -17 -17 -12 0 -21 6 -21 13 0 31 32 34 38 4z m-700 -109 c-4 -27 -33 -36
-42 -13 -8 22 1 35 25 35 15 0 20 -6 17 -22z m1208 11 c8 -14 -21 -43 -35 -35
-6 4 -11 16 -11 27 0 21 34 27 46 8z m-1282 -50 c20 -12 36 -23 36 -26 0 -3
-22 -29 -48 -58 -105 -114 -89 -247 35 -289 59 -20 78 -20 129 3 59 27 94 99
94 193 l0 68 28 -6 c77 -19 91 -45 78 -141 -17 -123 -77 -189 -249 -272 -181
-88 -171 -88 -211 0 -117 259 -116 391 5 504 26 25 53 45 58 45 5 0 26 -9 45
-21z m1415 -21 c95 -90 116 -206 66 -353 -40 -116 -92 -225 -107 -225 -23 0
-244 106 -292 140 -87 63 -142 192 -120 285 8 34 14 39 54 51 25 8 46 14 48
14 1 0 2 -31 2 -68 0 -94 35 -166 94 -193 51 -23 70 -23 129 -3 126 43 141
187 32 294 -25 24 -45 48 -45 52 0 8 69 47 85 48 6 0 30 -19 54 -42z m-1111
-36 c3 -16 -2 -22 -17 -22 -24 0 -33 13 -25 35 9 23 38 14 42 -13z m746 12 c8
-21 -1 -34 -25 -34 -12 0 -19 7 -19 18 0 34 33 45 44 16z m-851 -47 c24 -9 24
-131 1 -181 -45 -94 -187 -85 -236 15 -26 52 -9 101 57 166 l54 52 53 -23 c29
-13 61 -26 71 -29z m1097 -4 c61 -61 77 -112 52 -162 -26 -53 -64 -76 -127
-76 -63 0 -99 26 -116 84 -15 50 -8 142 11 152 45 25 97 47 114 48 10 1 40
-20 66 -46z m-742 -6 c4 -20 -25 -34 -40 -19 -15 15 -1 44 19 40 10 -2 19 -11
21 -21z m250 0 c4 -20 -25 -34 -40 -19 -15 15 -1 44 19 40 10 -2 19 -11 21
-21z m-271 -65 c9 -6 6 -24 -13 -72 -61 -150 9 -270 151 -258 128 11 183 132
120 267 -29 63 -25 71 42 71 39 0 42 -2 64 -47 34 -69 38 -170 9 -246 -17 -46
-43 -80 -133 -175 -61 -64 -114 -117 -117 -117 -16 0 -221 231 -241 271 -34
70 -34 189 0 262 24 50 26 52 65 52 23 0 46 -4 53 -8z m218 -51 c47 -94 40
-178 -19 -216 -41 -27 -139 -17 -174 18 -38 38 -37 120 1 195 l27 52 70 0 70
0 25 -49z"/>
<path d="M2448 4050 c-24 -25 -29 -36 -24 -58 15 -61 87 -82 131 -37 33 32 31
60 -4 96 -37 37 -65 37 -103 -1z m95 -31 c14 -23 1 -67 -23 -74 -49 -15 -85
29 -60 75 14 25 67 25 83 -1z"/>
<path d="M1871 3934 c-12 -15 -21 -38 -21 -51 0 -32 42 -73 75 -73 35 0 75 42
75 78 0 67 -88 99 -129 46z m91 -21 c37 -33 17 -83 -34 -83 -43 0 -64 53 -32
84 20 21 43 20 66 -1z"/>
<path d="M3022 3937 c-12 -13 -22 -36 -22 -51 0 -34 41 -76 75 -76 33 0 75 41
75 73 0 67 -83 102 -128 54z m82 -23 c32 -31 11 -84 -32 -84 -50 0 -69 45 -35
82 20 22 46 23 67 2z"/>
<path d="M2466 3725 c-36 -37 -31 -115 9 -141 23 -15 27 -15 50 0 56 37 37
156 -25 156 -10 0 -25 -7 -34 -15z m72 -34 c17 -48 -3 -101 -38 -101 -26 0
-42 25 -42 65 0 43 16 65 47 65 16 0 26 -8 33 -29z"/>
<path d="M2233 3694 c-21 -21 -24 -32 -20 -61 14 -84 90 -108 117 -37 12 31
-6 90 -33 109 -29 20 -34 19 -64 -11z m71 -16 c30 -42 18 -108 -20 -108 -29 0
-54 35 -54 75 0 55 45 75 74 33z"/>
<path d="M2695 3695 c-46 -45 -27 -145 27 -145 24 0 58 44 65 83 4 29 1 40
-20 61 -32 32 -42 32 -72 1z m63 -7 c21 -21 14 -77 -14 -104 -24 -25 -26 -25
-45 -8 -23 21 -25 71 -3 102 17 24 43 29 62 10z"/>
<path d="M2009 3629 c-50 -50 30 -169 90 -132 9 6 17 27 19 50 2 32 -3 47 -23
72 -31 36 -57 39 -86 10z m73 -16 c47 -54 23 -132 -31 -103 -25 13 -45 64 -37
95 8 30 45 34 68 8z"/>
<path d="M2911 3626 c-43 -45 -36 -136 10 -136 33 0 60 20 75 55 19 46 18 61
-6 85 -26 26 -52 25 -79 -4z m73 -45 c-1 -33 -7 -49 -24 -63 -27 -22 -34 -22
-55 -1 -35 34 6 117 54 111 24 -3 26 -7 25 -47z"/>
<path d="M1403 3628 c-25 -12 -45 -60 -36 -86 12 -35 36 -52 73 -52 46 0 70
25 70 72 0 55 -57 91 -107 66z m77 -38 c11 -11 20 -27 20 -35 0 -18 -35 -55
-53 -55 -18 0 -43 21 -51 43 -4 12 3 27 19 43 29 29 39 30 65 4z"/>
<path d="M3540 3633 c-52 -19 -68 -85 -29 -124 29 -29 85 -23 112 12 27 38 10
93 -35 108 -17 6 -31 11 -32 10 -1 0 -8 -3 -16 -6z m34 -34 c43 -20 41 -80 -4
-94 -51 -16 -92 53 -50 87 26 21 23 21 54 7z"/>
<path d="M1806 3524 c-27 -27 -20 -72 18 -110 39 -39 58 -42 86 -14 23 23 25
42 9 73 -32 62 -81 84 -113 51z m83 -30 c25 -32 28 -82 5 -91 -42 -16 -104 59
-83 99 14 27 54 22 78 -8z"/>
<path d="M3117 3520 c-52 -41 -56 -119 -7 -135 60 -19 129 94 84 139 -21 22
-46 20 -77 -4z m71 -16 c22 -39 -27 -108 -72 -102 -30 4 -33 56 -6 91 24 30
64 36 78 11z"/>
<path d="M2350 3364 c-186 -36 -322 -107 -458 -238 -114 -110 -192 -238 -234
-383 -20 -67 -23 -101 -23 -243 0 -142 3 -176 23 -243 43 -148 121 -275 238
-388 112 -106 236 -178 369 -215 93 -25 310 -30 420 -9 99 18 235 77 320 139
179 130 313 333 350 531 23 121 16 328 -14 433 -66 227 -238 430 -458 540
-110 56 -191 73 -358 77 -82 2 -161 1 -175 -1z m227 -53 c82 -38 122 -138 103
-258 -18 -108 -125 -383 -149 -383 -6 0 -12 43 -13 103 -2 83 -6 102 -18 102
-12 0 -16 -19 -18 -102 -1 -60 -7 -103 -13 -103 -13 0 -74 135 -115 258 -28
82 -35 119 -36 183 0 71 3 85 29 127 50 83 143 112 230 73z m-308 -66 c24 -24
19 -84 -8 -106 -30 -25 -62 -24 -95 2 -35 27 -35 71 0 106 20 20 31 24 57 19
17 -4 38 -13 46 -21z m566 0 c34 -33 33 -77 -1 -104 -46 -36 -105 -19 -118 33
-19 75 66 125 119 71z m-707 -131 c28 -14 64 -42 80 -62 37 -48 98 -161 156
-290 67 -149 64 -153 -44 -52 -70 66 -89 77 -97 54 -2 -5 29 -43 67 -84 101
-108 97 -111 -52 -44 -129 58 -242 119 -290 156 -47 37 -88 118 -88 175 0 71
47 142 110 166 38 14 108 6 158 -19z m926 3 c53 -30 77 -65 83 -121 17 -145
-61 -219 -375 -360 -149 -67 -153 -64 -52 44 66 70 77 89 54 97 -5 2 -43 -29
-84 -67 -41 -38 -79 -70 -83 -70 -25 0 131 328 198 416 13 18 48 44 77 58 66
33 128 34 182 3z m-1195 -283 c42 -53 13 -118 -53 -118 -43 0 -63 17 -72 61
-5 26 -1 37 19 57 35 35 79 35 106 0z m1386 1 c49 -48 19 -119 -50 -119 -67 0
-96 64 -54 118 27 34 71 35 104 1z m-1170 -190 c115 -38 255 -101 255 -115 0
-5 -46 -11 -102 -12 -84 -2 -103 -6 -103 -18 0 -12 19 -16 103 -18 60 -2 102
-7 102 -13 0 -21 -250 -122 -360 -145 -94 -19 -154 -12 -215 27 -109 69 -112
225 -5 295 77 51 168 51 325 -1z m1165 6 c116 -68 118 -228 5 -300 -61 -39
-121 -46 -215 -27 -112 23 -360 124 -360 146 0 6 41 10 106 10 95 0 105 2 102
18 -3 15 -17 17 -106 20 -56 1 -102 7 -102 12 0 12 130 72 240 111 148 53 253
56 330 10z m-661 -38 c85 -63 75 -186 -20 -236 -92 -49 -208 33 -195 137 12
104 133 159 215 99z m-219 -210 c0 -5 -32 -42 -70 -83 -66 -70 -79 -95 -52
-95 6 0 46 31 87 69 42 37 79 66 82 62 8 -8 -10 -52 -95 -225 -105 -213 -166
-271 -284 -271 -136 0 -208 137 -142 268 37 75 108 123 334 228 114 52 140 61
140 47z m401 -40 c244 -110 320 -161 357 -241 79 -173 -70 -319 -244 -238 -76
36 -136 124 -238 355 -66 149 -64 152 44 51 41 -39 79 -69 84 -67 23 8 12 28
-54 97 -103 107 -98 111 51 43z m-279 -135 c3 -89 5 -103 21 -106 15 -3 17 7
17 102 0 63 4 106 10 106 22 0 123 -250 146 -360 19 -94 12 -154 -27 -215 -73
-115 -231 -111 -303 8 -26 42 -29 56 -28 126 0 62 8 100 35 182 41 120 103
259 117 259 5 0 11 -46 12 -102z m-619 30 c23 -27 22 -59 -4 -92 -27 -34 -71
-35 -104 -1 -27 26 -30 41 -15 80 18 47 87 55 123 13z m1384 9 c7 -7 15 -27
19 -44 8 -41 -30 -83 -75 -83 -52 0 -86 63 -60 111 20 38 85 46 116 16z m-986
-406 c17 -13 23 -29 23 -56 0 -69 -71 -99 -119 -50 -34 33 -33 77 1 104 33 26
65 27 95 2z m573 -2 c34 -27 35 -71 1 -104 -48 -49 -119 -19 -119 50 0 67 64
96 118 54z"/>
<path d="M2479 3127 c-14 -32 1 -112 21 -112 20 0 38 90 24 113 -17 26 -33 25
-45 -1z"/>
<path d="M2040 2935 c0 -29 85 -94 102 -77 17 17 -48 102 -77 102 -20 0 -25
-5 -25 -25z"/>
<path d="M2879 2914 c-21 -31 -28 -49 -21 -56 17 -17 102 48 102 77 0 20 -5
25 -25 25 -17 0 -33 -12 -56 -46z"/>
<path d="M1865 2516 c-19 -14 -19 -16 -4 -31 14 -14 27 -16 68 -10 81 11 82
38 1 50 -33 4 -51 2 -65 -9z"/>
<path d="M3045 2521 c-50 -10 -37 -35 23 -45 44 -7 56 -6 69 7 13 13 14 19 3
31 -13 16 -42 18 -95 7z"/>
<path d="M2083 2119 c-31 -21 -43 -37 -43 -55 0 -19 5 -24 25 -24 17 0 33 12
55 45 28 40 32 66 12 65 -4 -1 -26 -14 -49 -31z"/>
<path d="M2857 2138 c-2 -7 9 -32 25 -55 21 -31 36 -43 53 -43 20 0 25 5 25
25 0 17 -12 32 -44 55 -50 34 -53 35 -59 18z"/>
<path d="M2481 1953 c-15 -53 -14 -78 5 -93 12 -11 18 -10 31 3 13 13 14 25 7
68 -11 64 -29 73 -43 22z"/>
<path d="M1628 3379 c-27 -15 -22 -64 10 -98 37 -41 74 -49 102 -21 28 28 20
65 -21 103 -30 28 -61 34 -91 16z m83 -29 c61 -60 9 -125 -54 -68 -34 31 -42
62 -22 82 24 23 43 20 76 -14z"/>
<path d="M3281 3363 c-41 -38 -49 -75 -21 -103 28 -28 65 -20 103 21 29 31 36
76 15 97 -21 21 -66 14 -97 -15z m83 1 c23 -23 20 -42 -14 -75 -39 -40 -83
-38 -88 4 -2 20 5 35 27 57 33 34 52 37 75 14z"/>
<path d="M1476 3194 c-33 -32 -11 -81 51 -113 31 -16 50 -14 73 9 28 28 25 47
-14 86 -38 38 -83 45 -110 18z m113 -46 c20 -34 8 -58 -27 -58 -61 0 -109 74
-65 99 24 13 74 -9 92 -41z"/>
<path d="M3445 3201 c-51 -22 -76 -80 -46 -110 32 -32 67 -25 119 22 56 51 1
118 -73 88z m75 -46 c0 -48 -101 -91 -117 -49 -9 25 15 64 49 79 40 16 68 4
68 -30z"/>
<path d="M1090 3143 c-78 -29 -60 -143 22 -143 36 0 78 40 78 75 0 48 -54 85
-100 68z m61 -33 c22 -12 26 -59 7 -78 -17 -17 -48 -15 -70 5 -22 20 -23 41
-1 65 18 20 36 23 64 8z"/>
<path d="M3853 3140 c-25 -10 -43 -39 -43 -70 0 -30 44 -70 78 -70 67 0 99 88
46 129 -29 23 -46 25 -81 11z m61 -36 c32 -31 8 -84 -38 -84 -30 0 -46 18 -46
52 0 43 53 64 84 32z"/>
<path d="M1371 2991 c-29 -29 -26 -55 10 -86 25 -20 40 -25 72 -23 46 3 63 23
53 61 -7 30 -37 52 -83 62 -25 5 -36 2 -52 -14z m89 -16 c37 -19 49 -54 24
-72 -25 -18 -43 -16 -81 7 -23 14 -33 27 -33 44 0 37 40 47 90 21z"/>
<path d="M3553 2999 c-36 -11 -63 -43 -63 -76 0 -48 80 -58 129 -17 63 53 17
117 -66 93z m75 -40 c5 -47 -72 -86 -112 -56 -40 29 16 89 79 84 24 -2 31 -7
33 -28z"/>
<path d="M1318 2780 c-50 -31 -41 -81 19 -106 37 -16 67 -11 96 14 23 20 22
36 -5 67 -26 29 -83 42 -110 25z m90 -26 c25 -18 29 -59 6 -68 -66 -25 -144
30 -102 72 17 17 69 15 96 -4z"/>
<path d="M3613 2783 c-24 -5 -63 -47 -63 -68 0 -29 42 -49 98 -46 24 1 72 42
72 61 0 18 -48 60 -67 59 -10 -1 -28 -4 -40 -6z m75 -25 c32 -32 -6 -78 -63
-78 -55 0 -75 45 -33 74 27 19 79 21 96 4z"/>
<path d="M950 2552 c-38 -38 -38 -66 -1 -103 36 -35 64 -37 96 -4 45 44 24
116 -37 131 -22 5 -33 0 -58 -24z m94 -18 c32 -31 8 -84 -38 -84 -30 0 -46 18
-46 52 0 43 53 64 84 32z"/>
<path d="M3973 2570 c-66 -27 -52 -129 19 -146 22 -5 33 0 58 24 38 38 38 66
1 103 -31 31 -42 33 -78 19z m56 -34 c16 -19 10 -66 -10 -79 -26 -16 -68 0
-75 29 -12 47 55 87 85 50z"/>
<path d="M1293 2550 c-27 -11 -39 -50 -24 -79 13 -23 67 -37 106 -27 14 4 32
17 41 30 36 56 -47 107 -123 76z m105 -23 c6 -5 12 -17 12 -27 0 -35 -53 -55
-101 -38 -23 8 -29 16 -29 38 0 22 6 31 28 38 29 11 69 6 90 -11z"/>
<path d="M3613 2550 c-59 -24 -45 -93 22 -106 42 -8 92 10 100 37 18 57 -52
97 -122 69z m104 -20 c2 0 3 -13 3 -29 0 -36 -43 -58 -86 -44 -83 28 -35 105
51 81 16 -4 31 -8 32 -8z"/>
<path d="M1305 2305 c-31 -30 -31 -40 1 -72 21 -21 32 -24 61 -20 40 7 83 42
83 67 0 52 -102 69 -145 25z m119 -4 c17 -19 17 -21 -8 -45 -41 -42 -116 -32
-116 15 0 44 92 66 124 30z"/>
<path d="M3566 2311 c-33 -37 5 -90 71 -97 65 -8 100 42 62 89 -17 23 -28 27
-68 27 -35 0 -53 -5 -65 -19z m112 -7 c42 -29 22 -74 -33 -74 -57 0 -95 46
-63 78 17 17 69 15 96 -4z"/>
<path d="M1379 2092 c-26 -23 -31 -34 -25 -55 9 -39 40 -52 87 -38 89 27 91
121 3 121 -23 0 -44 -9 -65 -28z m105 2 c22 -21 20 -31 -9 -59 -31 -32 -89
-35 -105 -5 -9 17 -6 25 19 50 33 33 71 39 95 14z"/>
<path d="M3508 2109 c-42 -24 -10 -92 51 -110 47 -14 78 -1 87 38 14 54 -83
105 -138 72z m110 -35 c44 -50 -10 -84 -78 -49 -17 9 -30 17 -30 19 0 3 -3 11
-6 19 -3 8 3 22 12 32 23 23 72 13 102 -21z"/>
<path d="M1062 1977 c-45 -48 -11 -127 55 -127 32 0 73 42 73 75 0 35 -42 75
-78 75 -17 0 -37 -9 -50 -23z m96 -9 c7 -7 12 -24 12 -40 0 -53 -83 -64 -96
-12 -12 46 51 85 84 52z"/>
<path d="M3835 1975 c-14 -13 -25 -36 -25 -50 0 -33 41 -75 73 -75 40 0 77 36
77 75 0 69 -77 99 -125 50z m80 -15 c38 -42 -12 -98 -64 -70 -24 12 -29 58 -9
78 18 18 53 14 73 -8z"/>
<path d="M1524 1916 c-56 -25 -80 -79 -48 -110 27 -27 72 -20 110 18 39 39 42
58 14 86 -23 23 -34 24 -76 6z m74 -32 c4 -27 -31 -70 -62 -76 -57 -11 -77 44
-29 82 35 27 87 24 91 -6z"/>
<path d="M3399 1909 c-25 -25 -18 -54 23 -92 23 -22 37 -27 66 -25 30 2 38 8
46 31 12 34 2 53 -44 85 -41 27 -64 28 -91 1z m95 -20 c30 -24 35 -64 8 -78
-40 -21 -115 41 -99 83 9 23 59 20 91 -5z"/>
<path d="M1674 1750 c-12 -4 -31 -21 -43 -36 -58 -74 18 -141 88 -76 41 37 49
74 22 101 -23 23 -34 25 -67 11z m64 -43 c2 -20 -5 -35 -27 -57 -33 -34 -52
-37 -76 -14 -20 20 -12 51 22 82 35 32 77 27 81 -11z"/>
<path d="M3260 1740 c-28 -28 -20 -65 21 -102 31 -30 76 -37 97 -16 21 21 14
66 -15 97 -38 41 -75 49 -103 21z m91 -29 c33 -33 36 -52 13 -75 -23 -23 -42
-20 -75 13 -27 27 -38 69 -22 84 15 16 57 5 84 -22z"/>
<path d="M1855 1611 c-52 -22 -82 -102 -50 -134 24 -25 58 -21 88 11 38 39 45
84 18 111 -23 23 -26 24 -56 12z m39 -17 c41 -16 -2 -114 -49 -114 -34 0 -46
28 -30 67 18 42 47 59 79 47z"/>
<path d="M3091 1601 c-27 -27 -26 -50 2 -91 31 -46 50 -56 84 -44 23 8 29 16
31 46 2 29 -3 43 -25 66 -38 41 -67 48 -92 23z m60 -12 c28 -14 50 -69 38 -91
-24 -45 -99 3 -99 62 0 41 20 51 61 29z"/>
<path d="M1385 1490 c-28 -31 -24 -79 9 -107 33 -28 56 -29 90 -2 33 26 36 79
6 109 -26 26 -81 26 -105 0z m95 -10 c11 -11 20 -27 20 -35 0 -22 -39 -57 -57
-51 -8 3 -18 6 -22 6 -4 0 -13 12 -20 26 -10 22 -9 31 4 50 19 29 48 31 75 4z"/>
<path d="M3511 1491 c-31 -31 -28 -84 5 -110 32 -25 46 -26 84 -6 64 33 41
127 -33 133 -26 2 -42 -3 -56 -17z m73 -4 c20 -15 25 -62 8 -79 -17 -17 -64
-12 -79 8 -18 25 -16 41 7 64 23 23 39 25 64 7z"/>
<path d="M2033 1495 c-28 -20 -45 -78 -33 -111 5 -13 21 -26 36 -30 23 -6 32
-1 56 25 63 71 14 167 -59 116z m67 -16 c26 -47 -29 -131 -71 -108 -23 12 -25
49 -4 89 22 43 58 53 75 19z"/>
<path d="M2890 1491 c-19 -37 -12 -81 19 -112 36 -36 65 -37 87 -4 14 22 15
32 5 65 -19 63 -87 94 -111 51z m75 -17 c31 -34 34 -88 6 -104 -45 -24 -103
76 -66 113 22 23 32 21 60 -9z"/>
<path d="M2247 1430 c-46 -36 -44 -115 3 -140 61 -33 112 85 62 143 -19 22
-33 22 -65 -3z m61 -12 c17 -17 15 -69 -4 -96 -29 -42 -74 -22 -74 33 0 57 46
95 78 63z"/>
<path d="M2687 1432 c-27 -29 -22 -98 8 -127 30 -30 35 -31 70 -3 24 19 27 26
22 62 -4 27 -15 49 -32 63 -32 28 -47 29 -68 5z m73 -32 c14 -25 13 -73 -2
-88 -48 -48 -108 59 -62 109 19 21 46 12 64 -21z"/>
<path d="M2473 1415 c-57 -40 -32 -155 32 -155 55 0 76 100 30 145 -28 29 -33
30 -62 10z m65 -38 c10 -22 11 -35 2 -62 -10 -29 -16 -35 -40 -35 -32 0 -45
23 -41 74 4 61 54 75 79 23z"/>
<path d="M1881 1173 c-53 -44 -24 -133 43 -133 68 0 99 78 51 125 -28 29 -64
32 -94 8z m87 -15 c28 -28 2 -88 -38 -88 -24 0 -50 26 -50 50 0 40 60 66 88
38z"/>
<path d="M3025 1165 c-49 -48 -19 -125 50 -125 39 0 75 37 75 77 0 32 -42 73
-75 73 -14 0 -37 -11 -50 -25z m85 -16 c17 -31 4 -68 -26 -75 -46 -12 -85 51
-52 84 20 20 66 15 78 -9z"/>
<path d="M2452 1053 c-12 -10 -24 -30 -28 -45 -5 -22 0 -33 24 -58 17 -16 40
-30 52 -30 12 0 35 14 52 30 24 25 29 36 24 58 -9 35 -41 62 -76 62 -15 0 -37
-8 -48 -17z m82 -9 c19 -18 21 -55 4 -72 -15 -15 -61 -15 -76 0 -17 17 -15 48
5 70 20 22 46 23 67 2z"/>
</g>
</svg>
