<?xml version="1.0" standalone="no"?>
<!DOCTYPE svg PUBLIC "-//W3C//DTD SVG 20010904//EN"
 "http://www.w3.org/TR/2001/REC-SVG-20010904/DTD/svg10.dtd">
<svg version="1.0" xmlns="http://www.w3.org/2000/svg"
 width="500.000000pt" height="500.000000pt" viewBox="0 0 500.000000 500.000000"
 preserveAspectRatio="xMidYMid meet">

<g transform="translate(0.000000,500.000000) scale(0.100000,-0.100000)"
fill="#e7ab5c" stroke="none">
<path d="M2449 4471 c-37 -29 -32 -119 11 -246 l34 -98 23 51 c31 71 53 161
53 216 0 80 -66 122 -121 77z"/>
<path d="M2234 4375 c-4 -9 -2 -21 4 -27 16 -16 47 -5 47 17 0 26 -42 34 -51
10z m36 -10 c0 -8 -4 -15 -9 -15 -13 0 -22 16 -14 24 11 11 23 6 23 -9z"/>
<path d="M2710 4367 c0 -27 19 -40 39 -27 20 12 8 45 -17 48 -18 3 -22 -1 -22
-21z m38 -5 c2 -7 -3 -12 -12 -12 -9 0 -16 7 -16 16 0 17 22 14 28 -4z"/>
<path d="M1805 4368 c-2 -7 -11 -38 -21 -68 -9 -30 -36 -97 -60 -149 -80 -172
-116 -320 -96 -394 l10 -36 -41 -5 c-23 -3 -58 -7 -77 -8 -34 -3 -34 -4 -47
-67 -7 -36 -15 -66 -17 -68 -2 -2 -30 3 -62 13 -83 24 -205 14 -376 -30 -75
-20 -154 -36 -176 -36 -79 0 -85 -11 -48 -87 13 -26 38 -102 56 -168 41 -157
104 -288 165 -344 l46 -42 -56 -51 -55 -50 35 -65 c40 -73 40 -73 20 -73 -34
0 -120 -54 -178 -113 -34 -34 -92 -105 -128 -157 -37 -52 -87 -118 -113 -147
-25 -28 -46 -57 -46 -65 0 -8 17 -20 37 -27 20 -8 85 -47 145 -87 193 -131
287 -174 384 -174 l52 0 -6 -42 c-4 -24 -7 -59 -7 -77 0 -34 3 -36 63 -60 35
-13 61 -29 58 -35 -58 -129 -60 -137 -60 -271 0 -196 7 -406 14 -410 4 -2 27
2 52 9 24 8 96 19 159 25 224 22 316 47 402 108 27 19 50 33 52 31 1 -2 17
-28 36 -58 18 -30 34 -57 35 -59 2 -1 32 7 68 19 36 12 70 19 76 15 5 -3 10
-18 10 -33 0 -32 38 -116 80 -177 17 -25 82 -98 144 -164 62 -65 122 -133 132
-150 10 -17 23 -31 30 -31 6 0 23 18 38 40 15 23 79 96 144 164 126 132 184
219 203 303 7 29 15 53 19 53 4 0 33 -9 65 -20 32 -11 62 -20 66 -20 4 0 22
25 39 55 17 30 36 57 41 61 6 3 23 -5 37 -19 61 -59 195 -97 409 -117 61 -6
133 -17 159 -25 27 -8 52 -11 56 -7 7 8 22 335 19 442 -2 74 -23 159 -52 209
-11 18 -18 35 -17 36 2 2 32 14 68 28 50 19 65 29 63 43 -1 11 -5 44 -8 75
l-7 56 71 5 c89 7 195 56 349 162 60 41 130 84 155 95 26 11 47 26 47 33 0 7
-19 31 -41 53 -23 22 -73 85 -112 140 -114 162 -220 261 -299 280 -16 4 -28
11 -28 17 0 5 15 36 33 68 l32 59 -54 48 -54 49 47 48 c56 56 114 172 146 291
31 115 60 205 81 246 23 46 11 59 -52 59 -26 0 -107 16 -180 35 -167 45 -299
55 -381 31 -31 -9 -58 -16 -60 -16 -3 0 -10 32 -17 70 l-13 70 -43 0 c-23 0
-56 3 -72 6 l-30 6 5 67 c6 91 -21 195 -92 351 -31 67 -64 149 -73 181 -9 33
-22 59 -29 59 -6 0 -36 -16 -65 -36 -30 -20 -104 -60 -165 -89 -61 -29 -138
-71 -171 -93 -63 -43 -143 -125 -143 -148 0 -29 -23 -23 -76 20 l-56 46 -60
-47 c-48 -38 -61 -44 -69 -33 -5 8 -9 19 -9 23 0 14 -94 109 -139 140 -24 16
-103 59 -175 95 -72 35 -150 77 -173 93 -46 32 -62 36 -68 17z m235 -178 c128
-64 200 -113 263 -178 l48 -49 -95 -77 c-53 -42 -102 -79 -110 -82 -17 -7 -31
12 -16 21 8 5 8 11 0 20 -8 9 -8 15 0 20 6 3 7 11 4 17 -4 6 -8 24 -9 40 -2
15 -10 43 -18 61 -16 34 -57 77 -57 61 0 -5 -4 -4 -8 2 -10 15 -70 26 -77 14
-4 -6 -10 -8 -15 -5 -19 12 -101 -50 -93 -71 3 -8 0 -14 -6 -14 -7 0 -10 -16
-7 -45 4 -46 26 -105 38 -105 5 0 8 -7 8 -15 0 -9 7 -18 15 -21 8 -4 15 -12
15 -20 0 -8 5 -14 10 -14 6 0 10 -7 10 -15 0 -13 -22 -15 -135 -15 l-135 0 6
58 c10 99 32 177 75 273 23 52 53 131 67 175 l26 81 45 -32 c25 -18 93 -56
151 -85z m1127 68 c6 -29 36 -112 67 -185 54 -125 86 -244 86 -319 l0 -34
-135 0 c-87 0 -135 4 -135 10 0 6 11 21 25 34 14 13 25 30 25 39 0 8 7 18 16
21 8 3 13 10 10 15 -3 5 1 14 9 21 8 7 12 16 9 22 -3 5 -1 15 6 23 8 9 8 15 0
20 -8 5 -8 10 0 20 8 9 8 15 0 20 -5 3 -10 15 -10 26 0 10 -7 19 -15 19 -8 0
-15 7 -15 15 0 8 -9 15 -20 15 -11 0 -20 5 -20 11 0 6 -9 9 -20 6 -11 -3 -20
-1 -20 4 0 10 -44 6 -75 -6 -38 -16 -73 -64 -80 -110 -1 -5 -3 -12 -5 -15 -1
-3 -3 -32 -5 -65 -1 -34 -6 -60 -12 -60 -15 0 -202 148 -203 160 0 13 70 81
133 127 26 20 102 63 170 96 67 34 138 75 157 91 19 17 37 30 40 31 3 0 11
-24 17 -52z m-1114 -236 c46 -41 52 -69 52 -234 0 -86 -3 -160 -7 -164 -16
-15 -155 129 -204 212 -13 22 -27 61 -30 85 -5 39 -3 49 21 77 44 52 124 64
168 24z m434 -9 c-3 -10 -5 -4 -5 12 0 17 2 24 5 18 2 -7 2 -21 0 -30z m33 11
c0 -14 -4 -23 -10 -19 -5 3 -10 15 -10 26 0 10 5 19 10 19 6 0 10 -12 10 -26z
m534 12 c119 -50 97 -168 -65 -339 -61 -65 -80 -79 -90 -70 -9 9 -13 53 -13
150 -1 162 15 222 68 254 37 23 56 24 100 5z m-597 -43 c-3 -10 -5 -4 -5 12 0
17 2 24 5 18 2 -7 2 -21 0 -30z m80 0 c-3 -10 -5 -4 -5 12 0 17 2 24 5 18 2
-7 2 -21 0 -30z m-100 -20 c-3 -10 -5 -4 -5 12 0 17 2 24 5 18 2 -7 2 -21 0
-30z m130 0 c-3 -10 -5 -4 -5 12 0 17 2 24 5 18 2 -7 2 -21 0 -30z m-160 -20
c-3 -10 -5 -4 -5 12 0 17 2 24 5 18 2 -7 2 -21 0 -30z m282 -112 c183 -146
187 -150 186 -186 -1 -25 4 -39 16 -46 25 -13 39 -11 39 6 0 8 7 15 15 15 8 0
15 6 15 13 0 11 45 13 243 9 133 -2 244 -6 245 -8 3 -2 72 -327 95 -451 5 -23
3 -33 -6 -33 -19 0 -41 -58 -28 -74 11 -14 57 -16 76 -4 7 4 305 -248 369
-313 3 -3 -45 -100 -108 -215 -86 -158 -119 -210 -135 -212 -12 -2 -21 -7 -21
-12 0 -4 -8 -6 -19 -3 -12 3 -20 -2 -23 -14 -6 -24 1 -43 17 -43 7 0 16 -7 19
-16 3 -8 10 -13 15 -10 12 8 13 -1 52 -262 18 -123 28 -216 23 -221 -12 -11
-426 -171 -442 -171 -6 0 -12 5 -12 10 0 6 -6 10 -12 9 -7 -1 -21 1 -31 6 -24
10 -57 -19 -40 -36 6 -6 9 -18 6 -26 -3 -8 -1 -18 5 -22 10 -6 -229 -413 -246
-419 -15 -5 -462 154 -455 162 4 4 1 13 -7 19 -8 7 -15 19 -15 27 0 8 -10 16
-23 18 -17 3 -25 -2 -29 -17 -3 -12 -9 -21 -14 -21 -5 0 -9 -9 -9 -19 0 -16
-37 -32 -231 -96 -126 -42 -231 -75 -233 -74 -2 2 -57 94 -124 205 -119 197
-121 201 -111 238 8 27 7 41 -2 52 -13 16 -39 19 -39 3 0 -5 -4 -8 -10 -4 -5
3 -17 1 -28 -6 -15 -9 -56 4 -236 74 -120 48 -220 88 -222 90 -7 6 68 472 76
475 4 2 20 13 35 26 38 33 30 59 -21 70 l-41 8 -109 201 c-60 111 -110 207
-112 213 -2 7 76 82 172 167 l175 156 45 -4 c42 -4 46 -3 52 21 4 14 3 29 -2
33 -5 3 -15 17 -22 29 -12 21 -7 54 34 258 l47 234 176 0 c97 0 206 3 244 7
58 5 67 4 67 -11 0 -9 5 -16 11 -16 7 0 17 -7 24 -16 16 -23 59 -9 52 17 -3
10 -1 22 4 25 5 3 8 13 7 22 -2 11 59 66 180 164 101 81 186 148 189 148 3 0
89 -67 192 -149z m-89 118 c0 -10 -4 -19 -10 -19 -5 0 -10 12 -10 26 0 14 4
23 10 19 6 -3 10 -15 10 -26z m-223 -26 c-3 -10 -5 -4 -5 12 0 17 2 24 5 18 2
-7 2 -21 0 -30z m240 0 c-3 -10 -5 -4 -5 12 0 17 2 24 5 18 2 -7 2 -21 0 -30z
m-260 -25 c-3 -7 -5 -2 -5 12 0 14 2 19 5 13 2 -7 2 -19 0 -25z m290 -5 c-3
-10 -5 -4 -5 12 0 17 2 24 5 18 2 -7 2 -21 0 -30z m-320 -15 c-3 -7 -5 -2 -5
12 0 14 2 19 5 13 2 -7 2 -19 0 -25z m340 0 c-3 -7 -5 -2 -5 12 0 14 2 19 5
13 2 -7 2 -19 0 -25z m-357 -7 c0 -11 -4 -23 -10 -26 -6 -4 -10 5 -10 19 0 14
5 26 10 26 6 0 10 -9 10 -19z m387 -18 c-3 -10 -5 -4 -5 12 0 17 2 24 5 18 2
-7 2 -21 0 -30z m-420 -20 c-3 -10 -5 -4 -5 12 0 17 2 24 5 18 2 -7 2 -21 0
-30z m453 11 c0 -14 -4 -23 -10 -19 -5 3 -10 15 -10 26 0 10 5 19 10 19 6 0
10 -12 10 -26z m-483 -31 c-3 -10 -5 -4 -5 12 0 17 2 24 5 18 2 -7 2 -21 0
-30z m500 0 c-3 -10 -5 -4 -5 12 0 17 2 24 5 18 2 -7 2 -21 0 -30z m-517 -8
c0 -14 -4 -25 -10 -25 -5 0 -10 11 -10 25 0 14 5 25 10 25 6 0 10 -11 10 -25z
m547 -12 c-3 -10 -5 -4 -5 12 0 17 2 24 5 18 2 -7 2 -21 0 -30z m-577 -8 c0
-14 -4 -25 -10 -25 -11 0 -14 33 -3 43 11 11 13 8 13 -18z m607 -12 c-3 -10
-5 -4 -5 12 0 17 2 24 5 18 2 -7 2 -21 0 -30z m-640 -20 c-3 -10 -5 -4 -5 12
0 17 2 24 5 18 2 -7 2 -21 0 -30z m670 -10 c-3 -10 -5 -4 -5 12 0 17 2 24 5
18 2 -7 2 -21 0 -30z m-697 -18 c0 -8 -4 -15 -10 -15 -5 0 -7 7 -4 15 4 8 8
15 10 15 2 0 4 -7 4 -15z m730 -5 c0 -5 -2 -10 -4 -10 -3 0 -8 5 -11 10 -3 6
-1 10 4 10 6 0 11 -4 11 -10z m-1055 -58 c-6 -7 -35 18 -35 31 0 5 9 2 20 -8
11 -10 18 -20 15 -23z m23 18 c7 -11 9 -20 4 -20 -4 0 -13 9 -20 20 -7 11 -9
20 -4 20 4 0 13 -9 20 -20z m47 -18 c-6 -7 -35 18 -35 31 0 5 9 2 20 -8 11
-10 18 -20 15 -23z m40 0 c-6 -7 -35 18 -35 31 0 5 9 2 20 -8 11 -10 18 -20
15 -23z m25 18 c6 -11 9 -20 7 -20 -2 0 -12 9 -22 20 -10 11 -13 20 -7 20 6 0
16 -9 22 -20z m1090 17 c0 -2 -10 -12 -22 -23 l-23 -19 19 23 c18 21 26 27 26
19z m20 -22 c-7 -8 -17 -15 -23 -15 -5 0 -2 9 8 20 21 23 35 19 15 -5z m50 17
c0 -11 -22 -32 -32 -32 -5 0 -4 9 2 20 11 20 30 28 30 12z m25 -12 c-10 -11
-20 -18 -23 -15 -7 6 18 35 31 35 5 0 2 -9 -8 -20z m35 -5 c-7 -8 -17 -15 -23
-15 -5 0 -2 9 8 20 21 23 35 19 15 -5z m-1631 -2 c6 -12 5 -22 -4 -30 -10 -9
-17 -8 -31 8 -18 20 -6 27 14 7 7 -7 12 -8 12 -2 0 6 -5 15 -12 22 -9 9 -9 12
0 12 6 0 15 -8 21 -17z m41 -15 c0 -6 -7 -5 -15 2 -8 7 -15 17 -15 22 0 6 7 5
15 -2 8 -7 15 -17 15 -22z m25 12 c10 -11 13 -20 7 -20 -6 0 -16 9 -22 20 -6
11 -9 20 -7 20 2 0 12 -9 22 -20z m35 5 c20 -24 6 -28 -15 -5 -10 11 -13 20
-8 20 6 0 16 -7 23 -15z m38 -5 c7 -11 8 -20 2 -20 -5 0 -14 9 -20 20 -6 11
-7 20 -3 20 5 0 14 -9 21 -20z m32 0 c6 -11 9 -20 7 -20 -2 0 -12 9 -22 20
-10 11 -13 20 -7 20 6 0 16 -9 22 -20z m40 -12 c0 -6 -7 -5 -15 2 -8 7 -15 17
-15 22 0 6 7 5 15 -2 8 -7 15 -17 15 -22z m24 16 c5 -14 4 -15 -9 -4 -17 14
-19 20 -6 20 5 0 12 -7 15 -16z m1436 12 c0 -2 -7 -9 -15 -16 -13 -11 -14 -10
-9 4 5 14 24 23 24 12z m25 -15 c-3 -6 -11 -11 -17 -11 -6 0 -6 6 2 15 14 17
26 13 15 -4z m45 16 c0 -2 -10 -12 -21 -23 -22 -19 -22 -19 -10 4 10 18 31 31
31 19z m18 -17 c-7 -10 -14 -17 -17 -15 -4 4 18 35 25 35 2 0 -1 -9 -8 -20z
m37 0 c-10 -11 -20 -18 -23 -15 -7 6 18 35 31 35 5 0 2 -9 -8 -20z m33 0 c-7
-11 -16 -20 -20 -20 -5 0 -3 9 4 20 7 11 16 20 20 20 5 0 3 -9 -4 -20z m32 -5
c-7 -9 -15 -13 -18 -10 -3 2 1 11 8 20 7 9 15 13 18 10 3 -2 -1 -11 -8 -20z
m50 22 c0 -2 -10 -12 -21 -23 -22 -19 -22 -19 -8 4 12 19 29 30 29 19z m20
-22 c-7 -8 -17 -15 -23 -15 -5 0 -2 9 8 20 21 23 35 19 15 -5z m-1470 5 c0 -5
-4 -10 -10 -10 -5 0 -10 5 -10 10 0 6 5 10 10 10 6 0 10 -4 10 -10z m1490 -21
c-7 -11 -14 -18 -17 -15 -3 3 0 12 7 21 18 21 23 19 10 -6z m-1979 -31 c11
-21 11 -22 -4 -9 -10 7 -17 17 -17 22 0 15 9 10 21 -13z m1987 2 c-7 -11 -17
-20 -22 -20 -5 0 -1 9 9 20 10 11 20 20 22 20 2 0 -2 -9 -9 -20z m-1988 -42
c0 -6 -7 -5 -15 2 -8 7 -15 17 -15 22 0 6 7 5 15 -2 8 -7 15 -17 15 -22z
m1994 8 c-3 -9 -10 -16 -15 -16 -5 0 -4 9 3 20 14 22 21 20 12 -4z m-2004 -31
c20 -24 6 -28 -15 -5 -10 11 -13 20 -8 20 6 0 16 -7 23 -15z m2010 -6 c-7 -11
-14 -18 -17 -15 -3 3 0 12 7 21 18 21 23 19 10 -6z m-2010 -41 c0 -6 -7 -5
-15 2 -8 7 -15 17 -15 22 0 6 7 5 15 -2 8 -7 15 -17 15 -22z m2020 12 c-6 -11
-16 -20 -22 -20 -6 0 -3 9 7 20 10 11 20 20 22 20 2 0 -1 -9 -7 -20z m-2075
-2 c3 -2 -7 -62 -22 -131 -18 -85 -31 -127 -40 -127 -7 0 -13 7 -13 15 0 8 -7
15 -15 15 -8 0 -15 7 -15 15 0 8 -7 15 -15 15 -8 0 -15 7 -15 15 0 8 -7 15
-15 15 -8 0 -15 5 -15 10 0 6 -9 10 -20 10 -11 0 -20 5 -20 11 0 5 -8 9 -17 7
-10 -1 -24 1 -32 6 -8 5 -16 4 -20 -3 -4 -6 -15 -9 -24 -5 -11 4 -19 0 -23
-10 -3 -9 -12 -16 -20 -16 -8 0 -14 -7 -14 -15 0 -8 -4 -15 -10 -15 -5 0 -10
-9 -10 -20 0 -11 -5 -20 -10 -20 -19 0 -2 -101 21 -126 12 -13 26 -21 30 -18
5 3 9 -2 9 -10 0 -9 8 -16 19 -16 11 0 22 -4 26 -10 3 -5 12 -7 20 -3 8 3 15
0 15 -7 0 -7 8 -10 20 -7 11 3 20 1 20 -5 0 -6 9 -8 20 -5 42 11 27 -13 -51
-83 -79 -72 -84 -83 -44 -93 16 -4 14 -5 -7 -6 -14 0 -28 5 -31 12 -4 10 -7
10 -18 0 -21 -20 -26 -17 -70 48 -49 73 -78 140 -125 296 -19 63 -44 133 -54
154 -11 21 -20 41 -20 44 0 3 21 5 46 5 26 0 103 13 173 29 69 16 137 32 151
35 31 6 228 1 235 -6z m2470 -23 c55 -14 132 -28 172 -32 l72 -6 -24 -47 c-13
-26 -41 -103 -61 -171 -38 -132 -108 -281 -149 -319 l-25 -24 -33 30 c-17 16
-50 46 -73 67 -38 35 -43 37 -68 26 -20 -10 -29 -10 -38 -1 -9 9 -4 12 22 12
31 0 32 1 17 18 -23 25 -22 45 2 37 11 -3 22 -1 26 5 3 6 11 8 16 5 5 -4 15
-3 22 2 6 4 17 8 22 9 25 3 55 17 55 25 0 5 7 9 16 9 9 0 18 9 21 19 3 11 11
22 19 25 7 3 11 12 8 21 -3 8 -1 15 5 15 6 0 11 7 11 15 0 27 -16 16 -33 -23
-19 -42 -78 -81 -154 -101 -45 -12 -235 -32 -241 -26 -7 6 58 103 110 166 61
74 130 119 181 119 31 0 46 -7 73 -34 19 -19 34 -43 34 -55 0 -20 10 -27 22
-15 8 7 -21 64 -33 64 -6 0 -7 5 -4 10 3 6 -2 13 -12 17 -10 4 -23 14 -30 22
-6 9 -15 13 -19 9 -4 -4 -13 -3 -21 3 -9 8 -17 8 -26 0 -8 -6 -16 -8 -19 -5
-10 10 -83 -38 -126 -83 -24 -25 -47 -41 -51 -37 -8 8 -51 215 -51 241 0 18
35 22 155 18 75 -3 142 -12 210 -30z m-2425 -17 c0 -6 -7 -5 -15 2 -8 7 -15
17 -15 22 0 6 7 5 15 -2 8 -7 15 -17 15 -22z m2040 18 c0 -2 -8 -10 -17 -17
-16 -13 -17 -12 -4 4 13 16 21 21 21 13z m-2050 -41 c20 -24 6 -28 -15 -5 -10
11 -13 20 -8 20 6 0 16 -7 23 -15z m2052 3 c-17 -17 -15 -29 3 -22 20 8 19 1
-3 -19 -17 -15 -18 -15 -16 11 2 40 3 42 16 42 9 0 9 -3 0 -12z m-2052 -50 c0
-6 -7 -5 -15 2 -8 7 -15 17 -15 22 0 6 7 5 15 -2 8 -7 15 -17 15 -22z m-5 -36
c-6 -7 -35 18 -35 31 0 5 9 2 20 -8 11 -10 18 -20 15 -23z m2061 10 c-18 -16
-18 -16 -6 6 6 13 14 21 18 18 3 -4 -2 -14 -12 -24z m-2066 -45 c0 -6 -9 -2
-20 8 -11 10 -20 23 -20 28 0 6 9 2 20 -8 11 -10 20 -23 20 -28z m2080 18 c-7
-9 -15 -13 -18 -10 -3 2 1 11 8 20 7 9 15 13 18 10 3 -2 -1 -11 -8 -20z
m-2301 -4 c45 -24 133 -116 190 -201 23 -35 40 -64 38 -66 -8 -9 -215 19 -273
37 -119 37 -166 115 -116 192 40 60 92 73 161 38z m211 -43 c0 -6 -7 -5 -15 2
-8 7 -15 17 -15 22 0 6 7 5 15 -2 8 -7 15 -17 15 -22z m2102 20 c-15 -15 -16
-32 -2 -23 17 10 11 -22 -6 -36 -15 -12 -16 -11 -10 9 5 14 3 22 -4 22 -8 0
-8 6 0 20 6 11 16 20 22 20 9 0 9 -3 0 -12z m-2112 -57 c-1 -13 -3 -13 -15 3
-19 26 -19 42 0 26 8 -7 15 -20 15 -29z m-5 -39 c-6 -7 -35 18 -35 31 0 5 9 2
20 -8 11 -10 18 -20 15 -23z m2125 13 c-7 -9 -15 -13 -18 -10 -3 2 1 11 8 20
7 9 15 13 18 10 3 -2 -1 -11 -8 -20z m-2130 -46 c0 -5 -5 -9 -12 -9 -6 0 -8 3
-5 7 4 3 1 13 -6 22 -11 14 -10 14 6 2 9 -7 17 -17 17 -22z m2130 1 c0 -5 -5
-10 -11 -10 -5 0 -7 5 -4 10 3 6 8 10 11 10 2 0 4 -4 4 -10z m-2210 -130 c0
-5 -5 -10 -11 -10 -5 0 -7 5 -4 10 3 6 8 10 11 10 2 0 4 -4 4 -10z m2285 0 c3
-5 1 -10 -4 -10 -6 0 -11 5 -11 10 0 6 2 10 4 10 3 0 8 -4 11 -10z m60 -20 c4
-6 -7 -10 -27 -9 -31 1 -32 1 -8 9 14 4 26 8 27 9 1 1 5 -3 8 -9z m-2372 -7
c-7 -2 -21 -2 -30 0 -10 3 -4 5 12 5 17 0 24 -2 18 -5z m-23 -23 c0 -5 -9 -10
-19 -10 -11 0 -23 5 -26 10 -4 6 5 10 19 10 14 0 26 -4 26 -10z m-30 -26 c0
-2 -12 -4 -26 -4 -14 0 -23 4 -20 9 6 8 46 4 46 -5z m2480 6 c0 -5 -12 -10
-27 -9 -25 0 -26 1 -8 9 27 12 35 12 35 0z m-2510 -29 c0 -5 -9 -7 -20 -4 -11
3 -20 7 -20 9 0 2 9 4 20 4 11 0 20 -4 20 -9z m2525 -1 c-27 -12 -35 -12 -35
0 0 6 12 10 28 9 24 0 25 -1 7 -9z m-2555 -20 c18 -12 2 -12 -25 0 -13 6 -15
9 -5 9 8 0 22 -4 30 -9z m2580 0 c-20 -13 -33 -13 -25 0 3 6 14 10 23 10 15 0
15 -2 2 -10z m-2605 -20 c18 -8 17 -9 -7 -9 -16 -1 -28 4 -28 9 0 12 8 12 35
0z m2640 0 c-3 -5 -16 -10 -28 -10 -18 0 -19 2 -7 10 20 13 43 13 35 0z m25
-20 c0 -5 -12 -10 -27 -9 l-28 1 25 8 c14 4 26 8 28 9 1 1 2 -3 2 -9z m-2707
-27 c-7 -2 -21 -2 -30 0 -10 3 -4 5 12 5 17 0 24 -2 18 -5z m2730 0 c-7 -2
-21 -2 -30 0 -10 3 -4 5 12 5 17 0 24 -2 18 -5z m-2753 -23 c0 -12 -8 -12 -35
0 -18 8 -17 9 8 9 15 1 27 -3 27 -9z m2780 6 c0 -9 -40 -13 -46 -5 -3 5 6 9
20 9 14 0 26 -2 26 -4z m-2815 -26 c3 -5 -1 -10 -9 -10 -8 0 -18 5 -21 10 -3
6 1 10 9 10 8 0 18 -4 21 -10z m2835 0 c-20 -13 -43 -13 -35 0 3 6 16 10 28
10 18 0 19 -2 7 -10z m-2865 -20 c18 -8 17 -9 -7 -9 -16 -1 -28 4 -28 9 0 12
8 12 35 0z m2895 0 c0 -5 -12 -10 -27 -9 -25 0 -26 1 -8 9 27 12 35 12 35 0z
m-2917 -27 c-7 -2 -21 -2 -30 0 -10 3 -4 5 12 5 17 0 24 -2 18 -5z m2940 0
c-7 -2 -21 -2 -30 0 -10 3 -4 5 12 5 17 0 24 -2 18 -5z m-2957 -22 c-3 -5 -15
-7 -26 -4 -28 7 -25 13 6 13 14 0 23 -4 20 -9z m2994 5 c0 -2 -11 -6 -25 -8
-14 -3 -25 -1 -25 3 0 5 11 9 25 9 14 0 25 -2 25 -4z m-3000 -32 c0 -2 -9 -4
-20 -4 -11 0 -20 4 -20 9 0 5 9 7 20 4 11 -3 20 -7 20 -9z m3000 6 c0 -5 -12
-10 -27 -9 -25 0 -26 1 -8 9 27 12 35 12 35 0z m-2995 -30 c19 -8 19 -9 -2 -9
-12 -1 -25 4 -28 9 -7 12 2 12 30 0z m2975 0 c0 -5 -12 -10 -27 -9 l-28 1 25
8 c14 4 26 8 28 9 1 1 2 -3 2 -9z m-2955 -30 c18 -8 17 -9 -7 -9 -16 -1 -28 4
-28 9 0 12 8 12 35 0z m2940 0 c-3 -5 -16 -10 -28 -10 -18 0 -19 2 -7 10 20
13 43 13 35 0z m-2925 -30 c12 -8 11 -10 -7 -10 -12 0 -25 5 -28 10 -8 13 15
13 35 0z m2910 0 c0 -5 -12 -10 -27 -9 -25 0 -26 1 -8 9 27 12 35 12 35 0z
m-2895 -30 c18 -8 17 -9 -7 -9 -16 -1 -28 4 -28 9 0 12 8 12 35 0z m2880 0
c-3 -5 -16 -10 -28 -9 -21 0 -21 1 -2 9 28 12 37 12 30 0z m-2865 -30 c12 -8
11 -10 -7 -10 -13 0 -23 5 -23 10 0 13 11 13 30 0z m2845 0 c-3 -5 -16 -10
-28 -9 -21 0 -21 1 -2 9 28 12 37 12 30 0z m-2833 -111 c31 -57 58 -109 58
-115 0 -7 -13 -10 -32 -8 -18 1 -33 4 -33 5 0 6 -107 4 -111 -3 -3 -5 -10 -5
-16 -2 -6 4 -17 -1 -25 -11 -7 -11 -13 -15 -13 -11 0 5 -7 3 -15 -4 -8 -7 -12
-16 -9 -21 3 -5 -2 -9 -12 -9 -11 0 -15 -6 -11 -20 3 -11 1 -20 -4 -20 -10 0
-7 -50 5 -68 4 -7 5 -16 2 -21 -3 -5 1 -14 9 -21 8 -7 15 -18 15 -25 0 -12 6
-16 62 -34 34 -11 130 9 183 39 21 12 39 19 42 16 3 -2 -3 -62 -13 -131 l-19
-127 -43 6 c-72 10 -180 62 -316 151 -71 47 -133 85 -137 85 -4 0 -20 5 -35
10 l-27 11 43 42 c23 23 68 76 98 117 30 41 76 99 101 129 47 56 169 153 185
148 6 -2 36 -50 68 -108z m2908 81 c60 -38 150 -133 224 -235 32 -44 79 -101
103 -126 l45 -47 -55 -25 c-30 -13 -96 -52 -146 -87 -51 -34 -124 -77 -163
-95 -69 -33 -173 -63 -183 -53 -3 3 -12 47 -20 99 -8 52 -17 109 -20 127 -5
25 -2 32 10 32 8 0 15 -4 15 -10 0 -5 9 -10 20 -10 11 0 20 -5 20 -11 0 -6 7
-9 15 -5 8 3 15 2 15 -3 0 -12 114 -33 118 -22 2 5 12 7 22 4 11 -3 20 0 20 6
0 6 6 11 14 11 7 0 22 12 32 28 22 32 26 153 6 160 -6 2 -12 10 -12 18 0 8 -9
14 -19 14 -10 0 -21 7 -25 15 -3 8 -12 12 -20 9 -8 -3 -17 -1 -20 4 -6 10
-120 8 -154 -2 -12 -4 -22 -4 -22 0 0 11 121 234 127 234 4 0 27 -14 53 -30z
m-2900 0 c13 -9 13 -10 0 -10 -8 0 -22 5 -30 10 -13 9 -13 10 0 10 8 0 22 -5
30 -10z m2805 0 c-3 -5 -16 -10 -28 -10 -18 0 -19 2 -7 10 20 13 43 13 35 0z
m-2785 -30 c13 -9 13 -10 0 -10 -8 0 -22 5 -30 10 -13 9 -13 10 0 10 8 0 22
-5 30 -10z m2770 0 c-20 -13 -43 -13 -35 0 3 6 16 10 28 10 18 0 19 -2 7 -10z
m-2755 -30 c7 -12 -2 -12 -30 0 -19 8 -19 9 2 9 12 1 25 -3 28 -9z m2735 0
c-20 -13 -43 -13 -35 0 3 6 16 10 28 10 18 0 19 -2 7 -10z m-2715 -30 c8 -13
-15 -13 -35 0 -12 8 -11 10 7 10 12 0 25 -4 28 -10z m2695 0 c-19 -13 -30 -13
-30 0 0 6 10 10 23 10 18 0 19 -2 7 -10z m-2675 -30 c3 -5 -3 -10 -14 -10 -11
0 -23 5 -26 10 -3 6 3 10 14 10 11 0 23 -4 26 -10z m2665 0 c-20 -13 -43 -13
-35 0 3 6 16 10 28 10 18 0 19 -2 7 -10z m-2655 -30 c3 -5 -3 -10 -14 -10 -11
0 -23 5 -26 10 -3 6 3 10 14 10 11 0 23 -4 26 -10z m2645 0 c0 -5 -12 -10 -27
-10 -22 0 -25 2 -13 10 20 13 40 13 40 0z m-2620 -40 c0 -4 -11 -5 -25 -2 -14
2 -25 8 -25 12 0 4 11 5 25 2 14 -2 25 -8 25 -12z m2600 11 c0 -5 -11 -11 -25
-13 -14 -3 -25 -2 -25 3 0 4 10 10 23 12 12 2 23 5 25 6 1 0 2 -3 2 -8z
m-2585 -41 c3 -5 2 -10 -4 -10 -5 0 -13 5 -16 10 -3 6 -2 10 4 10 5 0 13 -4
16 -10z m2545 6 c0 -3 -4 -8 -10 -11 -5 -3 -10 -1 -10 4 0 6 5 11 10 11 6 0
10 -2 10 -4z m-2611 -16 c91 -17 162 -41 158 -53 -6 -20 -169 -126 -225 -147
-79 -30 -137 -27 -172 9 -56 55 -51 138 9 178 28 19 48 23 106 23 40 0 95 -4
124 -10z m2902 -28 c22 -24 29 -42 29 -73 0 -157 -145 -160 -366 -8 -41 28
-74 55 -74 59 0 7 61 25 175 54 11 2 62 4 113 3 92 -2 94 -3 123 -35z m-2820
-125 c-10 -9 -11 -8 -5 6 3 10 9 15 12 12 3 -3 0 -11 -7 -18z m2499 13 c0 -5
-4 -10 -10 -10 -5 0 -10 5 -10 10 0 6 5 10 10 10 6 0 10 -4 10 -10z m-2504
-45 c-11 -8 -22 -12 -25 -9 -6 6 19 24 34 24 6 -1 1 -7 -9 -15z m2531 -11 c-7
-7 -37 7 -37 17 0 6 9 5 21 -1 11 -7 19 -14 16 -16z m-2540 -31 c-9 -9 -20
-14 -24 -10 -3 4 2 14 13 21 25 19 33 10 11 -11z m2543 -4 c0 -6 -7 -6 -20 1
-11 6 -20 15 -20 21 0 6 7 6 20 -1 11 -6 20 -15 20 -21z m-2540 -24 c-7 -8
-20 -15 -29 -15 -11 1 -8 5 9 15 32 18 35 18 20 0z m2550 -16 c0 -6 -7 -6 -20
1 -11 6 -20 15 -20 21 0 6 7 6 20 -1 11 -6 20 -15 20 -21z m-2564 -24 c-11 -8
-22 -12 -25 -9 -6 6 19 24 34 24 6 -1 1 -7 -9 -15z m2560 0 c10 -8 14 -15 8
-15 -5 0 -19 7 -30 15 -10 8 -14 15 -8 15 5 0 19 -7 30 -15z m-2560 -30 c-11
-8 -24 -15 -30 -15 -5 0 -1 7 10 15 10 8 24 14 29 14 6 0 1 -6 -9 -14z m2571
-11 c-7 -7 -37 7 -37 17 0 6 9 5 21 -1 11 -7 19 -14 16 -16z m-2583 -28 c-10
-8 -21 -12 -23 -10 -3 2 4 11 15 18 10 8 21 12 23 10 3 -2 -4 -11 -15 -18z
m2583 -2 c-7 -7 -37 7 -37 17 0 6 9 5 21 -1 11 -7 19 -14 16 -16z m-2583 -29
c-10 -8 -23 -14 -29 -14 -5 0 -1 6 9 14 11 8 24 15 30 15 5 0 1 -7 -10 -15z
m2587 -2 c13 -15 12 -15 -8 -4 -24 12 -29 21 -14 21 5 0 15 -7 22 -17z m-2581
-18 c0 -2 -10 -9 -22 -15 -22 -11 -22 -10 -4 4 21 17 26 19 26 11z m2584 -10
c11 -8 15 -15 10 -15 -6 0 -19 7 -30 15 -10 8 -14 14 -9 14 6 0 19 -6 29 -14z
m-2594 -30 c-7 -8 -20 -15 -29 -15 -11 1 -8 5 9 15 32 18 35 18 20 0z m2610
-15 c0 -6 -9 -5 -20 2 -11 7 -20 16 -20 21 0 4 9 3 20 -3 11 -6 20 -15 20 -20z
m-2624 -25 c-11 -8 -22 -12 -25 -9 -6 6 19 24 34 24 6 -1 1 -7 -9 -15z m2620
0 c10 -8 15 -14 9 -14 -5 0 -19 6 -29 14 -11 8 -15 15 -10 15 6 0 19 -7 30
-15z m-2620 -30 c-11 -8 -25 -15 -30 -15 -6 0 -2 7 8 15 11 8 25 15 30 15 6 0
2 -7 -8 -15z m2631 -11 c-7 -7 -37 7 -37 17 0 6 9 5 21 -1 11 -7 19 -14 16
-16z m-2637 -24 c-24 -15 -36 -11 -14 4 10 8 21 12 24 10 2 -3 -2 -9 -10 -14z
m2636 -8 c-4 -3 -14 2 -24 12 -16 18 -16 18 6 6 13 -6 21 -14 18 -18z m-2642
-27 c-10 -8 -23 -14 -29 -14 -5 0 -1 6 9 14 11 8 24 15 30 15 5 0 1 -7 -10
-15z m2646 5 c8 -5 12 -11 9 -14 -3 -3 -14 1 -25 9 -21 16 -8 20 16 5z m-2630
-25 c-7 -8 -17 -15 -22 -15 -6 0 -5 7 2 15 7 8 17 15 22 15 6 0 5 -7 -2 -15z
m2616 0 c10 -8 14 -15 8 -15 -5 0 -19 7 -30 15 -10 8 -14 15 -8 15 5 0 19 -7
30 -15z m-2586 -15 c-24 -15 -37 -11 -16 5 11 8 22 12 25 9 3 -3 -1 -9 -9 -14z
m2569 -6 c14 -12 -19 -1 -35 12 -18 14 -18 14 6 3 14 -6 27 -13 29 -15z
m-2545 -8 c-10 -8 -21 -12 -24 -10 -5 6 21 24 34 24 6 0 1 -6 -10 -14z m2501
4 c8 -13 -5 -13 -25 0 -13 8 -13 10 2 10 9 0 20 -4 23 -10z m-2446 -4 c-2 -2
-15 -9 -29 -16 -23 -12 -24 -12 -11 3 7 10 20 17 29 17 8 0 13 -2 11 -4z
m2411 -6 c8 -5 12 -11 9 -14 -3 -3 -14 1 -25 9 -21 16 -8 20 16 5z m-2394 -15
c-11 -8 -25 -15 -30 -15 -6 0 -2 7 8 15 11 8 25 15 30 15 6 0 2 -7 -8 -15z
m2370 -13 c-4 -3 -14 2 -24 12 -16 18 -16 18 6 6 13 -6 21 -14 18 -18z m-2340
3 c-11 -8 -25 -15 -30 -15 -6 1 0 7 14 15 32 19 40 18 16 0z m2310 -12 c-6 -6
-36 9 -36 18 0 5 9 4 20 -3 10 -7 18 -14 16 -15z m-2276 -3 c-8 -6 -22 -10
-30 -9 -9 0 -5 6 10 14 27 14 44 10 20 -5z m2240 0 c8 -5 11 -10 5 -10 -5 0
-17 5 -25 10 -8 5 -10 10 -5 10 6 0 17 -5 25 -10z m-2216 -14 c-10 -8 -21 -12
-24 -10 -5 6 21 24 34 24 6 0 1 -6 -10 -14z m2187 -3 c13 -15 12 -15 -11 -3
-34 17 -36 20 -18 20 9 0 22 -7 29 -17z m-2161 -43 c118 -47 135 -58 102 -66
-12 -4 -22 -10 -22 -15 0 -5 -7 -9 -15 -9 -9 0 -18 -7 -21 -15 -4 -8 -12 -15
-20 -15 -8 0 -14 -7 -14 -15 0 -8 -7 -15 -15 -15 -8 0 -15 -7 -15 -15 0 -8 -4
-15 -10 -15 -5 0 -10 -9 -10 -19 0 -11 -4 -22 -9 -26 -18 -11 4 -105 25 -105
8 0 14 -7 14 -15 0 -8 6 -15 14 -15 8 0 16 -5 18 -11 2 -5 10 -11 18 -12 8 -2
21 -6 28 -10 6 -5 18 -5 25 0 6 4 20 6 30 5 9 -2 17 2 17 7 0 6 6 11 12 11 16
0 78 69 78 87 0 7 5 13 10 13 6 0 10 9 10 19 0 11 4 22 10 26 5 3 7 12 3 20
-3 9 1 15 10 15 12 0 153 -218 145 -225 -2 -1 -25 -14 -53 -28 -77 -38 -148
-56 -290 -73 -71 -8 -153 -21 -182 -29 -71 -21 -71 -21 -62 33 4 26 3 103 -2
172 -9 127 -1 248 22 332 14 53 18 61 33 55 6 -3 58 -24 116 -47z m6 35 c-11
-8 -22 -12 -25 -9 -6 6 19 24 34 24 6 -1 1 -7 -9 -15z m2120 0 c10 -8 15 -14
9 -14 -5 0 -19 6 -29 14 -11 8 -15 15 -10 15 6 0 19 -7 30 -15z m124 10 c0 -2
8 -30 17 -62 13 -47 17 -105 17 -305 1 -224 0 -245 -15 -237 -27 14 -101 28
-206 39 -54 6 -129 18 -168 27 -87 20 -195 67 -194 85 1 20 122 211 137 216 7
2 12 -5 12 -17 0 -12 5 -21 11 -21 6 0 8 -7 5 -15 -3 -9 1 -18 9 -21 8 -4 13
-10 10 -14 -3 -5 2 -15 10 -23 8 -9 15 -20 15 -26 0 -6 7 -11 15 -11 8 0 15
-6 15 -14 0 -7 8 -16 18 -20 62 -22 77 -25 88 -15 7 6 18 8 24 4 5 -3 13 1 16
9 3 9 10 16 15 16 13 0 42 32 55 60 15 31 17 80 4 80 -5 0 -7 7 -4 15 4 8 -1
17 -10 21 -9 3 -16 11 -16 18 0 13 -41 52 -52 48 -5 -1 -8 4 -8 11 0 7 -16 19
-35 27 -19 8 -35 19 -35 25 0 6 53 32 118 57 118 47 132 52 132 43z m-2210
-20 c-7 -8 -18 -15 -24 -15 -6 0 -2 7 8 15 25 19 32 19 16 0z m2056 0 c10 -8
14 -15 8 -15 -5 0 -19 7 -30 15 -10 8 -14 15 -8 15 5 0 19 -7 30 -15z m-2021
-14 c-3 -6 -14 -11 -23 -11 -13 0 -13 2 4 14 21 15 30 14 19 -3z m1992 -7 c-7
-7 -37 7 -37 17 0 6 9 5 21 -1 11 -7 19 -14 16 -16z m-1961 -9 c-26 -19 -42
-19 -26 0 7 8 20 15 29 15 13 -1 13 -3 -3 -15z m1924 5 c8 -5 11 -12 8 -15 -4
-4 -17 0 -30 9 -24 17 -5 23 22 6z m-1884 -15 c-11 -8 -25 -15 -30 -15 -6 0
-2 7 8 15 11 8 25 15 30 15 6 0 2 -7 -8 -15z m154 7 c0 -5 -9 -44 -21 -88 -27
-103 -81 -215 -120 -248 -67 -56 -169 -17 -192 73 -16 63 68 150 214 224 93
46 119 55 119 39z m1625 -36 c211 -103 276 -210 179 -295 -80 -71 -170 -20
-231 129 -38 93 -66 210 -50 210 6 0 52 -20 102 -44z m69 29 c16 -12 17 -15 4
-15 -8 0 -21 7 -28 15 -16 19 -1 19 24 0z m-49 -5 c3 -5 1 -10 -4 -10 -6 0
-11 5 -11 10 0 6 2 10 4 10 3 0 8 -4 11 -10z m-1758 -6 c-3 -3 -12 -4 -19 -1
-8 3 -5 6 6 6 11 1 17 -2 13 -5z m110 -106 c-3 -8 -6 -5 -6 6 -1 11 2 17 5 13
3 -3 4 -12 1 -19z m1533 18 c0 -3 -4 -8 -10 -11 -5 -3 -10 -1 -10 4 0 6 5 11
10 11 6 0 10 -2 10 -4z m-1519 -69 c-13 -13 -15 1 -4 30 7 17 8 17 11 -1 2
-10 -1 -23 -7 -29z m1502 13 c3 -11 2 -20 -3 -20 -8 0 -20 24 -20 41 0 17 17
1 23 -21z m-1482 -43 c-13 -13 -15 1 -4 30 7 17 8 17 11 -1 2 -10 -1 -23 -7
-29z m1469 1 c0 -14 -18 -9 -24 8 -11 28 -6 39 9 20 8 -11 15 -23 15 -28z
m-1449 -31 c-13 -13 -15 1 -4 30 7 17 8 17 11 -1 2 -10 -1 -23 -7 -29z m1422
13 c3 -11 1 -20 -4 -20 -5 0 -9 2 -9 4 0 2 -3 11 -6 20 -3 9 -2 16 4 16 5 0
12 -9 15 -20z m-1398 -30 c-4 -12 -9 -19 -12 -17 -3 3 -2 15 2 27 4 12 9 19
12 17 3 -3 2 -15 -2 -27z m1379 4 c8 -21 8 -24 -3 -24 -5 0 -11 9 -14 20 -6
24 8 27 17 4z m-15 -47 c1 -5 -3 -5 -9 -2 -5 3 -10 16 -9 28 0 21 1 21 9 2 5
-11 9 -24 9 -28z m-1346 13 c-3 -11 -9 -20 -13 -20 -5 0 -6 9 -3 20 3 11 9 20
13 20 5 0 6 -9 3 -20z m697 -40 c49 -97 80 -202 80 -270 0 -55 -3 -65 -29 -91
-24 -23 -38 -29 -75 -29 -146 0 -165 123 -54 361 22 49 42 89 44 89 2 0 17
-27 34 -60z m-691 -4 c-9 -8 -10 -7 -5 7 3 10 7 24 7 30 1 7 3 4 6 -7 3 -10
-1 -23 -8 -30z m1321 4 c0 -13 -1 -13 -10 0 -5 8 -10 22 -10 30 0 13 1 13 10
0 5 -8 10 -22 10 -30z m-1295 -20 c-4 -12 -9 -19 -12 -17 -3 3 -2 15 2 27 4
12 9 19 12 17 3 -3 2 -15 -2 -27z m1278 0 c3 -11 1 -20 -4 -20 -5 0 -9 4 -9 9
0 5 -3 17 -7 27 -4 11 -3 15 4 11 6 -4 13 -16 16 -27z m-1262 -31 c-9 -22 -10
-22 -10 -3 -1 11 2 24 6 27 12 12 14 0 4 -24z m1248 -14 c0 -5 -4 -3 -9 5 -5
8 -9 22 -9 30 0 16 17 -16 18 -35z m-549 25 c0 -5 -2 -10 -4 -10 -3 0 -8 5
-11 10 -3 6 -1 10 4 10 6 0 11 -4 11 -10z m-195 -30 c-4 -12 -9 -19 -12 -17
-3 3 -2 15 2 27 4 12 9 19 12 17 3 -3 2 -15 -2 -27z m245 -12 c0 -4 -4 -8 -10
-8 -5 0 -10 4 -10 9 0 5 -3 18 -6 28 -5 16 -4 16 10 -1 9 -11 16 -23 16 -28z
m-727 12 c-3 -11 -9 -20 -13 -20 -5 0 -6 9 -3 20 3 11 9 20 13 20 5 0 6 -9 3
-20z m457 8 c0 -19 -18 -43 -25 -36 -4 3 -2 16 5 27 12 24 20 27 20 9z m294
-4 c9 -23 7 -36 -3 -30 -12 8 -21 46 -11 46 4 0 11 -7 14 -16z m456 -24 c0
-13 -1 -13 -10 0 -5 8 -10 22 -10 30 0 13 1 13 10 0 5 -8 10 -22 10 -30z
m-799 -13 c-8 -8 -11 -7 -11 4 0 20 13 34 18 19 3 -7 -1 -17 -7 -23z m382 13
c3 -11 1 -20 -4 -20 -5 0 -9 2 -9 4 0 2 -3 11 -6 20 -3 9 -2 16 4 16 5 0 12
-9 15 -20z m-778 -20 c-4 -12 -9 -19 -12 -17 -3 3 -2 15 2 27 4 12 9 19 12 17
3 -3 2 -15 -2 -27z m371 14 c-3 -9 -6 -18 -6 -20 0 -2 -4 -4 -9 -4 -5 0 -7 9
-4 20 3 11 10 20 15 20 6 0 7 -7 4 -16z m438 0 c10 -25 -1 -29 -14 -5 -6 12
-7 21 -1 21 5 0 12 -7 15 -16z m365 -17 c0 -21 -1 -21 -9 -2 -12 28 -12 37 0
30 6 -3 10 -16 9 -28z m-836 3 c-3 -11 -9 -20 -13 -20 -5 0 -6 9 -3 20 3 11 9
20 13 20 5 0 6 -9 3 -20z m507 -13 c0 -5 -4 -5 -10 -2 -5 3 -10 14 -10 23 0
15 2 15 10 2 5 -8 10 -19 10 -23z m-542 -2 c-6 -14 -13 -24 -14 -22 -6 6 9 47
17 47 5 0 3 -11 -3 -25z m175 18 c4 -3 3 -11 -2 -17 -12 -16 -32 -106 -26
-116 3 -5 1 -11 -5 -15 -6 -4 -7 -12 -3 -18 4 -7 8 -19 8 -27 1 -8 2 -25 3
-37 1 -13 9 -23 17 -23 8 0 15 -7 15 -15 0 -8 9 -15 20 -15 11 0 20 -4 20 -9
0 -11 94 -8 128 4 12 4 22 14 22 21 0 8 7 14 15 14 8 0 15 9 15 19 0 11 4 22
8 25 7 4 8 93 2 106 -2 3 -4 10 -5 15 0 6 -7 27 -14 48 -7 21 -11 41 -8 44 9
9 239 -71 245 -85 14 -38 -78 -180 -202 -311 -53 -56 -108 -120 -122 -141 -15
-22 -28 -40 -30 -40 -2 0 -11 14 -19 31 -9 17 -55 72 -102 122 -48 51 -104
114 -125 142 -38 46 -108 174 -108 194 0 5 53 27 118 49 133 46 126 44 135 35z
m397 -21 c0 -15 -2 -15 -10 -2 -13 20 -13 33 0 25 6 -3 10 -14 10 -23z m-859
-15 c-8 -8 -11 -7 -11 4 0 20 13 34 18 19 3 -7 -1 -17 -7 -23z m254 3 c-4 -12
-9 -19 -12 -17 -3 3 -2 15 2 27 4 12 9 19 12 17 3 -3 2 -15 -2 -27z m635 2 c0
-15 -2 -15 -10 -2 -13 20 -13 33 0 25 6 -3 10 -14 10 -23z m253 8 c3 -11 1
-20 -4 -20 -5 0 -9 2 -9 4 0 2 -3 11 -6 20 -3 9 -2 16 4 16 5 0 12 -9 15 -20z
m-922 -17 c-12 -20 -14 -14 -5 12 4 9 9 14 11 11 3 -2 0 -13 -6 -23z m699 -1
c0 -15 -2 -15 -10 -2 -13 20 -13 33 0 25 6 -3 10 -14 10 -23z m-725 -12 c-4
-12 -9 -19 -12 -17 -3 3 -2 15 2 27 4 12 9 19 12 17 3 -3 2 -15 -2 -27z m765
-13 c0 -16 -18 3 -23 25 -6 22 -5 22 8 4 8 -11 15 -24 15 -29z m-939 6 c-8
-15 -10 -15 -11 -2 0 17 10 32 18 25 2 -3 -1 -13 -7 -23z m139 -3 c-6 -12 -14
-19 -17 -17 -2 3 1 15 7 27 6 12 14 19 17 17 2 -3 -1 -15 -7 -27z m824 14 c9
-23 7 -36 -3 -30 -12 8 -21 46 -11 46 4 0 11 -7 14 -16z m140 0 c10 -25 -1
-29 -14 -5 -6 12 -7 21 -1 21 5 0 12 -7 15 -16z m-991 -14 c-5 -19 -23 -39
-23 -25 0 9 20 45 24 45 2 0 2 -9 -1 -20z m887 -20 c0 -13 -1 -13 -10 0 -5 8
-10 22 -10 30 0 13 1 13 10 0 5 -8 10 -22 10 -30z m29 -10 c0 -10 -3 -8 -9 5
-12 27 -12 43 0 25 5 -8 9 -22 9 -30z m61 2 c0 -7 -4 -10 -10 -7 -5 3 -10 16
-10 28 0 18 2 19 10 7 5 -8 10 -21 10 -28z m-1067 8 c-3 -11 -9 -20 -14 -20
-11 0 -11 3 -3 24 9 23 23 20 17 -4z m53 -6 c-4 -9 -9 -15 -11 -12 -3 3 -3 13
1 22 4 9 9 15 11 12 3 -3 3 -13 -1 -22z m987 -4 c3 -11 1 -20 -4 -20 -5 0 -9
4 -9 9 0 5 -3 17 -7 27 -4 11 -3 15 4 11 6 -4 13 -16 16 -27z m-1022 -7 c-8
-15 -10 -15 -11 -2 0 17 10 32 18 25 2 -3 -1 -13 -7 -23z"/>
<path d="M1937 3972 c-19 -21 -21 -45 -7 -73 16 -29 75 -26 95 5 37 57 -43
118 -88 68z"/>
<path d="M2002 3828 c-18 -18 -15 -36 7 -48 15 -7 23 -6 35 6 9 8 16 19 16 23
0 11 -23 31 -35 31 -6 0 -16 -5 -23 -12z"/>
<path d="M2047 3724 c-8 -8 1 -24 14 -24 5 0 9 7 9 15 0 15 -12 20 -23 9z"/>
<path d="M2977 3972 c-20 -22 -22 -63 -5 -80 7 -7 26 -12 43 -12 17 0 36 5 43
12 7 7 12 26 12 43 0 17 -5 36 -12 43 -18 18 -63 14 -81 -6z"/>
<path d="M2953 3833 c-19 -7 -16 -50 3 -57 20 -8 44 11 44 34 0 14 -23 34 -33
29 -1 0 -8 -3 -14 -6z"/>
<path d="M2927 3723 c-12 -11 -8 -23 8 -23 8 0 15 7 15 15 0 16 -12 20 -23 8z"/>
<path d="M2480 3785 c-7 -8 -18 -15 -25 -15 -16 0 -66 -26 -66 -34 2 -18 0
-20 -10 -6 -8 11 -9 7 -5 -17 3 -18 2 -33 -2 -33 -4 0 -7 -16 -7 -35 0 -19 3
-35 8 -35 4 0 7 -5 7 -11 0 -5 -4 -7 -10 -4 -6 3 -7 -1 -4 -9 3 -9 10 -16 16
-16 5 0 6 -9 3 -20 -4 -11 -2 -20 4 -20 6 0 11 -5 11 -11 0 -5 -6 -7 -12 -3
-7 4 -3 -3 10 -15 12 -12 20 -27 16 -33 -4 -6 -3 -13 2 -17 19 -13 53 -91 41
-92 -7 0 -2 -5 11 -11 13 -7 21 -17 18 -25 -3 -7 1 -13 10 -13 8 0 13 4 9 10
-3 5 6 17 20 26 14 9 25 21 24 28 0 7 -2 6 -6 -1 -2 -7 -8 -13 -13 -13 -9 0
49 121 63 131 4 3 4 14 1 24 -6 15 -4 17 9 12 14 -5 16 -3 8 12 -6 10 -8 21
-5 23 2 3 7 15 9 28 2 12 10 29 17 38 10 12 10 14 1 8 -8 -4 -13 -1 -13 9 0
10 5 14 13 9 10 -6 10 -4 0 7 -7 7 -13 23 -13 36 0 13 -4 23 -10 23 -5 0 -10
5 -10 11 0 5 6 7 13 3 8 -6 8 -3 -1 9 -8 9 -19 15 -25 14 -7 -1 -11 3 -10 10
2 7 -7 10 -22 7 -14 -2 -25 0 -25 5 0 5 -10 7 -22 3 -14 -3 -19 -2 -14 6 10
17 1 15 -14 -3z"/>
<path d="M2179 3518 c-1 -29 -4 -66 -8 -81 l-6 -28 -55 56 c-30 30 -59 55 -64
55 -6 0 20 -30 56 -67 l67 -68 -9 -95 c-5 -52 -10 -135 -10 -183 l0 -88 -37 3
-36 3 0 130 c1 108 -1 119 -7 65 -4 -36 -8 -93 -9 -127 -1 -73 9 -70 -131 -48
-104 16 -137 18 -127 9 3 -3 61 -14 129 -23 l123 -16 3 -38 c4 -42 5 -42 -82
-26 -34 5 -113 15 -176 22 l-114 12 -51 72 c-27 40 -51 68 -53 63 -2 -5 8 -24
21 -42 13 -18 33 -46 43 -62 l18 -29 -82 6 c-46 4 -81 3 -78 -2 3 -4 43 -11
88 -14 71 -5 86 -10 100 -29 54 -73 176 -234 191 -253 17 -23 17 -24 -12 -44
l-30 -21 -78 100 c-43 55 -82 100 -86 100 -5 0 28 -46 72 -103 l79 -103 -109
-68 c-60 -38 -108 -71 -105 -74 3 -2 54 26 113 63 l107 67 25 -28 c22 -27 23
-29 6 -39 -10 -5 -81 -52 -158 -103 l-140 -92 -72 20 c-39 11 -80 20 -91 19
-10 0 16 -11 58 -22 42 -12 79 -24 82 -27 3 -3 -24 -25 -59 -50 -36 -24 -65
-47 -65 -52 0 -5 34 14 76 43 l75 52 162 -37 c89 -21 172 -40 184 -42 20 -4
21 -7 11 -37 -6 -17 -12 -33 -14 -35 -1 -2 -57 8 -124 23 -67 15 -124 24 -127
22 -6 -7 11 -11 131 -37 55 -11 103 -23 107 -26 4 -2 -3 -37 -17 -77 -38 -111
-55 -172 -45 -162 5 6 25 61 46 124 l37 113 31 -6 c17 -3 33 -8 35 -11 2 -2
-12 -55 -31 -117 -20 -62 -44 -141 -53 -176 l-18 -63 -78 -36 c-43 -20 -78
-39 -78 -44 0 -5 32 7 72 26 39 19 73 33 75 31 2 -2 -5 -36 -16 -77 -12 -40
-19 -75 -16 -77 6 -6 10 6 33 93 l18 70 100 50 c54 28 130 67 167 88 l68 37
14 -32 c7 -18 11 -36 7 -40 -4 -3 -56 -32 -115 -63 -59 -32 -106 -60 -103 -62
3 -3 53 20 111 51 58 31 110 56 114 56 5 0 27 -46 50 -102 23 -57 46 -110 51
-118 21 -33 8 10 -35 114 -25 59 -45 112 -45 116 0 7 45 30 59 30 5 0 16 -21
26 -47 10 -27 42 -103 72 -170 l53 -123 -35 -70 c-19 -38 -35 -75 -35 -82 1
-7 18 21 40 62 l38 75 33 -70 c36 -79 37 -80 44 -74 2 3 -12 40 -32 83 -32 67
-35 81 -26 104 6 15 36 85 67 156 30 72 57 138 60 149 4 17 6 17 35 2 17 -8
31 -22 31 -29 0 -8 -20 -62 -45 -122 -24 -59 -42 -110 -40 -113 5 -4 38 68 76
167 13 34 28 62 33 62 5 0 56 -25 114 -56 57 -30 106 -53 109 -51 4 5 -130 81
-189 108 -30 13 -34 25 -17 62 l11 24 166 -85 c186 -94 166 -73 203 -212 6
-25 14 -40 16 -34 2 6 -5 43 -16 83 -11 39 -18 71 -17 71 2 0 37 -15 77 -34
41 -19 76 -32 79 -29 3 3 -1 8 -8 11 -8 2 -46 21 -85 41 l-72 36 -26 97 c-15
54 -39 132 -53 174 -14 43 -24 79 -22 81 2 2 19 6 37 9 l34 6 39 -124 c21 -68
40 -118 42 -113 2 6 -12 57 -31 115 -19 57 -35 109 -35 116 0 7 45 21 108 34
105 22 159 38 134 39 -7 1 -64 -10 -128 -24 -64 -14 -117 -25 -119 -25 -5 0
-25 63 -21 67 2 3 64 18 138 35 73 17 153 35 178 41 44 10 46 9 113 -38 37
-26 70 -45 73 -42 3 3 -22 24 -55 47 -34 22 -59 45 -56 49 2 5 37 17 77 27 40
9 68 19 61 21 -6 2 -46 -5 -89 -16 l-78 -20 -126 83 c-69 46 -139 92 -157 102
l-31 19 23 29 23 29 107 -67 c59 -37 109 -65 112 -62 3 2 -15 17 -39 32 -146
92 -168 106 -168 110 0 2 34 47 75 100 42 53 73 99 70 102 -3 3 -7 3 -8 1 -2
-2 -37 -47 -77 -99 -40 -52 -77 -94 -82 -92 -5 1 -20 9 -33 18 l-23 15 75 97
c42 53 91 120 110 148 31 47 39 52 80 58 25 3 65 6 89 6 24 0 44 4 44 10 0 6
-31 7 -82 3 l-82 -6 48 67 c26 37 46 70 43 73 -3 2 -28 -28 -57 -69 l-51 -73
-147 -16 c-81 -9 -163 -20 -183 -24 -36 -7 -37 -6 -41 29 -5 42 -9 40 122 57
52 7 104 16 115 20 30 12 2 10 -110 -6 -55 -8 -108 -15 -117 -15 -16 0 -18 12
-18 119 0 76 -4 122 -11 127 -8 4 -9 -30 -4 -125 l8 -131 -36 0 -35 0 -6 63
c-3 34 -8 118 -12 186 l-6 124 63 63 c35 35 59 64 54 64 -5 0 -35 -26 -67 -57
l-58 -57 -1 44 c0 25 -4 63 -9 85 -7 30 -8 19 -5 -48 l5 -88 -99 -107 c-54
-59 -112 -122 -128 -141 l-30 -34 -22 32 -23 31 87 95 c48 52 83 95 78 95 -5
0 -47 -41 -93 -91 l-84 -92 -35 39 c-83 93 -133 145 -137 141 -3 -2 32 -44 76
-93 44 -49 80 -93 80 -98 0 -6 -10 -20 -21 -33 l-22 -22 -41 47 c-22 26 -80
88 -128 138 -78 80 -88 94 -84 120 13 79 15 144 6 144 -5 0 -11 -24 -11 -52z
m199 -351 l56 -67 33 32 33 32 28 -33 28 -34 28 34 c16 19 71 81 124 137 75
81 97 100 104 89 4 -9 11 -93 15 -187 l6 -171 44 7 43 6 0 -39 c0 -22 2 -42 5
-44 2 -3 57 3 122 12 150 21 243 29 243 21 0 -10 -158 -222 -192 -258 l-30
-32 34 -23 c18 -12 35 -24 37 -26 3 -2 -5 -17 -17 -33 -12 -16 -22 -33 -22
-37 0 -4 46 -36 103 -71 56 -35 125 -79 152 -100 l50 -36 -45 -13 c-24 -7 -96
-24 -160 -38 -63 -14 -125 -28 -137 -30 -21 -5 -22 -7 -8 -45 16 -44 15 -45
-38 -55 -30 -6 -37 -11 -32 -24 35 -86 108 -331 101 -339 -3 -2 -76 32 -162
77 -87 45 -161 81 -164 81 -4 0 -13 -15 -21 -32 -7 -18 -14 -34 -15 -36 -1 -2
-16 4 -34 13 -17 9 -36 15 -41 13 -5 -2 -31 -57 -58 -123 -26 -66 -58 -140
-71 -165 l-23 -44 -27 54 c-15 30 -47 105 -71 165 -24 61 -45 112 -46 114 -2
3 -19 -3 -38 -12 -20 -9 -38 -17 -40 -17 -3 0 -12 18 -21 40 l-16 39 -71 -39
c-127 -69 -252 -128 -255 -119 -4 11 43 184 74 269 13 37 24 70 24 74 0 3 -18
9 -41 12 -40 7 -41 8 -34 38 13 59 13 60 -40 68 -67 12 -305 69 -305 74 0 5
196 136 255 169 28 16 52 30 54 32 2 1 -8 18 -23 37 l-26 35 33 22 c17 12 34
24 36 25 2 2 -28 43 -66 91 -65 83 -131 172 -147 201 -8 14 -4 14 214 -14 63
-8 123 -17 133 -20 14 -5 17 2 17 41 l0 47 44 -6 43 -7 7 128 c3 70 9 154 13
186 l6 59 69 -69 c38 -37 95 -98 126 -136z"/>
<path d="M2485 2919 c-4 -24 -11 -49 -16 -55 -6 -7 -6 -37 0 -75 6 -35 13
-103 17 -150 6 -85 6 -86 -17 -92 -27 -7 -154 67 -242 142 -32 28 -41 33 -24
14 33 -35 34 -42 15 -55 -9 -6 -5 -7 11 -3 14 5 21 3 17 -3 -3 -5 9 -15 27
-22 45 -18 179 -91 174 -96 -5 -6 -219 53 -273 76 -32 13 -42 15 -30 5 18 -14
15 -15 -40 -16 l-59 0 45 -22 c25 -12 47 -25 50 -28 3 -3 54 -9 114 -13 60 -4
130 -10 155 -13 45 -6 45 -7 16 -15 -16 -4 -66 -11 -110 -14 -44 -4 -85 -11
-91 -16 -6 -4 -19 -6 -28 -2 -23 9 -20 -3 4 -16 14 -7 38 -5 92 9 40 11 93 22
118 25 43 5 40 3 -50 -41 -52 -25 -117 -54 -145 -64 -27 -10 -44 -18 -37 -19
6 0 -6 -17 -29 -37 -46 -41 -40 -52 16 -29 49 21 49 21 24 -13 -22 -30 -20
-61 3 -61 10 0 10 2 -1 9 -33 21 30 86 197 201 93 64 97 48 28 -97 -31 -65
-71 -136 -88 -158 l-31 -40 31 29 31 29 -10 -37 c-6 -20 -9 -47 -7 -59 3 -19
8 -15 32 26 15 26 32 44 37 41 5 -3 9 7 9 22 0 23 58 263 65 272 2 2 3 -119 4
-269 0 -149 3 -274 6 -277 3 -3 5 64 6 149 1 102 4 146 10 129 7 -20 8 -17 4
15 -10 93 -17 259 -10 253 13 -12 65 -222 72 -290 5 -58 4 -68 -10 -68 -9 0
-21 8 -26 18 -6 9 -11 12 -11 6 0 -18 28 -37 45 -30 10 3 15 19 15 43 l1 38
19 -37 c32 -60 44 -59 37 3 l-6 54 20 -27 c11 -16 29 -28 40 -28 15 0 19 7 18
33 -2 30 -2 30 -6 5 -9 -61 -44 -25 -116 118 -25 49 -52 107 -61 129 l-16 40
40 -45 c22 -25 59 -73 81 -107 23 -35 43 -63 46 -63 2 0 1 5 -2 10 -3 6 -3 14
0 20 4 6 23 -4 46 -22 21 -17 42 -28 46 -25 3 4 1 7 -6 7 -14 0 -194 172 -224
214 -18 25 -5 19 73 -35 52 -35 120 -88 150 -117 53 -51 54 -54 36 -68 -11 -8
-15 -14 -9 -14 6 0 16 6 22 14 9 11 6 21 -15 45 -30 36 -30 36 26 16 65 -23
69 -18 20 25 -25 22 -40 40 -35 40 6 1 -21 13 -60 29 -90 36 -214 100 -195
100 8 1 60 -10 115 -23 87 -21 103 -23 125 -10 l25 13 -25 0 c-14 0 -38 3 -55
5 -16 3 -70 11 -120 18 -84 11 -87 12 -50 19 22 4 95 11 162 15 67 4 120 10
118 14 -2 4 13 12 35 19 61 18 58 31 -7 31 l-58 0 31 19 c18 11 35 24 38 29
10 16 -21 34 -51 29 -27 -4 -27 -4 4 -6 67 -3 43 -34 -57 -72 -83 -31 -243
-70 -252 -61 -11 11 162 186 221 224 25 15 41 28 35 28 -5 0 -20 -7 -32 -16
-28 -19 -28 -17 4 40 30 54 23 58 -30 14 -37 -30 -38 -31 -32 -7 4 13 -9 -5
-30 -41 -43 -76 -146 -222 -152 -216 -2 3 16 52 41 110 25 58 41 109 36 112
-5 3 -9 15 -10 27 0 12 -7 -5 -15 -38 -17 -71 -64 -215 -70 -215 -2 0 -2 26 2
58 11 114 24 228 29 252 5 21 4 22 -3 5 -7 -16 -10 -12 -16 25 -10 69 -23 80
-31 29z"/>
<path d="M2403 2905 c-3 -9 -3 -18 -1 -21 3 -3 8 4 11 16 6 23 -1 27 -10 5z"/>
<path d="M2441 2900 c14 -31 19 -36 19 -24 0 6 -7 19 -16 30 -14 18 -14 18 -3
-6z"/>
<path d="M2575 2910 c3 -5 8 -10 11 -10 2 0 4 5 4 10 0 6 -5 10 -11 10 -5 0
-7 -4 -4 -10z"/>
<path d="M2592 2860 c0 -19 2 -27 5 -17 2 9 2 25 0 35 -3 9 -5 1 -5 -18z"/>
<path d="M2284 2865 c-6 -15 -3 -32 12 -70 5 -14 -6 -8 -35 18 -24 21 -45 36
-48 33 -3 -3 6 -25 20 -50 25 -45 25 -46 4 -35 -12 6 -6 -2 13 -17 19 -15 74
-66 123 -113 48 -46 87 -82 87 -79 0 3 -29 48 -64 99 -73 108 -106 170 -106
199 0 73 104 -79 165 -243 28 -75 28 -49 0 34 -14 41 -32 108 -39 149 -10 54
-14 65 -15 38 -1 -40 -16 -59 -25 -30 -8 23 -62 82 -76 82 -6 0 -13 -7 -16
-15z m126 -85 c0 -5 -5 -10 -11 -10 -5 0 -7 5 -4 10 3 6 8 10 11 10 2 0 4 -4
4 -10z"/>
<path d="M2660 2853 l-25 -28 26 23 c30 27 46 28 53 5 4 -14 4 -14 3 2 -3 30
-30 29 -57 -2z"/>
<path d="M2620 2800 c-6 -11 -8 -20 -6 -20 3 0 10 9 16 20 6 11 8 20 6 20 -3
0 -10 -9 -16 -20z"/>
<path d="M2974 2784 c-18 -14 -18 -15 4 -4 12 6 22 13 22 15 0 8 -5 6 -26 -11z"/>
<path d="M2030 2776 c0 -3 9 -10 20 -16 11 -6 20 -8 20 -6 0 3 -9 10 -20 16
-11 6 -20 8 -20 6z"/>
<path d="M2816 2765 c4 -8 8 -15 10 -15 2 0 4 7 4 15 0 8 -4 15 -10 15 -5 0
-7 -7 -4 -15z"/>
<path d="M2904 2744 c-18 -14 -18 -15 4 -4 12 6 22 13 22 15 0 8 -5 6 -26 -11z"/>
<path d="M2779 2704 c-18 -20 -81 -68 -139 -106 -58 -39 -100 -69 -95 -66 6 2
61 29 123 60 80 39 108 57 96 62 -15 6 -12 13 21 46 22 22 37 40 34 40 -3 0
-21 -16 -40 -36z m-24 -54 c3 -5 1 -10 -4 -10 -6 0 -11 5 -11 10 0 6 2 10 4
10 3 0 8 -4 11 -10z"/>
<path d="M2150 2706 c0 -3 9 -10 20 -16 11 -6 20 -8 20 -6 0 3 -9 10 -20 16
-11 6 -20 8 -20 6z"/>
<path d="M2784 2674 c-18 -14 -18 -15 4 -4 12 6 22 13 22 15 0 8 -5 6 -26 -11z"/>
<path d="M2103 2654 c-3 -8 -1 -20 5 -26 8 -8 9 -5 5 10 -4 17 0 21 29 25 l33
4 -33 1 c-21 1 -35 -3 -39 -14z"/>
<path d="M2079 2513 c-12 -16 -12 -17 1 -7 8 6 22 14 30 17 13 5 12 6 -1 6 -9
1 -23 -7 -30 -16z"/>
<path d="M2878 2523 c7 -3 16 -2 19 1 4 3 -2 6 -13 5 -11 0 -14 -3 -6 -6z"/>
<path d="M2907 2501 c-4 -17 -3 -21 5 -13 5 5 8 16 6 23 -3 8 -7 3 -11 -10z"/>
<path d="M2090 2480 c8 -5 26 -10 39 -10 32 0 24 6 -19 14 -25 4 -31 3 -20 -4z"/>
<path d="M2858 2473 c6 -2 18 -2 25 0 6 3 1 5 -13 5 -14 0 -19 -2 -12 -5z"/>
<path d="M2365 2366 c-49 -52 -106 -103 -125 -115 -19 -11 -30 -21 -24 -21 6
0 23 9 37 20 31 25 44 26 26 3 -13 -17 -13 -17 5 -3 18 14 19 13 12 -5 -19
-48 -16 -47 18 10 21 33 56 85 79 115 57 74 69 90 65 90 -2 -1 -43 -43 -93
-94z m-51 -97 c-3 -5 -10 -7 -15 -3 -5 3 -7 10 -3 15 3 5 10 7 15 3 5 -3 7
-10 3 -15z"/>
<path d="M2148 2443 c7 -3 16 -2 19 1 4 3 -2 6 -13 5 -11 0 -14 -3 -6 -6z"/>
<path d="M2838 2443 c7 -3 16 -2 19 1 4 3 -2 6 -13 5 -11 0 -14 -3 -6 -6z"/>
<path d="M2088 2433 c7 -3 16 -2 19 1 4 3 -2 6 -13 5 -11 0 -14 -3 -6 -6z"/>
<path d="M2148 2420 c-20 -11 -39 -24 -43 -29 -4 -8 77 32 94 46 13 10 -19 -1
-51 -17z"/>
<path d="M2888 2433 c6 -2 18 -2 25 0 6 3 1 5 -13 5 -14 0 -19 -2 -12 -5z"/>
<path d="M2028 2423 c7 -3 16 -2 19 1 4 3 -2 6 -13 5 -11 0 -14 -3 -6 -6z"/>
<path d="M2850 2408 c46 -32 49 -48 8 -49 -32 -2 -32 -2 -4 -6 48 -7 56 14 18
48 -18 16 -37 29 -44 29 -6 0 4 -10 22 -22z"/>
<path d="M2948 2423 c7 -3 16 -2 19 1 4 3 -2 6 -13 5 -11 0 -14 -3 -6 -6z"/>
<path d="M1968 2413 c6 -2 18 -2 25 0 6 3 1 5 -13 5 -14 0 -19 -2 -12 -5z"/>
<path d="M3008 2413 c7 -3 16 -2 19 1 4 3 -2 6 -13 5 -11 0 -14 -3 -6 -6z"/>
<path d="M1918 2403 c7 -3 16 -2 19 1 4 3 -2 6 -13 5 -11 0 -14 -3 -6 -6z"/>
<path d="M3058 2403 c7 -3 16 -2 19 1 4 3 -2 6 -13 5 -11 0 -14 -3 -6 -6z"/>
<path d="M2100 2358 c0 -4 14 -8 30 -8 17 0 30 2 30 4 0 2 -13 6 -30 8 -16 3
-30 1 -30 -4z"/>
<path d="M2715 2240 c10 -11 20 -20 23 -20 3 0 -3 9 -13 20 -10 11 -20 20 -23
20 -3 0 3 -9 13 -20z"/>
<path d="M2234 2198 l-19 -23 23 19 c21 18 27 26 19 26 -2 0 -12 -10 -23 -22z"/>
<path d="M2770 2175 c13 -14 26 -25 28 -25 3 0 -5 11 -18 25 -13 14 -26 25
-28 25 -3 0 5 -11 18 -25z"/>
<path d="M2270 2171 c0 -11 4 -22 9 -25 4 -3 6 6 3 19 -5 30 -12 33 -12 6z"/>
<path d="M2471 2174 c0 -11 3 -14 6 -6 3 7 2 16 -1 19 -3 4 -6 -2 -5 -13z"/>
<path d="M2184 2138 l-19 -23 23 19 c21 18 27 26 19 26 -2 0 -12 -10 -23 -22z"/>
<path d="M2456 2126 c-5 -22 -11 -27 -26 -23 -11 3 -20 1 -20 -4 0 -5 9 -9 20
-9 20 0 44 33 37 53 -2 7 -7 -1 -11 -17z"/>
<path d="M2820 2115 c13 -14 26 -25 28 -25 3 0 -5 11 -18 25 -13 14 -26 25
-28 25 -3 0 5 -11 18 -25z"/>
<path d="M2129 2073 l-24 -28 28 24 c25 23 32 31 24 31 -2 0 -14 -12 -28 -27z"/>
<path d="M2850 2076 c0 -2 8 -10 18 -17 15 -13 16 -12 3 4 -13 16 -21 21 -21
13z"/>
<path d="M2113 3553 c-18 -7 -16 -42 2 -49 24 -10 47 14 34 37 -10 19 -15 21
-36 12z m31 -18 c3 -9 -1 -18 -10 -22 -19 -7 -28 2 -21 22 8 19 23 19 31 0z"/>
<path d="M2852 3551 c-21 -13 -10 -46 16 -49 27 -4 40 22 22 43 -14 17 -20 18
-38 6z m33 -22 c0 -7 -8 -15 -17 -17 -18 -3 -25 18 -11 32 10 10 28 1 28 -15z"/>
<path d="M1760 3521 c0 -8 -7 -10 -20 -6 -11 4 -20 2 -20 -4 0 -6 -5 -11 -11
-11 -5 0 -7 6 -3 13 5 7 0 6 -12 -3 -39 -30 -67 -60 -61 -67 4 -3 7 -1 7 5 0
7 6 12 13 12 6 -1 -1 -12 -18 -26 -18 -14 -22 -22 -11 -18 18 7 18 6 0 -21
-18 -27 -18 -28 5 -46 12 -10 20 -23 16 -29 -9 -15 61 -81 80 -74 8 3 15 1 15
-5 0 -6 6 -11 14 -11 8 0 18 -5 22 -12 5 -8 2 -9 -10 -5 -11 4 -15 3 -10 -4 3
-6 15 -8 25 -6 13 4 25 -3 35 -19 9 -13 21 -24 28 -23 7 0 6 2 -1 6 -7 2 -13
10 -13 16 1 7 10 1 20 -12 11 -13 20 -17 20 -10 0 10 3 10 12 1 7 -7 20 -12
30 -12 10 0 18 -5 18 -11 0 -6 7 -9 15 -6 8 4 17 2 20 -4 4 -5 11 -6 17 -3 7
4 6 9 -2 14 -9 6 -9 12 0 30 7 13 8 20 2 16 -6 -3 -13 -2 -17 4 -3 5 -2 10 3
10 5 0 9 7 9 15 0 8 -4 12 -8 9 -4 -2 -10 0 -14 6 -3 5 -1 10 6 10 7 0 5 8 -6
20 -14 15 -15 20 -4 20 10 1 8 5 -6 16 -16 12 -17 17 -7 23 11 7 11 9 -2 14
-9 4 -16 12 -16 19 0 9 3 8 10 -2 6 -9 10 -10 10 -3 0 6 -9 19 -21 27 -12 8
-18 19 -15 25 4 5 0 13 -8 18 -8 4 -16 19 -18 33 -2 15 -11 26 -23 28 -11 2
-24 9 -30 14 -7 8 -4 9 8 5 11 -4 16 -3 12 3 -3 6 -19 10 -34 10 -15 0 -32 5
-39 12 -9 9 -12 9 -12 -1z m110 -61 c0 -5 -2 -10 -4 -10 -3 0 -8 5 -11 10 -3
6 -1 10 4 10 6 0 11 -4 11 -10z m-195 -160 c3 -5 1 -10 -4 -10 -6 0 -11 5 -11
10 0 6 2 10 4 10 3 0 8 -4 11 -10z m30 -30 c3 -5 1 -10 -4 -10 -6 0 -11 5 -11
10 0 6 2 10 4 10 3 0 8 -4 11 -10z"/>
<path d="M1788 3523 c7 -3 16 -2 19 1 4 3 -2 6 -13 5 -11 0 -14 -3 -6 -6z"/>
<path d="M3216 3521 c-4 -6 -19 -11 -34 -11 -15 0 -35 -9 -45 -20 -9 -11 -12
-20 -6 -20 5 0 7 -5 4 -10 -4 -6 -11 -7 -17 -4 -7 4 -8 2 -4 -4 4 -7 2 -20 -3
-29 -10 -17 -10 -16 -11 2 0 16 -3 15 -15 -9 -9 -16 -13 -31 -10 -34 3 -3 5 0
5 6 0 7 6 12 13 12 6 -1 2 -9 -11 -19 -15 -13 -18 -21 -10 -24 9 -3 6 -10 -9
-22 -13 -9 -23 -22 -23 -28 0 -7 4 -6 10 3 7 10 10 11 10 2 0 -7 -7 -15 -16
-19 -12 -5 -13 -7 -2 -14 10 -6 10 -11 1 -20 -6 -6 -9 -18 -6 -25 3 -8 0 -14
-7 -14 -7 0 -10 -7 -6 -16 3 -8 -1 -22 -9 -30 -8 -9 -15 -23 -14 -32 0 -14 2
-13 9 3 8 19 9 19 9 -2 1 -12 6 -25 11 -28 6 -4 9 -1 8 7 -2 8 4 12 15 10 9
-2 17 2 17 8 0 5 5 10 11 10 5 0 7 -6 4 -12 -4 -7 2 -3 12 8 20 24 58 39 86
35 9 -1 20 5 23 13 3 9 10 13 15 10 5 -3 8 -2 7 3 -2 4 1 9 6 10 5 0 13 8 18
17 5 9 21 16 36 17 15 0 21 3 14 6 -10 4 -5 14 17 34 18 16 31 31 31 34 -1 17
1 18 11 5 9 -13 10 -13 6 1 -3 9 0 22 6 29 9 10 9 11 0 6 -7 -4 -13 -2 -13 3
0 6 5 11 12 11 9 0 9 3 0 12 -7 7 -12 20 -12 30 0 10 -4 18 -10 18 -5 0 -10 6
-10 14 0 8 -8 17 -17 20 -15 6 -15 8 -3 16 13 8 12 10 -2 10 -10 0 -18 6 -18
13 0 8 -4 7 -10 -3 -9 -13 -12 -12 -21 4 -9 15 -13 16 -20 5 -8 -12 -10 -12
-18 0 -6 9 -11 10 -15 2z m-46 -25 c0 -3 -4 -8 -10 -11 -5 -3 -10 -1 -10 4 0
6 5 11 10 11 6 0 10 -2 10 -4z m30 -296 c0 -5 -5 -10 -11 -10 -5 0 -7 5 -4 10
3 6 8 10 11 10 2 0 4 -4 4 -10z"/>
<path d="M2276 3423 c-11 -11 -6 -23 9 -23 8 0 15 4 15 9 0 13 -16 22 -24 14z"/>
<path d="M2696 3422 c-3 -6 -1 -14 5 -17 15 -10 25 3 12 16 -7 7 -13 7 -17 1z"/>
<path d="M3371 3414 c0 -11 3 -14 6 -6 3 7 2 16 -1 19 -3 4 -6 -2 -5 -13z"/>
<path d="M2067 3344 c-8 -8 1 -24 14 -24 5 0 9 7 9 15 0 15 -12 20 -23 9z"/>
<path d="M2907 3344 c-8 -8 1 -24 14 -24 5 0 9 7 9 15 0 15 -12 20 -23 9z"/>
<path d="M1534 3065 c-8 -21 2 -45 19 -45 8 0 20 7 27 15 10 12 10 18 0 30 -7
8 -19 15 -27 15 -7 0 -16 -7 -19 -15z m41 -15 c0 -8 -8 -16 -17 -18 -13 -2
-18 3 -18 18 0 15 5 20 18 18 9 -2 17 -10 17 -18z"/>
<path d="M1740 3066 c0 -9 7 -16 16 -16 9 0 14 5 12 12 -6 18 -28 21 -28 4z"/>
<path d="M3227 3074 c-8 -8 1 -24 14 -24 5 0 9 7 9 15 0 15 -12 20 -23 9z"/>
<path d="M3414 3065 c-8 -21 2 -45 19 -45 8 0 20 7 27 15 10 12 10 18 0 30 -7
8 -19 15 -27 15 -7 0 -16 -7 -19 -15z m41 -15 c0 -8 -8 -16 -17 -18 -13 -2
-18 3 -18 18 0 15 5 20 18 18 9 -2 17 -10 17 -18z"/>
<path d="M1636 2883 c-11 -11 -6 -23 9 -23 8 0 15 4 15 9 0 13 -16 22 -24 14z"/>
<path d="M3340 2870 c0 -5 5 -10 10 -10 6 0 10 5 10 10 0 6 -4 10 -10 10 -5 0
-10 -4 -10 -10z"/>
<path d="M1355 2839 c17 -8 16 -9 -7 -6 -16 3 -28 0 -28 -4 0 -5 -11 -9 -24
-9 -15 0 -30 -10 -41 -26 -9 -15 -12 -23 -6 -20 6 4 11 2 11 -3 0 -6 -4 -11
-9 -11 -5 0 -12 -7 -15 -16 -3 -8 -2 -12 4 -9 6 3 10 1 10 -4 0 -6 -4 -11 -10
-11 -5 0 -8 -6 -6 -12 3 -7 7 -25 10 -40 4 -15 16 -37 29 -49 18 -18 19 -21 4
-16 -11 4 -16 3 -12 -4 4 -5 14 -9 23 -8 10 1 33 -2 52 -6 29 -7 31 -9 15 -16
-17 -6 -15 -7 7 -6 15 1 24 5 22 9 -3 4 2 8 11 8 9 0 14 -4 11 -9 -10 -15 55
-6 65 10 6 9 12 10 17 4 12 -16 38 -16 52 0 7 8 18 15 24 15 6 0 4 -5 -4 -10
-8 -5 -11 -10 -6 -10 6 0 21 10 34 23 23 20 25 20 18 2 -7 -18 -5 -18 17 3 24
23 43 30 32 12 -3 -6 1 -7 9 -4 9 3 13 10 10 15 -3 5 2 9 10 9 23 0 -1 37 -29
44 -14 4 -16 8 -8 14 9 5 6 11 -8 21 -12 7 -18 8 -14 2 3 -6 1 -11 -4 -11 -6
0 -11 5 -11 10 0 6 -7 10 -16 10 -10 0 -14 5 -10 16 3 8 2 13 -3 10 -5 -3 -11
1 -15 9 -3 9 -19 15 -38 16 -28 0 -30 2 -13 10 18 8 18 9 -5 8 -40 -2 -46 1
-30 12 11 8 7 9 -17 5 -20 -3 -33 -1 -33 5 0 5 -8 9 -17 7 -10 -2 -17 2 -16 7
1 6 -13 11 -30 12 -27 1 -29 0 -12 -8z m-65 -33 c0 -3 -4 -8 -10 -11 -5 -3
-10 -1 -10 4 0 6 5 11 10 11 6 0 10 -2 10 -4z m270 -46 c0 -5 -2 -10 -4 -10
-3 0 -8 5 -11 10 -3 6 -1 10 4 10 6 0 11 -4 11 -10z m-30 -170 c0 -5 -5 -10
-11 -10 -5 0 -7 5 -4 10 3 6 8 10 11 10 2 0 4 -4 4 -10z m-83 -16 c-3 -3 -12
-4 -19 -1 -8 3 -5 6 6 6 11 1 17 -2 13 -5z"/>
<path d="M3610 2835 c-7 -9 -19 -14 -26 -11 -7 3 -16 1 -19 -4 -4 -6 -11 -10
-16 -10 -6 0 -8 4 -5 9 4 5 -3 7 -15 4 -16 -4 -17 -8 -7 -14 9 -6 5 -9 -13 -9
-15 0 -40 -7 -55 -15 -16 -8 -23 -15 -16 -15 7 0 11 -4 8 -9 -3 -5 -15 -7 -26
-4 -14 4 -23 -2 -31 -21 -8 -16 -20 -26 -33 -26 -38 0 -81 -69 -54 -86 7 -4 8
-3 4 4 -4 7 -2 12 3 12 6 0 11 -5 11 -11 0 -6 9 -8 20 -4 12 4 20 2 20 -5 0
-6 8 -10 18 -8 10 2 16 -2 14 -10 -2 -10 2 -10 17 -3 10 6 21 8 23 5 3 -2 15
-7 28 -9 12 -2 29 -10 38 -17 13 -11 14 -11 7 1 -6 11 -3 13 16 8 13 -4 31 -7
39 -8 10 0 8 -3 -5 -9 -17 -8 -17 -9 7 -7 15 1 24 5 22 9 -3 4 2 8 11 8 9 0
14 -4 11 -8 -10 -16 43 -6 63 12 12 11 21 14 21 8 0 -6 -6 -13 -12 -15 -10 -4
-10 -6 0 -6 7 -1 15 6 18 14 4 8 11 12 17 8 5 -3 7 -1 4 4 -4 6 0 16 8 23 8 7
17 27 21 46 3 19 9 32 13 30 4 -3 7 4 7 14 0 10 -4 16 -10 13 -5 -3 -7 5 -4
20 3 14 2 25 -1 24 -3 -1 -7 1 -8 6 -5 14 -48 52 -56 49 -4 -1 -15 4 -23 13
-20 19 -38 19 -54 0z m37 -1 c-3 -3 -12 -4 -19 -1 -8 3 -5 6 6 6 11 1 17 -2
13 -5z m-227 -88 c0 -3 -4 -8 -10 -11 -5 -3 -10 -1 -10 4 0 6 5 11 10 11 6 0
10 -2 10 -4z m-70 -50 c0 -3 -4 -8 -10 -11 -5 -3 -10 -1 -10 4 0 6 5 11 10 11
6 0 10 -2 10 -4z"/>
<path d="M3751 2644 c0 -11 3 -14 6 -6 3 7 2 16 -1 19 -3 4 -6 -2 -5 -13z"/>
<path d="M1560 2455 c0 -9 5 -15 11 -13 6 2 11 8 11 13 0 5 -5 11 -11 13 -6 2
-11 -4 -11 -13z"/>
<path d="M3410 2454 c0 -9 5 -14 12 -12 18 6 21 28 4 28 -9 0 -16 -7 -16 -16z"/>
<path d="M1412 2341 c-20 -12 -10 -46 14 -49 25 -4 40 24 23 44 -13 16 -19 17
-37 5z m33 -22 c0 -7 -8 -15 -17 -17 -18 -3 -25 18 -11 32 10 10 28 1 28 -15z"/>
<path d="M3552 2341 c-8 -5 -12 -17 -10 -27 4 -24 43 -31 51 -10 5 13 3 14
-13 4 -22 -14 -35 -6 -26 18 4 9 12 14 22 10 8 -3 12 -2 9 4 -7 12 -16 12 -33
1z"/>
<path d="M1597 2244 c-8 -8 1 -24 14 -24 5 0 9 7 9 15 0 15 -12 20 -23 9z"/>
<path d="M3372 2239 c2 -6 8 -10 13 -10 5 0 11 4 13 10 2 6 -4 11 -13 11 -9 0
-15 -5 -13 -11z"/>
<path d="M1664 2102 c-12 -12 -18 -13 -24 -3 -5 9 -10 10 -14 2 -4 -6 -15 -11
-24 -10 -14 0 -13 2 3 9 16 7 17 9 3 9 -9 1 -21 -5 -25 -13 -4 -7 -23 -17 -42
-21 -23 -5 -31 -4 -27 4 5 7 1 9 -8 5 -9 -3 -13 -10 -10 -15 3 -5 -4 -9 -15
-9 -11 0 -23 -5 -27 -11 -4 -8 -9 -7 -15 2 -6 10 -9 11 -9 2 0 -7 -8 -13 -17
-13 -15 0 -16 -2 -3 -10 11 -7 9 -11 -13 -19 -15 -6 -27 -13 -27 -16 0 -4 5
-3 10 0 6 3 10 2 10 -3 0 -6 -8 -13 -17 -16 -15 -6 -15 -8 -3 -17 11 -8 12
-12 3 -15 -8 -4 -9 -11 -3 -22 13 -26 26 -63 29 -82 0 -5 4 -9 9 -8 12 4 53
-22 48 -31 -3 -4 22 -3 55 2 32 5 59 14 59 18 0 5 9 9 20 9 11 0 19 5 17 11
-1 6 6 13 17 14 26 5 59 42 43 49 -7 3 -3 7 10 11 13 4 20 12 16 21 -3 8 0 14
5 14 6 0 14 10 17 21 4 13 10 17 14 11 4 -7 11 -4 20 9 7 12 8 18 2 14 -6 -3
-11 -1 -11 4 0 6 5 11 10 11 6 0 10 7 10 15 0 9 10 20 23 25 12 5 16 9 9 9 -7
1 -10 6 -7 11 4 6 11 7 17 4 6 -4 6 2 -1 15 -7 11 -14 21 -17 21 -3 0 -2 -4 1
-10 3 -5 -1 -10 -10 -10 -9 0 -14 4 -11 8 3 5 -1 9 -9 9 -8 0 -12 -4 -9 -9 3
-4 -2 -8 -11 -8 -9 0 -14 3 -12 8 10 14 -44 10 -59 -6z m-14 -222 c0 -5 -5
-10 -11 -10 -5 0 -7 5 -4 10 3 6 8 10 11 10 2 0 4 -4 4 -10z"/>
<path d="M3224 2111 c5 -7 -2 -11 -16 -12 -13 0 -17 -3 -10 -6 6 -2 12 -9 12
-14 0 -6 -6 -7 -12 -4 -7 4 -3 -2 10 -13 12 -11 22 -30 22 -41 0 -14 9 -25 25
-31 18 -7 25 -17 25 -37 0 -22 2 -25 10 -13 9 13 14 7 11 -12 0 -5 5 -8 13 -8
8 0 18 -5 22 -12 5 -8 2 -9 -9 -5 -10 3 -17 4 -17 1 0 -2 12 -9 27 -15 22 -8
24 -12 13 -19 -11 -7 -8 -10 13 -10 20 0 30 -7 37 -25 5 -14 12 -25 15 -25 4
0 3 5 0 10 -3 6 -1 10 4 10 6 0 11 -4 11 -10 0 -5 8 -10 17 -10 9 0 25 -8 36
-17 11 -10 17 -12 13 -5 -6 9 0 11 23 7 26 -4 33 -1 43 20 6 13 20 27 31 31
14 4 16 8 7 14 -9 5 -9 9 -1 14 6 4 11 14 11 23 0 9 7 25 17 35 15 17 15 20
-7 43 -13 14 -18 25 -12 25 7 0 5 8 -5 20 -10 11 -26 20 -36 20 -10 0 -28 10
-39 23 -11 12 -17 16 -13 10 3 -7 1 -13 -4 -13 -6 0 -11 5 -11 11 0 6 -9 8
-20 4 -11 -3 -20 -2 -20 3 0 6 -7 13 -16 16 -8 3 -12 2 -9 -4 3 -6 2 -10 -4
-10 -5 0 -11 5 -13 12 -3 7 -16 13 -29 13 -14 1 -32 5 -40 10 -12 8 -12 6 0
-8 17 -21 3 -22 -27 -2 -16 12 -26 13 -42 5 -14 -8 -26 -8 -41 1 -15 8 -19 8
-15 0z m173 -17 c-3 -3 -12 -4 -19 -1 -8 3 -5 6 6 6 11 1 17 -2 13 -5z m193
-74 c0 -5 -2 -10 -4 -10 -3 0 -8 5 -11 10 -3 6 -1 10 4 10 6 0 11 -4 11 -10z
m-335 -10 c3 -5 1 -10 -4 -10 -6 0 -11 5 -11 10 0 6 2 10 4 10 3 0 8 -4 11
-10z m295 -200 c0 -5 -5 -10 -11 -10 -5 0 -7 5 -4 10 3 6 8 10 11 10 2 0 4 -4
4 -10z"/>
<path d="M3166 1883 c-11 -11 -6 -23 9 -23 8 0 15 4 15 9 0 13 -16 22 -24 14z"/>
<path d="M1810 1870 c0 -5 5 -10 10 -10 6 0 10 5 10 10 0 6 -4 10 -10 10 -5 0
-10 -4 -10 -10z"/>
<path d="M1528 1793 c7 -3 16 -2 19 1 4 3 -2 6 -13 5 -11 0 -14 -3 -6 -6z"/>
<path d="M2179 1723 c-8 -22 -12 -24 -19 -13 -8 12 -10 10 -10 -7 0 -12 -4
-25 -10 -28 -5 -3 -10 -1 -10 6 0 7 -3 10 -6 7 -5 -5 -7 -14 -13 -48 -1 -3 -6
2 -11 10 -7 10 -10 11 -11 3 -4 -34 -6 -38 -17 -35 -7 1 -12 -6 -12 -16 0 -11
-12 -24 -26 -31 -19 -8 -25 -17 -21 -31 3 -11 1 -23 -4 -26 -5 -3 -9 1 -9 8 0
7 -7 0 -15 -16 -9 -16 -13 -31 -10 -34 3 -3 5 0 5 6 0 7 5 12 12 12 6 0 1 -11
-12 -25 -21 -22 -22 -29 -12 -45 7 -11 12 -26 12 -33 0 -19 54 -77 72 -77 9 0
21 -7 28 -15 7 -8 18 -15 24 -15 6 0 4 5 -4 10 -12 8 -10 10 10 10 14 0 38 7
54 15 26 14 28 14 21 -3 -4 -11 -3 -13 3 -7 6 6 12 19 14 30 2 11 9 19 15 18
7 -2 10 7 7 22 -3 15 0 25 7 25 6 0 8 7 5 17 -4 9 -1 20 6 24 6 4 13 21 14 38
1 17 -2 28 -7 25 -5 -3 -9 2 -9 11 0 9 4 14 8 11 5 -3 9 1 9 9 0 8 -4 12 -9 9
-11 -7 -10 13 3 37 7 15 7 24 -1 34 -6 7 -9 25 -6 39 3 15 1 24 -5 21 -5 -4
-9 1 -9 10 0 10 5 13 13 9 6 -4 4 2 -6 14 -11 11 -16 26 -12 31 3 6 1 11 -4
11 -6 0 -11 -4 -11 -10 0 -5 -5 -10 -11 -10 -5 0 -7 5 -4 10 3 6 4 10 0 10 -3
0 -10 -12 -16 -27z m-139 -167 c0 -3 -4 -8 -10 -11 -5 -3 -10 -1 -10 4 0 6 5
11 10 11 6 0 10 -2 10 -4z m207 -88 c-3 -8 -6 -5 -6 6 -1 11 2 17 5 13 3 -3 4
-12 1 -19z"/>
<path d="M2770 1735 c0 -10 -8 -27 -17 -38 -10 -11 -12 -17 -5 -13 15 9 16
-10 1 -20 -8 -4 -7 -9 2 -14 10 -7 10 -11 0 -24 -10 -12 -10 -16 -2 -16 7 0 9
-5 6 -10 -4 -6 -9 -8 -13 -6 -4 2 -8 -7 -9 -21 -1 -19 1 -22 8 -12 5 9 8 0 6
-26 -1 -22 2 -46 7 -53 4 -7 3 -19 -4 -26 -15 -20 -2 -66 26 -94 14 -13 22
-28 18 -33 -3 -5 0 -8 8 -7 7 2 12 -3 10 -10 -1 -8 2 -11 7 -8 5 4 12 0 14 -6
4 -10 6 -10 6 0 1 9 8 8 26 -4 24 -15 27 -15 44 0 9 9 22 16 27 16 5 0 2 -5
-6 -10 -9 -6 -10 -10 -3 -10 6 0 21 12 33 28 16 20 20 22 15 7 -12 -38 12 0
33 53 11 28 16 52 11 52 -6 0 -7 9 -4 20 4 12 2 20 -5 20 -7 0 -9 7 -6 15 3 9
-1 18 -10 22 -8 3 -13 12 -10 19 3 8 -1 14 -9 14 -8 0 -15 5 -15 10 0 6 5 10
10 10 6 0 5 6 -2 14 -7 7 -19 11 -25 9 -7 -3 -13 0 -13 6 0 6 -27 37 -60 69
-33 33 -60 68 -61 78 0 11 -3 14 -6 6 -4 -10 -8 -10 -19 -1 -11 9 -14 8 -14
-6z m-13 -307 c-3 -8 -6 -5 -6 6 -1 11 2 17 5 13 3 -3 4 -12 1 -19z"/>
<path d="M1980 1725 c0 -8 5 -15 10 -15 6 0 10 7 10 15 0 8 -4 15 -10 15 -5 0
-10 -7 -10 -15z"/>
<path d="M2992 1729 c2 -6 8 -10 13 -10 5 0 11 4 13 10 2 6 -4 11 -13 11 -9 0
-15 -5 -13 -11z"/>
<path d="M1773 1684 c-3 -8 2 -23 11 -32 15 -15 17 -15 32 0 21 21 11 48 -16
48 -11 0 -23 -7 -27 -16z m45 -11 c-2 -10 -10 -18 -18 -18 -8 0 -16 8 -18 18
-2 12 3 17 18 17 15 0 20 -5 18 -17z"/>
<path d="M3171 1686 c-9 -11 -8 -18 4 -30 20 -20 20 -20 39 -1 8 9 13 22 10
30 -8 19 -38 19 -53 1z m42 -3 c4 -3 2 -12 -4 -20 -9 -10 -15 -10 -25 -2 -8 6
-11 15 -8 20 6 11 28 12 37 2z"/>
<path d="M2377 1593 c-12 -11 -8 -23 8 -23 8 0 15 7 15 15 0 16 -12 20 -23 8z"/>
<path d="M2597 1594 c-8 -8 1 -24 14 -24 5 0 9 7 9 15 0 15 -12 20 -23 9z"/>
<path d="M2474 1435 c-9 -23 3 -45 25 -45 23 0 35 28 20 46 -15 18 -38 18 -45
-1z m41 -15 c0 -8 -8 -16 -17 -18 -13 -2 -18 3 -18 18 0 15 5 20 18 18 9 -2
17 -10 17 -18z"/>
<path d="M1961 1394 c0 -11 3 -14 6 -6 3 7 2 16 -1 19 -3 4 -6 -2 -5 -13z"/>
<path d="M3006 1353 c-6 -14 -5 -15 5 -6 7 7 10 15 7 18 -3 3 -9 -2 -12 -12z"/>
<path d="M3763 3294 c-15 -24 -15 -29 -2 -53 20 -36 71 -41 93 -9 20 28 20 52
0 72 -25 25 -71 20 -91 -10z"/>
<path d="M3670 3215 c-17 -21 -5 -45 24 -45 28 0 37 17 24 43 -11 21 -31 22
-48 2z"/>
<path d="M3592 3149 c2 -6 8 -10 13 -10 5 0 11 4 13 10 2 6 -4 11 -13 11 -9 0
-15 -5 -13 -11z"/>
<path d="M1135 3296 c-37 -57 43 -118 88 -68 10 10 17 28 17 40 0 51 -76 72
-105 28z"/>
<path d="M1274 3216 c-10 -26 4 -48 28 -44 17 2 23 10 23 28 0 18 -6 26 -23
28 -13 2 -25 -3 -28 -12z"/>
<path d="M1372 3149 c2 -6 8 -10 13 -10 5 0 11 4 13 10 2 6 -4 11 -13 11 -9 0
-15 -5 -13 -11z"/>
<path d="M968 2288 c-26 -21 -30 -53 -10 -78 22 -28 70 -30 89 -4 40 54 -26
123 -79 82z"/>
<path d="M1110 2281 c-14 -28 13 -55 41 -41 22 12 25 30 7 48 -18 18 -36 15
-48 -7z"/>
<path d="M1220 2286 c0 -9 7 -16 16 -16 17 0 14 22 -4 28 -7 2 -12 -3 -12 -12z"/>
<path d="M3750 2285 c0 -9 5 -15 11 -13 6 2 11 8 11 13 0 5 -5 11 -11 13 -6 2
-11 -4 -11 -13z"/>
<path d="M3837 2294 c-13 -14 -7 -52 10 -58 25 -10 51 20 37 42 -12 19 -36 27
-47 16z"/>
<path d="M3958 2288 c-43 -34 -19 -100 37 -100 52 0 75 67 33 96 -27 19 -49
20 -70 4z"/>
<path d="M1666 1533 c-11 -11 -6 -23 9 -23 8 0 15 4 15 9 0 13 -16 22 -24 14z"/>
<path d="M1587 1473 c-12 -11 -8 -40 8 -53 18 -15 45 2 45 30 0 23 -37 39 -53
23z"/>
<path d="M1492 1393 c-21 -8 -34 -51 -22 -73 17 -31 45 -42 75 -28 70 32 19
130 -53 101z"/>
<path d="M3310 1526 c0 -9 7 -16 16 -16 9 0 14 5 12 12 -6 18 -28 21 -28 4z"/>
<path d="M3361 1467 c-25 -31 13 -66 46 -42 14 11 16 18 7 32 -14 23 -38 28
-53 10z"/>
<path d="M3438 1388 c-30 -24 -31 -56 -4 -83 30 -30 49 -32 76 -5 24 24 25 48
4 78 -17 24 -52 29 -76 10z"/>
<path d="M2486 1233 c-11 -11 -6 -23 9 -23 8 0 15 4 15 9 0 13 -16 22 -24 14z"/>
<path d="M2466 1134 c-9 -25 16 -48 43 -39 16 5 21 13 19 28 -4 28 -52 36 -62
11z"/>
<path d="M2450 1021 c-24 -46 2 -91 53 -91 41 0 65 68 35 98 -20 20 -76 15
-88 -7z"/>
<path d="M2298 4319 c-24 -14 -23 -51 3 -83 21 -27 120 -99 126 -92 8 8 -47
140 -68 162 -25 26 -35 29 -61 13z"/>
<path d="M2636 4307 c-23 -23 -66 -123 -66 -153 0 -30 128 75 143 117 7 20
-19 59 -39 59 -8 0 -25 -10 -38 -23z"/>
<path d="M1467 4104 c-13 -13 -7 -42 10 -48 21 -8 36 6 31 30 -3 19 -29 30
-41 18z m33 -25 c0 -5 -7 -9 -15 -9 -15 0 -20 12 -9 23 8 8 24 -1 24 -14z"/>
<path d="M3487 4103 c-13 -12 -7 -41 10 -47 9 -4 23 -1 30 7 8 7 11 21 7 30
-6 17 -35 23 -47 10z m33 -18 c0 -8 -7 -15 -15 -15 -16 0 -20 12 -8 23 11 12
23 8 23 -8z"/>
<path d="M1220 4020 c-38 -38 -27 -77 38 -140 53 -51 180 -135 190 -125 17 16
-86 234 -126 265 -32 26 -77 25 -102 0z"/>
<path d="M3664 4008 c-42 -45 -67 -90 -98 -176 -14 -40 -26 -75 -26 -78 0 -9
86 39 147 82 100 71 130 129 93 177 -31 39 -77 37 -116 -5z"/>
<path d="M1457 4014 c-22 -22 17 -204 43 -204 5 0 16 34 25 75 21 93 13 129
-31 133 -16 2 -33 0 -37 -4z"/>
<path d="M3472 4008 c-17 -17 -13 -105 7 -163 l18 -50 21 58 c30 78 38 133 22
152 -15 18 -51 20 -68 3z"/>
<path d="M1107 3795 c-20 -19 -12 -45 14 -45 26 0 36 28 17 46 -13 14 -17 14
-31 -1z m31 -17 c-6 -18 -28 -21 -28 -4 0 9 7 16 16 16 9 0 14 -5 12 -12z"/>
<path d="M1190 3786 c-18 -22 -8 -59 20 -73 26 -13 118 -16 160 -4 l24 7 -31
22 c-42 30 -113 62 -139 62 -12 0 -27 -7 -34 -14z"/>
<path d="M3719 3785 c-20 -7 -56 -26 -79 -41 l-43 -29 39 -8 c97 -21 192 10
178 57 -12 38 -35 43 -95 21z"/>
<path d="M3846 3791 c-11 -18 6 -42 28 -39 29 4 29 42 -1 46 -11 2 -24 -1 -27
-7z m36 -16 c0 -5 -5 -11 -11 -13 -6 -2 -11 4 -11 13 0 9 5 15 11 13 6 -2 11
-8 11 -13z"/>
<path d="M686 3073 c-4 -9 0 -23 9 -32 13 -14 17 -14 31 1 9 9 14 24 11 32 -8
21 -43 20 -51 -1z m36 -8 c0 -5 -5 -11 -11 -13 -6 -2 -11 4 -11 13 0 9 5 15
11 13 6 -2 11 -8 11 -13z"/>
<path d="M4257 3076 c-4 -9 1 -22 9 -30 20 -20 46 -9 42 18 -4 25 -43 34 -51
12z m41 -14 c2 -7 -3 -12 -12 -12 -9 0 -16 7 -16 16 0 17 22 14 28 -4z"/>
<path d="M746 3014 c-22 -21 -20 -28 13 -67 30 -33 128 -93 137 -84 3 3 -6 30
-20 60 -46 96 -93 129 -130 91z"/>
<path d="M4164 2998 c-28 -34 -63 -103 -64 -126 0 -18 116 45 141 76 53 68
-21 116 -77 50z"/>
<path d="M572 2894 c-31 -26 -33 -78 -3 -107 18 -18 36 -23 100 -25 94 -5 224
14 218 31 -2 7 -46 34 -98 60 -111 57 -181 70 -217 41z"/>
<path d="M4281 2889 c-56 -19 -181 -88 -181 -99 0 -11 125 -30 197 -30 39 0
84 5 102 11 55 19 68 73 26 114 -29 30 -68 31 -144 4z"/>
<path d="M785 2713 c-88 -20 -126 -53 -105 -92 18 -34 61 -27 119 19 27 22 55
49 61 60 10 18 8 20 -22 19 -18 -1 -42 -3 -53 -6z"/>
<path d="M4171 2665 c31 -29 69 -57 84 -61 52 -13 83 30 49 67 -21 23 -103 49
-153 49 l-36 0 56 -55z"/>
<path d="M604 2605 c-4 -9 -2 -21 4 -27 16 -16 47 -5 47 17 0 26 -42 34 -51
10z m36 -10 c0 -8 -4 -15 -9 -15 -13 0 -22 16 -14 24 11 11 23 6 23 -9z"/>
<path d="M4340 2595 c0 -20 5 -25 25 -25 20 0 25 5 25 25 0 20 -5 25 -25 25
-20 0 -25 -5 -25 -25z m40 0 c0 -8 -7 -15 -15 -15 -8 0 -15 7 -15 15 0 8 7 15
15 15 8 0 15 -7 15 -15z"/>
<path d="M746 1793 c-10 -26 23 -48 42 -29 8 8 12 22 9 30 -8 21 -43 20 -51
-1z m36 -8 c0 -5 -5 -11 -11 -13 -6 -2 -11 4 -11 13 0 9 5 15 11 13 6 -2 11
-8 11 -13z"/>
<path d="M834 1785 c-9 -37 1 -53 41 -61 37 -7 165 13 165 26 0 15 -119 60
-159 60 -35 0 -41 -3 -47 -25z"/>
<path d="M4008 1783 c-32 -14 -58 -29 -58 -33 0 -9 101 -30 142 -30 56 0 88
33 68 71 -15 27 -81 24 -152 -8z"/>
<path d="M4196 1795 c-3 -8 2 -22 11 -30 14 -15 18 -15 31 -1 8 8 12 22 9 30
-8 20 -43 21 -51 1z m42 -13 c2 -7 -3 -12 -12 -12 -9 0 -16 7 -16 16 0 17 22
14 28 -4z"/>
<path d="M3910 1681 c19 -36 128 -146 169 -173 25 -15 58 -28 73 -28 59 0 91
77 49 119 -39 39 -128 72 -243 89 -51 8 -56 7 -48 -7z"/>
<path d="M985 1680 c-121 -24 -215 -79 -215 -126 0 -32 37 -74 67 -74 54 0
140 66 223 170 l32 40 -34 -1 c-18 -1 -51 -5 -73 -9z"/>
<path d="M1074 1587 c-77 -88 -91 -150 -37 -163 20 -5 31 -2 44 15 21 26 42
117 37 163 l-3 32 -41 -47z"/>
<path d="M3880 1574 c0 -104 37 -168 85 -146 16 8 25 20 25 35 0 27 -46 101
-84 136 l-26 24 0 -49z"/>
<path d="M983 1384 c-3 -8 2 -23 11 -32 14 -15 18 -15 31 -1 9 9 13 23 9 32
-8 21 -43 22 -51 1z m37 -9 c0 -8 -4 -15 -9 -15 -13 0 -22 16 -14 24 11 11 23
6 23 -9z"/>
<path d="M3967 1394 c-13 -13 -7 -42 10 -48 21 -8 36 6 31 30 -3 19 -29 30
-41 18z m33 -25 c0 -5 -7 -9 -15 -9 -15 0 -20 12 -9 23 8 8 24 -1 24 -14z"/>
<path d="M1790 975 c-86 -27 -118 -55 -105 -95 15 -48 81 -28 138 42 60 76 57
81 -33 53z"/>
<path d="M3139 962 c32 -45 109 -112 129 -112 46 0 56 57 16 89 -27 21 -112
51 -146 51 -19 0 -19 -1 1 -28z"/>
<path d="M3052 863 c5 -125 24 -195 59 -213 50 -28 109 5 109 61 0 17 -12 54
-26 82 -24 49 -128 187 -141 187 -3 0 -3 -53 -1 -117z"/>
<path d="M1903 937 c-52 -55 -110 -144 -123 -192 -12 -42 -11 -49 7 -73 25
-33 76 -41 104 -16 11 9 26 40 34 67 19 63 31 232 18 240 -5 3 -24 -8 -40 -26z"/>
<path d="M2000 872 c0 -111 24 -155 74 -136 41 16 22 98 -43 178 l-31 39 0
-81z"/>
<path d="M2958 907 c-55 -72 -73 -126 -51 -156 19 -28 49 -26 69 5 20 29 32
168 16 178 -5 3 -21 -9 -34 -27z"/>
<path d="M1613 854 c-3 -8 2 -23 11 -32 15 -15 17 -15 32 0 21 21 11 48 -16
48 -11 0 -23 -7 -27 -16z m37 -9 c0 -8 -4 -15 -9 -15 -13 0 -22 16 -14 24 11
11 23 6 23 -9z"/>
<path d="M3337 864 c-12 -12 -8 -42 6 -47 21 -8 39 8 35 29 -3 19 -29 30 -41
18z m33 -25 c0 -5 -7 -9 -15 -9 -15 0 -20 12 -9 23 8 8 24 -1 24 -14z"/>
<path d="M2064 696 c-9 -24 4 -48 23 -44 12 2 18 12 18 28 0 29 -32 41 -41 16z
m34 -17 c-2 -6 -8 -10 -13 -10 -5 0 -11 4 -13 10 -2 6 4 11 13 11 9 0 15 -5
13 -11z"/>
<path d="M2884 695 c-8 -21 2 -45 19 -45 8 0 20 7 27 15 10 12 10 18 0 30 -7
8 -19 15 -27 15 -7 0 -16 -7 -19 -15z m34 -16 c-2 -6 -8 -10 -13 -10 -5 0 -11
4 -13 10 -2 6 4 11 13 11 9 0 15 -5 13 -11z"/>
</g>
</svg>
