<?xml version="1.0" standalone="no"?>
<!DOCTYPE svg PUBLIC "-//W3C//DTD SVG 20010904//EN"
 "http://www.w3.org/TR/2001/REC-SVG-20010904/DTD/svg10.dtd">
<svg version="1.0" xmlns="http://www.w3.org/2000/svg"
 width="500.000000pt" height="500.000000pt" viewBox="0 0 500.000000 500.000000"
 preserveAspectRatio="xMidYMid meet">

<g transform="translate(0.000000,500.000000) scale(0.100000,-0.100000)"
fill="#e7ab5c" stroke="none">
<path d="M2412 4481 c-72 -25 -103 -56 -149 -149 0 -2 -34 15 -75 37 -60 33
-196 91 -213 91 -11 0 -123 -150 -150 -201 l-29 -57 -51 28 c-68 38 -114 44
-180 25 -116 -33 -189 -125 -188 -235 l1 -60 -92 0 c-50 -1 -120 -6 -156 -13
l-64 -12 -13 -60 c-7 -33 -12 -104 -13 -157 l0 -96 -62 -1 c-112 0 -200 -70
-233 -186 -20 -66 -13 -112 26 -182 27 -49 28 -52 9 -58 -27 -9 -158 -96 -203
-136 l-39 -34 27 -70 c14 -38 44 -103 66 -144 22 -40 38 -74 37 -75 -2 0 -20
-10 -41 -20 -113 -58 -158 -216 -97 -336 22 -42 83 -98 118 -106 12 -4 22 -7
22 -9 0 -1 -20 -41 -45 -87 -25 -47 -54 -112 -65 -144 l-21 -59 38 -33 c46
-41 177 -129 203 -137 19 -6 18 -9 -9 -58 -39 -70 -46 -116 -27 -181 34 -117
121 -186 234 -186 l62 0 0 -97 c1 -54 6 -125 13 -158 l13 -60 64 -12 c36 -7
106 -12 157 -13 l91 0 0 -60 c0 -103 51 -178 152 -223 70 -31 145 -27 213 11
52 29 56 30 62 13 9 -28 82 -139 126 -193 39 -45 40 -46 77 -36 48 13 174 71
211 97 16 12 33 21 38 21 4 -1 17 -20 29 -43 27 -56 90 -102 159 -118 108 -24
223 27 269 118 12 23 25 43 29 43 5 0 22 -9 38 -21 37 -26 163 -84 212 -97
l37 -10 60 76 c33 42 72 100 87 129 l27 51 43 -25 c61 -36 108 -45 170 -32
120 24 203 121 203 237 l0 62 87 0 c99 0 208 16 222 33 16 20 31 126 31 218
l0 87 73 3 c65 4 79 8 122 40 106 76 139 212 78 321 l-31 54 52 27 c28 15 86
54 128 87 72 56 76 62 68 87 -19 67 -53 143 -85 197 -19 32 -35 61 -35 65 0 3
20 15 43 27 91 46 142 161 118 269 -16 69 -62 132 -118 159 -23 12 -42 24 -43
27 0 4 16 33 35 65 32 54 66 130 85 197 8 25 4 31 -68 87 -42 33 -100 72 -128
87 l-52 27 31 54 c91 161 -28 364 -214 364 l-59 0 0 92 c-1 50 -6 120 -13 156
l-12 65 -65 12 c-36 7 -107 12 -157 13 l-93 0 0 60 c0 74 -16 116 -65 165 -86
85 -198 103 -297 48 -54 -31 -57 -31 -63 -13 -8 26 -96 156 -137 203 l-33 39
-70 -27 c-39 -14 -103 -44 -143 -66 -41 -22 -75 -39 -75 -37 -47 94 -84 130
-159 153 -66 19 -101 19 -166 -4z m-392 -57 c0 4 9 2 19 -4 19 -10 19 -12 3
-50 -9 -22 -20 -40 -23 -40 -10 0 -19 58 -13 75 4 8 1 15 -5 15 -6 0 -11 5
-11 11 0 8 5 8 15 -1 8 -7 15 -9 15 -6z m990 0 c0 -8 -5 -12 -10 -9 -6 4 -8
11 -5 16 9 14 15 11 15 -7z m-11 -38 c-1 -6 -4 -22 -8 -36 l-7 -25 -16 25
c-27 43 -31 68 -11 72 18 5 44 -18 42 -36z m46 -32 c-16 -13 -34 -24 -39 -24
-13 0 3 54 21 68 10 7 12 12 5 12 -7 0 -12 6 -12 12 0 7 12 0 28 -15 l27 -28
-30 -25z m-1050 5 c4 -17 5 -32 3 -34 -2 -2 -19 9 -38 25 -29 24 -32 30 -21
44 19 22 48 4 56 -35z m980 -64 c-14 -49 -16 -48 -45 14 -33 69 -36 87 -17 94
13 4 67 -89 62 -108z m-875 93 c0 -7 -14 -42 -30 -78 -28 -64 -29 -65 -39 -37
-9 23 -7 36 14 77 23 46 55 68 55 38z m816 -75 c29 -63 34 -85 29 -117 -3 -22
-8 -43 -11 -48 -4 -5 -29 39 -56 98 l-51 108 23 18 c12 10 24 18 26 18 3 0 20
-35 40 -77z m-757 53 c10 -12 2 -37 -40 -123 -46 -96 -53 -105 -59 -83 -15 46
-10 77 21 149 33 72 53 87 78 57z m435 -14 c17 -10 40 -34 51 -55 l20 -36 -34
-35 -33 -34 -23 26 c-19 23 -31 27 -73 27 -40 0 -56 -5 -76 -25 l-27 -24 -31
31 c-29 29 -30 34 -19 62 16 38 40 59 88 77 46 17 114 11 157 -14z m-620 -27
c28 -22 46 -44 46 -56 0 -19 -1 -19 -27 -4 -53 31 -96 72 -89 83 11 18 19 15
70 -23z m1122 23 c7 -11 -36 -52 -88 -83 -27 -15 -28 -15 -28 4 0 12 18 34 46
56 51 38 59 41 70 23z m-881 -14 c19 -14 18 -18 -49 -151 -52 -106 -70 -133
-77 -121 -5 9 -10 27 -11 40 -1 23 100 248 111 248 3 0 15 -7 26 -16z m654
-96 c51 -111 60 -149 42 -177 -7 -11 -28 22 -77 122 -67 133 -68 137 -49 151
11 9 23 16 26 16 3 0 29 -51 58 -112z m-908 35 c57 -40 71 -55 80 -87 6 -21 8
-40 6 -42 -3 -3 -48 25 -100 62 -94 66 -95 67 -80 90 8 13 17 24 20 24 2 0 36
-21 74 -47z m1172 24 c14 -22 12 -24 -80 -90 -52 -38 -98 -66 -101 -63 -3 3 0
23 6 43 9 30 27 48 79 86 38 26 71 47 74 47 4 0 13 -10 22 -23z m-864 -1 c9
-11 -5 -49 -62 -176 -40 -89 -78 -162 -83 -161 -5 0 -13 16 -17 35 -8 32 -2
48 64 176 40 77 76 140 80 140 4 0 12 -6 18 -14z m559 -131 c63 -125 72 -148
65 -175 -5 -17 -13 -31 -18 -32 -5 0 -42 73 -83 162 -58 128 -71 165 -61 176
6 8 14 14 18 14 3 0 39 -65 79 -145z m-389 -59 c19 -31 31 -59 29 -62 -3 -3
-43 30 -88 73 -45 43 -88 82 -96 86 -17 10 -17 17 -3 54 l11 28 56 -61 c31
-33 72 -86 91 -118z m196 26 c-53 -51 -99 -91 -102 -88 -10 10 53 110 111 173
l59 65 15 -28 15 -28 -98 -94z m-677 53 c84 -58 104 -76 112 -104 5 -19 8 -36
7 -38 -2 -1 -60 36 -130 82 -123 83 -126 86 -115 110 6 14 14 24 18 23 3 -2
52 -34 108 -73z m1210 51 c8 -18 8 -27 -1 -34 -23 -19 -241 -161 -244 -158 -1
1 2 18 8 37 8 28 29 48 112 106 56 40 105 72 108 73 3 0 11 -11 17 -24z m-733
-209 c-13 -7 -231 18 -243 28 -4 3 27 65 32 65 2 0 47 -21 101 -46 53 -25 99
-44 101 -42 2 2 -41 26 -96 53 -55 27 -100 51 -100 52 0 2 7 20 15 39 l15 36
95 -88 c75 -70 92 -90 80 -97z m320 146 c8 -20 14 -37 13 -39 -6 -5 -174 -86
-198 -95 -15 -6 13 27 70 80 52 50 96 90 97 91 2 0 10 -16 18 -37z m-779 -81
c106 -69 123 -87 124 -131 0 -8 -6 -11 -15 -7 -26 10 -285 197 -285 206 0 5 3
15 6 24 6 17 -11 26 170 -92z m1224 72 c0 -11 -253 -198 -284 -210 -11 -4 -16
-1 -15 12 1 41 19 58 149 144 129 85 149 92 150 54z m-1472 -34 c23 -14 32
-26 28 -38 -3 -9 -8 -29 -11 -43 -6 -24 -10 -26 -48 -22 -52 6 -107 -27 -121
-72 -6 -17 -11 -31 -12 -33 -1 -2 -21 2 -43 9 -51 15 -60 42 -37 103 38 100
160 147 244 96z m1701 0 c47 -23 77 -60 91 -108 15 -56 5 -78 -43 -90 -23 -6
-42 -10 -42 -9 0 1 -5 15 -11 32 -14 45 -69 78 -122 72 -39 -4 -43 -3 -48 22
-3 14 -8 34 -11 43 -6 26 52 58 105 58 23 0 60 -9 81 -20z m-1595 -18 c5 -9
-67 -258 -78 -269 -12 -13 -5 154 9 216 9 35 18 67 21 72 5 9 39 -4 48 -19z
m1405 -76 c13 -72 14 -208 2 -186 -5 8 -25 69 -45 135 l-37 120 22 18 c22 18
23 18 35 -5 7 -13 17 -50 23 -82z m-449 65 c22 -42 14 -47 -90 -64 -54 -10
-107 -17 -117 -16 -16 1 170 97 189 99 4 0 12 -9 18 -19z m-877 -56 c-22 -38
-127 -184 -130 -181 -4 3 36 144 62 224 3 9 14 6 39 -10 19 -12 32 -27 29 -33z
m1273 -65 c19 -62 33 -115 31 -117 -2 -2 -34 40 -71 94 -50 72 -64 98 -54 104
7 4 22 14 33 22 11 9 21 14 23 12 2 -1 19 -53 38 -115z m-1225 41 c16 -13 21
-23 14 -29 -31 -30 -169 -141 -173 -138 -5 5 120 186 129 186 4 0 17 -9 30
-19z m389 -5 l65 -12 -65 -8 c-36 -4 -94 -14 -130 -21 -36 -8 -66 -12 -68 -11
-1 2 5 20 15 41 l18 37 50 -7 c27 -3 79 -12 115 -19z m484 -12 c9 -20 15 -38
14 -40 -2 -1 -24 2 -48 7 -25 6 -85 16 -135 23 l-90 12 95 16 c143 24 144 24
164 -18z m287 -32 c100 -147 102 -145 -29 -37 l-83 68 28 18 c15 11 30 19 33
19 3 0 26 -30 51 -68z m-1084 -3 c19 -12 31 -25 26 -29 -4 -4 -33 -16 -63 -25
-30 -10 -84 -31 -120 -47 -36 -16 -58 -23 -50 -14 21 21 164 136 169 136 2 0
19 -10 38 -21z m1043 -40 c109 -88 112 -93 40 -61 -36 16 -90 37 -120 47 -30
9 -59 21 -63 25 -7 6 48 49 63 50 3 0 39 -27 80 -61z m-638 1 c-23 -16 -53
-47 -67 -68 -26 -39 -65 -140 -65 -167 0 -8 -3 -15 -6 -15 -4 0 -37 27 -74 60
-37 33 -72 60 -76 60 -5 0 -22 -39 -38 -87 -16 -49 -31 -90 -33 -92 -2 -2 -23
16 -48 42 -56 56 -133 95 -204 104 l-52 6 38 22 c144 86 416 162 592 164 l74
1 -41 -30z m353 5 c111 -23 235 -66 340 -117 l88 -43 -54 -8 c-73 -10 -146
-48 -200 -102 -24 -25 -47 -45 -50 -45 -3 0 -18 41 -34 90 -16 50 -33 90 -38
90 -5 0 -40 -28 -78 -61 -39 -34 -71 -60 -73 -58 -1 2 -11 33 -21 68 -23 79
-64 141 -118 182 l-42 31 100 -5 c55 -3 136 -13 180 -22z m-1505 -7 c0 -13 5
-65 10 -117 6 -52 8 -97 5 -99 -3 -3 -18 7 -34 22 -26 25 -30 37 -36 111 -4
46 -4 89 0 95 3 5 17 10 31 10 18 0 24 -5 24 -22z m74 -75 c4 -54 9 -124 12
-155 5 -63 -1 -70 -33 -35 -16 17 -22 41 -27 107 -4 47 -10 106 -13 133 l-6
47 31 0 30 0 6 -97z m2332 55 c-3 -24 -8 -82 -12 -130 -6 -79 -9 -89 -36 -115
l-30 -28 6 70 c3 39 8 109 12 158 l6 87 30 0 c30 0 30 -1 24 -42z m69 32 c4
-6 3 -47 -1 -91 -5 -65 -12 -86 -31 -110 -36 -43 -46 -37 -39 24 3 28 8 82 12
120 6 62 8 67 30 67 12 0 26 -5 29 -10z m-2597 -61 c-3 -43 -4 -44 -42 -47
-51 -4 -66 2 -59 27 7 28 40 27 72 -1 l26 -23 -22 26 c-27 30 -30 66 -5 72 27
6 34 -7 30 -54z m55 -11 c3 -40 3 -75 0 -78 -3 -3 -13 6 -24 19 -13 16 -19 39
-19 77 0 46 3 54 19 54 16 0 19 -10 24 -72z m200 20 c17 -153 29 -309 23 -315
-3 -4 -17 4 -30 16 -22 21 -25 33 -30 139 -4 65 -9 138 -12 165 -4 44 -3 47
19 47 22 0 25 -5 30 -52z m1067 30 c0 -18 -2 -20 -9 -8 -6 8 -7 18 -5 22 9 14
14 9 14 -14z m33 -3 c-7 -21 -13 -19 -13 6 0 11 4 18 10 14 5 -3 7 -12 3 -20z
m1043 -19 c-5 -20 -20 -26 -131 -51 -69 -16 -123 -30 -121 -33 3 -2 56 8 120
22 63 14 118 26 121 26 4 0 5 -17 3 -37 l-3 -38 -50 1 c-113 2 -174 8 -195 19
l-22 12 30 22 c70 50 242 111 250 89 2 -5 1 -19 -2 -32z m59 2 c-3 -24 -7 -95
-11 -160 -6 -112 -7 -117 -35 -144 l-29 -28 0 35 c0 19 7 95 15 169 8 74 15
143 15 153 0 11 8 17 25 17 23 0 24 -3 20 -42z m193 -18 c-3 -38 -10 -67 -21
-77 -9 -9 -19 -15 -21 -12 -3 3 -2 37 1 77 5 63 8 72 26 72 18 0 19 -5 15 -60z
m62 27 c0 -11 -10 -32 -22 -46 l-23 -26 26 23 c36 31 69 30 69 -4 0 -24 -2
-25 -47 -22 -48 3 -48 3 -51 42 -2 21 -1 44 2 51 8 21 46 6 46 -18z m-2346 3
c59 -20 161 -74 171 -90 8 -14 -58 -27 -167 -35 l-98 -6 0 40 c0 23 2 41 5 41
2 0 54 -12 115 -26 60 -14 115 -24 121 -22 6 2 -44 16 -112 32 -124 28 -139
36 -139 69 0 23 32 22 104 -3z m2386 -12 c0 -5 -7 -3 -15 6 -8 8 -15 18 -15
22 0 3 7 1 15 -6 8 -7 15 -17 15 -22z m-2822 8 c-7 -8 -15 -12 -17 -11 -5 6
10 25 20 25 5 0 4 -6 -3 -14z m1370 -21 c-9 -9 -30 14 -23 25 6 9 10 8 17 -4
6 -10 8 -19 6 -21z m92 16 c0 -5 -7 -11 -15 -15 -9 -3 -15 0 -15 9 0 8 7 15
15 15 8 0 15 -4 15 -9z m-115 -42 c-6 -9 -35 -1 -35 10 0 4 3 11 7 14 8 9 34
-13 28 -24z m134 5 c-6 -7 -15 -11 -21 -8 -5 3 -4 12 3 20 6 7 15 11 21 8 5
-3 4 -12 -3 -20z m-44 -11 c26 -29 62 -97 76 -145 l8 -28 -120 0 c-120 0 -120
0 -113 23 23 77 87 177 113 177 6 0 22 -12 36 -27z m-110 -23 c-3 -4 -14 -6
-25 -3 -20 5 -25 15 -14 26 9 9 46 -12 39 -23z m177 -1 c-26 -10 -37 2 -17 18
15 10 20 10 27 1 4 -8 1 -15 -10 -19z m-1411 -28 c13 -11 22 -22 19 -25 -3 -2
-37 -2 -75 2 -55 6 -70 11 -73 25 -5 26 97 24 129 -2z m1216 -5 c-2 -6 -13 -9
-23 -8 -24 5 -27 8 -20 20 8 14 48 2 43 -12z m231 6 c2 -7 -7 -12 -22 -12 -27
0 -35 15 -13 23 17 7 30 3 35 -11z m1300 1 c-3 -14 -18 -19 -73 -25 -38 -4
-72 -4 -75 -2 -3 3 6 14 19 25 32 26 134 28 129 2z m-2261 -24 c-25 -15 -200
-79 -214 -79 -8 0 -13 13 -13 34 l0 34 113 9 c61 6 117 11 122 11 6 1 2 -3 -8
-9z m1771 -4 l102 -7 0 -34 c0 -23 -5 -34 -14 -34 -17 0 -216 76 -225 86 -3 4
3 4 14 1 11 -3 66 -9 123 -12z m-1208 -65 c40 -36 50 -50 36 -50 -10 0 -39 16
-63 36 -30 25 -45 31 -48 22 -3 -7 -11 -31 -18 -53 -8 -23 -21 -41 -32 -43
-11 -3 -15 1 -12 10 3 7 16 43 28 80 26 77 23 77 109 -2z m139 61 c19 -12 5
-30 -19 -24 -21 5 -25 15 -13 26 8 9 15 9 32 -2z m274 -5 c3 -8 -2 -16 -14
-19 -23 -6 -37 12 -18 24 19 12 26 11 32 -5z m223 -79 c20 -59 21 -68 7 -65
-9 2 -22 21 -30 43 -7 22 -15 46 -18 54 -4 9 -18 3 -50 -24 -25 -20 -53 -35
-62 -33 -11 2 5 21 53 62 46 39 70 54 73 45 2 -8 14 -45 27 -82z m-1613 45
c38 -36 34 -45 -15 -39 -24 4 -78 9 -120 13 -72 6 -78 8 -78 29 0 12 3 25 8
29 4 4 45 5 92 1 73 -6 89 -11 113 -33z m2683 13 c4 -14 5 -28 3 -30 -7 -6
-232 -25 -238 -20 -2 3 8 18 24 35 28 29 44 33 162 38 38 2 43 -1 49 -23z
m-2301 -8 c-16 -12 -62 -48 -101 -79 -40 -32 -74 -58 -77 -58 -3 0 -7 18 -9
40 l-4 40 101 39 c115 46 132 49 90 18z m94 -19 c-29 -58 -35 -148 -15 -227 9
-35 15 -65 14 -67 -2 -1 -44 6 -93 16 -50 10 -93 15 -96 11 -4 -3 1 -46 11
-96 10 -49 17 -91 16 -93 -2 -1 -32 5 -67 14 -77 20 -157 15 -223 -14 l-46
-21 11 22 c45 86 174 239 282 335 62 55 210 162 223 162 2 0 -5 -19 -17 -42z
m1584 -8 c161 -111 328 -284 416 -432 l22 -37 -47 20 c-66 30 -146 35 -223 15
-35 -9 -66 -15 -68 -13 -2 2 5 45 16 96 10 50 16 93 12 95 -3 2 -46 -5 -96
-14 -49 -10 -91 -17 -93 -15 -2 2 4 31 13 66 21 77 16 157 -13 223 -12 25 -18
46 -16 46 3 0 38 -22 77 -50z m112 12 l100 -38 3 -48 3 -48 -79 64 c-43 34
-92 73 -108 85 -16 12 -27 22 -24 22 3 1 50 -16 105 -37z m-1625 13 c0 -8 -2
-15 -4 -15 -2 0 -6 7 -10 15 -3 8 -1 15 4 15 6 0 10 -7 10 -15z m40 1 c0 -8
-4 -18 -10 -21 -5 -3 -10 3 -10 14 0 12 5 21 10 21 6 0 10 -6 10 -14z m1320
-7 c0 -11 -4 -17 -10 -14 -5 3 -10 13 -10 21 0 8 5 14 10 14 6 0 10 -9 10 -21z
m34 6 c-4 -8 -8 -15 -10 -15 -2 0 -4 7 -4 15 0 8 4 15 10 15 5 0 7 -7 4 -15z
m-1419 -23 c-8 -8 -25 10 -19 20 4 6 9 5 15 -3 4 -7 6 -15 4 -17z m105 21 c0
-14 -19 -38 -25 -32 -8 8 5 39 16 39 5 0 9 -3 9 -7z m1244 -9 c4 -9 4 -19 2
-21 -8 -8 -26 8 -26 23 0 19 16 18 24 -2z m101 -5 c-10 -15 -25 -10 -19 6 4 8
10 12 15 9 5 -3 7 -10 4 -15z m-1309 -18 c-4 -6 -14 -11 -22 -11 -12 0 -13 4
-3 21 7 14 14 18 21 11 6 -6 7 -15 4 -21z m444 19 c0 -5 -9 -10 -20 -10 -11 0
-20 5 -20 10 0 6 9 10 20 10 11 0 20 -4 20 -10z m300 0 c0 -5 -9 -10 -20 -10
-11 0 -20 5 -20 10 0 6 9 10 20 10 11 0 20 -4 20 -10z m429 -28 c-5 -2 -16 2
-25 9 -11 9 -12 14 -3 20 8 4 18 1 25 -9 7 -10 9 -18 3 -20z m-1329 3 c10 -13
9 -15 -8 -15 -15 0 -20 5 -16 15 4 8 7 15 9 15 1 0 8 -7 15 -15z m190 -20 c-9
-11 -16 -13 -23 -6 -7 7 -6 15 3 26 9 11 16 13 23 6 7 -7 6 -15 -3 -26z m1104
-5 c-14 -14 -39 14 -29 31 5 8 12 6 23 -5 11 -11 13 -19 6 -26z m190 25 c4
-10 -1 -15 -16 -15 -17 0 -18 2 -8 15 7 8 14 15 15 15 2 0 5 -7 9 -15z m-2024
-11 c66 -5 90 -11 108 -27 34 -32 27 -38 -35 -33 -32 3 -102 8 -155 12 l-98 6
0 30 0 31 48 -6 c26 -3 85 -9 132 -13z m675 -19 c22 -13 55 -37 74 -52 l34
-29 -79 -45 c-43 -25 -89 -51 -101 -59 -12 -8 -25 -11 -29 -8 -3 4 -9 47 -12
96 -7 138 13 156 113 97z m1295 16 c17 -34 9 -211 -10 -211 -4 0 -52 26 -105
57 l-98 57 38 33 c39 34 129 83 152 83 7 0 17 -9 23 -19z m750 -5 c0 -14 -4
-27 -9 -30 -11 -7 -294 -26 -300 -20 -3 3 5 15 17 27 18 18 41 24 130 33 167
17 162 18 162 -10z m-1595 4 c-3 -5 -13 -10 -21 -10 -8 0 -12 5 -9 10 3 6 13
10 21 10 8 0 12 -4 9 -10z m320 0 c3 -5 -3 -10 -14 -10 -12 0 -21 5 -21 10 0
6 6 10 14 10 8 0 18 -4 21 -10z m-671 -9 c8 -12 -21 -34 -34 -26 -8 5 -8 11 1
21 13 16 25 18 33 5z m1025 -5 c9 -10 9 -16 1 -21 -13 -8 -42 14 -34 26 8 13
20 11 33 -5z m-1259 -16 c0 -5 -9 -10 -20 -10 -11 0 -20 5 -20 10 0 6 9 10 20
10 11 0 20 -4 20 -10z m1500 0 c0 -5 -9 -10 -20 -10 -11 0 -20 5 -20 10 0 6 9
10 20 10 11 0 20 -4 20 -10z m-1243 -27 c-8 -9 -20 -12 -27 -8 -8 5 -6 11 7
20 23 17 39 7 20 -12z m689 2 c458 -88 822 -452 911 -914 19 -102 21 -306 4
-401 -109 -594 -643 -1006 -1230 -950 -515 49 -919 411 -1027 922 -26 122 -24
333 5 461 77 341 299 627 606 780 133 66 264 103 425 121 57 6 229 -4 306 -19z
m281 -11 c-9 -10 -38 16 -31 28 4 6 13 4 22 -6 9 -8 13 -19 9 -22z m-1724 0
c116 -6 117 -6 139 -37 l22 -30 -85 7 c-46 3 -130 11 -186 18 -99 10 -103 12
-103 35 0 22 3 23 48 19 26 -3 100 -8 165 -12z m1997 -5 c0 -5 -9 -9 -20 -9
-22 0 -27 16 -7 23 15 5 27 -1 27 -14z m670 -3 c0 -21 -6 -24 -52 -29 -156
-18 -310 -29 -315 -23 -4 4 4 18 18 31 22 22 35 25 169 33 80 5 153 10 163 11
12 1 17 -6 17 -23z m-2170 4 c0 -5 -9 -10 -20 -10 -11 0 -20 5 -20 10 0 6 9
10 20 10 11 0 20 -4 20 -10z m282 -12 c-6 -6 -15 -8 -19 -4 -4 4 -1 11 7 16
19 12 27 3 12 -12z m918 0 c0 -6 -7 -7 -16 -4 -9 3 -18 6 -20 6 -3 0 -3 4 1
10 7 11 35 2 35 -12z m-1200 -22 c0 -7 -9 -16 -20 -19 -13 -3 -20 0 -20 8 0 8
8 16 18 18 9 3 18 5 20 6 1 0 2 -5 2 -13z m1500 -11 c0 -8 -8 -11 -20 -8 -11
3 -20 11 -20 18 0 8 8 11 20 8 11 -3 20 -11 20 -18z m-2154 -3 c6 -4 24 -63
40 -132 16 -69 30 -118 32 -110 1 9 -9 63 -23 120 -14 58 -25 109 -25 113 0 5
17 7 38 5 36 -3 37 -4 38 -43 1 -64 -13 -192 -24 -211 -8 -15 -14 -11 -38 27
-33 53 -69 138 -82 197 -9 39 -8 42 12 42 11 0 26 -4 32 -8z m2814 -14 c-1
-37 -46 -155 -80 -209 -18 -27 -34 -48 -36 -46 -7 7 59 262 70 269 23 16 46 8
46 -14z m-73 -10 c-3 -13 -16 -67 -28 -121 -13 -54 -26 -92 -30 -85 -3 7 -10
61 -13 121 l-7 107 41 0 c39 0 42 -2 37 -22z m-2557 -2 c0 -15 -81 -229 -84
-224 -2 2 2 56 7 121 l10 117 33 0 c23 0 34 -5 34 -14z m2473 -68 c13 -160 10
-164 -33 -49 -22 57 -40 110 -40 117 0 9 12 14 34 14 l33 0 6 -82z m-2373 66
c0 -3 -27 -40 -61 -82 -33 -41 -68 -86 -76 -99 -9 -13 -17 -22 -20 -20 -3 4
62 180 74 200 5 8 83 10 83 1z m375 -9 c0 -5 -10 -11 -22 -13 -16 -2 -23 2
-23 13 0 11 7 15 23 13 12 -2 22 -7 22 -13z m1495 -1 c0 -10 -7 -14 -22 -12
-32 5 -35 28 -4 28 17 0 26 -5 26 -16z m451 -88 c21 -55 37 -101 35 -103 -2
-2 -14 11 -27 29 -13 18 -50 66 -82 106 l-59 73 47 -3 48 -3 38 -99z m-2675
86 c11 -7 39 -81 32 -86 -1 -1 -16 -6 -33 -12 -45 -14 -78 -69 -72 -121 4 -38
2 -42 -22 -48 -14 -3 -34 -8 -43 -11 -26 -8 -58 51 -58 104 0 45 26 106 57
134 39 36 113 57 139 40z m2987 -6 c95 -34 141 -138 103 -230 -18 -44 -25 -47
-74 -34 l-41 10 5 42 c7 53 -26 106 -74 121 -35 10 -36 17 -12 80 11 29 34 31
93 11z m-2253 -31 c0 -8 -9 -15 -20 -15 -22 0 -27 15 -7 23 21 9 27 7 27 -8z
m1469 6 c22 -14 4 -33 -20 -21 -11 6 -17 15 -14 21 8 11 16 11 34 0z m-1459
-40 c0 -5 -7 -11 -15 -15 -15 -5 -20 5 -8 17 9 10 23 9 23 -2z m1448 -9 c2 -7
-2 -10 -12 -6 -9 3 -16 11 -16 16 0 13 23 5 28 -10z m-1580 -22 c59 -11 70
-16 60 -26 -10 -10 -24 -10 -61 -2 -27 5 -51 8 -54 5 -3 -3 0 -27 5 -54 8 -37
8 -51 -2 -61 -10 -10 -15 1 -26 60 -7 40 -15 79 -18 87 -4 10 -1 13 9 9 8 -3
47 -11 87 -18z m1763 -70 c-12 -64 -17 -78 -27 -68 -10 10 -10 25 -2 61 5 27
8 51 5 54 -3 3 -27 0 -53 -5 -46 -10 -74 -7 -74 7 0 8 150 40 161 35 3 -2 -1
-39 -10 -84z m-2061 -100 c0 -11 -4 -20 -10 -20 -5 0 -10 9 -10 20 0 11 5 20
10 20 6 0 10 -9 10 -20z m40 0 c0 -11 -4 -20 -10 -20 -5 0 -10 9 -10 20 0 11
5 20 10 20 6 0 10 -9 10 -20z m43 0 c-3 -11 -11 -20 -18 -20 -8 0 -11 8 -8 20
3 11 11 20 18 20 8 0 11 -8 8 -20z m45 -2 c-2 -13 -7 -23 -13 -23 -5 0 -11 10
-13 23 -2 15 2 22 13 22 11 0 15 -7 13 -22z m2049 6 c9 -25 -13 -40 -26 -16
-10 19 -6 32 11 32 5 0 11 -7 15 -16z m43 -4 c0 -11 -4 -20 -9 -20 -5 0 -11 9
-14 20 -3 13 0 20 9 20 8 0 14 -9 14 -20z m40 0 c0 -11 -4 -20 -10 -20 -5 0
-10 9 -10 20 0 11 5 20 10 20 6 0 10 -9 10 -20z m40 0 c0 -11 -4 -20 -10 -20
-5 0 -10 9 -10 20 0 11 5 20 10 20 6 0 10 -9 10 -20z m-2340 -12 c0 -16 -3
-19 -11 -11 -6 6 -8 16 -5 22 11 17 16 13 16 -11z m210 2 c0 -11 -7 -20 -15
-20 -17 0 -18 2 -9 24 9 23 24 20 24 -4z m1964 4 c8 -22 8 -24 -8 -24 -15 0
-28 24 -19 34 11 10 21 7 27 -10z m198 -16 c-9 -9 -12 -7 -12 12 0 19 3 21 12
12 9 -9 9 -15 0 -24z m-2535 16 c-3 -3 -63 -24 -134 -45 l-128 -39 -18 22
c-23 27 -15 34 58 52 59 14 234 22 222 10z m2903 -10 c39 -8 72 -19 75 -24 3
-4 -3 -17 -13 -29 l-17 -21 -128 39 c-71 21 -131 42 -134 45 -13 13 151 5 217
-10z m-2770 -14 c0 -5 -7 -7 -15 -4 -8 4 -12 10 -9 15 6 11 24 2 24 -11z m274
5 c-6 -16 -24 -21 -24 -7 0 11 11 22 21 22 5 0 6 -7 3 -15z m1894 -3 c6 -18
-15 -14 -22 4 -4 10 -1 14 6 12 6 -2 14 -10 16 -16z m271 -3 c-16 -10 -23 -4
-14 10 3 6 11 8 17 5 6 -4 5 -9 -3 -15z m-2594 -8 c-6 -5 -50 -37 -99 -70
l-90 -61 -20 32 c-12 18 -20 35 -19 37 3 5 203 68 223 70 9 1 10 -2 5 -8z
m123 -134 c12 -26 44 -72 72 -101 l52 -55 -36 -15 c-20 -8 -61 -23 -91 -32
-30 -10 -55 -22 -55 -27 0 -5 27 -40 60 -77 33 -37 60 -70 60 -74 0 -3 -7 -6
-15 -6 -27 0 -128 -39 -167 -65 -21 -14 -51 -43 -67 -65 -15 -22 -30 -37 -33
-35 -7 7 11 186 28 267 22 111 59 219 112 332 l47 99 6 -49 c4 -28 16 -71 27
-97z m2627 -102 c42 -126 65 -241 71 -360 5 -109 5 -110 -12 -77 -32 63 -138
131 -229 148 -19 3 -35 8 -35 11 0 3 27 36 60 73 33 37 60 72 60 77 0 5 -40
22 -90 38 -49 16 -90 31 -90 33 0 3 23 29 51 59 58 61 87 121 96 195 l6 51 43
-84 c23 -47 54 -121 69 -164z m101 209 l114 -35 -22 -32 c-12 -18 -22 -33 -24
-35 -2 -3 -171 113 -188 129 -16 14 0 11 120 -27z m-2706 10 c0 -2 -7 -4 -15
-4 -8 0 -15 4 -15 10 0 5 7 7 15 4 8 -4 15 -8 15 -10z m247 2 c4 -4 1 -17 -7
-29 -8 -12 -34 -57 -58 -100 -43 -74 -45 -77 -63 -61 -26 23 -76 104 -90 144
-19 52 4 63 119 57 51 -2 96 -7 99 -11z m2156 2 c25 -19 7 -72 -48 -147 -43
-59 -65 -75 -65 -48 0 6 -23 50 -50 96 -28 46 -50 88 -50 92 0 20 187 26 213
7z m67 2 c0 -5 -8 -10 -17 -10 -15 0 -16 2 -3 10 19 12 20 12 20 0z m-2806
-135 c104 -145 116 -165 95 -165 -44 1 -62 18 -145 146 -48 74 -89 132 -92
130 -2 -3 32 -60 76 -128 45 -67 80 -124 78 -125 -1 -1 -18 2 -37 8 -28 8 -47
28 -107 115 -41 58 -72 107 -70 109 10 9 85 44 95 45 6 0 54 -61 107 -135z
m194 117 c-35 -48 -133 -162 -140 -162 -4 0 -15 12 -25 27 -17 25 -17 27 3 39
11 7 51 36 89 63 76 53 93 61 73 33z m2812 -46 c41 -28 79 -54 84 -58 10 -7
-19 -58 -33 -58 -7 0 -102 111 -145 169 -14 19 -4 13 94 -53z m233 58 c12 -4
-4 -36 -70 -137 -47 -73 -88 -135 -92 -138 -12 -13 -71 -21 -71 -10 0 14 200
291 210 291 5 0 15 -3 23 -6z m-3052 -76 c-15 -35 -36 -88 -46 -118 -9 -30
-21 -59 -25 -63 -4 -5 -17 8 -29 27 -19 30 -20 38 -9 54 25 34 130 162 134
162 2 0 -9 -28 -25 -62z m2775 -10 c93 -114 88 -103 64 -143 -20 -33 -40 -39
-40 -12 0 7 -20 60 -44 120 -24 59 -43 107 -41 107 1 0 29 -32 61 -72z m352
42 c-2 -4 -34 -53 -73 -108 -57 -83 -76 -103 -104 -111 -19 -6 -36 -9 -37 -8
-3 3 110 178 147 229 17 24 22 26 44 16 14 -6 24 -15 23 -18z m-2968 15 c0 -2
-9 -9 -20 -15 -16 -9 -20 -8 -20 5 0 8 9 15 20 15 11 0 20 -2 20 -5z m2460 -5
c0 -5 -6 -10 -14 -10 -8 0 -18 5 -21 10 -3 6 3 10 14 10 12 0 21 -4 21 -10z
m-2951 -114 c34 -48 60 -90 58 -93 -3 -2 -22 0 -43 6 -32 9 -47 23 -88 82
l-49 72 24 18 c13 10 27 15 30 11 3 -4 34 -47 68 -96z m501 85 c0 -11 -31 -24
-39 -16 -3 3 1 10 9 15 19 12 30 12 30 1z m2430 -1 c8 -5 11 -12 8 -16 -10 -9
-38 3 -38 16 0 12 10 13 30 0z m575 -4 c17 -12 16 -17 -31 -84 -40 -59 -56
-74 -88 -83 -21 -5 -40 -8 -43 -5 -7 7 120 185 133 186 5 0 19 -6 29 -14z
m-582 -51 c-4 -12 -9 -13 -19 -4 -8 6 -14 18 -14 26 0 11 4 11 20 3 11 -6 17
-16 13 -25z m-3013 -32 c33 -46 38 -59 25 -61 -20 -5 -36 8 -70 58 -25 36 -27
60 -5 60 5 0 27 -26 50 -57z m600 48 c0 -14 -18 -23 -30 -16 -6 4 -8 11 -5 16
8 12 35 12 35 0z m3045 -1 c9 -14 -51 -97 -76 -105 -35 -11 -33 1 10 59 42 56
54 65 66 46z m-3706 -49 c12 -16 21 -32 21 -36 0 -13 -55 6 -67 22 -8 10 -13
12 -13 5 0 -7 -5 -12 -12 -12 -6 0 -1 11 12 25 30 32 34 31 59 -4z m685 20 c8
-12 -21 -34 -34 -26 -8 5 -8 11 1 21 13 16 25 18 33 5z m2365 -5 c9 -10 9 -16
1 -21 -13 -8 -42 14 -34 26 8 13 20 11 33 -5z m711 -11 c13 -14 18 -25 12 -25
-7 0 -12 5 -12 12 0 7 -6 4 -12 -5 -7 -9 -28 -20 -47 -23 l-34 -7 27 36 c16
21 32 37 35 37 4 0 18 -11 31 -25z m-3060 -40 c-9 -11 -16 -13 -23 -6 -7 7 -6
15 3 26 9 11 16 13 23 6 7 -7 6 -15 -3 -26z m2324 -5 c-14 -14 -39 14 -29 31
5 8 12 6 23 -5 11 -11 13 -19 6 -26z m752 -15 c-3 -13 -7 -29 -10 -34 -7 -10
-86 17 -86 29 0 10 57 21 75 14 8 -4 15 -1 15 5 0 6 2 11 5 11 3 0 3 -11 1
-25z m-3768 5 c24 0 11 -16 -25 -30 -21 -8 -41 -16 -44 -18 -4 -1 -9 6 -12 18
-6 24 19 42 48 35 11 -3 26 -5 33 -5z m732 1 c0 -13 -26 -32 -33 -24 -8 7 11
33 24 33 5 0 9 -4 9 -9z m2249 -4 c6 -8 8 -17 4 -20 -7 -8 -33 11 -33 24 0 13
16 11 29 -4z m-2913 -17 c27 -11 27 -11 -35 -40 -69 -33 -87 -36 -94 -17 -3 9
73 60 100 67 1 0 14 -5 29 -10z m2889 -28 c-8 -8 -25 10 -25 26 0 13 2 13 14
-4 8 -10 13 -21 11 -22z m735 13 c28 -14 50 -32 50 -40 0 -22 -21 -19 -91 15
-59 28 -61 30 -38 39 13 5 25 10 27 10 1 1 25 -10 52 -24z m-2942 3 c-2 -6
-10 -14 -16 -16 -7 -2 -10 2 -6 12 7 18 28 22 22 4z m2972 -83 c0 -6 -6 -19
-13 -29 -12 -16 -20 -14 -120 31 -58 26 -107 51 -107 54 0 3 19 10 43 15 37 9
50 6 120 -25 42 -20 77 -40 77 -46z m-3528 59 c5 -3 -39 -29 -98 -56 -101 -46
-109 -48 -121 -32 -22 30 -15 39 55 72 52 24 76 30 110 27 24 -3 48 -8 54 -11z
m96 -28 c2 -3 -57 -35 -132 -73 -132 -66 -136 -67 -150 -48 -9 11 -16 23 -16
26 0 3 53 31 118 61 97 45 122 54 146 47 16 -5 31 -11 34 -13z m3402 -95 c0
-3 -7 -15 -15 -26 -15 -19 -19 -17 -146 45 -72 36 -133 68 -135 72 -3 4 10 11
28 16 29 7 49 1 151 -47 64 -30 117 -57 117 -60z m-3306 69 c6 -6 -9 -17 -35
-29 -24 -10 -100 -44 -168 -75 -111 -51 -126 -55 -140 -42 -8 9 -13 17 -10 20
2 2 65 36 139 75 116 61 140 71 170 65 19 -3 39 -10 44 -14z m333 -3 c-3 -8
-17 -17 -31 -21 -14 -3 -37 -11 -51 -16 l-26 -10 35 -44 c34 -41 47 -72 27
-64 -5 2 -33 30 -62 63 l-52 59 79 27 c44 14 81 25 83 23 2 -2 1 -10 -2 -17z
m2392 -28 c9 -3 -3 -23 -38 -64 -29 -33 -57 -61 -62 -63 -21 -8 -7 27 27 66
25 30 32 43 22 47 -7 3 -31 11 -53 18 -22 8 -41 21 -43 30 -3 14 6 13 65 -7
37 -13 74 -25 82 -27z m396 -20 c77 -40 142 -74 144 -76 3 -2 -2 -10 -10 -19
-14 -13 -33 -7 -177 58 -90 40 -163 78 -163 83 0 9 29 21 56 24 5 1 73 -31
150 -70z m-3129 4 c-8 -31 -25 -126 -32 -188 l-8 -60 -12 60 c-7 33 -15 85
-19 115 -6 55 -6 56 27 72 43 22 50 22 44 1z m2969 0 c19 -9 35 -21 35 -27 0
-24 -34 -230 -36 -221 -2 6 -10 61 -19 123 -9 62 -18 119 -21 127 -8 19 -3 19
41 -2z m-3041 -146 c10 -60 16 -111 13 -113 -3 -3 -74 143 -95 197 -4 10 51
39 59 31 3 -4 14 -56 23 -115z m3126 108 c17 -9 30 -17 30 -19 0 -2 -21 -47
-46 -100 -25 -54 -44 -99 -42 -102 3 -2 26 41 53 96 26 55 49 100 52 100 2 0
20 -7 39 -15 l36 -15 -88 -95 c-108 -115 -114 -112 -88 51 10 63 19 114 21
114 2 0 17 -7 33 -15z m-3186 -102 c77 -155 76 -157 -23 -53 -50 52 -90 91
-91 86 0 -5 39 -49 86 -98 47 -49 84 -92 81 -95 -10 -9 -110 54 -169 107 -55
49 -72 80 -45 80 6 0 35 12 62 25 28 14 52 25 55 25 3 0 23 -35 44 -77z m3351
25 l26 -12 -59 -55 c-61 -58 -168 -128 -178 -118 -6 6 165 195 178 196 4 1 19
-4 33 -11z m-2934 -71 c-8 -8 -11 -7 -11 4 0 20 13 34 18 19 3 -7 -1 -17 -7
-23z m2369 7 c0 -8 -4 -14 -10 -14 -5 0 -10 9 -10 21 0 11 5 17 10 14 6 -3 10
-13 10 -21z m-2397 -4 c3 -13 0 -20 -9 -20 -8 0 -14 9 -14 20 0 11 4 20 9 20
5 0 11 -9 14 -20z m2437 0 c0 -11 -4 -20 -10 -20 -5 0 -10 9 -10 20 0 11 5 20
10 20 6 0 10 -9 10 -20z m-2955 -20 l29 -30 -25 -26 c-34 -36 -34 -112 1 -148
l24 -27 -32 -32 -32 -32 -38 20 c-52 28 -85 94 -78 157 7 62 30 104 69 128 42
26 48 25 82 -10z m478 -12 c-7 -13 -21 -9 -27 9 -4 9 -1 20 6 24 13 8 30 -18
21 -33z m2527 23 c-1 -15 -19 -33 -28 -27 -15 9 -3 46 14 39 8 -3 14 -8 14
-12z m527 -2 c46 -28 67 -72 67 -140 1 -67 -34 -128 -84 -149 -29 -12 -33 -11
-65 20 l-33 32 26 23 c38 32 39 111 3 149 l-25 26 29 30 c34 36 38 36 82 9z
m-3097 -24 c0 -14 -4 -25 -9 -25 -10 0 -21 36 -13 44 12 13 22 5 22 -19z
m2601 12 c-1 -4 -1 -14 -1 -22 0 -8 -4 -15 -10 -15 -5 0 -10 12 -10 26 0 14 5
24 11 22 6 -2 10 -7 10 -11z m-2638 -27 c3 -11 1 -22 -3 -25 -11 -7 -32 30
-23 39 11 11 21 6 26 -14z m147 -101 c0 -120 0 -120 -22 -113 -77 23 -178 88
-178 115 0 20 65 69 124 93 34 14 64 25 69 26 4 0 7 -54 7 -121z m2455 86 c48
-22 105 -67 105 -84 0 -24 -83 -79 -161 -106 l-39 -14 0 120 c0 137 -8 130 95
84z m78 29 c9 -9 -12 -46 -23 -39 -4 3 -6 14 -3 25 5 20 15 25 26 14z m-2709
-56 c-3 -5 -12 -4 -20 3 -7 6 -11 15 -8 21 3 5 12 4 20 -3 7 -6 11 -15 8 -21z
m2740 23 c7 -10 -18 -34 -27 -25 -7 8 3 34 13 34 5 0 11 -4 14 -9z m-2770 -37
c5 -12 2 -15 -10 -10 -8 3 -18 6 -20 6 -3 0 -2 5 1 10 9 15 22 12 29 -6z
m2800 7 c3 -5 -1 -12 -10 -15 -20 -8 -29 -1 -19 13 8 13 22 14 29 2z m-2814
-37 c0 -2 -9 -4 -21 -4 -11 0 -18 4 -14 10 5 8 35 3 35 -6z m2835 6 c3 -6 -4
-10 -17 -10 -18 0 -20 2 -8 10 19 12 18 12 25 0z m-2835 -34 c0 -9 -30 -14
-35 -6 -4 6 3 10 14 10 12 0 21 -2 21 -4z m2835 -6 c-3 -5 -12 -7 -20 -3 -21
7 -19 13 6 13 11 0 18 -4 14 -10z m22 -92 c-9 -176 -59 -359 -144 -534 l-38
-78 -8 54 c-11 76 -39 133 -96 193 -28 30 -51 56 -51 59 0 2 41 17 90 33 50
16 90 33 90 38 0 5 -27 40 -60 77 -33 37 -60 70 -60 73 0 3 17 8 38 12 62 11
143 56 189 103 24 24 43 50 43 58 0 8 3 14 6 14 4 0 4 -46 1 -102z m-3025 45
c-22 -27 -67 -74 -100 -106 -58 -57 -60 -59 -87 -45 l-27 15 66 60 c51 47 163
121 184 123 2 0 -14 -21 -36 -47z m205 -56 c39 -27 139 -67 168 -67 8 0 15 -3
15 -6 0 -3 -27 -36 -60 -73 -33 -37 -60 -72 -60 -77 0 -6 41 -23 90 -39 50
-16 90 -31 90 -33 0 -3 -23 -29 -51 -59 -57 -60 -89 -124 -98 -196 l-6 -50
-43 88 c-81 163 -130 346 -139 520 l-5 100 29 -40 c16 -22 48 -52 70 -68z
m-23 78 c-7 -17 -20 -20 -28 -6 -7 10 3 21 20 21 8 0 11 -6 8 -15z m2794 -4
c3 -8 -1 -12 -9 -9 -7 2 -15 10 -17 17 -3 8 1 12 9 9 7 -2 15 -10 17 -17z
m198 -12 c56 -32 164 -124 164 -140 0 -5 -10 -14 -23 -20 -21 -10 -30 -3 -101
70 -80 81 -112 121 -100 121 3 0 31 -14 60 -31z m-3146 -13 c-9 -26 -90 -188
-96 -195 -2 -3 -20 3 -40 12 l-36 17 87 95 c48 52 89 95 91 95 2 0 -1 -11 -6
-24z m179 -2 c-6 -7 -15 -11 -21 -8 -5 3 -4 12 3 20 6 7 15 11 21 8 5 -3 4
-12 -3 -20z m2741 -8 c-8 -8 -13 -7 -20 4 -12 20 -1 33 16 19 11 -9 12 -15 4
-23z m244 -61 l88 -95 -36 -15 c-19 -8 -37 -15 -39 -15 -3 0 -26 45 -52 100
-27 55 -50 98 -52 96 -2 -2 17 -47 42 -101 24 -53 43 -101 40 -105 -3 -4 -18
-12 -33 -18 l-28 -10 -18 109 c-14 90 -15 149 -2 149 1 0 42 -43 90 -95z
m-3159 -44 c-18 -117 -27 -129 -69 -98 -16 12 -14 20 30 115 26 56 49 100 51
98 3 -2 -3 -54 -12 -115z m208 90 c-3 -12 -11 -17 -19 -14 -10 4 -11 10 -3 24
12 24 29 16 22 -10z m2672 -8 c-7 -17 -8 -17 -15 2 -9 24 -2 41 12 27 6 -6 7
-19 3 -29z m-2816 -193 c5 -24 8 -46 7 -48 -7 -6 -76 32 -76 42 0 6 8 61 17
121 l17 110 13 -90 c6 -50 16 -110 22 -135z m3010 4 c1 -14 -10 -26 -35 -38
-20 -9 -38 -15 -40 -14 -1 2 1 21 6 43 5 22 15 83 21 135 l13 95 17 -100 c10
-55 18 -109 18 -121z m-2827 180 c-5 -24 -8 -27 -20 -20 -14 8 -2 48 12 43 6
-2 9 -13 8 -23z m2602 10 c7 -17 0 -34 -13 -34 -10 0 -21 37 -13 44 10 10 20
6 26 -10z m-2561 -11 c9 -16 -8 -42 -21 -34 -7 4 -10 15 -6 24 6 18 20 22 27
10z m2521 -10 c4 -9 1 -20 -6 -24 -13 -8 -30 18 -21 34 7 12 21 8 27 -10z
m-2484 -24 c0 -10 -4 -19 -10 -19 -5 0 -10 12 -10 26 0 14 4 23 10 19 6 -3 10
-15 10 -26z m2440 1 c0 -11 -4 -20 -10 -20 -5 0 -10 9 -10 20 0 11 5 20 10 20
6 0 10 -9 10 -20z m-2400 -16 c0 -8 -4 -14 -10 -14 -5 0 -10 9 -10 21 0 11 5
17 10 14 6 -3 10 -13 10 -21z m2360 6 c0 -11 -4 -20 -10 -20 -5 0 -10 9 -10
20 0 11 5 20 10 20 6 0 10 -9 10 -20z m-2810 -133 c89 -40 162 -77 162 -82 -1
-5 -15 -13 -32 -18 -28 -7 -50 1 -173 64 -78 39 -144 73 -146 75 -4 3 18 34
24 34 2 0 76 -33 165 -73z m460 62 c0 -6 -16 -30 -36 -55 -26 -32 -32 -45 -23
-49 8 -3 32 -11 54 -18 22 -8 41 -21 43 -30 3 -14 -6 -13 -65 7 -37 13 -74 25
-81 27 -10 3 3 25 39 67 50 60 69 74 69 51z m2383 -43 c26 -30 47 -59 47 -64
0 -6 -34 -22 -76 -36 -64 -21 -75 -23 -72 -9 2 9 21 22 43 30 22 7 46 15 53
18 9 3 3 18 -22 48 -34 42 -45 67 -28 67 4 0 28 -25 55 -54z m577 39 c7 -9 11
-17 9 -19 -2 -2 -69 -36 -147 -75 -137 -69 -145 -71 -179 -60 -19 6 -31 15
-26 19 8 8 313 149 324 150 4 0 12 -7 19 -15z m-3478 -101 c95 -48 127 -68
117 -75 -28 -18 -69 -8 -175 42 -60 27 -110 52 -112 54 -5 5 22 45 31 45 4 0
66 -30 139 -66z m3516 45 c7 -12 12 -23 10 -24 -2 -2 -52 -27 -112 -54 -107
-51 -133 -57 -171 -42 -16 7 5 21 110 74 72 36 135 66 140 66 6 1 16 -8 23
-20z m-3616 -72 c40 -18 87 -40 105 -47 39 -18 35 -26 -18 -35 -33 -6 -53 -1
-114 26 -75 33 -90 50 -63 77 15 15 5 17 90 -21z m3648 14 c5 -11 10 -24 10
-29 0 -4 -34 -23 -75 -41 -58 -26 -84 -32 -112 -28 -20 4 -40 10 -44 14 -7 7
180 101 203 102 4 1 12 -8 18 -18z m-3679 -81 c35 -16 56 -31 48 -34 -8 -2
-21 -6 -29 -9 -22 -6 -110 41 -110 58 0 22 21 19 91 -15z m356 16 c-3 -8 -50
-76 -103 -151 -65 -91 -103 -135 -113 -133 -9 2 -16 11 -15 19 2 25 164 267
182 272 37 10 54 7 49 -7z m2956 5 c10 -4 58 -67 106 -141 84 -128 91 -149 55
-150 -12 0 -197 251 -210 283 -7 18 15 22 49 8z m400 -5 c6 -15 -86 -63 -112
-58 -45 9 -43 15 14 42 68 32 91 36 98 16z m-3449 -18 c-4 -7 -43 -66 -86
-130 -76 -114 -79 -117 -103 -106 -14 6 -24 15 -23 18 2 4 35 53 73 109 52 75
78 103 100 110 42 13 47 13 39 -1z m3141 -2 c15 -5 145 -178 163 -216 1 -4 -9
-12 -23 -18 -24 -11 -27 -8 -103 106 -43 64 -82 123 -86 131 -9 13 -7 13 49
-3z m-3010 -66 c10 -30 31 -83 46 -117 16 -35 27 -63 25 -63 -4 0 -109 128
-134 162 -11 16 -10 24 9 54 12 19 25 32 29 27 4 -4 16 -33 25 -63z m320 32
c-8 -9 -25 20 -18 31 3 5 10 2 15 -7 6 -10 7 -20 3 -24z m2565 3 c18 -30 19
-37 8 -53 -23 -31 -130 -162 -133 -162 -2 0 16 47 40 105 24 58 45 115 48 125
7 27 12 25 37 -15z m-3347 10 c48 -20 53 -31 16 -39 -40 -8 -69 8 -62 34 6 24
2 23 46 5z m2987 -6 c-7 -11 -14 -18 -17 -15 -8 8 5 36 17 36 7 0 7 -6 0 -21z
m811 6 c2 -24 4 -29 12 -42 5 -8 4 -13 -2 -13 -6 0 -11 5 -11 11 0 6 -7 9 -15
5 -19 -7 -75 4 -75 14 0 7 65 38 83 39 4 1 8 -6 8 -14z m-3563 -3 c-1 -4 -32
-49 -67 -99 -64 -91 -64 -91 -88 -76 -28 19 -27 23 29 102 29 41 53 64 73 70
39 12 58 13 53 3z m3338 -3 c26 -9 105 -105 121 -145 4 -12 -42 -43 -50 -33
-29 37 -127 179 -127 183 0 9 24 7 56 -5z m-2809 -35 c-9 -10 -38 16 -31 28 4
6 13 4 22 -6 9 -8 13 -19 9 -22z m2249 8 c-8 -9 -19 -13 -22 -9 -10 9 16 38
28 31 6 -4 4 -13 -6 -22z m-2901 -19 c-31 -53 -72 -96 -83 -89 -18 11 -15 19
23 70 22 28 44 46 56 46 19 0 19 -1 4 -27z m3590 -20 c35 -46 39 -63 18 -70
-10 -4 -93 97 -93 112 0 3 9 5 20 5 11 0 34 -19 55 -47z m-2971 -3 c-14 -14
-39 14 -29 31 5 8 12 6 23 -5 11 -11 13 -19 6 -26z m126 -69 c28 -46 50 -87
50 -91 0 -20 -178 -27 -212 -9 -24 13 -19 43 18 106 40 69 77 108 87 92 4 -8
30 -52 57 -98z m2154 49 c25 -33 50 -77 57 -97 18 -55 -2 -66 -117 -60 -50 2
-96 7 -102 11 -7 4 3 28 28 68 22 33 47 78 57 99 9 22 20 39 25 39 4 0 28 -27
52 -60z m41 50 c9 -15 -16 -43 -27 -32 -10 10 0 42 12 42 5 0 12 -5 15 -10z
m-3005 -7 c0 -5 -11 -21 -24 -38 -20 -25 -26 -27 -39 -16 -9 7 -13 19 -10 28
9 22 73 45 73 26z m3727 -20 c9 -12 10 -20 2 -30 -17 -20 -24 -17 -55 24 l-27
36 34 -7 c19 -3 40 -14 46 -23z m-3331 -65 c37 -46 74 -92 83 -102 12 -15 -86
47 -182 115 -7 5 20 69 29 69 1 0 33 -37 70 -82z m2973 18 c-10 -8 -166 -114
-179 -121 -18 -11 -14 -5 79 108 l64 79 20 -32 c11 -17 18 -32 16 -34z m-2712
29 c3 -9 3 -19 -1 -22 -8 -9 -37 18 -30 28 8 14 24 11 31 -6z m2377 6 c8 -12
-21 -34 -34 -26 -8 5 -8 11 1 21 13 16 25 18 33 5z m-2397 -57 c-12 -12 -37 5
-30 21 5 15 7 15 21 1 9 -9 13 -18 9 -22z m2405 0 c-21 -15 -29 1 -11 22 9 11
14 12 20 3 4 -8 1 -18 -9 -25z m-2675 -45 c48 -34 93 -66 98 -71 12 -12 10
-12 -132 32 l-102 31 22 35 c12 18 23 34 24 34 1 0 42 -27 90 -61z m3040 26
l23 -34 -98 -30 c-165 -51 -166 -50 -57 27 55 38 102 70 105 71 3 0 15 -15 27
-34z m-2782 -6 c4 -6 5 -12 2 -15 -7 -7 -37 7 -37 17 0 13 27 11 35 -2z m2445
2 c0 -10 -30 -24 -37 -17 -3 3 -2 9 2 15 8 13 35 15 35 2z m-2450 -46 c0 -3
-9 -5 -20 -5 -11 0 -20 7 -20 15 0 13 4 14 20 5 11 -6 20 -13 20 -15z m2460 5
c0 -5 -9 -10 -21 -10 -11 0 -17 5 -14 10 3 6 13 10 21 10 8 0 14 -4 14 -10z
m-2705 -47 l120 -38 -71 -3 c-73 -3 -210 20 -228 38 -13 13 22 52 43 46 9 -3
70 -22 136 -43z m3079 25 c9 -12 12 -26 8 -30 -15 -15 -147 -38 -221 -38 -41
0 -72 3 -68 6 5 5 244 82 259 83 4 1 14 -9 22 -21z m-2844 -12 c0 -2 -7 -6
-15 -10 -8 -3 -15 -1 -15 4 0 6 7 10 15 10 8 0 15 -2 15 -4z m2470 -6 c0 -5
-7 -7 -15 -4 -8 4 -15 8 -15 10 0 2 7 4 15 4 8 0 15 -4 15 -10z m-2465 -29
c-3 -6 -11 -8 -17 -5 -6 4 -5 9 3 15 16 10 23 4 14 -10z m279 3 c4 -10 1 -14
-6 -12 -15 5 -23 28 -10 28 5 0 13 -7 16 -16z m1894 4 c-2 -6 -10 -14 -16 -16
-7 -2 -10 2 -6 12 7 18 28 22 22 4z m276 -9 c-6 -11 -24 -2 -24 11 0 5 7 7 15
4 8 -4 12 -10 9 -15z m-2414 -11 c0 -16 -3 -19 -11 -11 -6 6 -8 16 -5 22 11
17 16 13 16 -11z m168 -6 c2 -15 -2 -22 -12 -22 -11 0 -16 9 -16 26 0 31 23
28 28 -4z m45 13 c8 -19 -13 -31 -24 -14 -13 20 -11 29 5 29 8 0 16 -7 19 -15z
m1960 -5 c-5 -20 -15 -25 -26 -14 -9 9 4 34 18 34 8 0 11 -8 8 -20z m47 -5 c0
-16 -6 -25 -15 -25 -15 0 -21 31 -8 43 13 14 23 6 23 -18z m111 -18 c-8 -8
-11 -5 -11 9 0 27 14 41 18 19 2 -9 -1 -22 -7 -28z m41 11 c-9 -9 -12 -7 -12
12 0 19 3 21 12 12 9 -9 9 -15 0 -24z m-2332 2 c0 -11 -4 -20 -10 -20 -5 0
-10 9 -10 20 0 11 5 20 10 20 6 0 10 -9 10 -20z m40 0 c0 -19 -11 -26 -23 -14
-8 8 3 34 14 34 5 0 9 -9 9 -20z m43 0 c3 -12 0 -20 -8 -20 -7 0 -15 9 -18 20
-3 12 0 20 8 20 7 0 15 -9 18 -20z m2140 0 c-3 -11 -12 -20 -19 -20 -16 0 -16
2 -8 24 9 24 33 20 27 -4z m37 0 c0 -11 -4 -20 -10 -20 -5 0 -10 9 -10 20 0
11 5 20 10 20 6 0 10 -9 10 -20z m-2669 -4 c25 -5 26 -9 22 -48 -6 -53 27
-108 72 -122 17 -6 31 -11 33 -12 2 -1 -2 -20 -9 -42 -14 -47 -36 -57 -91 -42
-75 21 -128 93 -128 172 0 53 32 111 58 105 9 -3 29 -8 43 -11z m438 -33 c35
-3 79 1 120 12 35 9 65 15 66 13 2 -2 -5 -43 -15 -93 -10 -49 -17 -93 -14 -96
2 -4 45 2 95 12 51 11 94 17 96 15 2 -2 -3 -30 -13 -62 -22 -75 -15 -173 15
-233 l23 -44 -39 23 c-161 96 -397 333 -468 470 l-15 29 46 -21 c26 -11 72
-22 103 -25z m2357 20 c-69 -135 -310 -377 -468 -472 l-37 -22 20 47 c30 66
35 146 14 223 -9 35 -15 65 -13 67 2 2 44 -5 93 -15 50 -10 93 -16 96 -15 4 2
-2 45 -12 95 -11 51 -18 94 -16 96 2 2 33 -4 68 -13 77 -20 157 -15 220 14 24
11 45 21 47 21 1 1 -4 -11 -12 -26z m380 2 c57 -87 0 -226 -104 -255 -58 -15
-77 -7 -91 41 -7 23 -11 42 -9 43 2 1 16 6 33 12 45 14 78 69 72 122 -4 40 -3
42 27 51 48 14 54 13 72 -14z m-2518 -78 c-5 -27 -8 -51 -5 -54 3 -3 27 0 53
5 46 10 74 7 74 -7 0 -9 -160 -40 -164 -32 -1 3 4 41 12 84 12 66 17 77 28 65
10 -10 11 -24 2 -61z m1813 -7 c9 -44 14 -81 12 -83 -6 -6 -163 27 -163 34 0
14 28 17 74 7 26 -5 50 -8 53 -5 3 3 0 27 -5 53 -10 46 -7 74 7 74 4 0 14 -36
22 -80z m-2236 48 c-2 -7 -16 -67 -31 -133 -15 -66 -32 -123 -38 -127 -6 -4
-21 -8 -32 -8 -20 0 -21 3 -13 39 14 64 47 143 79 194 29 46 44 60 35 35z
m2689 -79 c34 -66 65 -173 53 -185 -3 -4 -17 -4 -30 0 -21 5 -27 19 -52 128
-15 68 -30 130 -33 138 -11 35 28 -17 62 -81z m-2663 -75 l4 -99 -39 -3 c-36
-3 -38 -2 -33 20 3 13 16 70 28 126 27 120 35 112 40 -44z m49 35 c22 -57 40
-110 40 -116 0 -8 -13 -13 -34 -13 l-34 0 -7 103 c-3 56 -9 111 -12 122 -13
49 11 -1 47 -96z m86 -40 c30 -36 54 -69 54 -73 0 -4 -19 -6 -42 -4 l-42 3
-38 100 c-45 118 -47 131 -12 79 15 -21 51 -69 80 -105z m2429 22 l-7 -111
-34 0 c-21 0 -34 5 -34 13 0 17 74 216 79 212 2 -2 0 -54 -4 -114z m85 -114
c0 -5 -17 -7 -37 -5 l-38 3 3 95 c4 156 11 160 43 30 16 -63 29 -119 29 -123z
m-139 117 l-39 -99 -41 -3 c-22 -2 -41 1 -41 5 0 5 19 31 42 58 22 28 57 72
76 98 19 26 36 46 38 44 2 -1 -14 -48 -35 -103z m-1931 -16 c0 -13 -23 -5 -28
10 -2 7 2 10 12 6 9 -3 16 -11 16 -16z m1442 0 c-6 -6 -15 -8 -19 -4 -4 4 -1
11 7 16 19 12 27 3 12 -12z m-1452 -34 c0 -16 -9 -18 -29 -5 -7 5 -11 14 -7
19 9 15 36 4 36 -14z m1427 -86 c4 -72 1 -97 -10 -112 -14 -19 -16 -19 -58 -3
-45 17 -140 84 -145 102 -2 6 23 23 54 38 31 16 75 41 97 56 22 16 44 25 49
20 5 -4 11 -50 13 -101z m53 93 c0 -12 -39 -21 -45 -11 -3 5 2 13 12 19 18 10
33 6 33 -8z m-1384 -26 c33 -20 76 -43 96 -53 21 -9 38 -20 38 -25 0 -13 -119
-95 -157 -108 -32 -10 -38 -9 -50 7 -21 29 -15 214 7 214 4 0 34 -16 66 -35z
m-96 -25 c0 -13 -37 -13 -45 0 -3 6 -3 15 0 20 7 12 45 -5 45 -20z m1490 4 c0
-8 -10 -14 -25 -14 -29 0 -33 15 -8 29 21 11 33 6 33 -15z m-1864 -53 c-27
-28 -33 -29 -144 -35 -65 -4 -136 -9 -159 -12 -41 -5 -43 -4 -43 20 0 20 5 26
23 27 12 0 74 6 137 13 63 8 137 14 164 15 l50 1 -28 -29z m364 8 c0 -5 -9 -9
-20 -9 -11 0 -20 6 -20 14 0 9 7 12 20 9 11 -3 20 -9 20 -14z m1500 7 c0 -7
-9 -16 -20 -19 -22 -6 -29 18 -7 26 21 9 27 7 27 -7z m500 -1 c74 -8 143 -15
153 -15 12 0 17 -8 17 -25 0 -24 -3 -25 -32 -21 -18 3 -91 8 -163 11 -113 6
-133 9 -152 28 -47 43 -31 45 177 22z m-2320 -32 c0 -16 -7 -91 -15 -168 -8
-77 -15 -148 -15 -157 0 -12 -8 -18 -25 -18 -25 0 -25 2 -21 48 3 26 8 99 11
162 5 98 9 118 27 138 28 29 38 28 38 -5z m2164 -140 c4 -71 9 -145 11 -165 5
-35 3 -38 -20 -38 -17 0 -25 6 -25 18 0 9 -7 78 -15 152 -8 74 -15 150 -15
168 l0 33 29 -20 c29 -21 29 -22 35 -148z m-1559 136 c11 -17 0 -20 -21 -4
-17 13 -17 14 -2 15 9 0 20 -5 23 -11z m909 -3 c-21 -15 -30 -14 -19 3 3 6 14
11 23 11 13 0 13 -2 -4 -14z m574 -52 c-3 -23 -14 -31 -102 -65 -55 -21 -102
-37 -104 -35 -2 2 16 18 40 34 24 17 70 53 103 81 64 53 71 51 63 -15z m-2018
17 c25 -21 72 -57 105 -80 32 -23 54 -41 49 -41 -6 0 -55 17 -110 39 l-99 38
-3 42 c-2 22 0 41 4 41 4 0 28 -18 54 -39z m250 29 c0 -5 -9 -10 -20 -10 -11
0 -20 5 -20 10 0 6 9 10 20 10 11 0 20 -4 20 -10z m1500 0 c0 -5 -9 -10 -20
-10 -11 0 -20 5 -20 10 0 6 9 10 20 10 11 0 20 -4 20 -10z m-1241 -13 c6 -8 8
-17 4 -20 -7 -8 -33 11 -33 24 0 13 16 11 29 -4z m971 4 c0 -13 -26 -32 -33
-24 -8 7 11 33 24 33 5 0 9 -4 9 -9z m-1664 -30 c-24 -25 -36 -29 -109 -35
-45 -3 -103 -9 -129 -13 l-48 -6 0 31 0 30 83 6 c101 8 163 12 201 14 l30 2
-28 -29z m779 -61 c16 -49 33 -90 38 -90 5 0 39 27 76 60 71 63 81 69 81 47 0
-68 70 -192 134 -239 l41 -31 -105 7 c-173 10 -351 58 -519 140 l-84 41 54 8
c73 10 145 47 199 102 24 25 47 45 50 45 4 0 19 -40 35 -90z m32 45 c7 -22 15
-46 18 -53 4 -10 17 -3 47 22 39 34 74 48 66 27 -1 -5 -30 -33 -63 -62 -41
-35 -61 -47 -64 -38 -2 8 -14 45 -27 82 -20 59 -21 68 -7 65 9 -2 22 -21 30
-43z m726 -30 c-13 -41 -30 -75 -36 -75 -7 1 -39 25 -72 55 -43 40 -55 55 -41
55 10 0 39 -16 62 -36 l44 -35 10 26 c5 14 10 28 10 30 0 19 23 55 34 55 12 0
10 -14 -11 -75z m104 24 c61 -58 115 -85 192 -95 l54 -7 -79 -40 c-167 -84
-355 -135 -529 -142 -60 -3 -103 -2 -95 1 65 29 127 112 156 209 10 33 19 62
21 64 1 2 33 -24 72 -58 38 -33 73 -61 78 -61 5 0 22 41 38 90 16 50 31 90 33
90 3 0 29 -23 59 -51z m918 32 c46 -6 50 -9 53 -35 4 -28 3 -28 -40 -23 -24 4
-83 9 -133 13 -71 5 -95 11 -112 27 -13 11 -23 24 -23 28 0 8 167 2 255 -10z
m-2519 -58 c-3 -32 -8 -102 -12 -155 l-6 -98 -29 0 c-16 0 -29 5 -29 11 0 6 5
66 11 132 9 99 15 126 32 145 32 34 38 27 33 -35z m394 47 c0 -5 -9 -10 -20
-10 -11 0 -20 5 -20 10 0 6 9 10 20 10 11 0 20 -4 20 -10z m229 -4 c9 -10 9
-16 1 -21 -13 -8 -42 14 -34 26 8 13 20 11 33 -5z m1035 5 c8 -12 -21 -34 -34
-26 -8 5 -8 11 1 21 13 16 25 18 33 5z m236 -1 c0 -5 -9 -10 -20 -10 -11 0
-20 5 -20 10 0 6 9 10 20 10 11 0 20 -4 20 -10z m387 -12 c16 -18 22 -43 27
-108 4 -47 9 -107 13 -133 l6 -49 -29 4 c-26 3 -29 7 -35 53 -12 88 -18 255
-10 255 4 0 17 -10 28 -22z m-1693 -38 c-14 -14 -39 14 -29 31 5 8 12 6 23 -5
11 -11 13 -19 6 -26z m1096 5 c-9 -11 -16 -13 -23 -6 -7 7 -6 15 3 26 9 11 16
13 23 6 7 -7 6 -15 -3 -26z m-700 15 c0 -5 -9 -10 -20 -10 -11 0 -20 5 -20 10
0 6 9 10 20 10 11 0 20 -4 20 -10z m315 0 c-3 -5 -13 -10 -21 -10 -8 0 -14 5
-14 10 0 6 9 10 21 10 11 0 17 -4 14 -10z m-895 -10 c0 -5 -6 -10 -14 -10 -8
0 -18 5 -21 10 -3 6 3 10 14 10 12 0 21 -4 21 -10z m819 -49 c-19 -55 -79
-141 -99 -141 -26 0 -92 103 -114 178 -7 22 -7 22 113 22 l120 0 -20 -59z
m653 47 c-9 -9 -15 -9 -24 0 -9 9 -7 12 12 12 19 0 21 -3 12 -12z m-1982 -32
c-34 -34 -38 -35 -125 -38 l-90 -3 -3 27 c-3 26 -2 26 75 33 43 3 87 7 98 9
11 2 33 4 50 5 l30 1 -35 -34z m659 20 c9 -10 8 -15 -2 -19 -7 -3 -19 4 -25
14 -10 15 -9 19 2 19 7 0 19 -6 25 -14z m1171 -1 c-7 -8 -19 -15 -27 -15 -13
0 -13 3 -3 15 7 8 19 15 27 15 13 0 13 -3 3 -15z m450 -29 l0 -34 -106 -7
c-58 -4 -107 -5 -110 -3 -6 7 199 86 209 81 4 -2 7 -19 7 -37z m328 28 c58 -5
72 -9 72 -23 -1 -39 -14 -44 -101 -36 -71 6 -88 11 -111 33 -39 36 -35 45 20
38 26 -3 80 -8 120 -12z m-2297 -34 c114 -43 111 -46 -48 -33 l-83 6 0 33 c0
22 5 34 13 34 8 0 60 -18 118 -40z m306 25 c8 -22 -6 -33 -17 -15 -13 20 -12
30 0 30 6 0 13 -7 17 -15z m1253 8 c0 -5 -4 -15 -10 -23 -11 -18 -25 -7 -17
15 6 15 27 21 27 8z m625 -140 c7 -89 3 -102 -36 -103 -17 0 -18 4 -35 185
l-6 70 35 -33 c33 -32 35 -39 42 -119z m-2458 95 c-4 -24 -9 -78 -13 -120 -5
-63 -10 -78 -23 -78 -39 1 -44 14 -36 99 6 66 12 88 32 112 35 41 46 37 40
-13z m477 27 c-4 -8 -10 -12 -15 -9 -11 6 -2 24 11 24 5 0 7 -7 4 -15z m66
-11 c0 -8 -4 -14 -10 -14 -5 0 -10 9 -10 21 0 11 5 17 10 14 6 -3 10 -13 10
-21z m520 16 c0 -5 -9 -10 -20 -10 -11 0 -20 5 -20 10 0 6 9 10 20 10 11 0 20
-4 20 -10z m300 0 c0 -5 -9 -10 -20 -10 -11 0 -20 5 -20 10 0 6 9 10 20 10 11
0 20 -4 20 -10z m496 -27 c-11 -11 -19 6 -11 24 8 17 8 17 12 0 3 -10 2 -21
-1 -24z m69 28 c3 -5 1 -12 -4 -15 -5 -3 -11 1 -15 9 -6 16 9 21 19 6z m-1425
-16 c0 -8 -4 -15 -10 -15 -5 0 -7 7 -4 15 4 8 8 15 10 15 2 0 4 -7 4 -15z
m1394 0 c3 -8 1 -15 -4 -15 -6 0 -10 7 -10 15 0 8 2 15 4 15 2 0 6 -7 10 -15z
m-814 -25 c0 -14 -33 -21 -41 -8 -5 8 -2 15 9 19 19 7 32 3 32 -11z m263 -6
c-6 -16 -13 -17 -32 -5 -19 12 -5 30 18 24 12 -3 17 -11 14 -19z m-1445 -16
c-7 -22 -51 -38 -100 -38 -41 0 -48 3 -48 20 0 16 8 20 58 23 31 2 65 4 75 5
11 1 17 -3 15 -10z m2695 2 c30 0 37 -4 37 -20 0 -17 -7 -20 -47 -20 -52 0
-94 17 -101 39 -4 11 3 13 34 8 22 -4 56 -7 77 -7z m-2224 -22 l35 -11 -25
-19 c-39 -32 -112 -66 -189 -87 l-71 -20 3 32 3 32 130 32 c72 17 123 32 113
32 -9 1 -64 -10 -122 -24 -58 -14 -108 -25 -111 -25 -8 0 -6 66 2 74 10 9 189
-3 232 -16z m958 -1 c-2 -6 -7 -12 -13 -14 -15 -4 -37 14 -30 25 8 13 48 3 43
-11z m921 -19 c2 -21 1 -38 -2 -38 -3 0 -55 12 -116 26 -60 14 -115 24 -121
22 -6 -2 44 -16 112 -32 125 -28 139 -35 139 -70 0 -16 -5 -18 -42 -12 -54 9
-140 44 -197 80 -39 25 -42 30 -27 38 22 12 143 26 206 24 45 -1 45 -1 48 -38z
m-2332 1 c-3 -17 -6 -51 -6 -75 0 -37 -3 -44 -20 -44 -17 0 -20 7 -20 53 0 31
6 61 16 75 22 32 38 28 30 -9z m1184 21 c0 -5 -7 -10 -15 -10 -8 0 -18 0 -22
-1 -4 0 -9 4 -11 10 -2 6 8 11 22 11 14 0 26 -4 26 -10z m1397 -21 c7 -13 13
-45 13 -71 0 -41 -3 -48 -20 -48 -16 0 -20 7 -20 38 0 20 -3 54 -7 76 -5 31
-3 38 8 34 8 -2 20 -15 26 -29z m-1382 -20 c-8 -12 -45 -12 -45 0 0 10 30 20
43 14 4 -3 5 -9 2 -14z m188 -5 c-4 -10 -10 -11 -24 -3 -24 12 -16 29 10 22
12 -3 17 -11 14 -19z m-1445 -36 c3 -46 2 -48 -22 -48 -34 0 -35 33 -3 69 l22
26 -26 -22 c-31 -28 -65 -30 -72 -4 -7 28 1 32 53 29 l45 -3 3 -47z m2764 27
c-6 -32 -37 -33 -71 -2 l-26 22 23 -26 c31 -35 30 -69 -3 -69 -23 0 -25 4 -25
43 0 24 3 47 7 50 3 4 27 7 53 7 45 0 47 -1 42 -25z m-2131 -121 l39 -129 -21
-17 c-12 -10 -25 -16 -29 -13 -16 10 -40 144 -40 221 0 43 2 75 5 72 3 -3 24
-64 46 -134z m107 42 c40 -32 72 -62 72 -67 0 -14 -51 -43 -58 -33 -87 124
-131 194 -111 178 14 -10 57 -45 97 -78z m139 4 c27 0 21 -20 -12 -40 -29 -18
-37 -19 -53 -8 -31 23 -162 130 -162 133 0 2 48 -17 108 -41 59 -24 112 -44
119 -44z m1133 86 c0 -2 -40 -37 -90 -76 l-90 -72 -36 22 c-19 13 -32 26 -27
30 4 4 36 17 70 29 34 12 86 33 115 46 60 27 58 26 58 21z m55 -213 c-9 -40
-20 -75 -25 -78 -4 -3 -18 3 -29 13 l-22 17 36 120 c20 66 39 127 43 135 15
32 12 -137 -3 -207z m-796 181 c-9 -11 -15 -12 -23 -4 -8 8 -7 13 4 20 20 12
33 1 19 -16z m151 7 c0 -4 -3 -11 -7 -14 -8 -9 -34 13 -28 24 6 9 35 1 35 -10z
m604 7 c-6 -11 -91 -136 -116 -172 -3 -5 -20 -1 -38 11 l-32 20 93 77 c96 78
105 85 93 64z m22 -15 c-4 -16 -21 -72 -37 -126 l-30 -98 -32 22 c-18 13 -33
23 -35 25 -2 1 25 41 58 90 34 48 64 94 67 101 9 24 15 14 9 -14z m-1369 -68
c77 -109 77 -107 38 -132 l-34 -23 -36 114 c-19 63 -35 117 -35 122 0 11 8 1
67 -81z m623 58 c-1 -18 -18 -35 -24 -24 -4 6 -4 16 -1 21 7 12 25 13 25 3z
m85 -3 c3 -5 3 -15 -1 -21 -6 -11 -23 6 -24 24 0 10 18 9 25 -3z m-1459 -15
c9 -8 11 -15 6 -15 -5 0 -15 7 -22 15 -7 8 -9 15 -6 15 4 0 14 -7 22 -15z
m2819 -4 c-3 -6 -11 -11 -16 -11 -5 0 -4 6 3 14 14 16 24 13 13 -3z m-1425
-12 c0 -11 -4 -18 -10 -14 -5 3 -7 12 -3 20 7 21 13 19 13 -6z m33 6 c4 -8 2
-17 -3 -20 -6 -4 -10 3 -10 14 0 25 6 27 13 6z m-948 -37 c15 -48 69 -81 121
-74 39 5 42 4 48 -22 4 -15 9 -35 12 -44 8 -26 -51 -58 -104 -58 -78 0 -147
51 -172 126 -17 50 -7 79 32 91 50 16 53 15 63 -19z m1906 20 c21 -6 41 -19
44 -29 8 -25 -11 -91 -35 -122 -27 -34 -98 -67 -146 -67 -49 0 -107 33 -100
58 2 9 8 32 11 50 5 25 10 31 18 23 34 -34 135 10 152 67 5 17 11 32 13 32 3
0 22 -5 43 -12z m-1385 -40 c-3 -13 -6 -28 -6 -34 0 -13 -247 -176 -269 -178
-9 -1 -16 7 -16 17 0 19 257 214 284 216 9 1 11 -6 7 -21z m113 -152 c64 -143
70 -161 57 -175 -9 -8 -17 -13 -20 -10 -2 2 -36 66 -75 143 -61 116 -71 143
-65 170 8 40 14 50 24 39 4 -4 40 -80 79 -167z m681 139 c11 -33 8 -42 -60
-177 -39 -79 -75 -144 -79 -146 -5 -1 -13 4 -20 12 -10 11 2 45 60 173 75 167
78 173 84 173 2 0 9 -16 15 -35z m177 -71 c73 -53 133 -101 133 -108 -1 -36
-22 -28 -150 55 -130 86 -148 103 -149 143 -1 27 15 18 166 -90z m-764 69
l121 -17 -66 -12 c-36 -7 -89 -15 -119 -19 l-54 -7 -18 36 c-21 45 -21 50 -1
42 9 -3 70 -14 137 -23z m547 22 c0 -2 -8 -20 -17 -40 -19 -41 -19 -41 -158
-16 l-100 17 95 13 c52 7 111 16 130 21 45 10 50 11 50 5z m-414 -54 c-4 -5
-1 -11 4 -13 6 -2 -32 -43 -85 -91 l-95 -89 -15 36 c-8 19 -15 37 -15 39 0 3
45 26 100 52 55 27 98 50 96 53 -3 2 -48 -17 -102 -42 -53 -25 -98 -46 -100
-46 -2 0 -11 14 -19 30 -19 37 -25 33 120 59 61 10 111 19 113 20 2 1 1 -3 -2
-8z m362 -63 c-6 -15 -13 -30 -18 -33 -4 -3 -51 16 -105 41 -53 25 -99 44
-101 42 -2 -2 41 -26 96 -53 55 -27 100 -50 100 -52 0 -13 -62 -133 -69 -133
-28 0 -184 211 -168 227 3 3 47 -34 96 -83 50 -48 94 -85 97 -82 2 3 -36 43
-86 89 -51 46 -87 85 -81 87 6 2 9 7 7 10 -2 4 51 -2 119 -12 l123 -20 -10
-28z m-724 15 c-4 -16 -11 -34 -16 -40 -13 -17 -209 -156 -212 -151 -14 16
-27 53 -20 55 5 2 63 39 129 83 66 44 121 80 123 80 1 0 -1 -12 -4 -27z m365
-39 c-19 -31 -58 -83 -88 -116 l-54 -60 -14 27 c-8 14 -13 29 -11 33 8 17 190
184 195 178 3 -3 -9 -31 -28 -62z m611 -17 c138 -91 131 -84 118 -113 -6 -13
-14 -23 -18 -22 -38 18 -211 148 -215 163 -17 55 -17 58 -4 49 8 -4 61 -39
119 -77z m-880 -66 c62 -127 64 -131 45 -146 -11 -8 -23 -13 -28 -12 -4 1 -31
54 -60 117 -46 99 -52 120 -45 148 5 18 12 31 16 28 4 -2 36 -63 72 -135z
m749 84 c1 -21 -98 -245 -108 -245 -3 0 -15 7 -26 16 -19 14 -18 18 49 152 56
111 70 133 77 117 4 -11 8 -29 8 -40z m-869 -42 c0 -5 -5 -24 -10 -43 -8 -27
-26 -46 -82 -84 -67 -47 -72 -48 -84 -31 -8 10 -14 24 -14 29 1 11 168 134
183 135 4 1 7 -2 7 -6z m72 -100 c47 -100 49 -107 32 -120 -10 -7 -23 -13 -29
-13 -6 0 -26 35 -46 78 -31 69 -34 82 -25 120 5 23 11 42 13 42 2 0 27 -48 55
-107z m823 54 c5 -35 0 -55 -29 -120 l-36 -78 -25 17 c-29 19 -31 11 28 141
23 50 45 89 49 87 4 -2 10 -23 13 -47z m112 -16 c91 -63 92 -64 76 -88 -19
-28 -23 -27 -101 29 -45 32 -64 52 -72 78 -19 65 -24 66 97 -19z m-407 -81
c-21 -50 -82 -85 -149 -85 -69 0 -118 26 -146 78 l-20 37 32 32 32 32 27 -24
c20 -20 36 -25 76 -25 42 0 53 4 71 26 l22 27 34 -33 c33 -32 34 -35 21 -65z
m-633 6 c-10 -25 -98 -79 -109 -68 -15 15 -4 28 55 67 49 33 66 33 54 1z m83
-101 c0 -7 -6 -15 -14 -18 -9 -4 -21 12 -37 46 -23 48 -25 63 -13 96 5 15 64
-100 64 -124z m872 100 c6 -25 -38 -115 -56 -115 -25 0 -24 12 8 80 30 68 40
75 48 35z m74 -6 c50 -37 65 -64 36 -64 -23 0 -102 65 -102 85 0 11 2 20 5 20
3 0 31 -18 61 -41z m-1051 -68 c-4 -17 -14 -35 -23 -41 -10 -5 -12 -10 -4 -10
6 0 12 -6 12 -12 0 -7 -12 0 -27 15 l-28 28 35 29 c19 16 36 27 38 25 2 -2 1
-17 -3 -34z m48 -8 c17 -43 13 -52 -29 -59 -20 -3 -25 -1 -15 5 7 5 11 13 7
19 -8 13 4 72 14 72 4 0 15 -17 23 -37z m951 6 c3 -17 3 -36 0 -41 -4 -6 0
-14 7 -19 9 -6 2 -7 -21 -4 -19 3 -36 8 -38 9 -5 6 30 86 38 86 4 0 10 -14 14
-31z m51 7 c27 -22 29 -26 15 -40 -20 -21 -46 -4 -56 37 -8 33 2 34 41 3z"/>
<path d="M2311 3566 c-9 -10 -9 -16 -1 -21 17 -10 37 12 24 25 -8 8 -15 6 -23
-4z"/>
<path d="M2480 3565 c0 -10 7 -15 18 -13 21 4 19 22 -2 26 -10 2 -16 -3 -16
-13z"/>
<path d="M2665 3570 c-7 -12 2 -30 16 -30 5 0 9 9 9 20 0 21 -15 27 -25 10z"/>
<path d="M2369 3517 l-36 -42 -50 28 c-63 34 -68 34 -82 0 -6 -16 -20 -38 -29
-51 -17 -22 -19 -22 -61 -7 -63 22 -67 20 -81 -32 -7 -27 -16 -51 -20 -56 -3
-4 -30 -2 -59 5 -61 14 -65 10 -76 -59 l-6 -43 -65 0 -64 0 0 -64 0 -65 -43
-6 c-69 -11 -73 -15 -59 -76 7 -29 9 -56 5 -59 -5 -4 -29 -13 -55 -20 -53 -14
-55 -18 -33 -80 8 -23 15 -44 15 -46 0 -1 -25 -17 -55 -34 l-56 -32 23 -36
c47 -78 47 -70 -1 -113 l-44 -40 43 -44 44 -45 -44 -45 -44 -45 42 -36 c23
-19 42 -40 42 -45 0 -5 -11 -27 -25 -49 -32 -51 -31 -65 3 -79 15 -6 37 -20
50 -29 22 -17 22 -19 7 -61 -8 -24 -15 -49 -15 -56 0 -7 24 -19 53 -26 57 -16
56 -15 42 -96 l-7 -41 56 -12 56 -11 0 -65 0 -64 64 0 65 0 6 -43 c11 -69 15
-73 76 -59 29 7 56 9 59 5 4 -5 13 -29 20 -55 14 -52 20 -55 73 -33 20 8 41
15 46 15 6 0 22 -21 37 -48 15 -26 29 -49 31 -52 2 -2 29 9 60 25 l56 29 39
-44 39 -43 44 43 45 44 45 -44 44 -43 39 44 39 44 51 -28 c27 -15 54 -27 59
-27 5 0 19 20 31 45 27 55 39 61 87 41 21 -9 43 -16 50 -16 7 0 19 24 26 53
16 57 15 56 96 42 l41 -7 12 56 11 56 65 0 64 0 0 64 0 65 56 11 56 12 -7 41
c-14 81 -15 80 43 96 57 15 59 21 37 74 -8 20 -15 41 -15 46 0 6 21 22 48 37
26 15 49 29 52 31 2 2 -9 29 -25 60 l-29 56 43 39 43 40 -43 44 -43 44 44 45
43 44 -44 39 -44 39 28 51 c34 62 34 67 0 81 -16 6 -39 20 -52 30 l-24 18 18
52 c9 29 15 54 14 56 -2 1 -26 9 -54 17 -54 15 -54 15 -40 94 8 46 8 46 -67
59 l-38 6 0 64 0 65 -64 0 -65 0 -11 56 -12 56 -41 -7 c-79 -14 -79 -14 -95
43 -8 28 -20 52 -26 52 -6 0 -31 -7 -55 -16 -44 -15 -45 -15 -63 8 -9 13 -23
35 -29 51 -14 33 -28 34 -79 2 -22 -14 -44 -25 -49 -25 -5 0 -26 19 -45 42
l-36 42 -45 -44 -45 -44 -43 42 c-23 23 -45 42 -47 42 -3 -1 -21 -20 -41 -43z
m175 -18 l43 42 39 -45 39 -45 47 29 c27 17 51 30 55 30 5 0 21 -23 36 -50 16
-28 32 -50 36 -50 4 0 29 7 55 16 26 9 49 15 50 13 2 -2 10 -26 18 -54 15 -54
15 -54 94 -40 l41 7 7 -38 c14 -75 12 -74 77 -74 l59 0 0 -59 c0 -65 -1 -63
74 -77 l38 -7 -7 -41 c-14 -79 -14 -79 40 -94 28 -8 52 -16 54 -18 2 -1 -4
-24 -13 -50 -9 -26 -16 -51 -16 -55 0 -4 23 -20 50 -35 28 -15 50 -31 50 -36
0 -5 -11 -26 -25 -48 -14 -22 -25 -45 -25 -51 0 -7 18 -28 41 -47 l40 -35 -42
-43 -43 -44 37 -38 c20 -21 37 -43 37 -49 0 -6 -18 -26 -40 -45 l-40 -33 30
-47 c17 -27 30 -51 30 -55 0 -5 -23 -21 -50 -36 -28 -16 -50 -32 -50 -36 0 -4
7 -29 16 -55 9 -26 15 -48 13 -50 -2 -1 -26 -9 -54 -17 -54 -17 -54 -17 -40
-95 l7 -41 -38 -7 c-75 -14 -74 -12 -74 -77 l0 -59 -59 0 c-65 0 -63 1 -77
-74 l-7 -38 -41 7 c-79 14 -79 14 -96 -43 -8 -28 -20 -52 -26 -52 -6 0 -28 7
-47 15 -20 8 -41 15 -46 15 -5 0 -22 -22 -38 -50 -15 -27 -31 -50 -36 -50 -4
0 -28 13 -55 30 l-47 29 -39 -45 -39 -45 -43 42 -44 43 -44 -43 -43 -42 -35
40 c-19 23 -40 41 -47 41 -6 0 -29 -11 -51 -25 -22 -14 -43 -25 -48 -25 -5 0
-21 23 -36 50 -15 27 -31 50 -35 50 -4 0 -29 -7 -55 -16 -26 -9 -49 -15 -50
-13 -2 2 -10 27 -18 54 -15 54 -15 54 -94 40 l-41 -7 -7 38 c-14 75 -12 74
-77 74 l-59 0 0 59 c0 65 0 65 -73 76 l-45 7 15 54 c7 30 11 59 8 63 -3 5 -28
15 -55 22 -53 14 -55 15 -41 51 26 71 24 75 -29 104 -27 15 -50 31 -50 36 0 5
11 26 25 48 14 22 25 45 25 51 0 7 -18 28 -41 47 l-40 35 42 43 43 44 -43 44
-42 43 40 35 c23 19 41 40 41 47 0 6 -11 29 -25 51 -14 22 -25 43 -25 48 0 5
23 21 50 36 28 15 50 30 50 34 0 4 -7 25 -15 47 -21 59 -20 61 38 76 57 16 56
15 42 95 l-7 41 38 7 c75 14 74 12 74 77 l0 59 59 0 c65 0 63 -1 77 74 l7 38
41 -7 c78 -14 78 -14 94 43 16 57 22 59 75 37 20 -8 41 -15 46 -15 5 0 22 23
37 50 15 28 31 50 36 50 5 0 26 -11 48 -25 22 -14 45 -25 51 -25 7 0 28 18 47
41 l35 40 43 -42 44 -43 44 43z"/>
<path d="M2405 3470 c-8 -13 4 -32 16 -25 12 8 12 35 0 35 -6 0 -13 -4 -16
-10z"/>
<path d="M2565 3470 c-3 -6 1 -13 10 -16 19 -8 30 0 20 15 -8 14 -22 14 -30 1z"/>
<path d="M2737 3443 c-4 -3 -7 -12 -7 -20 0 -15 26 -18 34 -4 7 11 -18 33 -27
24z"/>
<path d="M2235 3431 c-3 -5 -1 -12 5 -16 12 -7 30 2 30 16 0 12 -27 12 -35 0z"/>
<path d="M2397 3389 c-106 -13 -245 -59 -340 -113 -572 -327 -603 -1146 -58
-1515 293 -199 692 -202 988 -9 416 272 530 833 252 1248 -184 275 -513 427
-842 389z m93 -37 c0 -31 -37 -123 -61 -150 -16 -18 -29 -40 -29 -50 0 -9 -13
-29 -29 -45 -25 -25 -31 -26 -62 -16 -19 7 -43 20 -54 30 -12 10 -35 21 -52
25 -18 4 -50 26 -79 55 l-48 49 65 29 c78 35 155 58 234 70 81 12 115 13 115
3z m226 -22 c39 -10 102 -32 139 -49 l69 -31 -49 -50 c-30 -30 -58 -50 -71
-50 -13 0 -35 -11 -51 -23 -15 -13 -43 -29 -62 -35 -32 -11 -37 -10 -61 15
-15 16 -31 39 -35 53 -4 14 -18 37 -32 51 -20 22 -52 109 -53 142 0 12 121 -2
206 -23z m-200 -65 c3 -19 19 -48 35 -65 16 -16 29 -37 29 -47 0 -9 12 -30 28
-46 21 -24 23 -29 8 -23 -26 9 -185 9 -222 0 l-29 -7 28 32 c15 18 27 39 27
46 0 8 13 29 29 47 16 18 32 48 36 66 9 42 22 41 31 -3z m543 -117 c64 -52
171 -180 171 -204 0 -13 -119 -46 -133 -37 -6 3 -45 7 -89 8 -43 1 -81 5 -85
8 -3 4 -7 42 -8 85 -1 44 -5 84 -8 89 -4 6 1 41 10 77 l16 66 29 -18 c16 -11
60 -44 97 -74z m-976 20 c9 -34 13 -67 9 -72 -3 -6 -7 -46 -8 -89 -1 -43 -4
-80 -7 -83 -3 -3 -41 -7 -84 -9 -43 -2 -85 -5 -93 -7 -8 -2 -43 3 -78 10 l-62
13 17 31 c51 88 239 268 279 268 6 0 19 -28 27 -62z m58 -3 c22 -19 47 -35 58
-35 10 0 30 -11 45 -25 15 -14 36 -25 46 -25 10 0 22 -4 25 -10 3 -5 0 -10 -7
-10 -23 0 -112 -46 -159 -83 l-47 -35 2 106 c0 59 -3 117 -7 130 -12 31 -1 28
44 -13z m759 5 c-5 -17 -7 -75 -5 -130 l4 -99 -52 40 c-29 21 -76 49 -104 61
-54 22 -68 38 -34 38 11 0 32 11 47 25 15 14 35 25 46 25 10 0 35 16 56 35 46
43 53 43 42 5z m-285 -125 c189 -40 346 -181 413 -369 35 -98 36 -250 3 -346
-107 -308 -435 -464 -731 -348 -280 110 -424 419 -325 701 31 91 74 154 150
226 133 124 311 174 490 136z m-765 -241 c0 -13 11 -35 23 -51 13 -15 29 -43
35 -62 11 -32 10 -36 -15 -62 -16 -16 -36 -29 -45 -29 -10 0 -32 -13 -50 -29
-32 -28 -143 -69 -155 -57 -8 7 15 160 34 226 8 30 29 84 44 119 l29 65 50
-49 c30 -30 50 -58 50 -71z m1439 29 c43 -110 86 -323 64 -323 -36 1 -120 34
-149 59 -19 17 -42 31 -52 31 -9 0 -29 13 -45 29 -25 25 -26 31 -16 62 7 19
20 43 30 54 9 11 21 34 24 50 8 31 93 128 106 120 3 -3 21 -40 38 -82z m-1334
62 c95 3 109 -1 79 -26 -21 -18 -94 -150 -94 -172 0 -10 -4 -15 -10 -12 -5 3
-10 15 -10 25 0 10 -11 31 -25 46 -14 15 -25 35 -25 45 0 11 -16 36 -35 58
-19 21 -35 41 -35 44 0 3 14 2 30 -3 17 -5 73 -7 125 -5z m1245 11 c0 -2 -16
-23 -35 -46 -19 -23 -35 -49 -35 -57 0 -8 -11 -28 -25 -45 -14 -16 -25 -38
-25 -48 0 -10 -4 -22 -10 -25 -5 -3 -10 0 -10 7 0 23 -46 112 -83 160 l-36 47
99 -4 c81 -3 117 0 158 14 1 1 2 -1 2 -3z m-1285 -295 c-8 -28 -8 -194 0 -223
7 -22 7 -22 -22 5 -16 15 -37 27 -46 27 -9 0 -31 13 -49 29 -18 16 -48 32 -65
36 -18 3 -33 10 -33 15 0 5 15 11 33 15 17 4 43 17 57 30 14 13 41 30 60 38
19 7 41 21 49 30 18 22 24 21 16 -2z m1238 -31 c10 0 31 -13 47 -29 17 -16 46
-32 65 -35 19 -4 35 -11 35 -16 0 -5 -16 -12 -35 -16 -19 -3 -48 -19 -65 -35
-16 -16 -37 -29 -47 -29 -9 0 -28 -11 -42 -24 l-26 -25 0 129 0 129 26 -25
c14 -13 33 -24 42 -24z m-1444 -105 c30 -7 66 -25 80 -38 14 -14 37 -28 51
-32 14 -4 37 -20 53 -35 25 -24 26 -29 15 -61 -6 -19 -22 -47 -35 -62 -12 -16
-23 -38 -23 -51 0 -13 -20 -41 -49 -70 l-49 -48 -14 28 c-26 52 -57 138 -72
199 -18 77 -29 185 -19 185 4 0 32 -7 62 -15z m1646 -37 c-10 -90 -35 -195
-62 -260 -44 -110 -38 -107 -93 -53 -28 28 -50 60 -54 78 -4 17 -15 40 -25 52
-10 11 -23 35 -30 54 -10 32 -9 37 16 63 15 15 35 28 45 28 9 0 33 14 53 31
19 17 56 37 83 44 75 21 73 21 67 -37z m-1355 -259 c13 -19 32 -44 43 -56 l19
-22 -100 4 c-56 2 -115 0 -132 -5 -16 -5 -30 -6 -30 -3 0 3 16 23 35 44 19 22
35 48 35 59 0 11 9 28 20 37 11 10 20 21 20 25 0 3 5 19 11 35 l10 28 23 -56
c12 -31 33 -71 46 -90z m1080 111 c0 -10 11 -31 25 -46 14 -15 25 -35 25 -45
0 -11 16 -36 35 -58 19 -21 35 -41 35 -44 0 -3 -14 -2 -30 3 -17 5 -75 7 -130
5 l-99 -4 36 47 c37 48 83 137 83 160 0 7 5 10 10 7 6 -3 10 -15 10 -25z
m-1082 -205 c39 -1 75 -5 79 -8 3 -4 7 -42 8 -85 0 -42 4 -82 7 -88 10 -15
-22 -134 -36 -134 -6 0 -42 24 -80 52 -64 48 -153 145 -198 216 l-18 30 57 15
c32 8 69 12 83 9 14 -2 58 -6 98 -7z m1172 -2 c33 -9 60 -21 60 -27 0 -7 -28
-47 -63 -91 -59 -74 -198 -195 -225 -195 -6 0 -14 12 -18 28 -3 15 -10 42 -16
59 -5 18 -6 38 -2 44 4 7 8 47 9 91 1 43 5 81 8 85 4 3 43 7 87 8 44 1 83 5
87 9 8 8 4 9 73 -11z m-925 -119 c28 -13 56 -24 63 -24 7 0 10 -4 7 -10 -3 -5
-15 -10 -25 -10 -10 0 -32 -11 -48 -25 -17 -14 -37 -25 -45 -25 -8 0 -34 -16
-57 -35 -23 -19 -43 -35 -45 -35 -2 0 0 14 5 30 5 17 7 75 5 130 l-4 99 47
-36 c26 -20 70 -47 97 -59z m650 -4 c-2 -54 0 -113 5 -130 5 -16 6 -30 3 -30
-3 0 -23 16 -44 35 -22 19 -47 35 -58 35 -10 0 -30 11 -45 25 -15 14 -36 25
-46 25 -35 0 -30 17 9 28 39 12 153 82 165 101 13 21 15 10 11 -89z m-522 -69
c15 -16 27 -36 27 -45 0 -8 13 -30 29 -48 24 -28 61 -119 61 -150 0 -26 -242
25 -348 73 l-66 29 48 49 c29 29 61 51 79 55 17 4 40 15 52 25 16 15 62 37 85
40 3 1 17 -12 33 -28z m231 -2 c-13 -14 -24 -33 -24 -42 0 -9 -13 -30 -29 -46
-15 -16 -31 -45 -35 -65 -9 -46 -23 -46 -32 -1 -3 19 -19 48 -35 65 -16 16
-29 36 -29 44 0 8 -11 27 -24 43 l-24 28 129 0 128 0 -25 -26z m111 11 c12 -4
27 -15 34 -24 7 -8 28 -18 46 -22 21 -4 50 -23 81 -55 l48 -49 -66 -29 c-102
-47 -348 -99 -348 -74 1 33 33 121 53 142 14 14 28 37 32 51 4 14 19 37 33 53
26 27 31 28 87 7z"/>
<path d="M2270 3241 c-14 -26 -3 -50 26 -57 42 -11 72 34 42 64 -18 18 -56 14
-68 -7z"/>
<path d="M2662 3248 c-30 -30 0 -75 42 -64 29 7 40 31 26 57 -12 21 -50 25
-68 7z"/>
<path d="M2994 3056 c-3 -8 -4 -25 -2 -38 2 -18 9 -23 32 -23 36 0 56 27 40
53 -14 22 -62 28 -70 8z"/>
<path d="M1942 3058 c-29 -29 -2 -72 40 -66 42 6 32 78 -11 78 -9 0 -22 -5
-29 -12z"/>
<path d="M2434 2986 c-10 -8 -30 -12 -45 -9 -16 3 -30 -1 -38 -11 -8 -10 -22
-14 -36 -10 -18 4 -27 0 -40 -19 -11 -17 -22 -23 -35 -20 -14 4 -25 -3 -37
-26 -10 -16 -27 -32 -38 -33 -11 -2 -21 -12 -23 -23 -1 -11 -17 -28 -33 -38
-23 -12 -30 -23 -26 -37 3 -13 -3 -24 -20 -35 -18 -12 -23 -23 -19 -38 3 -12
-1 -29 -11 -39 -9 -10 -13 -26 -10 -40 4 -14 0 -29 -10 -40 -13 -15 -14 -23
-5 -43 9 -19 9 -31 0 -50 -9 -20 -8 -28 5 -43 10 -11 14 -26 10 -41 -4 -16 -1
-28 10 -36 10 -7 15 -23 14 -41 -1 -21 4 -31 20 -38 14 -7 21 -18 20 -35 -2
-17 5 -29 23 -38 14 -7 27 -23 30 -35 4 -14 15 -24 27 -26 12 -2 25 -12 28
-23 8 -24 38 -41 59 -33 10 4 16 1 16 -10 0 -18 36 -40 51 -30 6 3 19 -2 29
-11 12 -11 28 -15 41 -12 12 3 32 -1 45 -9 17 -12 27 -13 43 -4 15 8 27 8 42
0 16 -9 26 -8 43 4 14 8 33 12 46 9 16 -4 27 0 36 12 8 10 20 15 29 11 21 -8
55 10 55 30 0 11 6 13 20 9 25 -8 50 10 50 36 0 12 9 19 28 21 19 2 28 9 30
26 2 13 14 27 26 32 26 10 38 33 30 55 -4 9 0 15 10 15 19 0 38 33 30 55 -4 9
1 21 11 29 12 9 16 20 12 36 -3 13 1 32 9 46 12 17 13 27 4 43 -8 15 -8 27 0
42 9 16 8 26 -4 43 -8 13 -12 33 -9 45 3 13 -1 29 -12 41 -9 10 -15 25 -12 32
6 19 -11 48 -29 48 -10 0 -13 7 -8 25 5 20 1 28 -25 42 -16 10 -32 27 -33 38
-2 13 -12 21 -30 23 -20 2 -28 9 -28 22 0 22 -32 43 -52 35 -7 -3 -18 5 -23
17 -8 17 -18 22 -39 21 -17 -1 -34 4 -41 14 -8 11 -20 14 -37 10 -17 -5 -30
-2 -38 8 -15 18 -42 19 -58 3 -9 -9 -15 -9 -24 0 -16 16 -30 15 -54 -2z m54
-32 c3 -19 -18 -33 -50 -34 -10 0 -10 44 -1 54 14 14 48 1 51 -20z m80 -8 c3
-26 1 -28 -20 -23 -13 4 -26 7 -30 7 -10 0 -10 34 -1 44 17 17 48 0 51 -28z
m-168 9 c16 -20 5 -45 -20 -45 -14 0 -20 7 -20 23 0 38 18 48 40 22z m238 -18
c3 -22 -1 -27 -18 -27 -26 0 -37 25 -20 45 18 22 34 13 38 -18z m-298 -17 c8
-15 6 -21 -11 -30 -11 -7 -27 -9 -35 -6 -14 6 -19 37 -7 49 13 14 43 7 53 -13z
m378 -8 c4 -27 -18 -38 -47 -22 -18 9 -19 14 -10 31 14 27 53 22 57 -9z m-450
-29 c13 -23 -35 -64 -49 -42 -10 17 -12 43 -2 52 12 13 42 7 51 -10z m520 -8
c1 -11 -2 -26 -7 -34 -15 -23 -62 19 -49 43 13 23 52 17 56 -9z m-362 -23 c20
-13 35 -52 50 -128 15 -83 19 -190 6 -198 -13 -8 -142 82 -200 141 -58 58 -67
95 -25 101 29 4 112 -77 176 -173 55 -81 59 -78 17 13 -63 134 -82 216 -58
240 14 14 19 14 34 4z m185 -8 c11 -13 10 -27 -4 -81 -18 -69 -62 -174 -89
-214 -16 -23 -16 -23 -12 31 13 162 46 280 77 280 8 0 21 -7 28 -16z m-411
-10 c11 -12 10 -18 -3 -32 -16 -15 -18 -15 -33 0 -19 18 -12 48 9 48 8 0 20
-7 27 -16z m647 0 c3 -8 -2 -23 -11 -32 -15 -15 -17 -15 -33 0 -13 14 -14 20
-3 32 16 20 39 20 47 0z m-693 -50 c14 -6 14 -9 -1 -34 -13 -23 -20 -27 -35
-19 -18 10 -24 39 -11 52 8 9 26 9 47 1z m744 -18 c3 -11 -4 -25 -13 -32 -15
-11 -21 -10 -38 12 -17 22 -18 28 -6 35 22 14 53 6 57 -15z m-130 -22 c4 -29
-64 -99 -163 -170 -44 -32 -73 -55 -65 -51 8 3 59 24 112 46 113 48 178 61
196 38 7 -8 10 -22 6 -30 -12 -31 -154 -67 -266 -67 -37 0 -57 -4 -53 -10 3
-5 30 -10 58 -10 114 0 249 -35 262 -68 3 -8 -1 -22 -9 -30 -13 -13 -23 -14
-73 -3 -61 14 -206 75 -235 99 -23 19 -16 41 33 114 62 91 144 170 172 166 13
-2 23 -11 25 -24z m-652 -38 c3 -8 1 -24 -6 -35 -9 -17 -15 -19 -30 -11 -20
10 -27 40 -13 53 12 12 43 7 49 -7z m822 -13 c2 -14 -4 -26 -17 -32 -17 -10
-22 -7 -36 18 -11 23 -12 31 -2 35 26 10 52 1 55 -21z m32 -72 c0 -15 -29 -33
-45 -27 -18 7 -20 43 -2 49 14 5 47 -10 47 -22z m-880 -1 c0 -27 -27 -37 -47
-17 -20 19 -9 37 23 37 17 0 24 -5 24 -20z m259 -51 c53 -22 100 -45 106 -50
12 -12 -86 -12 -161 1 -120 21 -171 52 -142 87 18 23 85 10 197 -38z m-273
-15 c-3 -9 -6 -22 -6 -30 0 -19 -39 -18 -46 1 -10 25 4 45 32 45 20 0 25 -4
20 -16z m899 -14 c0 -19 -6 -26 -25 -28 -22 -2 -25 1 -27 28 -2 29 0 31 25 28
21 -2 27 -8 27 -28z m-505 -45 c0 -12 -168 -85 -231 -102 -56 -14 -70 -15 -83
-4 -52 43 41 86 219 101 50 4 91 8 93 9 1 0 2 -1 2 -4z m-400 -12 c0 -5 3 -18
6 -30 5 -20 2 -23 -20 -23 -28 0 -42 20 -32 45 5 15 46 22 46 8z m905 -23 c0
-20 -6 -26 -28 -28 -25 -3 -27 -1 -25 28 2 27 6 31 28 28 19 -2 25 -9 25 -28z
m-483 -42 c-1 -24 -7 -77 -13 -118 -19 -127 -52 -182 -88 -145 -21 21 -4 98
48 216 23 50 41 94 41 96 0 3 -25 -30 -55 -73 -100 -142 -184 -200 -193 -135
-4 29 79 112 178 179 72 48 85 45 82 -20z m145 -17 c121 -89 165 -161 105
-169 -35 -5 -144 114 -216 236 -12 21 18 3 111 -67z m-82 -23 c55 -117 75
-202 53 -224 -45 -46 -85 56 -101 264 -2 28 -2 52 0 52 2 0 24 -42 48 -92z
m-467 4 c3 -18 -1 -22 -22 -22 -31 0 -42 16 -25 36 17 21 43 13 47 -14z m872
13 c16 -19 4 -35 -26 -35 -17 0 -24 6 -24 18 0 34 28 43 50 17z m-842 -95 c-2
-9 -14 -15 -28 -15 -31 0 -40 33 -14 52 16 12 21 11 32 -4 7 -10 11 -24 10
-33z m815 28 c14 -22 1 -48 -23 -48 -26 0 -35 22 -20 50 12 23 28 23 43 -2z
m-774 -109 c-39 -25 -81 20 -44 47 15 11 21 10 38 -12 17 -22 18 -28 6 -35z
m736 30 c11 -34 -20 -52 -54 -30 -11 7 -10 13 5 34 21 27 40 26 49 -4z m-695
-54 c10 -12 10 -18 0 -30 -16 -19 -39 -19 -46 0 -6 15 11 45 26 45 4 0 13 -7
20 -15z m640 0 c15 -18 6 -45 -13 -45 -8 0 -20 7 -27 15 -10 12 -10 18 0 30
16 19 24 19 40 0z m-585 -43 c17 -14 21 -22 13 -35 -10 -19 -43 -23 -53 -6 -7
11 2 59 11 59 3 0 16 -8 29 -18z m531 -6 c3 -14 3 -30 -1 -35 -9 -16 -41 -13
-55 4 -10 12 -8 18 11 35 31 25 37 25 45 -4z m-446 -66 c-11 -21 -45 -27 -55
-9 -4 5 -4 21 -1 35 6 24 7 24 36 9 26 -13 29 -19 20 -35z m375 10 c0 -33 -39
-40 -54 -11 -9 16 -8 22 6 30 28 17 48 8 48 -19z m-308 -16 c7 -19 -20 -49
-36 -40 -6 4 -11 18 -11 32 0 17 5 24 20 24 11 0 23 -7 27 -16z m233 -8 c0
-32 -18 -43 -37 -23 -20 20 -10 47 17 47 15 0 20 -7 20 -24z m-152 -16 c-2
-19 -9 -25 -28 -25 -20 0 -26 6 -28 27 -3 25 -1 27 28 25 27 -2 30 -5 28 -27z
m80 3 c-2 -22 -8 -28 -28 -28 -31 0 -42 40 -13 48 39 10 44 7 41 -20z"/>
<path d="M1756 2727 c-38 -27 2 -95 42 -71 23 15 27 48 7 68 -20 19 -26 20
-49 3z"/>
<path d="M3196 2727 c-38 -27 2 -95 42 -71 24 16 28 55 6 71 -10 7 -21 13 -24
13 -3 0 -14 -6 -24 -13z"/>
<path d="M1752 2338 c-17 -17 -15 -55 4 -66 25 -14 53 -3 60 24 11 42 -34 72
-64 42z"/>
<path d="M3190 2335 c-15 -18 -6 -61 16 -69 24 -9 54 12 54 37 0 43 -44 63
-70 32z"/>
<path d="M1934 1985 c-7 -29 10 -55 36 -55 24 0 42 24 38 52 -2 18 -10 24 -35
26 -28 3 -33 -1 -39 -23z"/>
<path d="M2997 2003 c-4 -3 -7 -19 -7 -34 0 -22 6 -30 26 -35 35 -9 59 15 50
50 -5 20 -13 26 -35 26 -15 0 -31 -3 -34 -7z"/>
<path d="M2270 1801 c-16 -31 4 -63 37 -59 34 4 52 32 37 56 -16 26 -60 28
-74 3z"/>
<path d="M2662 1808 c-7 -7 -12 -19 -12 -28 0 -40 61 -55 80 -21 13 25 13 27
-6 45 -18 19 -45 21 -62 4z"/>
<path d="M2072 3378 c5 -15 28 -18 29 -3 0 6 -7 12 -17 13 -10 3 -15 -1 -12
-10z"/>
<path d="M2895 3379 c-10 -15 1 -23 20 -15 9 3 13 10 10 16 -8 13 -22 13 -30
-1z"/>
<path d="M1932 3294 c4 -21 22 -23 26 -1 2 10 -3 17 -13 17 -10 0 -15 -6 -13
-16z"/>
<path d="M3036 3301 c-3 -5 1 -14 8 -20 16 -13 32 2 21 19 -8 12 -22 13 -29 1z"/>
<path d="M1804 3189 c-10 -17 13 -36 27 -22 12 12 4 33 -11 33 -5 0 -12 -5
-16 -11z"/>
<path d="M3164 3189 c-8 -14 11 -33 25 -25 6 4 11 11 11 16 0 13 -29 20 -36 9z"/>
<path d="M1690 3055 c0 -10 7 -15 18 -13 21 4 19 22 -2 26 -10 2 -16 -3 -16
-13z"/>
<path d="M3275 3060 c-3 -6 1 -13 10 -16 19 -8 30 0 20 15 -8 14 -22 14 -30 1z"/>
<path d="M1615 2920 c-4 -6 -3 -16 3 -22 6 -6 12 -6 17 2 4 6 3 16 -3 22 -6 6
-12 6 -17 -2z"/>
<path d="M3364 2916 c-8 -22 3 -33 18 -18 9 9 9 15 0 24 -9 9 -13 7 -18 -6z"/>
<path d="M1564 2756 c-8 -22 3 -33 18 -18 9 9 9 15 0 24 -9 9 -13 7 -18 -6z"/>
<path d="M3416 2763 c-12 -12 -6 -33 9 -33 8 0 15 6 15 14 0 17 -14 28 -24 19z"/>
<path d="M1527 2593 c-12 -11 -8 -23 8 -23 8 0 15 7 15 15 0 16 -12 20 -23 8z"/>
<path d="M3447 2594 c-13 -13 -7 -24 14 -24 11 0 19 5 17 12 -5 14 -22 21 -31
12z"/>
<path d="M1525 2430 c-7 -12 2 -30 16 -30 12 0 12 27 0 35 -5 3 -12 1 -16 -5z"/>
<path d="M3450 2430 c-12 -7 -12 -12 -2 -22 9 -9 15 -9 24 0 16 16 -2 34 -22
22z"/>
<path d="M1556 2261 c-3 -5 1 -14 8 -20 16 -13 32 2 21 19 -8 12 -22 13 -29 1z"/>
<path d="M3412 2254 c4 -21 22 -23 26 -1 2 10 -3 17 -13 17 -10 0 -15 -6 -13
-16z"/>
<path d="M1615 2100 c-8 -13 4 -32 16 -25 12 8 12 35 0 35 -6 0 -13 -4 -16
-10z"/>
<path d="M3362 2096 c1 -10 8 -17 13 -17 15 1 12 24 -3 29 -9 3 -13 -2 -10
-12z"/>
<path d="M1695 1960 c-7 -12 2 -30 16 -30 12 0 12 27 0 35 -5 3 -12 1 -16 -5z"/>
<path d="M3284 1956 c-8 -22 3 -33 18 -18 9 9 9 15 0 24 -9 9 -13 7 -18 -6z"/>
<path d="M1807 1834 c-13 -13 -7 -24 14 -24 11 0 19 5 17 12 -5 14 -22 21 -31
12z"/>
<path d="M3164 1829 c-3 -6 -1 -16 5 -22 9 -9 14 -8 21 3 9 15 4 30 -10 30 -5
0 -12 -5 -16 -11z"/>
<path d="M1936 1723 c-12 -12 -6 -33 9 -33 8 0 15 6 15 14 0 17 -14 28 -24 19z"/>
<path d="M3044 1716 c-8 -22 3 -33 18 -18 9 9 9 15 0 24 -9 9 -13 7 -18 -6z"/>
<path d="M2073 1628 c2 -7 10 -13 17 -13 7 0 15 6 18 13 2 7 -5 12 -18 12 -13
0 -20 -5 -17 -12z"/>
<path d="M2892 1628 c5 -15 28 -18 29 -3 0 6 -7 12 -17 13 -10 3 -15 -1 -12
-10z"/>
<path d="M2235 1580 c-3 -6 1 -13 10 -16 19 -8 30 0 20 15 -8 14 -22 14 -30 1z"/>
<path d="M2730 1575 c0 -10 7 -15 18 -13 21 4 19 22 -2 26 -10 2 -16 -3 -16
-13z"/>
<path d="M2405 1550 c-7 -12 2 -30 16 -30 12 0 12 27 0 35 -5 3 -12 1 -16 -5z"/>
<path d="M2571 1546 c-9 -10 -9 -16 -1 -21 17 -10 37 12 24 25 -8 8 -15 6 -23
-4z"/>
<path d="M2110 3505 c0 -8 7 -15 15 -15 8 0 15 7 15 15 0 8 -7 15 -15 15 -8 0
-15 -7 -15 -15z"/>
<path d="M2860 3505 c0 -8 7 -15 15 -15 8 0 15 7 15 15 0 8 -7 15 -15 15 -8 0
-15 -7 -15 -15z"/>
<path d="M1950 3427 c0 -19 10 -27 25 -20 17 6 8 33 -11 33 -8 0 -14 -6 -14
-13z"/>
<path d="M3016 3431 c-3 -5 1 -14 8 -20 16 -13 32 2 21 19 -8 12 -22 13 -29 1z"/>
<path d="M1805 3340 c-7 -12 2 -30 16 -30 12 0 12 27 0 35 -5 3 -12 1 -16 -5z"/>
<path d="M3174 3336 c-8 -22 3 -33 18 -18 9 9 9 15 0 24 -9 9 -13 7 -18 -6z"/>
<path d="M1660 3186 c0 -9 7 -16 16 -16 9 0 14 5 12 12 -6 18 -28 21 -28 4z"/>
<path d="M3315 3189 c-10 -15 1 -23 20 -15 9 3 13 10 10 16 -8 13 -22 13 -30
-1z"/>
<path d="M1567 3043 c-12 -11 -8 -23 8 -23 8 0 15 7 15 15 0 16 -12 20 -23 8z"/>
<path d="M3405 3040 c-3 -6 1 -13 10 -16 19 -8 30 0 20 15 -8 14 -22 14 -30 1z"/>
<path d="M1480 2875 c0 -8 7 -15 15 -15 8 0 15 7 15 15 0 8 -7 15 -15 15 -8 0
-15 -7 -15 -15z"/>
<path d="M3490 2875 c0 -8 7 -15 15 -15 8 0 15 7 15 15 0 8 -7 15 -15 15 -8 0
-15 -7 -15 -15z"/>
<path d="M1431 2686 c-9 -10 -9 -16 -1 -21 17 -10 37 12 24 25 -8 8 -15 6 -23
-4z"/>
<path d="M3543 2678 c2 -7 10 -13 17 -13 7 0 15 6 18 13 2 7 -5 12 -18 12 -13
0 -20 -5 -17 -12z"/>
<path d="M1425 2510 c-8 -13 4 -32 16 -25 12 8 12 35 0 35 -6 0 -13 -4 -16
-10z"/>
<path d="M3552 2506 c1 -10 8 -17 13 -17 15 1 12 24 -3 29 -9 3 -13 -2 -10
-12z"/>
<path d="M1427 2334 c-13 -13 -7 -24 14 -24 11 0 19 5 17 12 -5 14 -22 21 -31
12z"/>
<path d="M3547 2334 c-13 -13 -7 -24 14 -24 11 0 19 5 17 12 -5 14 -22 21 -31
12z"/>
<path d="M1480 2125 c0 -8 7 -15 15 -15 8 0 15 7 15 15 0 8 -7 15 -15 15 -8 0
-15 -7 -15 -15z"/>
<path d="M3490 2125 c0 -8 7 -15 15 -15 8 0 15 7 15 15 0 8 -7 15 -15 15 -8 0
-15 -7 -15 -15z"/>
<path d="M1565 1980 c-7 -12 2 -30 16 -30 12 0 12 27 0 35 -5 3 -12 1 -16 -5z"/>
<path d="M3410 1980 c-12 -7 -12 -12 -2 -22 9 -9 15 -9 24 0 16 16 -2 34 -22
22z"/>
<path d="M1655 1821 c-3 -5 -1 -12 5 -16 12 -7 30 2 30 16 0 12 -27 12 -35 0z"/>
<path d="M3312 1818 c6 -18 28 -21 28 -4 0 9 -7 16 -16 16 -9 0 -14 -5 -12
-12z"/>
<path d="M1802 1674 c4 -21 22 -23 26 -1 2 10 -3 17 -13 17 -10 0 -15 -6 -13
-16z"/>
<path d="M3166 1681 c-3 -5 1 -14 8 -20 16 -13 32 2 21 19 -8 12 -22 13 -29 1z"/>
<path d="M1955 1590 c-7 -12 2 -30 16 -30 12 0 12 27 0 35 -5 3 -12 1 -16 -5z"/>
<path d="M3020 1580 c0 -13 5 -20 13 -17 6 2 12 10 12 17 0 7 -6 15 -12 18 -8
2 -13 -5 -13 -18z"/>
<path d="M2110 1495 c0 -8 7 -15 15 -15 8 0 15 7 15 15 0 8 -7 15 -15 15 -8 0
-15 -7 -15 -15z"/>
<path d="M2860 1495 c0 -8 7 -15 15 -15 8 0 15 7 15 15 0 8 -7 15 -15 15 -8 0
-15 -7 -15 -15z"/>
<path d="M2310 1440 c0 -13 5 -20 13 -17 6 2 12 10 12 17 0 7 -6 15 -12 18 -8
2 -13 -5 -13 -18z"/>
<path d="M2665 1450 c-8 -13 4 -32 16 -25 12 8 12 35 0 35 -6 0 -13 -4 -16
-10z"/>
<path d="M2482 1438 c5 -15 28 -18 29 -3 0 6 -7 12 -17 13 -10 3 -15 -1 -12
-10z"/>
</g>
</svg>
