<?xml version="1.0" standalone="no"?>
<!DOCTYPE svg PUBLIC "-//W3C//DTD SVG 20010904//EN"
 "http://www.w3.org/TR/2001/REC-SVG-20010904/DTD/svg10.dtd">
<svg version="1.0" xmlns="http://www.w3.org/2000/svg"
 width="500.000000pt" height="500.000000pt" viewBox="0 0 500.000000 500.000000"
 preserveAspectRatio="xMidYMid meet">

<g transform="translate(0.000000,500.000000) scale(0.100000,-0.100000)"
fill="#e7ab5c36" stroke="none">
<path d="M2480 4475 c-5 -13 -45 -64 -89 -114 l-80 -89 -46 24 c-61 31 -124
39 -192 25 -124 -25 -223 -93 -266 -183 l-24 -50 -206 2 c-114 0 -207 -3 -207
-8 0 -5 9 -58 20 -118 30 -170 82 -303 145 -373 21 -23 36 -44 33 -47 -7 -6
-104 32 -145 58 -24 14 -43 42 -71 102 -40 84 -78 125 -132 141 -14 4 -45 18
-69 31 -24 13 -45 23 -47 21 -1 -1 10 -29 26 -62 16 -33 30 -66 30 -73 0 -24
86 -97 135 -116 79 -31 93 -44 130 -121 49 -101 46 -118 -10 -66 -46 42 -124
82 -220 114 -47 16 -245 57 -272 57 -10 0 -13 -48 -13 -209 l0 -209 -34 -12
c-53 -17 -121 -84 -155 -151 -58 -117 -64 -230 -17 -315 l24 -44 -81 -73 c-45
-41 -97 -82 -114 -91 -41 -21 -41 -31 -3 -51 17 -9 68 -49 115 -91 l84 -74
-25 -44 c-49 -88 -40 -211 24 -330 31 -56 99 -120 148 -138 l34 -12 0 -208 c0
-114 4 -208 8 -208 5 0 58 9 118 20 175 31 305 83 378 150 25 24 46 37 46 31
0 -19 -47 -129 -69 -159 -13 -18 -43 -37 -83 -53 -62 -24 -148 -94 -148 -121
0 -7 -14 -40 -30 -73 -16 -33 -28 -61 -27 -62 1 -1 29 11 62 27 33 16 66 30
73 30 27 0 97 86 120 148 26 68 47 88 137 127 84 37 94 32 46 -20 -42 -46 -82
-124 -114 -220 -16 -47 -57 -245 -57 -273 0 -10 44 -12 207 -12 l207 2 21 -49
c69 -154 319 -240 463 -158 l41 24 74 -82 c41 -45 82 -97 91 -114 9 -18 20
-33 25 -33 5 0 20 18 32 39 13 22 54 73 91 114 l67 75 46 -24 c61 -31 124 -39
192 -25 124 25 223 93 266 183 l24 50 206 -2 c114 0 207 3 207 8 0 5 -9 58
-20 118 -31 173 -84 306 -151 379 -23 25 -36 45 -30 45 19 0 129 -47 158 -68
17 -12 38 -45 53 -84 25 -63 95 -148 123 -148 8 0 41 -13 73 -30 32 -16 59
-28 61 -27 1 1 -11 29 -27 62 -16 33 -30 66 -30 73 0 24 -85 98 -135 116 -78
30 -93 44 -130 121 -49 101 -46 118 10 66 46 -42 126 -84 220 -114 45 -14 251
-57 276 -57 6 0 9 77 9 207 l-2 206 50 24 c90 43 158 142 183 266 14 68 6 131
-26 193 -13 27 -23 49 -22 49 1 1 41 36 90 78 48 43 98 82 112 87 35 13 31 24
-14 51 -22 13 -73 54 -114 91 l-75 67 24 46 c31 61 39 124 25 192 -25 124 -97
229 -184 268 l-49 21 2 207 c0 163 -2 207 -12 207 -38 0 -240 -45 -302 -67
-98 -35 -140 -58 -187 -100 -22 -20 -42 -33 -45 -31 -7 8 32 105 59 147 17 26
40 43 83 60 95 39 120 63 168 164 25 51 43 93 42 94 -1 1 -28 -11 -61 -27 -33
-16 -66 -30 -73 -30 -24 0 -98 -85 -116 -135 -30 -78 -44 -93 -121 -130 -101
-49 -118 -46 -65 11 42 45 75 110 112 214 20 58 62 279 55 286 -6 6 -396 6
-406 0 -4 -3 -13 12 -19 33 -16 51 -79 121 -139 154 -115 62 -243 71 -330 22
l-43 -24 -80 90 c-45 49 -85 101 -90 114 -5 14 -14 25 -20 25 -6 0 -15 -11
-20 -25z m-5 -74 c-3 -12 -42 -60 -86 -107 -99 -107 -124 -149 -155 -265 l-25
-94 4 71 c5 95 50 178 170 316 50 59 94 105 95 103 2 -2 1 -13 -3 -24z m250
-216 c44 -68 65 -135 64 -203 l-1 -57 -18 82 c-27 120 -61 182 -149 276 -76
80 -101 114 -101 137 0 16 166 -174 205 -235z m-210 194 c4 -11 39 -55 77 -97
39 -42 84 -97 100 -122 27 -42 63 -139 54 -147 -2 -2 -15 16 -29 39 -31 53
-106 125 -169 162 l-47 28 -51 -28 c-61 -33 -132 -102 -167 -161 -30 -52 -40
-50 -23 4 25 77 61 133 139 217 44 47 82 95 86 106 8 26 22 26 30 -1z m-266
-93 c38 -20 46 -33 31 -51 -6 -8 -27 -42 -45 -76 l-33 -63 -11 42 c-30 110
-154 158 -206 79 -27 -42 -29 -89 -6 -142 19 -42 19 -46 3 -40 -9 4 -52 16
-94 27 -91 24 -95 34 -45 99 75 99 189 153 309 145 36 -3 80 -12 97 -20z m754
-6 c68 -26 147 -94 172 -149 10 -23 16 -43 14 -45 -2 -2 -38 -13 -79 -24 -41
-11 -83 -23 -94 -27 -17 -8 -17 -6 -2 22 56 110 -2 220 -102 194 -48 -13 -78
-45 -101 -107 l-19 -49 -15 37 c-9 20 -27 54 -41 75 -32 46 -32 49 -1 69 59
39 170 40 268 4z m-909 -54 c18 -7 42 -25 53 -40 25 -32 47 -148 35 -190 -7
-27 -8 -26 -21 25 -31 122 -90 186 -120 130 -12 -22 6 -95 34 -137 28 -42 8
-40 -34 4 -68 71 -78 159 -24 202 31 24 34 24 77 6z m889 -6 c53 -42 43 -131
-24 -200 -22 -23 -42 -40 -44 -38 -3 2 7 26 20 53 42 82 27 160 -24 128 -25
-15 -59 -82 -72 -141 -17 -72 -33 -43 -24 41 8 74 37 140 68 155 55 26 68 27
100 2z m-442 -23 c57 -35 107 -83 149 -144 47 -67 53 -95 14 -64 -35 27 -88
27 -115 0 -16 -16 -20 -30 -17 -65 4 -51 -7 -52 -40 -3 -13 19 -27 34 -32 34
-5 0 -19 -15 -32 -34 -30 -44 -51 -53 -42 -17 8 32 -1 70 -22 90 -22 22 -76
20 -107 -4 -36 -29 -40 -25 -18 18 33 64 87 124 153 169 35 23 65 42 68 42 3
0 21 -10 41 -22z m-429 -107 c33 -69 47 -121 17 -65 -26 48 -27 50 -35 43 -3
-4 2 -20 11 -38 24 -46 12 -48 -15 -3 -28 46 -40 128 -19 121 8 -2 26 -28 41
-58z m828 30 c0 -32 -41 -123 -61 -135 -8 -6 -8 -2 0 13 6 11 15 32 21 46 15
40 -7 32 -24 -9 -20 -46 -27 -45 -14 3 12 44 25 71 46 95 22 25 32 21 32 -13z
m-1117 -65 c97 -17 171 -43 225 -80 48 -33 40 -32 -90 10 -117 38 -178 49
-388 69 l-135 13 151 2 c95 1 183 -5 237 -14z m1736 10 c-3 -2 -73 -9 -155
-15 -179 -13 -226 -21 -367 -67 -60 -19 -111 -32 -114 -30 -8 9 86 59 150 79
33 10 84 23 112 27 53 9 382 14 374 6z m-1971 -35 c174 -14 280 -33 390 -71
144 -51 146 -54 24 -54 -95 0 -113 -3 -164 -27 -110 -51 -218 -186 -218 -270
0 -42 -15 -34 -53 30 -43 70 -69 133 -113 279 -38 126 -40 137 -19 129 9 -3
77 -10 153 -16z m1987 -12 c-30 -138 -150 -425 -182 -435 -6 -2 -13 15 -17 37
-16 100 -106 208 -213 257 -65 30 -164 40 -233 24 -24 -5 -46 -8 -49 -6 -8 9
126 63 219 89 55 15 147 31 220 37 102 8 190 18 253 28 5 0 5 -14 2 -31z
m-1174 -52 c19 -40 3 -94 -34 -116 -45 -28 -60 -25 -31 7 57 61 36 136 -24 86
-12 -10 -24 -31 -28 -46 -6 -25 -4 -28 12 -25 12 2 19 12 19 27 0 12 8 27 18
32 34 20 18 -23 -27 -67 -54 -54 -78 -58 -69 -11 8 44 20 66 56 105 40 41 91
45 108 8z m309 -12 c35 -40 50 -73 50 -110 0 -29 -4 -30 -46 -4 -54 34 -96
118 -44 90 12 -6 16 -17 13 -30 -3 -13 1 -22 11 -26 26 -10 31 3 13 40 -18 38
-50 54 -72 36 -16 -13 -7 -45 26 -91 23 -33 20 -35 -21 -14 -47 24 -64 79 -40
126 19 34 72 25 110 -17z m-1175 -301 c30 -55 33 -64 15 -48 -32 28 -97 169
-120 261 -32 126 -21 118 24 -18 24 -70 60 -157 81 -195z m2040 235 c-23 -109
-89 -254 -131 -289 -10 -8 -2 14 19 51 20 36 52 115 72 175 20 61 38 116 41
124 2 8 6 12 9 10 2 -2 -3 -34 -10 -71z m-1051 7 c20 -30 69 -56 184 -97 114
-40 187 -77 241 -124 43 -37 91 -120 91 -158 0 -28 -15 -9 -29 35 -15 47 -74
115 -130 150 -25 16 -94 45 -155 65 -134 44 -141 47 -188 92 l-37 35 -46 -41
c-36 -32 -71 -49 -158 -78 -62 -20 -129 -45 -150 -56 -77 -39 -140 -113 -173
-203 -7 -19 -8 -19 -11 1 -6 34 35 109 83 154 48 44 150 96 298 151 60 22 100
44 120 65 17 18 34 33 37 33 4 1 14 -10 23 -24z m-430 -19 c45 -14 116 -59
116 -74 0 -4 -30 -23 -68 -42 -94 -48 -164 -120 -189 -195 l-20 -60 -125 1
c-155 2 -168 8 -168 73 0 200 245 360 454 297z m1068 -19 c114 -56 198 -172
198 -274 0 -42 -4 -54 -20 -63 -11 -6 -78 -13 -148 -17 l-128 -6 -17 63 c-15
52 -27 71 -71 114 -29 28 -82 66 -119 84 -37 18 -67 37 -67 42 0 5 7 16 16 24
69 70 247 86 356 33z m-636 -18 c26 -29 72 -50 184 -88 139 -46 207 -87 253
-151 20 -29 37 -63 37 -75 0 -21 -6 -23 -87 -27 -49 -3 -108 -13 -132 -21 -42
-15 -44 -15 -65 9 -11 13 -55 37 -96 54 -41 17 -84 40 -97 52 l-22 21 -30 -26
c-27 -22 -127 -67 -150 -67 -5 0 -21 -13 -34 -30 l-25 -30 -44 16 c-24 9 -83
19 -133 22 -104 8 -107 12 -52 95 45 67 113 109 249 156 133 45 165 61 192 90
24 26 28 26 52 0z m-1280 -31 c27 -18 59 -51 71 -73 30 -54 29 -64 -5 -32 -16
15 -32 24 -35 20 -4 -3 5 -19 20 -35 37 -38 9 -37 -45 2 -41 30 -92 103 -92
133 0 26 33 20 86 -15z m2589 5 c-12 -48 -47 -94 -94 -124 -55 -36 -72 -37
-41 -4 31 32 17 46 -15 15 -30 -28 -31 -22 -6 28 29 57 99 111 145 112 15 0
17 -5 11 -27z m-2647 -259 c91 -30 181 -75 207 -104 15 -16 2 -12 -55 18 -41
22 -126 57 -187 77 -62 20 -113 38 -113 40 0 8 79 -9 148 -31z m2662 -8 c-125
-42 -191 -71 -242 -108 -16 -11 -28 -16 -28 -13 0 28 171 116 282 145 125 33
119 20 -12 -24z m-2718 -16 c138 -44 247 -96 288 -136 12 -12 10 -14 -20 -14
-82 0 -217 -97 -265 -191 -41 -77 -56 -195 -36 -267 19 -63 -8 -31 -38 47 -60
155 -75 229 -91 443 -6 76 -13 144 -16 153 -9 23 11 19 178 -35z m2908 33 c0
-43 -21 -284 -31 -343 -17 -113 -90 -330 -109 -330 -5 0 -4 17 2 38 14 52 4
156 -22 224 -41 108 -156 208 -260 224 -23 4 -39 11 -37 18 8 25 142 90 282
136 83 27 156 49 163 49 6 1 12 -7 12 -16z m-1516 -2 c3 -4 43 -22 88 -39 47
-18 88 -40 96 -52 15 -25 12 -25 -31 0 -18 11 -57 24 -87 30 -29 6 -62 17 -71
26 -17 15 -20 15 -45 -5 -15 -12 -41 -21 -59 -21 -17 0 -54 -11 -80 -25 -27
-13 -51 -23 -53 -20 -10 10 43 45 104 69 38 14 76 31 84 36 19 12 47 13 54 1z
m-1575 -151 c14 -184 24 -239 68 -373 19 -60 32 -111 30 -113 -8 -8 -63 96
-80 151 -27 84 -37 173 -37 334 0 85 2 152 4 150 2 -2 9 -69 15 -149z m3106
-234 c-11 -64 -27 -116 -56 -173 -22 -46 -44 -83 -48 -83 -4 0 7 43 25 95 39
111 59 218 76 405 l13 135 3 -144 c2 -95 -3 -175 -13 -235z m-1539 324 c6 -6
37 -15 69 -20 31 -5 69 -17 82 -26 l25 -16 -40 -41 c-46 -48 -76 -104 -87
-162 l-8 -40 -24 78 c-13 42 -28 77 -33 77 -5 0 -19 -32 -32 -71 l-23 -72 -11
40 c-17 59 -41 100 -86 148 l-39 44 24 16 c13 8 51 20 82 25 32 5 63 14 69 20
5 5 13 10 16 10 3 0 11 -5 16 -10z m-876 -47 c83 -22 111 -25 220 -22 215 5
293 1 339 -15 54 -20 101 -55 138 -102 21 -29 24 -37 13 -44 -9 -6 -25 -2 -42
8 -21 12 -33 14 -45 6 -12 -7 -26 -8 -45 0 -21 8 -31 7 -45 -7 -10 -9 -28 -14
-38 -11 -11 3 -29 -1 -39 -9 -17 -12 -24 -10 -68 19 -86 58 -214 80 -310 54
-31 -9 -39 -17 -48 -48 -26 -97 -2 -232 59 -318 25 -36 27 -43 14 -60 -8 -10
-12 -28 -9 -39 3 -10 -2 -28 -11 -38 -14 -15 -15 -23 -6 -47 7 -18 7 -32 2
-36 -14 -8 -11 -41 6 -58 14 -14 11 -46 -4 -46 -17 0 -93 75 -116 114 -36 61
-49 168 -37 292 14 140 -7 306 -56 433 -4 11 -1 13 14 7 10 -4 62 -19 114 -33z
m1845 20 c-3 -10 -18 -60 -32 -112 -26 -99 -29 -150 -24 -391 4 -137 -7 -184
-54 -247 -62 -80 -143 -109 -99 -34 14 24 16 36 8 48 -7 12 -8 26 0 45 8 22 7
31 -8 47 -11 12 -15 27 -12 39 4 12 0 26 -9 36 -15 15 -14 20 15 59 59 81 86
226 58 318 -9 32 -17 41 -47 49 -97 27 -231 1 -319 -60 -39 -28 -44 -29 -59
-14 -9 9 -25 13 -37 10 -12 -3 -28 2 -39 11 -14 14 -24 15 -45 7 -20 -8 -33
-7 -45 0 -13 8 -24 7 -45 -5 -28 -16 -52 -15 -52 2 0 18 74 91 119 117 l46 27
230 2 c223 1 233 2 335 31 128 37 124 36 115 15z m-2005 -133 c6 -12 12 -78
13 -147 l2 -126 -60 -20 c-76 -26 -149 -96 -195 -189 -18 -38 -36 -68 -40 -68
-19 0 -61 66 -76 118 -23 77 -14 186 20 256 54 111 173 196 273 196 42 0 54
-4 63 -20z m2207 -7 c75 -37 129 -92 165 -169 54 -115 48 -249 -13 -334 -16
-22 -33 -40 -38 -40 -4 0 -23 28 -41 63 -62 119 -122 174 -216 199 l-47 13 6
133 c3 81 10 139 17 147 21 25 104 19 167 -12z m-1758 -32 c34 -11 78 -31 97
-46 l35 -27 -20 -20 c-12 -10 -22 -31 -22 -46 -2 -89 -3 -112 -6 -112 -1 0
-21 7 -43 16 -23 9 -43 14 -47 11 -5 -5 2 -31 21 -77 7 -16 6 -16 -106 -19
-15 0 -36 -10 -46 -22 l-20 -20 -26 33 c-53 70 -77 180 -62 281 6 38 12 47 34
56 45 16 146 12 211 -8z m1368 -4 c47 -46 18 -252 -46 -327 l-30 -35 -17 23
c-13 19 -23 23 -45 18 -16 -3 -31 -1 -35 5 -4 7 -21 9 -40 6 -39 -7 -41 0 -18
49 9 19 14 37 11 41 -4 3 -24 -2 -47 -11 -53 -21 -63 -20 -48 4 10 15 10 26 1
51 -7 18 -10 36 -7 41 9 14 -6 48 -22 48 -52 0 32 68 121 97 59 19 199 13 222
-10z m-1072 -37 c3 -5 2 -10 -4 -10 -5 0 -16 -3 -25 -6 -11 -4 -16 -1 -16 10
0 18 35 22 45 6z m75 0 c12 -8 11 -10 -7 -10 -13 0 -23 5 -23 10 0 13 11 13
30 0z m430 0 c0 -5 -9 -10 -21 -10 -11 0 -17 5 -14 10 3 6 13 10 21 10 8 0 14
-4 14 -10z m90 -6 c0 -11 -5 -14 -16 -10 -9 3 -20 6 -25 6 -6 0 -7 5 -4 10 10
16 45 12 45 -6z m-280 -65 c12 -40 29 -84 38 -98 29 -48 85 -101 119 -112 l34
-11 -39 -27 c-51 -37 -116 -113 -141 -164 l-21 -42 0 40 c0 22 -5 59 -10 83
-8 33 -7 55 5 94 19 64 19 125 0 203 -14 58 -19 105 -11 105 2 0 14 -32 26
-71z m-395 50 c7 -10 -21 -38 -37 -39 -10 0 -10 34 -1 43 10 10 31 8 38 -4z
m235 1 c0 -5 -4 -10 -9 -10 -6 0 -13 5 -16 10 -3 6 1 10 9 10 9 0 16 -4 16
-10z m96 -75 c-20 -96 -20 -141 -1 -214 11 -42 12 -67 5 -92 -6 -18 -10 -54
-10 -79 l-1 -45 -23 45 c-31 58 -97 133 -143 161 l-36 22 45 23 c25 13 58 38
73 56 28 33 75 123 75 145 0 6 5 24 10 39 19 49 22 17 6 -61z m169 75 c-3 -5
-10 -10 -16 -10 -5 0 -9 5 -9 10 0 6 7 10 16 10 8 0 12 -4 9 -10z m253 -18 c4
-25 -5 -27 -32 -7 -10 7 -15 19 -11 25 11 18 40 7 43 -18z m-529 -15 c30 -12
56 -28 59 -34 2 -8 -15 -4 -45 9 -65 30 -153 30 -210 0 -48 -25 -83 -65 -83
-96 0 -11 -5 -28 -11 -36 -8 -11 -9 -3 -6 32 12 124 152 184 296 125z m454 9
c39 -16 82 -61 96 -99 14 -36 14 -77 1 -77 -5 0 -10 13 -10 29 0 76 -105 146
-206 137 -28 -2 -70 -14 -93 -25 -22 -12 -41 -17 -41 -11 0 10 49 38 90 51 41
12 129 10 163 -5z m-733 -35 c0 -3 -6 -14 -14 -23 -10 -13 -15 -15 -24 -6 -16
16 -15 35 1 41 14 5 37 -2 37 -12z m860 -26 c-11 -14 -14 -13 -28 6 -12 18
-13 23 -1 30 9 5 19 3 28 -6 12 -12 12 -17 1 -30z m-2013 -42 c11 -43 24 -86
28 -97 8 -17 6 -17 -22 -2 -77 39 -163 23 -192 -38 -29 -61 24 -142 109 -167
l39 -12 -76 -43 c-41 -24 -80 -41 -84 -38 -19 12 -40 66 -45 123 -12 115 46
243 145 318 65 50 74 46 98 -44z m1442 49 c19 -10 36 -23 38 -29 5 -15 -58
-94 -96 -120 -41 -28 -67 -28 -146 -5 -56 17 -60 20 -63 51 -10 102 149 164
267 103z m442 3 c65 -34 95 -126 47 -144 -56 -21 -127 -33 -152 -27 -44 11
-136 105 -136 140 0 10 51 39 83 47 41 10 122 2 158 -16z m1315 9 c50 -24 120
-107 143 -170 31 -81 36 -151 17 -216 -23 -80 -35 -87 -93 -50 -27 17 -61 36
-78 42 l-30 12 49 18 c62 24 94 54 106 101 26 96 -70 156 -175 110 -38 -17
-46 -18 -41 -6 7 19 32 110 40 148 7 31 16 33 62 11z m-1621 -124 c0 -79 -9
-106 -25 -80 -11 17 -13 103 -4 149 12 57 29 16 29 -69z m-463 45 c-5 -28 -22
-24 -22 6 0 10 6 19 14 19 9 0 12 -8 8 -25z m918 6 c0 -11 -4 -23 -10 -26 -5
-3 -10 -2 -10 4 0 5 -3 16 -6 25 -4 11 -1 16 10 16 9 0 16 -8 16 -19z m40
-187 c-54 -189 -119 -278 -250 -344 -57 -29 -196 -67 -207 -57 -2 3 31 24 74
47 106 58 196 151 251 257 62 119 59 123 -50 67 -120 -62 -216 -155 -276 -269
l-43 -80 7 54 c20 164 116 305 257 374 77 37 261 87 265 71 2 -7 -11 -61 -28
-120z m-1515 118 c-6 -5 -31 -16 -57 -26 -52 -19 -125 -90 -156 -152 -10 -21
-36 -90 -57 -152 -29 -86 -48 -124 -78 -158 l-39 -44 40 -43 c31 -35 47 -67
77 -158 21 -63 46 -131 57 -152 39 -77 114 -142 203 -173 18 -7 19 -7 2 -11
-30 -7 -124 45 -163 90 -45 52 -83 126 -123 239 -39 111 -57 146 -94 180 l-29
28 30 28 c35 33 62 83 92 177 53 164 127 270 215 311 49 23 99 33 80 16z m592
-21 c57 -16 124 -40 149 -53 101 -50 184 -149 222 -264 17 -50 35 -154 27
-154 -1 0 -19 34 -40 77 -52 105 -152 205 -262 261 -119 62 -123 59 -67 -50
62 -120 154 -215 269 -275 l80 -43 -50 6 c-168 21 -312 119 -378 257 -24 51
-77 226 -77 255 0 17 12 16 127 -17z m1496 8 c92 -46 147 -127 217 -314 45
-122 60 -150 97 -181 l25 -22 -38 -39 c-31 -31 -48 -63 -83 -161 -45 -125 -92
-216 -139 -265 -30 -31 -116 -77 -146 -77 -28 0 -9 15 36 29 43 14 118 78 148
126 12 20 44 97 71 172 38 108 56 145 85 175 l37 37 -40 44 c-31 33 -48 66
-73 143 -46 138 -72 194 -111 239 -38 44 -114 95 -140 95 -10 0 -21 5 -24 10
-11 17 34 11 78 -11z m-2666 -14 c32 -14 109 -83 100 -91 -1 -2 -25 8 -52 21
-29 15 -65 25 -92 25 -38 0 -43 -2 -43 -23 0 -13 8 -31 18 -40 24 -22 99 -54
147 -63 36 -6 37 -8 15 -16 -50 -18 -176 11 -212 49 -83 90 1 187 119 138z
m3289 -6 c43 -35 33 -105 -20 -146 -32 -26 -143 -48 -188 -38 -33 8 -33 8 28
25 96 27 144 58 144 91 0 43 -65 42 -153 -3 -38 -19 -38 -19 -27 1 12 23 65
65 100 80 31 13 95 7 116 -10z m-2703 -89 c2 -47 11 -105 20 -129 15 -43 15
-44 -12 -66 -16 -14 -36 -50 -50 -90 -13 -37 -35 -80 -48 -96 l-25 -29 25 -30
c23 -26 67 -126 67 -149 0 -5 13 -20 29 -34 l30 -24 -16 -44 c-9 -24 -18 -83
-21 -131 -4 -83 -6 -88 -27 -88 -23 0 -97 49 -128 84 -29 34 -72 126 -102 216
-34 104 -50 137 -83 173 l-26 27 26 28 c33 35 49 68 83 172 38 119 90 215 135
250 44 35 102 62 111 52 4 -4 9 -45 12 -92z m2118 33 c57 -52 96 -123 129
-233 28 -91 54 -146 87 -182 l26 -27 -36 -41 c-24 -28 -44 -69 -62 -128 -58
-182 -112 -270 -197 -313 -62 -32 -65 -29 -71 69 -3 48 -12 107 -21 131 -16
43 -16 43 8 62 14 11 34 44 46 75 27 74 50 117 68 130 14 10 13 15 -10 42 -14
17 -38 63 -53 101 -15 39 -38 79 -51 90 -23 18 -24 20 -8 62 8 24 17 80 20
124 3 44 7 85 9 92 7 21 60 -5 116 -54z m-1697 18 c3 -5 -5 -11 -19 -13 -17
-4 -25 -1 -25 8 0 15 36 19 44 5z m1196 -5 c0 -9 -8 -12 -25 -8 -28 5 -24 22
6 22 10 0 19 -6 19 -14z m-1275 -6 c7 -11 -12 -40 -25 -40 -11 0 -21 30 -14
41 7 12 31 11 39 -1z m1343 -3 c6 -7 7 -19 3 -26 -7 -11 -12 -11 -29 0 -16 10
-18 16 -10 26 13 16 23 16 36 0z m-2227 -33 c28 -14 49 -28 46 -30 -3 -3 -19
2 -36 10 -35 18 -41 19 -41 7 0 -5 14 -14 30 -21 50 -21 44 -30 -7 -13 -52 17
-103 49 -103 64 0 18 61 9 111 -17z m3189 18 c0 -17 -37 -42 -84 -58 -53 -18
-73 -14 -26 6 16 7 30 16 30 21 0 12 -6 11 -41 -7 -17 -8 -33 -13 -36 -11 -4
5 5 11 67 44 28 14 90 18 90 5z m-2190 -7 c0 -2 -19 -9 -42 -16 -112 -30 -160
-178 -98 -300 27 -52 10 -50 -20 3 -16 29 -24 62 -27 112 -4 61 -1 77 19 116
28 51 85 90 136 90 17 0 32 -2 32 -5z m1180 -16 c25 -14 48 -40 65 -71 23 -43
27 -59 23 -111 -4 -60 -41 -157 -59 -157 -4 0 2 21 14 48 30 67 29 154 -4 213
-23 42 -45 58 -119 88 -24 9 -24 10 9 10 18 1 50 -9 71 -20z m-1340 -16 c0 -5
-7 -17 -15 -27 -11 -15 -18 -17 -26 -9 -16 16 -3 43 21 43 11 0 20 -3 20 -7z
m1447 -9 c3 -8 1 -20 -6 -27 -8 -8 -15 -6 -26 9 -20 26 -19 34 5 34 11 0 23
-7 27 -16z m-1255 -59 c23 -79 23 -105 -5 -146 -26 -39 -104 -101 -121 -96
-24 7 -51 82 -50 142 1 100 53 169 123 163 33 -3 36 -6 53 -63z m1143 30 c56
-58 64 -160 21 -242 -9 -18 -20 -33 -25 -33 -14 0 -86 56 -114 89 -32 38 -34
73 -11 152 21 71 20 69 61 69 28 0 43 -8 68 -35z m-915 -21 c30 -18 76 -54
102 -81 46 -48 108 -138 108 -157 0 -6 -30 20 -68 57 -37 37 -71 67 -75 67
-18 0 -2 -24 59 -84 37 -36 62 -66 57 -66 -18 0 -109 63 -156 108 -48 47 -108
136 -122 180 -6 22 -5 23 17 17 12 -4 48 -22 78 -41z m660 41 c0 -22 -70 -137
-108 -178 -45 -48 -154 -127 -176 -127 -6 0 21 31 59 70 38 38 66 73 62 76 -7
7 -28 -8 -104 -80 -24 -22 -43 -35 -43 -29 0 19 85 127 138 175 61 54 172 114
172 93z m-370 -116 c0 -39 -4 -69 -10 -69 -6 0 -10 32 -10 76 0 47 4 73 10 69
6 -3 10 -37 10 -76z m-754 45 c-3 -9 -6 -20 -6 -25 0 -6 -4 -7 -10 -4 -16 10
-12 45 6 45 11 0 14 -5 10 -16z m1510 1 c8 -21 -6 -41 -17 -24 -12 19 -11 39
1 39 6 0 13 -7 16 -15z m-2295 -40 c-116 -30 -157 -54 -265 -154 -75 -70 -120
-101 -131 -89 -4 5 162 149 222 192 67 48 144 75 213 75 l55 0 -94 -24z m3176
-19 c66 -35 280 -212 270 -223 -10 -9 -48 18 -130 93 -106 97 -145 119 -258
150 l-94 25 71 -4 c58 -3 83 -11 141 -41z m-2967 13 c0 -23 -43 -80 -70 -94
-39 -20 -54 -19 -41 2 5 10 20 18 32 18 14 0 25 7 27 18 5 26 -34 21 -64 -8
-53 -53 2 -87 65 -41 42 32 49 27 24 -16 -23 -40 -78 -58 -118 -40 -19 9 -25
19 -25 45 0 59 71 113 163 126 4 1 7 -4 7 -10z m2728 -16 c41 -20 82 -68 82
-98 0 -80 -131 -69 -155 14 l-7 23 38 -26 c61 -42 112 -29 85 22 -11 20 -68
49 -78 39 -13 -13 8 -39 27 -34 13 3 24 -1 30 -14 14 -25 -10 -26 -46 -2 -30
19 -75 83 -68 95 6 10 46 1 92 -19z m-2918 3 c0 -2 -19 -15 -42 -29 -59 -34
-130 -108 -162 -167 l-27 -49 22 -42 c28 -55 112 -144 167 -176 24 -14 41 -27
39 -29 -6 -6 -82 18 -129 42 -26 13 -85 60 -131 103 -46 43 -94 82 -105 85
-27 9 -28 23 -2 31 11 4 59 42 106 86 87 80 135 112 209 135 44 14 55 16 55
10z m3135 -35 c37 -17 90 -56 140 -102 44 -41 93 -83 109 -93 l29 -19 -29 -15
c-16 -8 -58 -43 -94 -77 -36 -35 -88 -77 -115 -94 -46 -29 -143 -66 -152 -57
-2 2 19 18 46 35 59 38 118 100 155 163 l27 47 -22 42 c-29 58 -113 145 -174
181 -49 29 -49 29 -15 23 19 -4 62 -19 95 -34z m-3114 -7 c-27 -35 -27 -88 0
-115 17 -17 30 -20 66 -16 52 6 53 -7 2 -41 -19 -13 -34 -27 -34 -32 0 -5 15
-19 34 -32 50 -34 48 -43 -10 -43 -39 0 -54 -5 -65 -19 -20 -28 -17 -79 7
-110 26 -33 8 -34 -41 -3 -74 46 -103 74 -147 140 l-45 67 28 47 c15 26 47 66
72 91 43 42 142 106 150 97 2 -2 -5 -16 -17 -31z m2259 10 c0 -8 -4 -14 -10
-14 -5 0 -10 9 -10 21 0 11 5 17 10 14 6 -3 10 -13 10 -21z m848 -75 c26 -25
58 -66 72 -92 24 -45 24 -47 7 -82 -9 -20 -38 -58 -63 -85 -73 -78 -196 -149
-145 -84 27 35 27 88 0 115 -16 16 -30 20 -65 17 -51 -4 -52 7 -3 40 19 13 34
27 34 32 0 5 -15 19 -34 32 -49 33 -51 47 -4 41 77 -10 121 66 73 127 -11 14
-20 29 -20 33 0 16 103 -49 148 -94z m-2368 70 c0 -11 -4 -17 -10 -14 -5 3
-10 13 -10 21 0 8 5 14 10 14 6 0 10 -9 10 -21z m366 -76 c29 -28 74 -63 101
-77 l48 -25 -45 -1 c-25 0 -61 -4 -79 -10 -25 -7 -50 -6 -92 5 -70 19 -125 18
-209 0 -36 -8 -72 -14 -79 -15 -26 0 2 16 49 29 101 29 190 96 211 159 l12 36
15 -24 c9 -14 39 -48 68 -77z m907 -1 c36 -38 100 -74 167 -93 97 -27 68 -39
-35 -14 -72 18 -150 19 -194 4 -21 -7 -65 -9 -127 -4 l-95 7 58 35 c68 40 102
71 140 126 l28 40 13 -34 c8 -19 28 -49 45 -67z m-1493 46 c-11 -19 -24 -58
-30 -88 -6 -29 -17 -62 -26 -71 -15 -17 -15 -20 4 -43 11 -14 23 -47 27 -73 3
-27 15 -63 26 -81 23 -40 23 -43 4 -35 -19 7 -36 39 -64 117 -11 33 -28 67
-37 77 -15 17 -15 20 4 46 10 15 25 46 32 68 18 57 47 112 62 118 20 7 20 2
-2 -35z m1985 -50 c16 -40 35 -85 44 -100 14 -26 14 -30 -2 -58 -10 -16 -27
-55 -38 -87 -19 -56 -43 -93 -61 -93 -5 0 -1 15 10 33 11 17 25 58 31 91 6 33
18 64 27 71 16 11 15 14 -4 41 -11 16 -23 49 -26 74 -4 25 -15 60 -26 78 -25
40 -25 45 -1 32 11 -5 31 -42 46 -82z m-1834 -33 c18 -10 50 -22 72 -29 l40
-11 -72 -23 c-39 -13 -71 -27 -71 -32 0 -4 33 -19 72 -32 l72 -24 -48 -13
c-58 -14 -88 -32 -143 -84 l-41 -39 -16 25 c-9 13 -21 50 -26 82 -5 31 -15 63
-21 71 -9 11 -9 17 0 28 6 8 16 40 21 71 5 32 17 69 25 82 l16 24 44 -39 c23
-22 57 -48 76 -57z m1785 49 c8 -18 14 -46 14 -61 0 -15 6 -40 14 -54 9 -17
10 -32 4 -43 -5 -9 -13 -41 -18 -72 -5 -31 -17 -68 -26 -81 l-16 -25 -41 40
c-49 47 -105 78 -161 88 l-39 7 64 19 c104 32 106 43 15 70 l-78 23 46 11 c56
15 122 52 160 93 33 34 42 32 62 -15z m-1696 -15 c0 -5 -4 -9 -10 -9 -5 0 -10
7 -10 16 0 8 5 12 10 9 6 -3 10 -10 10 -16z m1476 -6 c-10 -10 -19 5 -10 18 6
11 8 11 12 0 2 -7 1 -15 -2 -18z m-1216 -113 c8 -5 11 -12 7 -17 -14 -13 -131
-15 -162 -2 l-30 12 25 7 c36 11 142 11 160 0z m1106 -3 c15 -14 -9 -22 -79
-25 -77 -3 -115 9 -87 28 16 12 154 9 166 -3z m-821 -7 c-3 -5 -37 -10 -76
-10 -39 0 -69 4 -69 10 0 6 32 10 76 10 47 0 73 -4 69 -10z m510 0 c-3 -5 -33
-10 -66 -10 -33 0 -59 4 -59 10 0 6 29 10 66 10 41 0 63 -4 59 -10z m-973 -26
c69 -16 124 -15 213 3 23 5 71 4 112 -2 l72 -10 -41 -24 c-53 -30 -122 -94
-149 -138 l-22 -35 -19 38 c-36 74 -104 125 -208 155 -50 14 -74 29 -46 29 9
0 49 -7 88 -16z m598 12 c0 -3 -33 -22 -72 -42 -105 -55 -211 -164 -262 -271
-22 -46 -36 -86 -32 -90 4 -4 46 12 94 37 115 59 211 154 266 262 22 43 41 77
42 75 13 -12 -23 -145 -56 -214 -67 -136 -164 -206 -353 -257 -55 -14 -105
-26 -112 -26 -19 0 49 234 88 299 64 107 198 200 318 220 69 11 79 12 79 7z
m245 -28 c118 -39 209 -118 266 -229 30 -61 86 -255 76 -265 -11 -11 -208 48
-278 83 -84 42 -150 112 -194 206 -33 69 -63 183 -51 195 7 6 3 13 46 -73 50
-101 150 -199 262 -256 48 -24 90 -40 95 -36 4 5 -12 47 -37 95 -57 114 -152
211 -265 270 l-80 43 50 -6 c28 -4 77 -16 110 -27z m259 17 c61 -19 123 -19
201 0 120 29 126 13 9 -23 -84 -26 -157 -84 -183 -146 l-17 -39 -23 36 c-28
46 -103 112 -161 143 l-45 23 45 2 c25 1 59 5 75 9 44 11 46 11 99 -5z m-2341
-7 c12 -6 60 -46 106 -90 94 -88 155 -120 274 -149 l82 -19 -75 4 c-113 5
-192 49 -363 204 -64 59 -72 76 -24 50z m3769 -31 c-181 -167 -268 -218 -377
-223 l-70 -3 78 19 c114 29 178 65 270 150 45 42 91 82 102 88 43 25 42 10 -3
-31z m-2565 -54 c-58 -128 7 -293 116 -293 15 0 27 -4 27 -10 0 -17 -51 -11
-94 10 -23 11 -52 36 -66 57 -34 50 -36 165 -3 236 12 26 26 47 32 47 5 0 0
-21 -12 -47z m575 30 c-45 -40 -115 -124 -108 -130 3 -4 28 13 54 38 26 25 58
54 71 64 l24 20 -23 -45 c-32 -63 -153 -179 -223 -214 -32 -15 -61 -26 -64
-22 -12 11 50 118 100 173 29 31 79 74 111 95 62 40 92 51 58 21z m251 -4 c61
-31 177 -153 211 -222 16 -32 26 -60 23 -64 -4 -3 -32 7 -64 23 -69 34 -197
158 -232 224 l-24 45 44 -40 c97 -89 109 -98 116 -91 4 3 -24 38 -62 76 -38
39 -66 70 -62 70 4 0 27 -10 50 -21z m558 -26 c55 -113 25 -249 -63 -292 -46
-22 -104 -29 -93 -11 3 6 16 10 28 10 40 0 87 38 110 88 27 61 27 141 -1 205
-27 61 -11 61 19 0z m-1279 4 c52 -40 88 -91 88 -126 0 -14 -8 -53 -18 -86
-17 -57 -20 -60 -53 -63 -83 -7 -145 105 -121 216 11 45 37 92 51 92 5 0 29
-15 53 -33z m1234 1 c44 -83 35 -185 -21 -244 -29 -30 -39 -35 -71 -32 -37 3
-39 5 -56 58 -28 90 -24 123 20 172 34 38 87 78 104 78 4 0 15 -15 24 -32z
m-2035 12 c17 -9 49 -59 49 -75 0 -4 -13 3 -29 14 -46 33 -78 42 -91 26 -18
-22 -2 -54 36 -72 37 -18 50 -13 40 13 -4 10 -13 14 -26 11 -13 -3 -24 1 -30
14 -12 22 -3 24 34 8 27 -13 80 -82 75 -97 -8 -19 -100 15 -135 49 -36 35 -46
83 -22 107 15 15 72 16 99 2z m2853 -6 c38 -38 7 -99 -71 -138 -31 -15 -83
-22 -83 -11 0 34 71 105 104 105 14 0 15 -4 6 -20 -8 -15 -17 -19 -31 -15 -12
4 -21 1 -25 -10 -10 -24 2 -29 34 -16 38 16 60 54 43 75 -15 17 -45 9 -93 -26
l-30 -21 7 24 c17 58 102 91 139 53z m-2204 -23 c0 -6 -4 -13 -10 -16 -5 -3
-10 1 -10 9 0 9 5 16 10 16 6 0 10 -4 10 -9z m1480 -7 c0 -8 -4 -12 -10 -9 -5
3 -10 10 -10 16 0 5 5 9 10 9 6 0 10 -7 10 -16z m-1518 -16 c3 -7 -3 -25 -11
-40 -12 -21 -13 -32 -5 -45 7 -12 8 -25 0 -45 -8 -21 -7 -31 7 -45 9 -11 14
-27 11 -39 -3 -12 1 -28 10 -37 14 -14 13 -20 -19 -67 -59 -88 -82 -215 -55
-311 8 -30 17 -38 49 -47 91 -28 237 -1 317 57 36 25 42 27 60 14 10 -8 28
-12 39 -9 10 3 28 -2 38 -11 15 -14 23 -15 47 -6 18 7 32 7 36 2 8 -14 35 -11
54 6 17 16 50 11 50 -7 0 -5 -24 -33 -53 -62 -85 -86 -121 -93 -447 -86 -107
2 -139 -2 -220 -23 -52 -14 -104 -29 -114 -33 -16 -6 -18 -4 -12 12 4 10 19
62 33 114 22 82 25 112 22 220 -7 321 0 359 85 447 53 53 71 63 78 41z m1612
-41 c75 -74 91 -127 86 -277 -6 -218 -2 -290 24 -390 13 -52 28 -104 32 -114
6 -16 4 -18 -12 -12 -10 4 -62 19 -114 32 -100 26 -167 30 -385 24 -94 -3
-131 0 -172 14 -51 17 -134 80 -154 118 -17 32 4 44 40 22 24 -14 36 -16 48
-8 12 7 26 8 45 0 22 -8 31 -7 47 8 12 11 27 15 39 12 12 -4 26 0 36 9 14 14
19 13 57 -15 82 -59 228 -86 319 -59 34 10 40 17 49 55 25 99 0 231 -59 313
-28 38 -29 43 -15 58 10 9 14 25 11 37 -3 12 2 28 11 39 14 15 15 23 6 47 -7
18 -7 32 -2 36 14 8 11 41 -7 59 -17 16 -13 45 6 45 6 0 35 -24 64 -53z m-834
-68 c0 -39 -4 -69 -10 -69 -6 0 -10 32 -10 76 0 47 4 73 10 69 6 -3 10 -37 10
-76z m-764 34 c-11 -11 -19 6 -11 24 8 17 8 17 12 0 3 -10 2 -21 -1 -24z
m1524 11 c0 -8 -4 -14 -10 -14 -5 0 -10 9 -10 21 0 11 5 17 10 14 6 -3 10 -13
10 -21z m-2477 -20 c21 -14 55 -32 75 -41 l37 -15 -49 -19 c-62 -23 -94 -53
-107 -101 -26 -100 84 -158 194 -102 28 15 30 15 22 -2 -4 -11 -17 -54 -28
-96 -11 -43 -24 -78 -30 -78 -26 0 -82 38 -122 82 -91 101 -121 273 -65 366
11 18 23 32 28 32 4 0 24 -12 45 -26z m3481 4 c8 -12 21 -46 27 -75 24 -107
-25 -248 -113 -328 -42 -38 -93 -63 -104 -52 -2 2 -13 37 -23 78 -11 41 -23
82 -27 93 -7 17 -6 17 27 0 106 -55 216 9 188 109 -12 43 -45 73 -105 96 l-49
19 37 15 c20 9 54 27 75 41 46 31 48 32 67 4z m-1790 -147 c4 -6 0 -37 -9 -70
-19 -72 -19 -126 0 -211 8 -36 14 -72 15 -79 0 -26 -16 2 -29 49 -30 104 -90
184 -160 212 l-35 14 37 23 c47 29 114 104 141 160 l21 43 7 -65 c3 -37 9 -71
12 -76z m135 7 c23 -26 58 -57 78 -69 l36 -23 -39 -17 c-66 -27 -120 -99 -152
-198 -31 -99 -43 -81 -18 29 18 79 20 137 6 174 -13 34 -14 76 -5 165 l8 74
23 -44 c12 -24 41 -65 63 -91z m-864 54 c-11 -11 -27 17 -20 35 6 16 8 16 16
-6 5 -13 7 -26 4 -29z m1515 23 c0 -15 -18 -30 -27 -22 -2 3 -2 15 2 26 7 23
25 19 25 -4z m-2021 -76 c54 -98 112 -152 189 -176 l57 -18 -1 -120 c-1 -66
-7 -132 -13 -147 -9 -25 -15 -28 -61 -28 -86 0 -188 60 -243 142 -85 128 -89
292 -11 395 14 18 28 33 32 33 4 0 27 -37 51 -81z m2585 50 c64 -75 73 -235
20 -343 -32 -65 -115 -148 -176 -176 -52 -24 -140 -27 -158 -5 -7 8 -14 66
-17 148 l-6 134 48 12 c92 23 159 86 217 202 16 32 33 59 38 59 4 0 20 -14 34
-31z m-2820 2 c14 -5 5 -10 -35 -19 -60 -14 -127 -48 -142 -73 -32 -51 46 -66
128 -24 27 13 51 23 53 21 2 -2 -16 -23 -40 -45 -46 -45 -103 -66 -149 -56
-30 7 -69 47 -69 72 0 30 31 79 60 96 49 29 153 44 194 28z m3145 -19 c71 -35
98 -116 51 -154 -53 -43 -125 -31 -192 32 -23 22 -39 42 -37 45 3 2 27 -7 54
-20 54 -28 122 -33 131 -11 15 39 -65 95 -159 112 -28 5 -35 9 -25 16 19 13
137 -1 177 -20z m-3186 -33 c-24 -11 -43 -24 -43 -29 0 -10 32 0 72 21 15 8
19 8 13 0 -20 -34 -165 -80 -165 -53 0 17 41 46 92 63 69 24 84 23 31 -2z
m813 4 c19 -25 17 -33 -5 -33 -23 0 -35 15 -27 35 7 20 16 19 32 -2z m1459 -9
c0 -12 -8 -20 -22 -22 -26 -4 -28 0 -11 28 15 24 33 21 33 -6z m816 4 c40 -13
89 -46 89 -59 0 -18 -61 -9 -111 17 -58 29 -61 42 -6 19 46 -19 49 -5 5 18
-39 19 -25 22 23 5z m-143 -45 c22 -43 54 -138 77 -228 9 -33 22 -137 30 -231
8 -95 18 -179 21 -188 9 -23 -3 -21 -150 25 -142 44 -254 94 -301 133 l-30 25
36 1 c95 1 236 116 280 228 24 60 32 188 16 245 -11 38 -1 34 21 -10z m-2823
-80 c0 -96 3 -114 27 -165 49 -105 155 -195 253 -216 20 -4 36 -11 37 -17 2
-19 -158 -95 -282 -135 -183 -57 -182 -57 -175 -29 3 13 12 101 20 194 8 96
24 202 35 244 18 64 78 231 83 231 1 0 2 -48 2 -107z m745 72 c13 -16 6 -35
-15 -35 -15 0 -24 19 -17 38 6 16 17 15 32 -3z m1352 3 c12 -32 -16 -50 -40
-26 -9 9 -7 14 6 24 22 17 29 17 34 2z m-2171 -97 c-38 -114 -57 -215 -75
-401 l-13 -145 -1 160 c-1 171 12 275 46 360 23 59 63 128 69 121 2 -2 -9 -45
-26 -95z m2960 57 c64 -108 89 -233 89 -451 0 -83 -2 -148 -5 -145 -3 2 -11
85 -20 184 -14 178 -35 278 -85 405 -24 60 -14 64 21 7z m-2141 -13 c16 3 31
2 35 -4 8 -15 48 -14 63 1 17 17 16 -2 -4 -52 -9 -23 -14 -43 -11 -47 4 -3 24
2 47 11 52 21 51 21 44 -14 -4 -17 -1 -36 6 -44 6 -8 9 -24 6 -34 -8 -25 3
-52 21 -52 24 0 9 -23 -33 -52 -74 -50 -216 -74 -292 -47 -27 9 -32 17 -38 56
-15 104 16 232 73 296 16 16 17 16 36 -3 14 -16 26 -20 47 -15z m84 14 c-8
-14 -44 -10 -44 5 0 9 8 12 25 8 14 -2 22 -8 19 -13z m1196 6 c0 -16 -35 -21
-45 -6 -4 8 9 15 38 20 4 0 7 -6 7 -14z m139 -25 c59 -81 82 -273 38 -317 -46
-47 -253 -17 -327 46 l-35 30 23 16 c18 13 22 23 17 45 -3 16 -2 31 4 35 15 8
14 48 -1 63 -17 17 2 16 52 -4 23 -9 43 -14 47 -11 3 4 -2 24 -11 47 -21 52
-21 51 14 44 17 -4 36 -1 44 5 8 7 25 9 39 6 20 -5 29 -2 39 14 18 29 24 27
57 -19z m-739 -61 c0 -32 -5 -70 -11 -86 l-12 -28 -7 25 c-10 32 -12 127 -3
159 6 23 7 23 20 6 7 -11 13 -44 13 -76z m-199 28 c33 -22 99 -100 99 -118 0
-5 -19 -18 -42 -30 -116 -60 -274 0 -266 100 3 33 6 36 58 53 75 23 111 22
151 -5z m509 5 c58 -19 69 -35 56 -88 -9 -33 -69 -75 -122 -85 -53 -10 -128 4
-163 30 -22 17 -22 19 -8 47 9 17 36 49 61 72 52 48 84 53 176 24z m-742 -59
c9 -109 173 -174 291 -116 48 24 67 23 35 -2 -53 -40 -159 -56 -225 -34 -65
22 -119 90 -119 149 0 37 15 40 18 3z m842 3 c0 -91 -88 -166 -192 -166 -56 1
-159 36 -166 57 -2 8 15 4 45 -9 126 -57 293 8 293 115 0 15 5 27 10 27 6 0
10 -11 10 -24z m-880 -31 c0 -14 -4 -25 -10 -25 -11 0 -14 33 -3 43 11 11 13
8 13 -18z m920 -6 c0 -11 -7 -19 -16 -19 -11 0 -14 5 -10 16 3 9 6 20 6 25 0
6 5 7 10 4 6 -3 10 -15 10 -26z m-890 -89 c-30 -18 -53 13 -28 38 9 9 15 7 26
-9 12 -17 12 -23 2 -29z m880 15 c0 -16 -23 -25 -39 -15 -10 6 -10 12 0 28 10
16 16 18 26 10 7 -6 13 -16 13 -23z m-826 -40 c15 -11 17 -18 9 -26 -16 -16
-43 -3 -43 21 0 24 8 25 34 5z m366 -120 c9 0 22 27 36 70 l22 70 7 -40 c11
-58 41 -114 87 -162 l40 -41 -25 -16 c-13 -9 -50 -21 -82 -26 -31 -5 -63 -15
-71 -21 -11 -9 -17 -9 -28 0 -8 6 -40 16 -71 21 -32 5 -69 17 -82 25 l-24 16
40 44 c46 50 76 106 87 159 l7 39 21 -69 c14 -43 27 -69 36 -69z m400 115 c0
-24 -27 -37 -43 -21 -8 8 -6 15 9 26 26 20 34 19 34 -5z m-520 -20 c0 -5 -7
-10 -16 -10 -8 0 -12 5 -9 10 3 6 10 10 16 10 5 0 9 -4 9 -10z m265 0 c3 -5
-1 -10 -9 -10 -9 0 -16 5 -16 10 0 6 4 10 9 10 6 0 13 -4 16 -10z m-426 -9 c9
-6 10 -10 2 -16 -15 -8 -41 1 -41 15 0 12 20 13 39 1z m601 0 c0 -15 -19 -23
-38 -16 -14 5 -14 7 -2 15 19 12 40 13 40 1z m-520 -11 c0 -5 -6 -10 -14 -10
-8 0 -18 5 -21 10 -3 6 3 10 14 10 12 0 21 -4 21 -10z m435 0 c-3 -5 -12 -10
-20 -10 -8 0 -17 5 -20 10 -4 6 5 10 20 10 15 0 24 -4 20 -10z m-1336 -186
c-33 -36 -171 -100 -269 -125 -129 -33 -114 -16 26 29 72 24 159 60 195 81 78
47 79 48 48 15z m2281 -34 c25 -13 96 -40 158 -60 62 -21 115 -40 118 -43 3
-3 -26 1 -63 8 -113 22 -255 86 -298 136 l-20 23 30 -21 c17 -11 50 -31 75
-43z m-1358 10 c18 -11 53 -22 78 -26 25 -3 58 -15 74 -26 27 -19 30 -20 41
-4 7 9 38 21 71 27 33 6 73 19 90 30 43 26 52 24 24 -6 -12 -13 -39 -30 -59
-36 -20 -6 -60 -23 -90 -37 -49 -23 -56 -24 -80 -10 -14 8 -59 27 -99 43 -40
15 -77 35 -82 46 -13 24 -8 24 32 -1z m-41 -14 c11 -14 44 -34 75 -46 74 -27
117 -50 130 -68 10 -14 15 -13 42 10 17 14 63 38 101 53 39 15 79 38 90 51 18
24 19 24 62 8 24 -9 83 -18 132 -21 92 -6 96 -9 77 -57 -30 -79 -148 -159
-295 -201 -76 -22 -132 -50 -167 -83 l-28 -26 -27 26 c-36 33 -92 61 -168 83
-112 32 -197 78 -247 133 -50 57 -76 110 -55 117 7 2 48 6 92 8 44 3 98 12
120 21 22 8 42 15 44 15 2 1 12 -10 22 -23z m-328 -79 c25 -75 97 -150 190
-196 37 -19 67 -38 67 -42 0 -16 -70 -61 -116 -75 -89 -27 -214 -10 -291 39
-52 33 -121 110 -144 160 -21 48 -26 142 -6 154 22 14 91 21 186 19 l94 -1 20
-58z m41 1 c19 -52 90 -124 152 -156 21 -11 76 -31 121 -46 123 -38 154 -53
195 -93 l37 -36 44 40 c34 31 66 48 143 73 152 50 216 84 268 140 24 28 50 67
57 88 14 45 29 64 29 36 0 -37 -48 -120 -89 -156 -53 -46 -135 -88 -236 -123
-110 -38 -169 -69 -194 -102 l-21 -28 -21 28 c-26 34 -72 58 -187 99 -114 40
-187 77 -241 124 -43 37 -91 120 -91 159 0 27 14 8 34 -47z m1344 43 c18 -10
22 -21 22 -61 0 -66 -30 -130 -90 -194 -92 -97 -237 -139 -361 -103 -53 16
-134 74 -114 83 6 2 46 25 90 52 92 55 137 108 161 189 l16 56 127 -5 c70 -3
137 -11 149 -17z m-1776 -88 c-36 -52 -72 -133 -108 -243 -36 -112 -48 -136
-38 -77 18 104 76 250 127 319 27 36 45 37 19 1z m58 0 c0 -86 110 -222 218
-270 66 -29 177 -41 235 -25 43 12 49 1 10 -18 -125 -58 -257 -88 -459 -105
-94 -8 -178 -17 -187 -21 -25 -9 -22 8 24 152 46 143 73 210 113 272 30 49 46
54 46 15z m1800 -8 c45 -72 81 -158 120 -285 22 -72 40 -136 40 -141 0 -6 -8
-8 -17 -5 -10 3 -94 12 -188 21 -93 8 -204 23 -245 34 -65 17 -228 76 -239 87
-2 2 32 1 75 -3 60 -4 94 -1 139 11 139 40 252 155 271 275 4 23 10 41 14 41
5 0 18 -16 30 -35z m81 -67 c35 -69 74 -186 83 -248 4 -24 5 -42 3 -40 -3 3
-23 61 -46 130 -23 69 -58 154 -78 190 -28 52 -31 61 -13 45 12 -11 35 -46 51
-77z m-2206 -8 c-33 -35 -14 -42 22 -8 29 27 29 14 0 -37 -24 -43 -106 -105
-139 -105 -18 0 -20 4 -14 32 8 43 53 97 102 125 54 31 63 29 29 -7z m2440 7
c64 -36 134 -157 91 -157 -46 0 -118 55 -147 112 -25 50 -24 56 6 28 32 -31
46 -17 15 15 -29 31 -17 32 35 2z m-980 -193 c-9 -48 -73 -114 -111 -114 -40
0 -54 16 -54 61 0 42 30 83 69 94 l24 7 -25 -33 c-35 -47 -42 -73 -23 -89 22
-18 60 3 76 42 13 32 8 44 -17 34 -10 -4 -14 -13 -11 -26 3 -13 -1 -24 -13
-30 -53 -29 -8 58 49 95 41 26 48 18 36 -41z m-470 36 c36 -22 65 -60 65 -85
0 -13 -4 -14 -20 -5 -12 6 -19 19 -17 32 1 14 -4 23 -15 26 -27 5 -22 -30 7
-62 53 -58 86 -4 40 66 l-26 40 23 -7 c55 -16 84 -86 58 -136 -16 -30 -70 -25
-101 9 -44 48 -52 61 -59 102 -8 46 -2 49 45 20z m183 -81 c13 -19 27 -34 32
-34 5 0 19 15 32 34 30 44 51 53 42 17 -8 -32 1 -70 22 -90 22 -22 76 -20 108
5 33 26 33 16 -3 -46 -33 -58 -114 -137 -165 -162 -33 -15 -38 -15 -76 2 -53
24 -137 108 -173 174 -31 56 -29 62 10 31 30 -23 81 -26 109 -6 14 11 19 26
19 65 0 58 9 60 43 10z m302 -170 c-11 -30 -33 -75 -48 -99 -35 -54 -192 -233
-199 -226 -10 9 22 53 95 131 87 93 134 182 154 288 l13 72 3 -56 c2 -38 -4
-73 -18 -110z m-484 -76 c14 -25 56 -77 93 -117 75 -79 101 -114 101 -134 0
-7 -43 35 -96 95 -119 135 -167 224 -171 322 l-3 66 24 -94 c14 -51 37 -113
52 -138z m-246 189 c-107 -67 -232 -92 -453 -92 -83 0 -148 2 -146 5 3 2 70 9
150 15 169 13 251 28 374 68 114 38 132 39 75 4z m982 -2 c119 -39 218 -56
393 -70 77 -7 142 -14 144 -16 9 -8 -297 -3 -364 6 -92 14 -179 43 -235 80
-25 16 -42 30 -38 30 4 0 49 -14 100 -30z m-841 -98 c-16 -107 -51 -152 -120
-154 -60 -2 -95 64 -72 135 12 36 76 117 92 117 5 0 -1 -21 -14 -47 -32 -63
-39 -106 -23 -128 30 -42 80 12 113 122 24 85 39 57 24 -45z m695 -42 c23 -40
46 -55 68 -47 26 10 20 77 -14 141 l-29 57 28 -20 c38 -27 78 -89 86 -132 8
-44 -15 -95 -50 -111 -29 -13 -89 14 -117 52 -23 31 -43 148 -33 187 7 26 9
24 24 -33 10 -33 26 -76 37 -94z m39 80 c25 -49 33 -110 16 -110 -18 0 -51 52
-66 103 -18 62 -13 72 9 17 9 -22 20 -40 26 -40 10 0 1 31 -21 72 -8 15 -8 19
0 13 6 -3 23 -28 36 -55z m-809 11 c-18 -35 -19 -41 -7 -41 5 0 14 14 21 30
18 42 25 30 10 -17 -15 -45 -47 -93 -62 -93 -17 0 -3 81 22 123 26 44 39 43
16 -2z m177 -23 c34 -58 109 -130 169 -163 l49 -27 47 28 c63 37 138 109 169
162 14 23 27 41 30 39 6 -7 -27 -99 -53 -145 -14 -23 -58 -77 -98 -121 -41
-43 -77 -88 -81 -100 -8 -26 -22 -27 -30 -1 -4 11 -43 59 -87 108 -78 83 -126
163 -142 235 -9 38 -2 34 27 -15z m-305 -27 c-25 -57 -19 -107 16 -148 20 -23
32 -28 66 -27 65 2 98 32 134 124 l14 35 11 -30 c7 -16 26 -51 42 -77 17 -26
28 -52 24 -58 -23 -36 -128 -56 -217 -40 -80 15 -147 51 -203 111 -67 71 -71
117 -10 119 11 1 45 9 75 20 30 10 58 18 62 19 3 1 -3 -21 -14 -48z m1135 17
c42 -12 77 -25 77 -31 0 -26 -38 -82 -82 -122 -86 -77 -218 -111 -320 -81 -80
23 -87 35 -50 93 17 27 36 62 42 78 l12 30 18 -49 c24 -63 54 -94 102 -107
100 -26 158 84 102 194 -15 28 -15 30 2 23 11 -4 54 -17 97 -28z"/>
<path d="M2480 3413 c0 -10 5 -25 10 -33 9 -13 11 -13 20 0 14 21 8 44 -13 48
-11 2 -17 -3 -17 -15z"/>
<path d="M2585 2941 c-3 -5 -1 -12 5 -16 5 -3 10 1 10 9 0 18 -6 21 -15 7z"/>
<path d="M2396 2941 c-4 -5 -2 -12 3 -15 5 -4 12 -2 15 3 4 5 2 12 -3 15 -5 4
-12 2 -15 -3z"/>
<path d="M2209 3114 c-26 -31 25 -70 56 -44 19 16 19 25 -1 44 -20 20 -38 20
-55 0z m46 -13 c7 -12 -12 -24 -25 -16 -11 7 -4 25 10 25 5 0 11 -4 15 -9z"/>
<path d="M2736 3115 c-19 -20 -20 -27 -4 -43 29 -29 82 3 61 36 -14 23 -38 26
-57 7z m39 -14 c7 -12 -12 -24 -25 -16 -11 7 -4 25 10 25 5 0 11 -4 15 -9z"/>
<path d="M1880 2785 c-14 -17 -5 -51 17 -59 33 -13 57 36 31 62 -16 16 -33 15
-48 -3z m35 -35 c-5 -8 -11 -8 -17 -2 -6 6 -7 16 -3 22 5 8 11 8 17 2 6 -6 7
-16 3 -22z"/>
<path d="M3072 2788 c-17 -17 -15 -55 3 -62 36 -13 69 31 45 59 -15 18 -32 19
-48 3z m33 -38 c-5 -8 -11 -8 -17 -2 -6 6 -7 16 -3 22 5 8 11 8 17 2 6 -6 7
-16 3 -22z"/>
<path d="M2056 2601 c-4 -5 -2 -12 3 -15 5 -4 12 -2 15 3 4 5 2 12 -3 15 -5 4
-12 2 -15 -3z"/>
<path d="M2920 2590 c0 -5 4 -10 9 -10 6 0 13 5 16 10 3 6 -1 10 -9 10 -9 0
-16 -4 -16 -10z"/>
<path d="M1575 2510 c-16 -26 24 -41 44 -16 9 11 8 15 -5 20 -22 8 -32 8 -39
-4z"/>
<path d="M3380 2510 c-13 -9 -13 -11 0 -20 20 -14 45 -8 45 10 0 18 -25 24
-45 10z"/>
<path d="M2055 2410 c-3 -5 1 -10 9 -10 9 0 16 5 16 10 0 6 -4 10 -9 10 -6 0
-13 -4 -16 -10z"/>
<path d="M2920 2410 c0 -5 7 -10 16 -10 8 0 12 5 9 10 -3 6 -10 10 -16 10 -5
0 -9 -4 -9 -10z"/>
<path d="M1885 2264 c-19 -19 -16 -43 7 -57 33 -21 65 32 36 61 -16 16 -23 15
-43 -4z m30 -34 c-5 -8 -11 -8 -17 -2 -6 6 -7 16 -3 22 5 8 11 8 17 2 6 -6 7
-16 3 -22z"/>
<path d="M3073 2273 c-25 -10 -9 -73 18 -73 10 0 39 30 39 40 0 11 -29 40 -38
39 -4 0 -13 -3 -19 -6z m32 -43 c-5 -8 -11 -8 -17 -2 -6 6 -7 16 -3 22 5 8 11
8 17 2 6 -6 7 -16 3 -22z"/>
<path d="M2396 2071 c-4 -5 -2 -12 3 -15 5 -4 12 -2 15 3 4 5 2 12 -3 15 -5 4
-12 2 -15 -3z"/>
<path d="M2580 2070 c0 -5 7 -10 16 -10 8 0 12 5 9 10 -3 6 -10 10 -16 10 -5
0 -9 -4 -9 -10z"/>
<path d="M2212 1928 c-16 -16 -15 -33 3 -48 28 -24 72 9 59 45 -7 18 -45 20
-62 3z m43 -17 c7 -12 -12 -24 -25 -16 -11 7 -4 25 10 25 5 0 11 -4 15 -9z"/>
<path d="M2726 1925 c-12 -31 17 -61 48 -49 21 8 28 34 15 50 -15 19 -55 18
-63 -1z m49 -14 c7 -12 -12 -24 -25 -16 -11 7 -4 25 10 25 5 0 11 -4 15 -9z"/>
<path d="M2485 1609 c-9 -26 10 -48 26 -32 12 12 3 53 -11 53 -5 0 -12 -9 -15
-21z"/>
</g>
</svg>
