<svg xmlns="http://www.w3.org/2000/svg" xmlns:xlink="http://www.w3.org/1999/xlink" width="500" zoomAndPan="magnify" viewBox="0 0 375 374.999991" height="500" preserveAspectRatio="xMidYMid meet" version="1.0"><defs><clipPath id="id1"><path d="M 187.5 375 C 184.429688 375 181.363281 374.925781 178.300781 374.773438 C 175.234375 374.625 172.175781 374.398438 169.121094 374.097656 C 166.066406 373.796875 163.023438 373.421875 159.988281 372.96875 C 156.953125 372.519531 153.929688 371.996094 150.921875 371.398438 C 147.910156 370.796875 144.917969 370.125 141.941406 369.378906 C 138.964844 368.636719 136.007812 367.816406 133.070312 366.925781 C 130.136719 366.035156 127.222656 365.074219 124.332031 364.039062 C 121.445312 363.003906 118.582031 361.902344 115.746094 360.726562 C 112.910156 359.554688 110.105469 358.308594 107.332031 356.996094 C 104.558594 355.6875 101.820312 354.308594 99.113281 352.859375 C 96.40625 351.414062 93.738281 349.902344 91.105469 348.324219 C 88.472656 346.746094 85.882812 345.105469 83.332031 343.402344 C 80.777344 341.695312 78.269531 339.929688 75.804688 338.101562 C 73.339844 336.273438 70.921875 334.386719 68.550781 332.4375 C 66.179688 330.492188 63.855469 328.488281 61.582031 326.429688 C 59.308594 324.367188 57.085938 322.253906 54.917969 320.082031 C 52.746094 317.914062 50.632812 315.691406 48.570312 313.417969 C 46.511719 311.144531 44.507812 308.820312 42.558594 306.449219 C 40.613281 304.078125 38.726562 301.660156 36.898438 299.195312 C 35.070312 296.730469 33.304688 294.222656 31.597656 291.667969 C 29.894531 289.117188 28.253906 286.527344 26.675781 283.894531 C 25.097656 281.261719 23.585938 278.59375 22.140625 275.886719 C 20.691406 273.179688 19.3125 270.441406 18.003906 267.667969 C 16.691406 264.890625 15.445312 262.089844 14.273438 259.253906 C 13.097656 256.417969 11.996094 253.554688 10.960938 250.667969 C 9.925781 247.777344 8.964844 244.863281 8.074219 241.929688 C 7.183594 238.992188 6.363281 236.035156 5.621094 233.058594 C 4.875 230.082031 4.203125 227.089844 3.601562 224.078125 C 3.003906 221.070312 2.480469 218.046875 2.03125 215.011719 C 1.578125 211.976562 1.203125 208.933594 0.902344 205.878906 C 0.601562 202.824219 0.375 199.765625 0.226562 196.699219 C 0.0742188 193.636719 0 190.570312 0 187.5 C 0 184.429688 0.0742188 181.363281 0.226562 178.300781 C 0.375 175.234375 0.601562 172.175781 0.902344 169.121094 C 1.203125 166.066406 1.578125 163.023438 2.03125 159.988281 C 2.480469 156.953125 3.003906 153.929688 3.601562 150.921875 C 4.203125 147.910156 4.875 144.917969 5.621094 141.941406 C 6.363281 138.964844 7.183594 136.007812 8.074219 133.070312 C 8.964844 130.136719 9.925781 127.222656 10.960938 124.332031 C 11.996094 121.445312 13.097656 118.582031 14.273438 115.746094 C 15.445312 112.910156 16.691406 110.105469 18.003906 107.332031 C 19.3125 104.558594 20.691406 101.820312 22.140625 99.113281 C 23.585938 96.40625 25.097656 93.738281 26.675781 91.105469 C 28.253906 88.472656 29.894531 85.882812 31.597656 83.332031 C 33.304688 80.777344 35.070312 78.269531 36.898438 75.804688 C 38.726562 73.339844 40.613281 70.921875 42.558594 68.550781 C 44.507812 66.179688 46.511719 63.855469 48.570312 61.582031 C 50.632812 59.308594 52.746094 57.085938 54.917969 54.917969 C 57.085938 52.746094 59.308594 50.632812 61.582031 48.570312 C 63.855469 46.511719 66.179688 44.507812 68.550781 42.558594 C 70.921875 40.613281 73.339844 38.726562 75.804688 36.898438 C 78.269531 35.070312 80.777344 33.304688 83.332031 31.597656 C 85.882812 29.894531 88.472656 28.253906 91.105469 26.675781 C 93.738281 25.097656 96.40625 23.585938 99.113281 22.140625 C 101.820312 20.691406 104.558594 19.3125 107.332031 18.003906 C 110.105469 16.691406 112.910156 15.445312 115.746094 14.273438 C 118.582031 13.097656 121.445312 11.996094 124.332031 10.960938 C 127.222656 9.925781 130.136719 8.964844 133.070312 8.074219 C 136.007812 7.183594 138.964844 6.363281 141.941406 5.621094 C 144.917969 4.875 147.910156 4.203125 150.921875 3.601562 C 153.929688 3.003906 156.953125 2.480469 159.988281 2.03125 C 163.023438 1.578125 166.066406 1.203125 169.121094 0.902344 C 172.175781 0.601562 175.234375 0.375 178.300781 0.226562 C 181.363281 0.0742188 184.429688 0 187.5 0 C 190.570312 0 193.636719 0.0742188 196.699219 0.226562 C 199.765625 0.375 202.824219 0.601562 205.878906 0.902344 C 208.933594 1.203125 211.976562 1.578125 215.011719 2.03125 C 218.046875 2.480469 221.070312 3.003906 224.078125 3.601562 C 227.089844 4.203125 230.082031 4.875 233.058594 5.617188 C 236.035156 6.363281 238.992188 7.183594 241.929688 8.074219 C 244.863281 8.964844 247.777344 9.925781 250.667969 10.960938 C 253.554688 11.996094 256.417969 13.097656 259.253906 14.273438 C 262.089844 15.445312 264.890625 16.691406 267.667969 18.003906 C 270.441406 19.3125 273.179688 20.691406 275.886719 22.140625 C 278.59375 23.585938 281.261719 25.097656 283.894531 26.675781 C 286.527344 28.253906 289.117188 29.894531 291.667969 31.597656 C 294.222656 33.304688 296.730469 35.070312 299.195312 36.898438 C 301.660156 38.726562 304.078125 40.613281 306.449219 42.558594 C 308.820312 44.507812 311.144531 46.511719 313.417969 48.570312 C 315.691406 50.632812 317.914062 52.746094 320.082031 54.917969 C 322.253906 57.085938 324.367188 59.308594 326.429688 61.582031 C 328.488281 63.855469 330.492188 66.179688 332.4375 68.550781 C 334.386719 70.921875 336.273438 73.339844 338.101562 75.804688 C 339.929688 78.269531 341.695312 80.777344 343.402344 83.332031 C 345.105469 85.882812 346.746094 88.472656 348.324219 91.105469 C 349.902344 93.738281 351.414062 96.40625 352.859375 99.113281 C 354.308594 101.820312 355.6875 104.558594 356.996094 107.332031 C 358.308594 110.105469 359.554688 112.910156 360.726562 115.746094 C 361.902344 118.582031 363.003906 121.445312 364.039062 124.332031 C 365.074219 127.222656 366.035156 130.136719 366.925781 133.070312 C 367.816406 136.007812 368.636719 138.964844 369.378906 141.941406 C 370.125 144.917969 370.796875 147.910156 371.398438 150.921875 C 371.996094 153.929688 372.519531 156.953125 372.96875 159.988281 C 373.421875 163.023438 373.796875 166.066406 374.097656 169.121094 C 374.398438 172.175781 374.625 175.234375 374.773438 178.300781 C 374.925781 181.363281 375 184.429688 375 187.5 C 374.996094 190.566406 374.917969 193.632812 374.765625 196.695312 C 374.609375 199.761719 374.382812 202.820312 374.078125 205.871094 C 373.773438 208.925781 373.394531 211.96875 372.941406 215 C 372.488281 218.035156 371.964844 221.054688 371.363281 224.066406 C 370.761719 227.074219 370.085938 230.066406 369.339844 233.039062 C 368.589844 236.015625 367.769531 238.96875 366.878906 241.90625 C 365.984375 244.839844 365.023438 247.75 363.988281 250.636719 C 362.953125 253.527344 361.847656 256.386719 360.671875 259.21875 C 359.496094 262.054688 358.25 264.855469 356.9375 267.628906 C 355.625 270.402344 354.246094 273.140625 352.796875 275.84375 C 351.351562 278.550781 349.835938 281.21875 348.261719 283.847656 C 346.683594 286.480469 345.039062 289.070312 343.335938 291.621094 C 341.628906 294.167969 339.863281 296.675781 338.035156 299.140625 C 336.207031 301.601562 334.320312 304.019531 332.375 306.390625 C 330.429688 308.761719 328.425781 311.085938 326.363281 313.359375 C 324.304688 315.628906 322.191406 317.851562 320.019531 320.019531 C 317.851562 322.191406 315.628906 324.304688 313.359375 326.363281 C 311.085938 328.425781 308.761719 330.429688 306.390625 332.375 C 304.019531 334.320312 301.601562 336.207031 299.140625 338.035156 C 296.675781 339.863281 294.167969 341.628906 291.621094 343.335938 C 289.070312 345.039062 286.480469 346.683594 283.847656 348.261719 C 281.21875 349.835938 278.550781 351.351562 275.84375 352.796875 C 273.140625 354.246094 270.402344 355.625 267.628906 356.9375 C 264.855469 358.25 262.054688 359.496094 259.21875 360.671875 C 256.386719 361.847656 253.527344 362.953125 250.636719 363.988281 C 247.75 365.023438 244.839844 365.984375 241.90625 366.878906 C 238.96875 367.769531 236.015625 368.589844 233.039062 369.339844 C 230.066406 370.085938 227.074219 370.761719 224.066406 371.363281 C 221.054688 371.964844 218.035156 372.488281 215 372.941406 C 211.96875 373.394531 208.925781 373.773438 205.871094 374.078125 C 202.820312 374.382812 199.761719 374.609375 196.695312 374.765625 C 193.632812 374.917969 190.566406 374.996094 187.5 375 Z M 187.5 12.5 C 184.636719 12.5 181.773438 12.570312 178.914062 12.710938 C 176.050781 12.851562 173.195312 13.0625 170.347656 13.34375 C 167.496094 13.625 164.65625 13.972656 161.820312 14.394531 C 158.988281 14.8125 156.167969 15.304688 153.359375 15.863281 C 150.550781 16.421875 147.757812 17.046875 144.976562 17.746094 C 142.199219 18.441406 139.441406 19.203125 136.699219 20.035156 C 133.960938 20.867188 131.242188 21.765625 128.542969 22.730469 C 125.847656 23.695312 123.175781 24.726562 120.53125 25.820312 C 117.882812 26.917969 115.265625 28.078125 112.679688 29.300781 C 110.089844 30.527344 107.53125 31.8125 105.003906 33.164062 C 102.480469 34.515625 99.988281 35.925781 97.53125 37.398438 C 95.074219 38.871094 92.65625 40.402344 90.273438 41.992188 C 87.894531 43.582031 85.554688 45.234375 83.253906 46.9375 C 80.953125 48.644531 78.695312 50.40625 76.480469 52.222656 C 74.265625 54.039062 72.097656 55.910156 69.976562 57.832031 C 67.855469 59.757812 65.78125 61.730469 63.757812 63.757812 C 61.730469 65.78125 59.757812 67.855469 57.832031 69.976562 C 55.910156 72.097656 54.039062 74.265625 52.222656 76.480469 C 50.40625 78.695312 48.644531 80.953125 46.9375 83.253906 C 45.234375 85.554688 43.582031 87.894531 41.992188 90.273438 C 40.402344 92.65625 38.871094 95.074219 37.398438 97.53125 C 35.925781 99.988281 34.515625 102.480469 33.164062 105.003906 C 31.8125 107.53125 30.527344 110.089844 29.300781 112.679688 C 28.078125 115.265625 26.917969 117.882812 25.820312 120.53125 C 24.726562 123.175781 23.695312 125.847656 22.730469 128.542969 C 21.765625 131.242188 20.867188 133.960938 20.035156 136.699219 C 19.203125 139.441406 18.441406 142.199219 17.746094 144.976562 C 17.046875 147.757812 16.421875 150.550781 15.863281 153.359375 C 15.304688 156.167969 14.8125 158.988281 14.394531 161.820312 C 13.972656 164.65625 13.625 167.496094 13.34375 170.347656 C 13.0625 173.195312 12.851562 176.050781 12.710938 178.914062 C 12.570312 181.773438 12.5 184.636719 12.5 187.5 C 12.5 190.363281 12.570312 193.226562 12.710938 196.085938 C 12.851562 198.949219 13.0625 201.804688 13.34375 204.652344 C 13.625 207.503906 13.972656 210.34375 14.394531 213.179688 C 14.8125 216.011719 15.304688 218.832031 15.863281 221.640625 C 16.421875 224.449219 17.046875 227.242188 17.746094 230.023438 C 18.441406 232.800781 19.203125 235.558594 20.035156 238.300781 C 20.867188 241.039062 21.765625 243.757812 22.730469 246.457031 C 23.695312 249.152344 24.726562 251.824219 25.820312 254.46875 C 26.917969 257.117188 28.078125 259.734375 29.300781 262.320312 C 30.527344 264.910156 31.8125 267.46875 33.164062 269.996094 C 34.515625 272.519531 35.925781 275.011719 37.398438 277.46875 C 38.871094 279.925781 40.402344 282.34375 41.992188 284.726562 C 43.582031 287.105469 45.234375 289.445312 46.9375 291.746094 C 48.644531 294.046875 50.40625 296.304688 52.222656 298.519531 C 54.039062 300.734375 55.910156 302.902344 57.832031 305.023438 C 59.757812 307.144531 61.730469 309.21875 63.757812 311.242188 C 65.78125 313.269531 67.855469 315.242188 69.976562 317.167969 C 72.097656 319.089844 74.265625 320.960938 76.480469 322.777344 C 78.695312 324.59375 80.953125 326.355469 83.253906 328.0625 C 85.554688 329.765625 87.894531 331.414062 90.273438 333.007812 C 92.65625 334.597656 95.074219 336.128906 97.53125 337.601562 C 99.988281 339.074219 102.480469 340.484375 105.003906 341.835938 C 107.53125 343.1875 110.089844 344.472656 112.679688 345.699219 C 115.265625 346.921875 117.882812 348.082031 120.53125 349.179688 C 123.175781 350.273438 125.847656 351.304688 128.542969 352.269531 C 131.242188 353.234375 133.960938 354.132812 136.699219 354.964844 C 139.441406 355.796875 142.199219 356.558594 144.976562 357.253906 C 147.757812 357.953125 150.550781 358.578125 153.359375 359.136719 C 156.167969 359.695312 158.988281 360.1875 161.820312 360.605469 C 164.65625 361.027344 167.496094 361.375 170.347656 361.65625 C 173.195312 361.9375 176.050781 362.148438 178.914062 362.289062 C 181.773438 362.429688 184.636719 362.5 187.5 362.5 C 190.363281 362.5 193.226562 362.429688 196.085938 362.289062 C 198.949219 362.148438 201.804688 361.9375 204.652344 361.65625 C 207.503906 361.375 210.34375 361.027344 213.179688 360.605469 C 216.011719 360.1875 218.832031 359.695312 221.640625 359.136719 C 224.449219 358.578125 227.242188 357.953125 230.023438 357.253906 C 232.800781 356.558594 235.558594 355.796875 238.300781 354.964844 C 241.039062 354.132812 243.757812 353.234375 246.457031 352.269531 C 249.152344 351.304688 251.824219 350.273438 254.46875 349.179688 C 257.117188 348.082031 259.734375 346.921875 262.320312 345.699219 C 264.910156 344.472656 267.46875 343.1875 269.996094 341.835938 C 272.519531 340.484375 275.011719 339.074219 277.46875 337.601562 C 279.925781 336.128906 282.34375 334.597656 284.726562 333.007812 C 287.105469 331.414062 289.445312 329.765625 291.746094 328.0625 C 294.046875 326.355469 296.304688 324.59375 298.519531 322.777344 C 300.734375 320.960938 302.902344 319.089844 305.023438 317.167969 C 307.144531 315.242188 309.21875 313.269531 311.242188 311.242188 C 313.269531 309.21875 315.242188 307.144531 317.167969 305.023438 C 319.089844 302.902344 320.960938 300.734375 322.777344 298.519531 C 324.59375 296.304688 326.355469 294.046875 328.0625 291.746094 C 329.765625 289.445312 331.414062 287.105469 333.007812 284.726562 C 334.597656 282.34375 336.128906 279.925781 337.601562 277.46875 C 339.074219 275.011719 340.484375 272.519531 341.835938 269.996094 C 343.1875 267.46875 344.472656 264.910156 345.699219 262.320312 C 346.921875 259.734375 348.082031 257.117188 349.179688 254.46875 C 350.273438 251.824219 351.304688 249.152344 352.269531 246.457031 C 353.234375 243.757812 354.132812 241.039062 354.964844 238.300781 C 355.796875 235.558594 356.558594 232.800781 357.253906 230.023438 C 357.953125 227.242188 358.578125 224.449219 359.136719 221.640625 C 359.695312 218.832031 360.1875 216.011719 360.605469 213.179688 C 361.027344 210.34375 361.375 207.503906 361.65625 204.652344 C 361.9375 201.804688 362.148438 198.949219 362.289062 196.085938 C 362.429688 193.226562 362.5 190.363281 362.5 187.5 C 362.496094 184.636719 362.421875 181.777344 362.28125 178.917969 C 362.136719 176.054688 361.921875 173.203125 361.640625 170.351562 C 361.355469 167.503906 361.003906 164.664062 360.578125 161.832031 C 360.15625 159 359.664062 156.179688 359.105469 153.371094 C 358.542969 150.566406 357.914062 147.773438 357.214844 144.996094 C 356.519531 142.21875 355.753906 139.460938 354.917969 136.722656 C 354.085938 133.984375 353.1875 131.265625 352.21875 128.570312 C 351.253906 125.875 350.222656 123.207031 349.125 120.5625 C 348.027344 117.917969 346.867188 115.300781 345.640625 112.714844 C 344.417969 110.125 343.128906 107.570312 341.777344 105.046875 C 340.425781 102.519531 339.015625 100.03125 337.542969 97.574219 C 336.070312 95.121094 334.539062 92.703125 332.945312 90.324219 C 331.355469 87.941406 329.707031 85.601562 328 83.304688 C 326.292969 81.003906 324.53125 78.746094 322.714844 76.535156 C 320.898438 74.320312 319.027344 72.15625 317.105469 70.035156 C 315.183594 67.914062 313.210938 65.839844 311.183594 63.816406 C 309.160156 61.789062 307.085938 59.816406 304.964844 57.894531 C 302.84375 55.972656 300.679688 54.101562 298.464844 52.285156 C 296.253906 50.46875 293.996094 48.707031 291.695312 47 C 289.398438 45.292969 287.058594 43.644531 284.675781 42.054688 C 282.296875 40.460938 279.878906 38.929688 277.425781 37.457031 C 274.96875 35.984375 272.480469 34.574219 269.953125 33.222656 C 267.429688 31.871094 264.875 30.582031 262.285156 29.359375 C 259.699219 28.132812 257.082031 26.972656 254.4375 25.875 C 251.792969 24.777344 249.125 23.746094 246.429688 22.777344 C 243.734375 21.8125 241.015625 20.914062 238.277344 20.082031 C 235.539062 19.246094 232.78125 18.480469 230.003906 17.785156 C 227.226562 17.085938 224.433594 16.457031 221.628906 15.894531 C 218.820312 15.335938 216 14.84375 213.167969 14.421875 C 210.335938 13.996094 207.496094 13.644531 204.648438 13.359375 C 201.796875 13.078125 198.945312 12.863281 196.082031 12.71875 C 193.222656 12.578125 190.363281 12.503906 187.5 12.5 Z M 187.5 12.5 " clip-rule="nonzero"/></clipPath><linearGradient x1="32" gradientTransform="matrix(6.249999, 0, 0, 6.249999, -12.499994, -12.5)" y1="62.000001" x2="32" gradientUnits="userSpaceOnUse" y2="2" id="id2"><stop stop-opacity="1" stop-color="rgb(0%, 43.153381%, 94.099426%)" offset="0"/><stop stop-opacity="1" stop-color="rgb(0%, 43.353271%, 94.099426%)" offset="0.00390625"/><stop stop-opacity="1" stop-color="rgb(0%, 43.554688%, 94.099426%)" offset="0.0078125"/><stop stop-opacity="1" stop-color="rgb(0%, 43.754578%, 94.099426%)" offset="0.0117188"/><stop stop-opacity="1" stop-color="rgb(0%, 43.955994%, 94.099426%)" offset="0.015625"/><stop stop-opacity="1" stop-color="rgb(0%, 44.155884%, 94.099426%)" offset="0.0195313"/><stop stop-opacity="1" stop-color="rgb(0%, 44.355774%, 94.099426%)" offset="0.0234375"/><stop stop-opacity="1" stop-color="rgb(0%, 44.555664%, 94.099426%)" offset="0.0273438"/><stop stop-opacity="1" stop-color="rgb(0%, 44.75708%, 94.099426%)" offset="0.03125"/><stop stop-opacity="1" stop-color="rgb(0%, 44.95697%, 94.099426%)" offset="0.0351563"/><stop stop-opacity="1" stop-color="rgb(0%, 45.15686%, 94.099426%)" offset="0.0390625"/><stop stop-opacity="1" stop-color="rgb(0%, 45.35675%, 94.099426%)" offset="0.0429688"/><stop stop-opacity="1" stop-color="rgb(0%, 45.558167%, 94.099426%)" offset="0.046875"/><stop stop-opacity="1" stop-color="rgb(0%, 45.758057%, 94.099426%)" offset="0.0507812"/><stop stop-opacity="1" stop-color="rgb(0%, 45.959473%, 94.099426%)" offset="0.0546875"/><stop stop-opacity="1" stop-color="rgb(0%, 46.159363%, 94.099426%)" offset="0.0585938"/><stop stop-opacity="1" stop-color="rgb(0%, 46.359253%, 94.099426%)" offset="0.0625"/><stop stop-opacity="1" stop-color="rgb(0%, 46.559143%, 94.099426%)" offset="0.0664062"/><stop stop-opacity="1" stop-color="rgb(0%, 46.760559%, 94.099426%)" offset="0.0703125"/><stop stop-opacity="1" stop-color="rgb(0%, 46.960449%, 94.099426%)" offset="0.0742188"/><stop stop-opacity="1" stop-color="rgb(0%, 47.160339%, 94.099426%)" offset="0.078125"/><stop stop-opacity="1" stop-color="rgb(0%, 47.360229%, 94.099426%)" offset="0.0820313"/><stop stop-opacity="1" stop-color="rgb(0%, 47.561646%, 94.099426%)" offset="0.0859375"/><stop stop-opacity="1" stop-color="rgb(0%, 47.761536%, 94.099426%)" offset="0.0898438"/><stop stop-opacity="1" stop-color="rgb(0%, 47.962952%, 94.099426%)" offset="0.09375"/><stop stop-opacity="1" stop-color="rgb(0%, 48.162842%, 94.099426%)" offset="0.0976563"/><stop stop-opacity="1" stop-color="rgb(0%, 48.362732%, 94.099426%)" offset="0.101563"/><stop stop-opacity="1" stop-color="rgb(0%, 48.562622%, 94.099426%)" offset="0.105469"/><stop stop-opacity="1" stop-color="rgb(0%, 48.764038%, 94.099426%)" offset="0.109375"/><stop stop-opacity="1" stop-color="rgb(0%, 48.963928%, 94.099426%)" offset="0.113281"/><stop stop-opacity="1" stop-color="rgb(0%, 49.163818%, 94.099426%)" offset="0.117188"/><stop stop-opacity="1" stop-color="rgb(0%, 49.363708%, 94.099426%)" offset="0.121094"/><stop stop-opacity="1" stop-color="rgb(0%, 49.565125%, 94.099426%)" offset="0.125"/><stop stop-opacity="1" stop-color="rgb(0%, 49.765015%, 94.099426%)" offset="0.128906"/><stop stop-opacity="1" stop-color="rgb(0%, 49.966431%, 94.099426%)" offset="0.132812"/><stop stop-opacity="1" stop-color="rgb(0%, 50.166321%, 94.099426%)" offset="0.136719"/><stop stop-opacity="1" stop-color="rgb(0%, 50.366211%, 94.099426%)" offset="0.140625"/><stop stop-opacity="1" stop-color="rgb(0%, 50.566101%, 94.099426%)" offset="0.144531"/><stop stop-opacity="1" stop-color="rgb(0%, 50.767517%, 94.099426%)" offset="0.148438"/><stop stop-opacity="1" stop-color="rgb(0%, 50.967407%, 94.099426%)" offset="0.152344"/><stop stop-opacity="1" stop-color="rgb(0%, 51.167297%, 94.099426%)" offset="0.15625"/><stop stop-opacity="1" stop-color="rgb(0%, 51.367188%, 94.099426%)" offset="0.160156"/><stop stop-opacity="1" stop-color="rgb(0%, 51.568604%, 94.099426%)" offset="0.164063"/><stop stop-opacity="1" stop-color="rgb(0%, 51.768494%, 94.099426%)" offset="0.167969"/><stop stop-opacity="1" stop-color="rgb(0%, 51.96991%, 94.099426%)" offset="0.171875"/><stop stop-opacity="1" stop-color="rgb(0%, 52.1698%, 94.099426%)" offset="0.175781"/><stop stop-opacity="1" stop-color="rgb(0%, 52.36969%, 94.099426%)" offset="0.179688"/><stop stop-opacity="1" stop-color="rgb(0%, 52.56958%, 94.099426%)" offset="0.183594"/><stop stop-opacity="1" stop-color="rgb(0%, 52.770996%, 94.099426%)" offset="0.1875"/><stop stop-opacity="1" stop-color="rgb(0%, 52.970886%, 94.099426%)" offset="0.191406"/><stop stop-opacity="1" stop-color="rgb(0%, 53.170776%, 94.099426%)" offset="0.195313"/><stop stop-opacity="1" stop-color="rgb(0%, 53.370667%, 94.099426%)" offset="0.199219"/><stop stop-opacity="1" stop-color="rgb(0%, 53.572083%, 94.099426%)" offset="0.203125"/><stop stop-opacity="1" stop-color="rgb(0%, 53.771973%, 94.099426%)" offset="0.207031"/><stop stop-opacity="1" stop-color="rgb(0%, 53.973389%, 94.099426%)" offset="0.210938"/><stop stop-opacity="1" stop-color="rgb(0%, 54.173279%, 94.099426%)" offset="0.214844"/><stop stop-opacity="1" stop-color="rgb(0%, 54.373169%, 94.099426%)" offset="0.21875"/><stop stop-opacity="1" stop-color="rgb(0%, 54.573059%, 94.099426%)" offset="0.222656"/><stop stop-opacity="1" stop-color="rgb(0%, 54.774475%, 94.099426%)" offset="0.226562"/><stop stop-opacity="1" stop-color="rgb(0%, 54.974365%, 94.099426%)" offset="0.230469"/><stop stop-opacity="1" stop-color="rgb(0%, 55.174255%, 94.099426%)" offset="0.234375"/><stop stop-opacity="1" stop-color="rgb(0%, 55.374146%, 94.099426%)" offset="0.238281"/><stop stop-opacity="1" stop-color="rgb(0%, 55.575562%, 94.099426%)" offset="0.242188"/><stop stop-opacity="1" stop-color="rgb(0%, 55.775452%, 94.099426%)" offset="0.246094"/><stop stop-opacity="1" stop-color="rgb(0%, 55.976868%, 94.099426%)" offset="0.25"/><stop stop-opacity="1" stop-color="rgb(0%, 56.176758%, 94.099426%)" offset="0.253906"/><stop stop-opacity="1" stop-color="rgb(0%, 56.376648%, 94.099426%)" offset="0.257813"/><stop stop-opacity="1" stop-color="rgb(0%, 56.576538%, 94.099426%)" offset="0.261719"/><stop stop-opacity="1" stop-color="rgb(0%, 56.777954%, 94.099426%)" offset="0.265625"/><stop stop-opacity="1" stop-color="rgb(0%, 56.977844%, 94.099426%)" offset="0.269531"/><stop stop-opacity="1" stop-color="rgb(0%, 57.177734%, 94.099426%)" offset="0.273438"/><stop stop-opacity="1" stop-color="rgb(0%, 57.377625%, 94.099426%)" offset="0.277344"/><stop stop-opacity="1" stop-color="rgb(0%, 57.579041%, 94.099426%)" offset="0.28125"/><stop stop-opacity="1" stop-color="rgb(0%, 57.778931%, 94.099426%)" offset="0.285156"/><stop stop-opacity="1" stop-color="rgb(0%, 57.978821%, 94.099426%)" offset="0.289062"/><stop stop-opacity="1" stop-color="rgb(0%, 58.178711%, 94.099426%)" offset="0.292969"/><stop stop-opacity="1" stop-color="rgb(0%, 58.380127%, 94.099426%)" offset="0.296875"/><stop stop-opacity="1" stop-color="rgb(0%, 58.580017%, 94.099426%)" offset="0.300781"/><stop stop-opacity="1" stop-color="rgb(0%, 58.781433%, 94.099426%)" offset="0.304688"/><stop stop-opacity="1" stop-color="rgb(0%, 58.981323%, 94.099426%)" offset="0.308594"/><stop stop-opacity="1" stop-color="rgb(0%, 59.181213%, 94.099426%)" offset="0.3125"/><stop stop-opacity="1" stop-color="rgb(0%, 59.381104%, 94.099426%)" offset="0.316406"/><stop stop-opacity="1" stop-color="rgb(0%, 59.58252%, 94.099426%)" offset="0.320313"/><stop stop-opacity="1" stop-color="rgb(0%, 59.78241%, 94.099426%)" offset="0.324219"/><stop stop-opacity="1" stop-color="rgb(0%, 59.9823%, 94.099426%)" offset="0.328125"/><stop stop-opacity="1" stop-color="rgb(0%, 60.18219%, 94.099426%)" offset="0.332031"/><stop stop-opacity="1" stop-color="rgb(0%, 60.383606%, 94.099426%)" offset="0.335938"/><stop stop-opacity="1" stop-color="rgb(0%, 60.583496%, 94.099426%)" offset="0.339844"/><stop stop-opacity="1" stop-color="rgb(0%, 60.784912%, 94.099426%)" offset="0.34375"/><stop stop-opacity="1" stop-color="rgb(0%, 60.984802%, 94.099426%)" offset="0.347656"/><stop stop-opacity="1" stop-color="rgb(0%, 61.184692%, 94.099426%)" offset="0.351562"/><stop stop-opacity="1" stop-color="rgb(0%, 61.384583%, 94.099426%)" offset="0.355469"/><stop stop-opacity="1" stop-color="rgb(0%, 61.585999%, 94.099426%)" offset="0.359375"/><stop stop-opacity="1" stop-color="rgb(0%, 61.785889%, 94.099426%)" offset="0.363281"/><stop stop-opacity="1" stop-color="rgb(0%, 61.985779%, 94.099426%)" offset="0.367188"/><stop stop-opacity="1" stop-color="rgb(0%, 62.185669%, 94.099426%)" offset="0.371094"/><stop stop-opacity="1" stop-color="rgb(0%, 62.387085%, 94.099426%)" offset="0.375"/><stop stop-opacity="1" stop-color="rgb(0%, 62.586975%, 94.099426%)" offset="0.378906"/><stop stop-opacity="1" stop-color="rgb(0%, 62.788391%, 94.099426%)" offset="0.382813"/><stop stop-opacity="1" stop-color="rgb(0%, 62.988281%, 94.099426%)" offset="0.386719"/><stop stop-opacity="1" stop-color="rgb(0%, 63.188171%, 94.099426%)" offset="0.390625"/><stop stop-opacity="1" stop-color="rgb(0%, 63.388062%, 94.099426%)" offset="0.394531"/><stop stop-opacity="1" stop-color="rgb(0%, 63.589478%, 94.099426%)" offset="0.398438"/><stop stop-opacity="1" stop-color="rgb(0%, 63.789368%, 94.099426%)" offset="0.402344"/><stop stop-opacity="1" stop-color="rgb(0%, 63.989258%, 94.099426%)" offset="0.40625"/><stop stop-opacity="1" stop-color="rgb(0%, 64.189148%, 94.099426%)" offset="0.410156"/><stop stop-opacity="1" stop-color="rgb(0%, 64.390564%, 94.099426%)" offset="0.414062"/><stop stop-opacity="1" stop-color="rgb(0%, 64.590454%, 94.099426%)" offset="0.417969"/><stop stop-opacity="1" stop-color="rgb(0%, 64.79187%, 94.099426%)" offset="0.421875"/><stop stop-opacity="1" stop-color="rgb(0%, 64.99176%, 94.099426%)" offset="0.425781"/><stop stop-opacity="1" stop-color="rgb(0%, 65.19165%, 94.099426%)" offset="0.429688"/><stop stop-opacity="1" stop-color="rgb(0%, 65.391541%, 94.099426%)" offset="0.433594"/><stop stop-opacity="1" stop-color="rgb(0%, 65.592957%, 94.099426%)" offset="0.4375"/><stop stop-opacity="1" stop-color="rgb(0%, 65.792847%, 94.099426%)" offset="0.441406"/><stop stop-opacity="1" stop-color="rgb(0%, 65.992737%, 94.099426%)" offset="0.445313"/><stop stop-opacity="1" stop-color="rgb(0%, 66.192627%, 94.099426%)" offset="0.449219"/><stop stop-opacity="1" stop-color="rgb(0%, 66.394043%, 94.099426%)" offset="0.453125"/><stop stop-opacity="1" stop-color="rgb(0%, 66.593933%, 94.099426%)" offset="0.457031"/><stop stop-opacity="1" stop-color="rgb(0%, 66.795349%, 94.099426%)" offset="0.460938"/><stop stop-opacity="1" stop-color="rgb(0%, 66.995239%, 94.099426%)" offset="0.464844"/><stop stop-opacity="1" stop-color="rgb(0%, 67.195129%, 94.099426%)" offset="0.46875"/><stop stop-opacity="1" stop-color="rgb(0%, 67.39502%, 94.099426%)" offset="0.472656"/><stop stop-opacity="1" stop-color="rgb(0%, 67.596436%, 94.099426%)" offset="0.476562"/><stop stop-opacity="1" stop-color="rgb(0%, 67.796326%, 94.099426%)" offset="0.480469"/><stop stop-opacity="1" stop-color="rgb(0%, 67.996216%, 94.099426%)" offset="0.484375"/><stop stop-opacity="1" stop-color="rgb(0%, 68.196106%, 94.099426%)" offset="0.488281"/><stop stop-opacity="1" stop-color="rgb(0%, 68.397522%, 94.099426%)" offset="0.492188"/><stop stop-opacity="1" stop-color="rgb(0%, 68.597412%, 94.099426%)" offset="0.496094"/><stop stop-opacity="1" stop-color="rgb(0%, 68.798828%, 94.099426%)" offset="0.5"/><stop stop-opacity="1" stop-color="rgb(0%, 68.998718%, 94.099426%)" offset="0.503906"/><stop stop-opacity="1" stop-color="rgb(0%, 69.198608%, 94.099426%)" offset="0.507812"/><stop stop-opacity="1" stop-color="rgb(0%, 69.398499%, 94.099426%)" offset="0.511719"/><stop stop-opacity="1" stop-color="rgb(0%, 69.599915%, 94.099426%)" offset="0.515625"/><stop stop-opacity="1" stop-color="rgb(0%, 69.799805%, 94.099426%)" offset="0.519531"/><stop stop-opacity="1" stop-color="rgb(0%, 69.999695%, 94.099426%)" offset="0.523438"/><stop stop-opacity="1" stop-color="rgb(0%, 70.199585%, 94.099426%)" offset="0.527344"/><stop stop-opacity="1" stop-color="rgb(0%, 70.401001%, 94.099426%)" offset="0.53125"/><stop stop-opacity="1" stop-color="rgb(0%, 70.600891%, 94.099426%)" offset="0.535156"/><stop stop-opacity="1" stop-color="rgb(0%, 70.802307%, 94.099426%)" offset="0.539063"/><stop stop-opacity="1" stop-color="rgb(0%, 71.002197%, 94.099426%)" offset="0.542969"/><stop stop-opacity="1" stop-color="rgb(0%, 71.202087%, 94.099426%)" offset="0.546875"/><stop stop-opacity="1" stop-color="rgb(0%, 71.401978%, 94.099426%)" offset="0.550781"/><stop stop-opacity="1" stop-color="rgb(0%, 71.603394%, 94.099426%)" offset="0.554688"/><stop stop-opacity="1" stop-color="rgb(0%, 71.803284%, 94.099426%)" offset="0.558594"/><stop stop-opacity="1" stop-color="rgb(0%, 72.003174%, 94.099426%)" offset="0.5625"/><stop stop-opacity="1" stop-color="rgb(0%, 72.203064%, 94.099426%)" offset="0.566406"/><stop stop-opacity="1" stop-color="rgb(0%, 72.40448%, 94.099426%)" offset="0.570312"/><stop stop-opacity="1" stop-color="rgb(0%, 72.60437%, 94.099426%)" offset="0.574219"/><stop stop-opacity="1" stop-color="rgb(0%, 72.805786%, 94.099426%)" offset="0.578125"/><stop stop-opacity="1" stop-color="rgb(0%, 73.005676%, 94.099426%)" offset="0.582031"/><stop stop-opacity="1" stop-color="rgb(0%, 73.205566%, 94.099426%)" offset="0.585937"/><stop stop-opacity="1" stop-color="rgb(0%, 73.405457%, 94.099426%)" offset="0.589844"/><stop stop-opacity="1" stop-color="rgb(0%, 73.606873%, 94.099426%)" offset="0.59375"/><stop stop-opacity="1" stop-color="rgb(0%, 73.806763%, 94.099426%)" offset="0.597656"/><stop stop-opacity="1" stop-color="rgb(0%, 74.006653%, 94.099426%)" offset="0.601562"/><stop stop-opacity="1" stop-color="rgb(0%, 74.206543%, 94.099426%)" offset="0.605469"/><stop stop-opacity="1" stop-color="rgb(0%, 74.407959%, 94.099426%)" offset="0.609375"/><stop stop-opacity="1" stop-color="rgb(0%, 74.607849%, 94.099426%)" offset="0.613281"/><stop stop-opacity="1" stop-color="rgb(0%, 74.809265%, 94.099426%)" offset="0.617188"/><stop stop-opacity="1" stop-color="rgb(0%, 75.009155%, 94.099426%)" offset="0.621094"/><stop stop-opacity="1" stop-color="rgb(0%, 75.209045%, 94.099426%)" offset="0.625"/><stop stop-opacity="1" stop-color="rgb(0%, 75.408936%, 94.099426%)" offset="0.628906"/><stop stop-opacity="1" stop-color="rgb(0%, 75.610352%, 94.099426%)" offset="0.632812"/><stop stop-opacity="1" stop-color="rgb(0%, 75.810242%, 94.099426%)" offset="0.636719"/><stop stop-opacity="1" stop-color="rgb(0%, 76.010132%, 94.099426%)" offset="0.640625"/><stop stop-opacity="1" stop-color="rgb(0%, 76.210022%, 94.099426%)" offset="0.644531"/><stop stop-opacity="1" stop-color="rgb(0%, 76.411438%, 94.099426%)" offset="0.648438"/><stop stop-opacity="1" stop-color="rgb(0%, 76.611328%, 94.099426%)" offset="0.652344"/><stop stop-opacity="1" stop-color="rgb(0%, 76.812744%, 94.099426%)" offset="0.65625"/><stop stop-opacity="1" stop-color="rgb(0%, 77.012634%, 94.099426%)" offset="0.660156"/><stop stop-opacity="1" stop-color="rgb(0%, 77.212524%, 94.099426%)" offset="0.664063"/><stop stop-opacity="1" stop-color="rgb(0%, 77.412415%, 94.099426%)" offset="0.667969"/><stop stop-opacity="1" stop-color="rgb(0%, 77.613831%, 94.099426%)" offset="0.671875"/><stop stop-opacity="1" stop-color="rgb(0%, 77.813721%, 94.099426%)" offset="0.675781"/><stop stop-opacity="1" stop-color="rgb(0%, 78.013611%, 94.099426%)" offset="0.679688"/><stop stop-opacity="1" stop-color="rgb(0%, 78.213501%, 94.099426%)" offset="0.683594"/><stop stop-opacity="1" stop-color="rgb(0%, 78.414917%, 94.099426%)" offset="0.6875"/><stop stop-opacity="1" stop-color="rgb(0%, 78.614807%, 94.099426%)" offset="0.691406"/><stop stop-opacity="1" stop-color="rgb(0%, 78.816223%, 94.099426%)" offset="0.695312"/><stop stop-opacity="1" stop-color="rgb(0%, 79.016113%, 94.099426%)" offset="0.699219"/><stop stop-opacity="1" stop-color="rgb(0%, 79.216003%, 94.099426%)" offset="0.703125"/><stop stop-opacity="1" stop-color="rgb(0%, 79.415894%, 94.099426%)" offset="0.707031"/><stop stop-opacity="1" stop-color="rgb(0%, 79.61731%, 94.099426%)" offset="0.710937"/><stop stop-opacity="1" stop-color="rgb(0%, 79.8172%, 94.099426%)" offset="0.714844"/><stop stop-opacity="1" stop-color="rgb(0%, 80.01709%, 94.099426%)" offset="0.71875"/><stop stop-opacity="1" stop-color="rgb(0%, 80.21698%, 94.099426%)" offset="0.722656"/><stop stop-opacity="1" stop-color="rgb(0%, 80.418396%, 94.099426%)" offset="0.726562"/><stop stop-opacity="1" stop-color="rgb(0%, 80.618286%, 94.099426%)" offset="0.730469"/><stop stop-opacity="1" stop-color="rgb(0%, 80.819702%, 94.099426%)" offset="0.734375"/><stop stop-opacity="1" stop-color="rgb(0%, 81.019592%, 94.099426%)" offset="0.738281"/><stop stop-opacity="1" stop-color="rgb(0%, 81.219482%, 94.099426%)" offset="0.742188"/><stop stop-opacity="1" stop-color="rgb(0%, 81.419373%, 94.099426%)" offset="0.746094"/><stop stop-opacity="1" stop-color="rgb(0%, 81.620789%, 94.099426%)" offset="0.75"/><stop stop-opacity="1" stop-color="rgb(0%, 81.820679%, 94.099426%)" offset="0.753906"/><stop stop-opacity="1" stop-color="rgb(0%, 82.020569%, 94.099426%)" offset="0.757812"/><stop stop-opacity="1" stop-color="rgb(0%, 82.220459%, 94.099426%)" offset="0.761719"/><stop stop-opacity="1" stop-color="rgb(0%, 82.421875%, 94.099426%)" offset="0.765625"/><stop stop-opacity="1" stop-color="rgb(0%, 82.621765%, 94.099426%)" offset="0.769531"/><stop stop-opacity="1" stop-color="rgb(0%, 82.821655%, 94.099426%)" offset="0.773438"/><stop stop-opacity="1" stop-color="rgb(0%, 83.021545%, 94.099426%)" offset="0.777344"/><stop stop-opacity="1" stop-color="rgb(0%, 83.222961%, 94.099426%)" offset="0.78125"/><stop stop-opacity="1" stop-color="rgb(0%, 83.422852%, 94.099426%)" offset="0.785156"/><stop stop-opacity="1" stop-color="rgb(0%, 83.624268%, 94.099426%)" offset="0.789063"/><stop stop-opacity="1" stop-color="rgb(0%, 83.824158%, 94.099426%)" offset="0.792969"/><stop stop-opacity="1" stop-color="rgb(0%, 84.024048%, 94.099426%)" offset="0.796875"/><stop stop-opacity="1" stop-color="rgb(0%, 84.223938%, 94.099426%)" offset="0.800781"/><stop stop-opacity="1" stop-color="rgb(0%, 84.425354%, 94.099426%)" offset="0.804688"/><stop stop-opacity="1" stop-color="rgb(0%, 84.625244%, 94.099426%)" offset="0.808594"/><stop stop-opacity="1" stop-color="rgb(0%, 84.825134%, 94.099426%)" offset="0.8125"/><stop stop-opacity="1" stop-color="rgb(0%, 85.025024%, 94.099426%)" offset="0.816406"/><stop stop-opacity="1" stop-color="rgb(0%, 85.22644%, 94.099426%)" offset="0.820312"/><stop stop-opacity="1" stop-color="rgb(0%, 85.426331%, 94.099426%)" offset="0.824219"/><stop stop-opacity="1" stop-color="rgb(0%, 85.627747%, 94.099426%)" offset="0.828125"/><stop stop-opacity="1" stop-color="rgb(0%, 85.827637%, 94.099426%)" offset="0.832031"/><stop stop-opacity="1" stop-color="rgb(0%, 86.027527%, 94.099426%)" offset="0.835937"/><stop stop-opacity="1" stop-color="rgb(0%, 86.227417%, 94.099426%)" offset="0.839844"/><stop stop-opacity="1" stop-color="rgb(0%, 86.428833%, 94.099426%)" offset="0.84375"/><stop stop-opacity="1" stop-color="rgb(0%, 86.628723%, 94.099426%)" offset="0.847656"/><stop stop-opacity="1" stop-color="rgb(0%, 86.828613%, 94.099426%)" offset="0.851562"/><stop stop-opacity="1" stop-color="rgb(0%, 87.028503%, 94.099426%)" offset="0.855469"/><stop stop-opacity="1" stop-color="rgb(0%, 87.229919%, 94.099426%)" offset="0.859375"/><stop stop-opacity="1" stop-color="rgb(0%, 87.42981%, 94.099426%)" offset="0.863281"/><stop stop-opacity="1" stop-color="rgb(0%, 87.631226%, 94.099426%)" offset="0.867188"/><stop stop-opacity="1" stop-color="rgb(0%, 87.831116%, 94.099426%)" offset="0.871094"/><stop stop-opacity="1" stop-color="rgb(0%, 88.031006%, 94.099426%)" offset="0.875"/><stop stop-opacity="1" stop-color="rgb(0%, 88.230896%, 94.099426%)" offset="0.878906"/><stop stop-opacity="1" stop-color="rgb(0%, 88.432312%, 94.099426%)" offset="0.882812"/><stop stop-opacity="1" stop-color="rgb(0%, 88.632202%, 94.099426%)" offset="0.886719"/><stop stop-opacity="1" stop-color="rgb(0%, 88.832092%, 94.099426%)" offset="0.890625"/><stop stop-opacity="1" stop-color="rgb(0%, 89.031982%, 94.099426%)" offset="0.894531"/><stop stop-opacity="1" stop-color="rgb(0%, 89.233398%, 94.099426%)" offset="0.898437"/><stop stop-opacity="1" stop-color="rgb(0%, 89.433289%, 94.099426%)" offset="0.902344"/><stop stop-opacity="1" stop-color="rgb(0%, 89.634705%, 94.099426%)" offset="0.90625"/><stop stop-opacity="1" stop-color="rgb(0%, 89.834595%, 94.099426%)" offset="0.910156"/><stop stop-opacity="1" stop-color="rgb(0%, 90.034485%, 94.099426%)" offset="0.914062"/><stop stop-opacity="1" stop-color="rgb(0%, 90.234375%, 94.099426%)" offset="0.917969"/><stop stop-opacity="1" stop-color="rgb(0%, 90.435791%, 94.099426%)" offset="0.921875"/><stop stop-opacity="1" stop-color="rgb(0%, 90.516663%, 94.099426%)" offset="0.9375"/><stop stop-opacity="1" stop-color="rgb(0%, 90.59906%, 94.099426%)" offset="1"/></linearGradient><clipPath id="id3"><path d="M 25 25 L 350 25 L 350 350 L 25 350 Z M 25 25 " clip-rule="nonzero"/></clipPath><clipPath id="id4"><path d="M 187.5 350 C 184.839844 350 182.183594 349.933594 179.527344 349.804688 C 176.871094 349.671875 174.21875 349.476562 171.570312 349.21875 C 168.925781 348.957031 166.285156 348.632812 163.65625 348.242188 C 161.027344 347.851562 158.40625 347.394531 155.796875 346.878906 C 153.1875 346.359375 150.59375 345.777344 148.015625 345.128906 C 145.4375 344.484375 142.875 343.773438 140.328125 343.003906 C 137.785156 342.230469 135.257812 341.398438 132.753906 340.5 C 130.25 339.605469 127.769531 338.648438 125.3125 337.628906 C 122.855469 336.613281 120.425781 335.535156 118.023438 334.398438 C 115.617188 333.261719 113.242188 332.066406 110.898438 330.8125 C 108.550781 329.558594 106.238281 328.246094 103.957031 326.878906 C 101.675781 325.511719 99.429688 324.089844 97.21875 322.613281 C 95.007812 321.136719 92.835938 319.605469 90.699219 318.019531 C 88.5625 316.4375 86.46875 314.800781 84.410156 313.113281 C 82.355469 311.425781 80.34375 309.691406 78.371094 307.90625 C 76.402344 306.117188 74.476562 304.285156 72.59375 302.40625 C 70.714844 300.523438 68.882812 298.597656 67.09375 296.628906 C 65.308594 294.65625 63.574219 292.644531 61.886719 290.589844 C 60.199219 288.53125 58.5625 286.4375 56.980469 284.300781 C 55.394531 282.164062 53.863281 279.992188 52.386719 277.78125 C 50.910156 275.570312 49.484375 273.324219 48.117188 271.042969 C 46.75 268.761719 45.441406 266.449219 44.1875 264.101562 C 42.933594 261.757812 41.738281 259.382812 40.601562 256.976562 C 39.464844 254.574219 38.386719 252.144531 37.371094 249.6875 C 36.351562 247.230469 35.394531 244.75 34.5 242.246094 C 33.601562 239.742188 32.769531 237.214844 31.996094 234.671875 C 31.226562 232.125 30.515625 229.5625 29.871094 226.984375 C 29.222656 224.40625 28.640625 221.808594 28.121094 219.203125 C 27.605469 216.59375 27.148438 213.972656 26.757812 211.34375 C 26.367188 208.714844 26.042969 206.074219 25.78125 203.429688 C 25.523438 200.78125 25.328125 198.128906 25.195312 195.472656 C 25.066406 192.816406 25 190.160156 25 187.5 C 25 184.839844 25.066406 182.183594 25.195312 179.527344 C 25.328125 176.871094 25.523438 174.21875 25.78125 171.570312 C 26.042969 168.925781 26.367188 166.285156 26.757812 163.65625 C 27.148438 161.027344 27.605469 158.40625 28.121094 155.796875 C 28.640625 153.1875 29.222656 150.59375 29.871094 148.015625 C 30.515625 145.4375 31.226562 142.875 31.996094 140.328125 C 32.769531 137.785156 33.601562 135.257812 34.5 132.753906 C 35.394531 130.25 36.351562 127.769531 37.371094 125.3125 C 38.386719 122.855469 39.464844 120.425781 40.601562 118.023438 C 41.738281 115.617188 42.933594 113.242188 44.1875 110.898438 C 45.441406 108.550781 46.75 106.238281 48.117188 103.957031 C 49.484375 101.675781 50.910156 99.429688 52.386719 97.21875 C 53.863281 95.007812 55.394531 92.835938 56.980469 90.699219 C 58.5625 88.5625 60.199219 86.46875 61.886719 84.410156 C 63.574219 82.355469 65.308594 80.34375 67.09375 78.371094 C 68.882812 76.402344 70.714844 74.476562 72.59375 72.59375 C 74.476562 70.714844 76.402344 68.882812 78.371094 67.09375 C 80.34375 65.308594 82.355469 63.574219 84.410156 61.886719 C 86.46875 60.199219 88.5625 58.5625 90.699219 56.980469 C 92.835938 55.394531 95.007812 53.863281 97.21875 52.386719 C 99.429688 50.910156 101.675781 49.484375 103.957031 48.117188 C 106.238281 46.75 108.550781 45.441406 110.898438 44.1875 C 113.242188 42.933594 115.617188 41.738281 118.023438 40.601562 C 120.425781 39.464844 122.855469 38.386719 125.3125 37.371094 C 127.769531 36.351562 130.25 35.394531 132.753906 34.5 C 135.257812 33.601562 137.785156 32.769531 140.328125 31.996094 C 142.875 31.226562 145.4375 30.515625 148.015625 29.871094 C 150.59375 29.222656 153.191406 28.640625 155.796875 28.121094 C 158.40625 27.605469 161.027344 27.148438 163.65625 26.757812 C 166.285156 26.367188 168.925781 26.042969 171.570312 25.78125 C 174.21875 25.523438 176.871094 25.328125 179.527344 25.195312 C 182.183594 25.066406 184.839844 25 187.5 25 C 190.160156 25 192.816406 25.066406 195.472656 25.195312 C 198.128906 25.328125 200.78125 25.523438 203.429688 25.78125 C 206.074219 26.042969 208.714844 26.367188 211.34375 26.757812 C 213.972656 27.148438 216.59375 27.605469 219.203125 28.121094 C 221.808594 28.640625 224.40625 29.222656 226.984375 29.871094 C 229.5625 30.515625 232.125 31.226562 234.671875 31.996094 C 237.214844 32.769531 239.742188 33.601562 242.246094 34.5 C 244.75 35.394531 247.230469 36.351562 249.6875 37.371094 C 252.144531 38.386719 254.574219 39.464844 256.976562 40.601562 C 259.382812 41.738281 261.757812 42.933594 264.101562 44.1875 C 266.449219 45.441406 268.761719 46.75 271.042969 48.117188 C 273.324219 49.484375 275.570312 50.910156 277.78125 52.386719 C 279.992188 53.863281 282.164062 55.394531 284.300781 56.980469 C 286.4375 58.5625 288.53125 60.199219 290.589844 61.886719 C 292.644531 63.574219 294.65625 65.308594 296.628906 67.09375 C 298.597656 68.882812 300.523438 70.714844 302.40625 72.59375 C 304.285156 74.476562 306.117188 76.402344 307.90625 78.371094 C 309.691406 80.34375 311.425781 82.355469 313.113281 84.410156 C 314.800781 86.46875 316.4375 88.5625 318.019531 90.699219 C 319.605469 92.835938 321.136719 95.007812 322.613281 97.21875 C 324.089844 99.429688 325.511719 101.675781 326.878906 103.957031 C 328.25 106.238281 329.558594 108.550781 330.8125 110.898438 C 332.066406 113.242188 333.261719 115.617188 334.398438 118.023438 C 335.535156 120.425781 336.613281 122.855469 337.628906 125.3125 C 338.648438 127.769531 339.605469 130.25 340.5 132.753906 C 341.398438 135.257812 342.230469 137.785156 343.003906 140.328125 C 343.773438 142.875 344.484375 145.4375 345.128906 148.015625 C 345.777344 150.59375 346.359375 153.191406 346.878906 155.796875 C 347.394531 158.40625 347.851562 161.027344 348.242188 163.65625 C 348.632812 166.285156 348.957031 168.925781 349.21875 171.570312 C 349.476562 174.21875 349.671875 176.871094 349.804688 179.527344 C 349.933594 182.183594 350 184.839844 350 187.5 C 349.996094 190.160156 349.929688 192.816406 349.796875 195.472656 C 349.664062 198.125 349.464844 200.777344 349.199219 203.421875 C 348.9375 206.066406 348.609375 208.703125 348.21875 211.335938 C 347.824219 213.964844 347.367188 216.582031 346.847656 219.1875 C 346.324219 221.796875 345.742188 224.390625 345.09375 226.96875 C 344.445312 229.546875 343.734375 232.105469 342.960938 234.648438 C 342.1875 237.195312 341.351562 239.71875 340.453125 242.21875 C 339.558594 244.722656 338.597656 247.203125 337.582031 249.65625 C 336.5625 252.113281 335.484375 254.542969 334.34375 256.945312 C 333.207031 259.347656 332.011719 261.722656 330.757812 264.066406 C 329.503906 266.410156 328.191406 268.722656 326.824219 271 C 325.457031 273.28125 324.035156 275.527344 322.554688 277.734375 C 321.078125 279.945312 319.546875 282.117188 317.964844 284.253906 C 316.378906 286.386719 314.742188 288.484375 313.058594 290.539062 C 311.371094 292.59375 309.632812 294.605469 307.847656 296.574219 C 306.0625 298.546875 304.230469 300.46875 302.351562 302.351562 C 300.46875 304.230469 298.546875 306.0625 296.574219 307.847656 C 294.605469 309.632812 292.59375 311.371094 290.539062 313.058594 C 288.484375 314.742188 286.390625 316.378906 284.253906 317.964844 C 282.117188 319.546875 279.945312 321.078125 277.734375 322.554688 C 275.527344 324.035156 273.28125 325.457031 271 326.824219 C 268.722656 328.191406 266.410156 329.503906 264.066406 330.757812 C 261.722656 332.011719 259.347656 333.207031 256.945312 334.34375 C 254.542969 335.484375 252.113281 336.5625 249.65625 337.582031 C 247.203125 338.597656 244.722656 339.558594 242.21875 340.453125 C 239.71875 341.351562 237.195312 342.1875 234.648438 342.960938 C 232.105469 343.734375 229.546875 344.445312 226.96875 345.09375 C 224.390625 345.742188 221.796875 346.324219 219.1875 346.847656 C 216.582031 347.367188 213.964844 347.824219 211.335938 348.21875 C 208.703125 348.609375 206.066406 348.9375 203.421875 349.199219 C 200.777344 349.464844 198.125 349.660156 195.472656 349.796875 C 192.816406 349.929688 190.160156 349.996094 187.5 350 Z M 187.5 37.5 C 185.046875 37.5 182.589844 37.558594 180.140625 37.679688 C 177.6875 37.800781 175.242188 37.980469 172.796875 38.222656 C 170.355469 38.464844 167.917969 38.761719 165.492188 39.125 C 163.0625 39.484375 160.644531 39.902344 158.238281 40.382812 C 155.828125 40.859375 153.433594 41.398438 151.054688 41.996094 C 148.671875 42.589844 146.304688 43.246094 143.957031 43.957031 C 141.609375 44.671875 139.277344 45.441406 136.964844 46.269531 C 134.65625 47.09375 132.367188 47.980469 130.097656 48.917969 C 127.828125 49.859375 125.585938 50.851562 123.367188 51.902344 C 121.148438 52.953125 118.957031 54.054688 116.789062 55.210938 C 114.625 56.367188 112.488281 57.578125 110.382812 58.839844 C 108.277344 60.101562 106.207031 61.414062 104.164062 62.78125 C 102.125 64.144531 100.117188 65.554688 98.144531 67.019531 C 96.171875 68.480469 94.238281 69.992188 92.339844 71.546875 C 90.445312 73.105469 88.585938 74.707031 86.765625 76.355469 C 84.945312 78.007812 83.167969 79.699219 81.433594 81.433594 C 79.699219 83.167969 78.007812 84.945312 76.355469 86.765625 C 74.707031 88.585938 73.105469 90.445312 71.546875 92.339844 C 69.992188 94.238281 68.480469 96.171875 67.019531 98.144531 C 65.554688 100.117188 64.144531 102.125 62.78125 104.164062 C 61.414062 106.207031 60.101562 108.277344 58.839844 110.382812 C 57.578125 112.488281 56.367188 114.625 55.210938 116.789062 C 54.054688 118.957031 52.953125 121.148438 51.902344 123.367188 C 50.851562 125.585938 49.859375 127.828125 48.917969 130.097656 C 47.980469 132.367188 47.09375 134.65625 46.269531 136.964844 C 45.441406 139.277344 44.671875 141.609375 43.957031 143.957031 C 43.246094 146.304688 42.59375 148.671875 41.996094 151.054688 C 41.398438 153.433594 40.859375 155.828125 40.382812 158.238281 C 39.902344 160.644531 39.484375 163.0625 39.125 165.492188 C 38.761719 167.917969 38.464844 170.355469 38.222656 172.796875 C 37.980469 175.242188 37.800781 177.6875 37.679688 180.140625 C 37.558594 182.589844 37.5 185.046875 37.5 187.5 C 37.5 189.953125 37.558594 192.410156 37.679688 194.859375 C 37.800781 197.3125 37.980469 199.757812 38.222656 202.203125 C 38.464844 204.644531 38.761719 207.082031 39.125 209.507812 C 39.484375 211.9375 39.902344 214.355469 40.382812 216.761719 C 40.859375 219.171875 41.398438 221.566406 41.996094 223.945312 C 42.589844 226.328125 43.246094 228.695312 43.957031 231.042969 C 44.671875 233.390625 45.441406 235.722656 46.269531 238.035156 C 47.09375 240.34375 47.980469 242.632812 48.917969 244.902344 C 49.859375 247.171875 50.851562 249.414062 51.902344 251.632812 C 52.953125 253.851562 54.054688 256.042969 55.210938 258.210938 C 56.367188 260.375 57.578125 262.507812 58.839844 264.617188 C 60.101562 266.722656 61.414062 268.792969 62.78125 270.835938 C 64.144531 272.875 65.554688 274.882812 67.019531 276.855469 C 68.480469 278.828125 69.992188 280.761719 71.546875 282.660156 C 73.105469 284.554688 74.707031 286.414062 76.355469 288.234375 C 78.007812 290.050781 79.699219 291.832031 81.433594 293.566406 C 83.167969 295.300781 84.945312 296.992188 86.765625 298.644531 C 88.585938 300.292969 90.445312 301.894531 92.339844 303.453125 C 94.238281 305.007812 96.171875 306.519531 98.144531 307.980469 C 100.117188 309.445312 102.125 310.855469 104.164062 312.21875 C 106.207031 313.585938 108.277344 314.898438 110.382812 316.160156 C 112.488281 317.421875 114.625 318.632812 116.789062 319.789062 C 118.957031 320.945312 121.148438 322.046875 123.367188 323.097656 C 125.585938 324.148438 127.828125 325.140625 130.097656 326.082031 C 132.367188 327.019531 134.65625 327.90625 136.964844 328.730469 C 139.277344 329.558594 141.609375 330.328125 143.957031 331.042969 C 146.304688 331.753906 148.671875 332.40625 151.054688 333.003906 C 153.433594 333.601562 155.828125 334.140625 158.238281 334.617188 C 160.644531 335.097656 163.0625 335.515625 165.492188 335.875 C 167.917969 336.238281 170.355469 336.535156 172.796875 336.777344 C 175.242188 337.019531 177.6875 337.199219 180.140625 337.320312 C 182.589844 337.441406 185.046875 337.5 187.5 337.5 C 189.953125 337.5 192.410156 337.441406 194.859375 337.320312 C 197.3125 337.199219 199.757812 337.019531 202.203125 336.777344 C 204.644531 336.535156 207.082031 336.238281 209.507812 335.875 C 211.9375 335.515625 214.355469 335.097656 216.761719 334.617188 C 219.171875 334.140625 221.566406 333.601562 223.945312 333.003906 C 226.328125 332.40625 228.695312 331.753906 231.042969 331.039062 C 233.390625 330.328125 235.722656 329.558594 238.035156 328.730469 C 240.34375 327.90625 242.632812 327.019531 244.902344 326.082031 C 247.171875 325.140625 249.414062 324.148438 251.632812 323.097656 C 253.851562 322.046875 256.042969 320.945312 258.210938 319.789062 C 260.375 318.632812 262.507812 317.421875 264.617188 316.160156 C 266.722656 314.898438 268.792969 313.585938 270.835938 312.21875 C 272.875 310.855469 274.882812 309.445312 276.855469 307.980469 C 278.828125 306.519531 280.761719 305.007812 282.660156 303.453125 C 284.554688 301.894531 286.414062 300.292969 288.234375 298.644531 C 290.050781 296.992188 291.832031 295.300781 293.566406 293.566406 C 295.300781 291.832031 296.992188 290.050781 298.644531 288.234375 C 300.292969 286.414062 301.894531 284.554688 303.453125 282.660156 C 305.007812 280.761719 306.519531 278.828125 307.980469 276.855469 C 309.445312 274.882812 310.855469 272.875 312.21875 270.835938 C 313.585938 268.792969 314.898438 266.722656 316.160156 264.617188 C 317.421875 262.507812 318.632812 260.375 319.789062 258.210938 C 320.945312 256.042969 322.046875 253.851562 323.097656 251.632812 C 324.148438 249.414062 325.140625 247.171875 326.082031 244.902344 C 327.019531 242.632812 327.90625 240.34375 328.730469 238.035156 C 329.558594 235.722656 330.328125 233.390625 331.042969 231.042969 C 331.753906 228.695312 332.40625 226.328125 333.003906 223.945312 C 333.601562 221.566406 334.140625 219.171875 334.617188 216.761719 C 335.097656 214.355469 335.515625 211.9375 335.875 209.507812 C 336.238281 207.082031 336.535156 204.644531 336.777344 202.203125 C 337.019531 199.757812 337.199219 197.3125 337.320312 194.859375 C 337.441406 192.410156 337.5 189.953125 337.5 187.5 C 337.496094 185.046875 337.433594 182.59375 337.3125 180.140625 C 337.1875 177.691406 337.003906 175.246094 336.761719 172.804688 C 336.519531 170.359375 336.214844 167.925781 335.855469 165.5 C 335.492188 163.070312 335.070312 160.65625 334.589844 158.25 C 334.109375 155.84375 333.570312 153.449219 332.96875 151.070312 C 332.371094 148.6875 331.714844 146.324219 331 143.976562 C 330.289062 141.628906 329.515625 139.300781 328.6875 136.988281 C 327.859375 134.679688 326.976562 132.390625 326.035156 130.125 C 325.09375 127.859375 324.097656 125.617188 323.050781 123.398438 C 322 121.179688 320.894531 118.988281 319.738281 116.824219 C 318.578125 114.660156 317.367188 112.527344 316.105469 110.421875 C 314.84375 108.316406 313.53125 106.246094 312.167969 104.207031 C 310.800781 102.164062 309.390625 100.160156 307.925781 98.1875 C 306.464844 96.21875 304.957031 94.285156 303.398438 92.386719 C 301.839844 90.492188 300.238281 88.632812 298.589844 86.816406 C 296.941406 84.996094 295.25 83.21875 293.515625 81.484375 C 291.78125 79.75 290.003906 78.058594 288.183594 76.410156 C 286.367188 74.761719 284.507812 73.160156 282.613281 71.601562 C 280.714844 70.042969 278.78125 68.535156 276.808594 67.074219 C 274.839844 65.609375 272.835938 64.195312 270.792969 62.832031 C 268.753906 61.46875 266.683594 60.15625 264.578125 58.894531 C 262.472656 57.632812 260.339844 56.421875 258.175781 55.261719 C 256.011719 54.105469 253.820312 53 251.601562 51.949219 C 249.382812 50.902344 247.140625 49.90625 244.875 48.964844 C 242.609375 48.023438 240.320312 47.140625 238.011719 46.3125 C 235.699219 45.484375 233.371094 44.710938 231.023438 44 C 228.675781 43.285156 226.3125 42.628906 223.929688 42.03125 C 221.550781 41.429688 219.15625 40.890625 216.75 40.410156 C 214.34375 39.929688 211.929688 39.507812 209.5 39.144531 C 207.074219 38.785156 204.640625 38.480469 202.195312 38.238281 C 199.753906 37.996094 197.308594 37.8125 194.859375 37.6875 C 192.40625 37.566406 189.953125 37.503906 187.5 37.5 Z M 187.5 37.5 " clip-rule="nonzero"/></clipPath><linearGradient x1="32" gradientTransform="matrix(6.249999, 0, 0, 6.249999, -12.499994, -12.5)" y1="58.000001" x2="32" gradientUnits="userSpaceOnUse" y2="6" id="id5"><stop stop-opacity="1" stop-color="rgb(0%, 46.572876%, 94.099426%)" offset="0"/><stop stop-opacity="1" stop-color="rgb(0%, 46.746826%, 94.099426%)" offset="0.0078125"/><stop stop-opacity="1" stop-color="rgb(0%, 47.093201%, 94.099426%)" offset="0.015625"/><stop stop-opacity="1" stop-color="rgb(0%, 47.441101%, 94.099426%)" offset="0.0234375"/><stop stop-opacity="1" stop-color="rgb(0%, 47.789001%, 94.099426%)" offset="0.03125"/><stop stop-opacity="1" stop-color="rgb(0%, 48.135376%, 94.099426%)" offset="0.0390625"/><stop stop-opacity="1" stop-color="rgb(0%, 48.483276%, 94.099426%)" offset="0.046875"/><stop stop-opacity="1" stop-color="rgb(0%, 48.829651%, 94.099426%)" offset="0.0546875"/><stop stop-opacity="1" stop-color="rgb(0%, 49.177551%, 94.099426%)" offset="0.0625"/><stop stop-opacity="1" stop-color="rgb(0%, 49.523926%, 94.099426%)" offset="0.0703125"/><stop stop-opacity="1" stop-color="rgb(0%, 49.871826%, 94.099426%)" offset="0.078125"/><stop stop-opacity="1" stop-color="rgb(0%, 50.219727%, 94.099426%)" offset="0.0859375"/><stop stop-opacity="1" stop-color="rgb(0%, 50.566101%, 94.099426%)" offset="0.09375"/><stop stop-opacity="1" stop-color="rgb(0%, 50.914001%, 94.099426%)" offset="0.101563"/><stop stop-opacity="1" stop-color="rgb(0%, 51.260376%, 94.099426%)" offset="0.109375"/><stop stop-opacity="1" stop-color="rgb(0%, 51.608276%, 94.099426%)" offset="0.117188"/><stop stop-opacity="1" stop-color="rgb(0%, 51.956177%, 94.099426%)" offset="0.125"/><stop stop-opacity="1" stop-color="rgb(0%, 52.302551%, 94.099426%)" offset="0.132812"/><stop stop-opacity="1" stop-color="rgb(0%, 52.650452%, 94.099426%)" offset="0.140625"/><stop stop-opacity="1" stop-color="rgb(0%, 52.996826%, 94.099426%)" offset="0.148438"/><stop stop-opacity="1" stop-color="rgb(0%, 53.344727%, 94.099426%)" offset="0.15625"/><stop stop-opacity="1" stop-color="rgb(0%, 53.691101%, 94.099426%)" offset="0.164063"/><stop stop-opacity="1" stop-color="rgb(0%, 54.039001%, 94.099426%)" offset="0.171875"/><stop stop-opacity="1" stop-color="rgb(0%, 54.386902%, 94.099426%)" offset="0.179688"/><stop stop-opacity="1" stop-color="rgb(0%, 54.733276%, 94.099426%)" offset="0.1875"/><stop stop-opacity="1" stop-color="rgb(0%, 55.081177%, 94.099426%)" offset="0.195313"/><stop stop-opacity="1" stop-color="rgb(0%, 55.427551%, 94.099426%)" offset="0.203125"/><stop stop-opacity="1" stop-color="rgb(0%, 55.775452%, 94.099426%)" offset="0.210938"/><stop stop-opacity="1" stop-color="rgb(0%, 56.123352%, 94.099426%)" offset="0.21875"/><stop stop-opacity="1" stop-color="rgb(0%, 56.469727%, 94.099426%)" offset="0.226563"/><stop stop-opacity="1" stop-color="rgb(0%, 56.817627%, 94.099426%)" offset="0.234375"/><stop stop-opacity="1" stop-color="rgb(0%, 57.164001%, 94.099426%)" offset="0.242188"/><stop stop-opacity="1" stop-color="rgb(0%, 57.511902%, 94.099426%)" offset="0.25"/><stop stop-opacity="1" stop-color="rgb(0%, 57.859802%, 94.099426%)" offset="0.257813"/><stop stop-opacity="1" stop-color="rgb(0%, 58.206177%, 94.099426%)" offset="0.265625"/><stop stop-opacity="1" stop-color="rgb(0%, 58.554077%, 94.099426%)" offset="0.273438"/><stop stop-opacity="1" stop-color="rgb(0%, 58.900452%, 94.099426%)" offset="0.28125"/><stop stop-opacity="1" stop-color="rgb(0%, 59.248352%, 94.099426%)" offset="0.289062"/><stop stop-opacity="1" stop-color="rgb(0%, 59.594727%, 94.099426%)" offset="0.296875"/><stop stop-opacity="1" stop-color="rgb(0%, 59.942627%, 94.099426%)" offset="0.304688"/><stop stop-opacity="1" stop-color="rgb(0%, 60.290527%, 94.099426%)" offset="0.3125"/><stop stop-opacity="1" stop-color="rgb(0%, 60.636902%, 94.099426%)" offset="0.320312"/><stop stop-opacity="1" stop-color="rgb(0%, 60.984802%, 94.099426%)" offset="0.328125"/><stop stop-opacity="1" stop-color="rgb(0%, 61.331177%, 94.099426%)" offset="0.335938"/><stop stop-opacity="1" stop-color="rgb(0%, 61.679077%, 94.099426%)" offset="0.34375"/><stop stop-opacity="1" stop-color="rgb(0%, 62.026978%, 94.099426%)" offset="0.351562"/><stop stop-opacity="1" stop-color="rgb(0%, 62.373352%, 94.099426%)" offset="0.359375"/><stop stop-opacity="1" stop-color="rgb(0%, 62.721252%, 94.099426%)" offset="0.367188"/><stop stop-opacity="1" stop-color="rgb(0%, 63.067627%, 94.099426%)" offset="0.375"/><stop stop-opacity="1" stop-color="rgb(0%, 63.415527%, 94.099426%)" offset="0.382813"/><stop stop-opacity="1" stop-color="rgb(0%, 63.761902%, 94.099426%)" offset="0.390625"/><stop stop-opacity="1" stop-color="rgb(0%, 64.109802%, 94.099426%)" offset="0.398438"/><stop stop-opacity="1" stop-color="rgb(0%, 64.457703%, 94.099426%)" offset="0.40625"/><stop stop-opacity="1" stop-color="rgb(0%, 64.804077%, 94.099426%)" offset="0.414063"/><stop stop-opacity="1" stop-color="rgb(0%, 65.151978%, 94.099426%)" offset="0.421875"/><stop stop-opacity="1" stop-color="rgb(0%, 65.498352%, 94.099426%)" offset="0.429688"/><stop stop-opacity="1" stop-color="rgb(0%, 65.846252%, 94.099426%)" offset="0.4375"/><stop stop-opacity="1" stop-color="rgb(0%, 66.194153%, 94.099426%)" offset="0.445313"/><stop stop-opacity="1" stop-color="rgb(0%, 66.540527%, 94.099426%)" offset="0.453125"/><stop stop-opacity="1" stop-color="rgb(0%, 66.888428%, 94.099426%)" offset="0.460938"/><stop stop-opacity="1" stop-color="rgb(0%, 67.234802%, 94.099426%)" offset="0.46875"/><stop stop-opacity="1" stop-color="rgb(0%, 67.582703%, 94.099426%)" offset="0.476562"/><stop stop-opacity="1" stop-color="rgb(0%, 67.929077%, 94.099426%)" offset="0.484375"/><stop stop-opacity="1" stop-color="rgb(0%, 68.276978%, 94.099426%)" offset="0.492188"/><stop stop-opacity="1" stop-color="rgb(0%, 68.624878%, 94.099426%)" offset="0.5"/><stop stop-opacity="1" stop-color="rgb(0%, 68.971252%, 94.099426%)" offset="0.507812"/><stop stop-opacity="1" stop-color="rgb(0%, 69.319153%, 94.099426%)" offset="0.515625"/><stop stop-opacity="1" stop-color="rgb(0%, 69.665527%, 94.099426%)" offset="0.523438"/><stop stop-opacity="1" stop-color="rgb(0%, 70.013428%, 94.099426%)" offset="0.53125"/><stop stop-opacity="1" stop-color="rgb(0%, 70.361328%, 94.099426%)" offset="0.539063"/><stop stop-opacity="1" stop-color="rgb(0%, 70.707703%, 94.099426%)" offset="0.546875"/><stop stop-opacity="1" stop-color="rgb(0%, 71.055603%, 94.099426%)" offset="0.554688"/><stop stop-opacity="1" stop-color="rgb(0%, 71.401978%, 94.099426%)" offset="0.5625"/><stop stop-opacity="1" stop-color="rgb(0%, 71.749878%, 94.099426%)" offset="0.570313"/><stop stop-opacity="1" stop-color="rgb(0%, 72.096252%, 94.099426%)" offset="0.578125"/><stop stop-opacity="1" stop-color="rgb(0%, 72.444153%, 94.099426%)" offset="0.585938"/><stop stop-opacity="1" stop-color="rgb(0%, 72.792053%, 94.099426%)" offset="0.59375"/><stop stop-opacity="1" stop-color="rgb(0%, 73.138428%, 94.099426%)" offset="0.601562"/><stop stop-opacity="1" stop-color="rgb(0%, 73.486328%, 94.099426%)" offset="0.609375"/><stop stop-opacity="1" stop-color="rgb(0%, 73.832703%, 94.099426%)" offset="0.617188"/><stop stop-opacity="1" stop-color="rgb(0%, 74.180603%, 94.099426%)" offset="0.625"/><stop stop-opacity="1" stop-color="rgb(0%, 74.528503%, 94.099426%)" offset="0.632813"/><stop stop-opacity="1" stop-color="rgb(0%, 74.874878%, 94.099426%)" offset="0.640625"/><stop stop-opacity="1" stop-color="rgb(0%, 75.222778%, 94.099426%)" offset="0.648438"/><stop stop-opacity="1" stop-color="rgb(0%, 75.569153%, 94.099426%)" offset="0.65625"/><stop stop-opacity="1" stop-color="rgb(0%, 75.917053%, 94.099426%)" offset="0.664063"/><stop stop-opacity="1" stop-color="rgb(0%, 76.263428%, 94.099426%)" offset="0.671875"/><stop stop-opacity="1" stop-color="rgb(0%, 76.611328%, 94.099426%)" offset="0.679688"/><stop stop-opacity="1" stop-color="rgb(0%, 76.959229%, 94.099426%)" offset="0.6875"/><stop stop-opacity="1" stop-color="rgb(0%, 77.305603%, 94.099426%)" offset="0.695312"/><stop stop-opacity="1" stop-color="rgb(0%, 77.653503%, 94.099426%)" offset="0.703125"/><stop stop-opacity="1" stop-color="rgb(0%, 77.999878%, 94.099426%)" offset="0.710938"/><stop stop-opacity="1" stop-color="rgb(0%, 78.347778%, 94.099426%)" offset="0.71875"/><stop stop-opacity="1" stop-color="rgb(0%, 78.695679%, 94.099426%)" offset="0.726562"/><stop stop-opacity="1" stop-color="rgb(0%, 79.042053%, 94.099426%)" offset="0.734375"/><stop stop-opacity="1" stop-color="rgb(0%, 79.389954%, 94.099426%)" offset="0.742188"/><stop stop-opacity="1" stop-color="rgb(0%, 79.736328%, 94.099426%)" offset="0.75"/><stop stop-opacity="1" stop-color="rgb(0%, 80.084229%, 94.099426%)" offset="0.757813"/><stop stop-opacity="1" stop-color="rgb(0%, 80.430603%, 94.099426%)" offset="0.765625"/><stop stop-opacity="1" stop-color="rgb(0%, 80.778503%, 94.099426%)" offset="0.773438"/><stop stop-opacity="1" stop-color="rgb(0%, 81.126404%, 94.099426%)" offset="0.78125"/><stop stop-opacity="1" stop-color="rgb(0%, 81.472778%, 94.099426%)" offset="0.789062"/><stop stop-opacity="1" stop-color="rgb(0%, 81.820679%, 94.099426%)" offset="0.796875"/><stop stop-opacity="1" stop-color="rgb(0%, 82.167053%, 94.099426%)" offset="0.804688"/><stop stop-opacity="1" stop-color="rgb(0%, 82.514954%, 94.099426%)" offset="0.8125"/><stop stop-opacity="1" stop-color="rgb(0%, 82.862854%, 94.099426%)" offset="0.820312"/><stop stop-opacity="1" stop-color="rgb(0%, 83.209229%, 94.099426%)" offset="0.828125"/><stop stop-opacity="1" stop-color="rgb(0%, 83.557129%, 94.099426%)" offset="0.835937"/><stop stop-opacity="1" stop-color="rgb(0%, 83.903503%, 94.099426%)" offset="0.84375"/><stop stop-opacity="1" stop-color="rgb(0%, 84.251404%, 94.099426%)" offset="0.851563"/><stop stop-opacity="1" stop-color="rgb(0%, 84.597778%, 94.099426%)" offset="0.859375"/><stop stop-opacity="1" stop-color="rgb(0%, 84.945679%, 94.099426%)" offset="0.867188"/><stop stop-opacity="1" stop-color="rgb(0%, 85.293579%, 94.099426%)" offset="0.875"/><stop stop-opacity="1" stop-color="rgb(0%, 85.639954%, 94.099426%)" offset="0.882812"/><stop stop-opacity="1" stop-color="rgb(0%, 85.987854%, 94.099426%)" offset="0.890625"/><stop stop-opacity="1" stop-color="rgb(0%, 86.334229%, 94.099426%)" offset="0.898438"/><stop stop-opacity="1" stop-color="rgb(0%, 86.682129%, 94.099426%)" offset="0.90625"/><stop stop-opacity="1" stop-color="rgb(0%, 87.030029%, 94.099426%)" offset="0.914062"/><stop stop-opacity="1" stop-color="rgb(0%, 87.376404%, 94.099426%)" offset="0.921875"/><stop stop-opacity="1" stop-color="rgb(0%, 87.724304%, 94.099426%)" offset="0.929687"/><stop stop-opacity="1" stop-color="rgb(0%, 88.070679%, 94.099426%)" offset="0.9375"/><stop stop-opacity="1" stop-color="rgb(0%, 88.418579%, 94.099426%)" offset="0.945312"/><stop stop-opacity="1" stop-color="rgb(0%, 88.764954%, 94.099426%)" offset="0.953125"/><stop stop-opacity="1" stop-color="rgb(0%, 89.112854%, 94.099426%)" offset="0.960938"/><stop stop-opacity="1" stop-color="rgb(0%, 89.460754%, 94.099426%)" offset="0.96875"/><stop stop-opacity="1" stop-color="rgb(0%, 89.807129%, 94.099426%)" offset="0.976562"/><stop stop-opacity="1" stop-color="rgb(0%, 90.155029%, 94.099426%)" offset="0.984375"/><stop stop-opacity="1" stop-color="rgb(0%, 90.463257%, 94.099426%)" offset="1"/></linearGradient><clipPath id="id6"><path d="M 93 218 L 282 218 L 282 269 L 93 269 Z M 93 218 " clip-rule="nonzero"/></clipPath><clipPath id="id7"><path d="M 243.75 268.75 L 100 268.75 C 99.40625 268.75 98.824219 268.667969 98.253906 268.5 C 97.683594 268.335938 97.148438 268.09375 96.648438 267.773438 C 96.148438 267.453125 95.699219 267.070312 95.308594 266.625 C 94.914062 266.179688 94.59375 265.6875 94.34375 265.152344 C 94.089844 264.613281 93.917969 264.050781 93.828125 263.464844 C 93.734375 262.878906 93.726562 262.289062 93.804688 261.699219 C 93.878906 261.113281 94.035156 260.546875 94.273438 260 C 94.511719 259.457031 94.820312 258.957031 95.199219 258.5 L 126.449219 221 C 127.042969 220.289062 127.761719 219.734375 128.601562 219.339844 C 129.4375 218.949219 130.324219 218.75 131.25 218.75 L 275 218.75 C 275.59375 218.75 276.175781 218.832031 276.746094 218.996094 C 277.316406 219.164062 277.851562 219.40625 278.355469 219.722656 C 278.855469 220.042969 279.304688 220.425781 279.695312 220.871094 C 280.089844 221.316406 280.410156 221.808594 280.664062 222.347656 C 280.914062 222.882812 281.085938 223.445312 281.179688 224.035156 C 281.269531 224.621094 281.277344 225.207031 281.203125 225.796875 C 281.125 226.386719 280.96875 226.953125 280.734375 227.5 C 280.496094 228.042969 280.1875 228.542969 279.804688 229 L 248.554688 266.5 C 247.960938 267.214844 247.246094 267.765625 246.402344 268.160156 C 245.5625 268.554688 244.679688 268.75 243.75 268.75 Z M 113.34375 256.25 L 240.84375 256.25 L 261.679688 231.25 L 134.179688 231.25 Z M 113.34375 256.25 " clip-rule="nonzero"/></clipPath><linearGradient x1="32" gradientTransform="matrix(6.249999, 0, 0, 6.249999, -12.499994, -12.5)" y1="45.000096" x2="32" gradientUnits="userSpaceOnUse" y2="36.99994" id="id8"><stop stop-opacity="1" stop-color="rgb(0%, 57.685852%, 94.099426%)" offset="0"/><stop stop-opacity="1" stop-color="rgb(0%, 57.792664%, 94.099426%)" offset="0.03125"/><stop stop-opacity="1" stop-color="rgb(0%, 58.006287%, 94.099426%)" offset="0.0625"/><stop stop-opacity="1" stop-color="rgb(0%, 58.21991%, 94.099426%)" offset="0.09375"/><stop stop-opacity="1" stop-color="rgb(0%, 58.433533%, 94.099426%)" offset="0.125"/><stop stop-opacity="1" stop-color="rgb(0%, 58.647156%, 94.099426%)" offset="0.15625"/><stop stop-opacity="1" stop-color="rgb(0%, 58.860779%, 94.099426%)" offset="0.1875"/><stop stop-opacity="1" stop-color="rgb(0%, 59.074402%, 94.099426%)" offset="0.21875"/><stop stop-opacity="1" stop-color="rgb(0%, 59.288025%, 94.099426%)" offset="0.25"/><stop stop-opacity="1" stop-color="rgb(0%, 59.501648%, 94.099426%)" offset="0.28125"/><stop stop-opacity="1" stop-color="rgb(0%, 59.715271%, 94.099426%)" offset="0.3125"/><stop stop-opacity="1" stop-color="rgb(0%, 59.928894%, 94.099426%)" offset="0.34375"/><stop stop-opacity="1" stop-color="rgb(0%, 60.142517%, 94.099426%)" offset="0.375"/><stop stop-opacity="1" stop-color="rgb(0%, 60.357666%, 94.099426%)" offset="0.40625"/><stop stop-opacity="1" stop-color="rgb(0%, 60.571289%, 94.099426%)" offset="0.4375"/><stop stop-opacity="1" stop-color="rgb(0%, 60.784912%, 94.099426%)" offset="0.46875"/><stop stop-opacity="1" stop-color="rgb(0%, 60.998535%, 94.099426%)" offset="0.5"/><stop stop-opacity="1" stop-color="rgb(0%, 61.212158%, 94.099426%)" offset="0.53125"/><stop stop-opacity="1" stop-color="rgb(0%, 61.425781%, 94.099426%)" offset="0.5625"/><stop stop-opacity="1" stop-color="rgb(0%, 61.639404%, 94.099426%)" offset="0.59375"/><stop stop-opacity="1" stop-color="rgb(0%, 61.853027%, 94.099426%)" offset="0.625"/><stop stop-opacity="1" stop-color="rgb(0%, 62.06665%, 94.099426%)" offset="0.65625"/><stop stop-opacity="1" stop-color="rgb(0%, 62.280273%, 94.099426%)" offset="0.6875"/><stop stop-opacity="1" stop-color="rgb(0%, 62.493896%, 94.099426%)" offset="0.71875"/><stop stop-opacity="1" stop-color="rgb(0%, 62.70752%, 94.099426%)" offset="0.75"/><stop stop-opacity="1" stop-color="rgb(0%, 62.921143%, 94.099426%)" offset="0.78125"/><stop stop-opacity="1" stop-color="rgb(0%, 63.134766%, 94.099426%)" offset="0.8125"/><stop stop-opacity="1" stop-color="rgb(0%, 63.348389%, 94.099426%)" offset="0.84375"/><stop stop-opacity="1" stop-color="rgb(0%, 63.562012%, 94.099426%)" offset="0.875"/><stop stop-opacity="1" stop-color="rgb(0%, 63.775635%, 94.099426%)" offset="0.90625"/><stop stop-opacity="1" stop-color="rgb(0%, 63.989258%, 94.099426%)" offset="0.9375"/><stop stop-opacity="1" stop-color="rgb(0%, 64.202881%, 94.099426%)" offset="0.96875"/><stop stop-opacity="1" stop-color="rgb(0%, 64.41803%, 94.099426%)" offset="1"/></linearGradient><clipPath id="id9"><path d="M 93 162 L 282 162 L 282 213 L 93 213 Z M 93 162 " clip-rule="nonzero"/></clipPath><clipPath id="id10"><path d="M 275 212.5 L 131.25 212.5 C 130.324219 212.5 129.4375 212.300781 128.601562 211.910156 C 127.761719 211.515625 127.042969 210.960938 126.449219 210.25 L 95.199219 172.75 C 94.820312 172.292969 94.511719 171.792969 94.273438 171.25 C 94.035156 170.703125 93.878906 170.136719 93.804688 169.550781 C 93.726562 168.960938 93.734375 168.371094 93.828125 167.785156 C 93.917969 167.199219 94.089844 166.636719 94.34375 166.097656 C 94.59375 165.5625 94.914062 165.070312 95.308594 164.625 C 95.699219 164.179688 96.148438 163.796875 96.648438 163.476562 C 97.148438 163.15625 97.683594 162.914062 98.253906 162.75 C 98.824219 162.582031 99.40625 162.5 100 162.5 L 243.75 162.5 C 244.679688 162.5 245.5625 162.695312 246.402344 163.089844 C 247.246094 163.484375 247.960938 164.035156 248.554688 164.75 L 279.804688 202.25 C 280.1875 202.707031 280.496094 203.207031 280.734375 203.75 C 280.96875 204.296875 281.125 204.863281 281.203125 205.453125 C 281.277344 206.042969 281.269531 206.628906 281.179688 207.214844 C 281.085938 207.804688 280.914062 208.367188 280.664062 208.902344 C 280.410156 209.441406 280.089844 209.933594 279.695312 210.378906 C 279.304688 210.824219 278.855469 211.207031 278.355469 211.527344 C 277.851562 211.84375 277.316406 212.085938 276.746094 212.253906 C 276.175781 212.417969 275.59375 212.5 275 212.5 Z M 134.175781 200 L 261.675781 200 L 240.835938 175 L 113.335938 175 Z M 134.175781 200 " clip-rule="nonzero"/></clipPath><linearGradient x1="32" gradientTransform="matrix(6.249999, 0, 0, 6.249999, -12.499994, -12.5)" y1="36.000062" x2="32" gradientUnits="userSpaceOnUse" y2="27.999908" id="id11"><stop stop-opacity="1" stop-color="rgb(0%, 65.379333%, 94.099426%)" offset="0"/><stop stop-opacity="1" stop-color="rgb(0%, 65.486145%, 94.099426%)" offset="0.03125"/><stop stop-opacity="1" stop-color="rgb(0%, 65.699768%, 94.099426%)" offset="0.0625"/><stop stop-opacity="1" stop-color="rgb(0%, 65.913391%, 94.099426%)" offset="0.09375"/><stop stop-opacity="1" stop-color="rgb(0%, 66.127014%, 94.099426%)" offset="0.125"/><stop stop-opacity="1" stop-color="rgb(0%, 66.340637%, 94.099426%)" offset="0.15625"/><stop stop-opacity="1" stop-color="rgb(0%, 66.55426%, 94.099426%)" offset="0.1875"/><stop stop-opacity="1" stop-color="rgb(0%, 66.767883%, 94.099426%)" offset="0.21875"/><stop stop-opacity="1" stop-color="rgb(0%, 66.981506%, 94.099426%)" offset="0.25"/><stop stop-opacity="1" stop-color="rgb(0%, 67.195129%, 94.099426%)" offset="0.28125"/><stop stop-opacity="1" stop-color="rgb(0%, 67.408752%, 94.099426%)" offset="0.3125"/><stop stop-opacity="1" stop-color="rgb(0%, 67.622375%, 94.099426%)" offset="0.34375"/><stop stop-opacity="1" stop-color="rgb(0%, 67.835999%, 94.099426%)" offset="0.375"/><stop stop-opacity="1" stop-color="rgb(0%, 68.049622%, 94.099426%)" offset="0.40625"/><stop stop-opacity="1" stop-color="rgb(0%, 68.263245%, 94.099426%)" offset="0.4375"/><stop stop-opacity="1" stop-color="rgb(0%, 68.478394%, 94.099426%)" offset="0.46875"/><stop stop-opacity="1" stop-color="rgb(0%, 68.692017%, 94.099426%)" offset="0.5"/><stop stop-opacity="1" stop-color="rgb(0%, 68.90564%, 94.099426%)" offset="0.53125"/><stop stop-opacity="1" stop-color="rgb(0%, 69.119263%, 94.099426%)" offset="0.5625"/><stop stop-opacity="1" stop-color="rgb(0%, 69.332886%, 94.099426%)" offset="0.59375"/><stop stop-opacity="1" stop-color="rgb(0%, 69.546509%, 94.099426%)" offset="0.625"/><stop stop-opacity="1" stop-color="rgb(0%, 69.760132%, 94.099426%)" offset="0.65625"/><stop stop-opacity="1" stop-color="rgb(0%, 69.973755%, 94.099426%)" offset="0.6875"/><stop stop-opacity="1" stop-color="rgb(0%, 70.187378%, 94.099426%)" offset="0.71875"/><stop stop-opacity="1" stop-color="rgb(0%, 70.401001%, 94.099426%)" offset="0.75"/><stop stop-opacity="1" stop-color="rgb(0%, 70.614624%, 94.099426%)" offset="0.78125"/><stop stop-opacity="1" stop-color="rgb(0%, 70.828247%, 94.099426%)" offset="0.8125"/><stop stop-opacity="1" stop-color="rgb(0%, 71.04187%, 94.099426%)" offset="0.84375"/><stop stop-opacity="1" stop-color="rgb(0%, 71.255493%, 94.099426%)" offset="0.875"/><stop stop-opacity="1" stop-color="rgb(0%, 71.469116%, 94.099426%)" offset="0.90625"/><stop stop-opacity="1" stop-color="rgb(0%, 71.682739%, 94.099426%)" offset="0.9375"/><stop stop-opacity="1" stop-color="rgb(0%, 71.896362%, 94.099426%)" offset="0.96875"/><stop stop-opacity="1" stop-color="rgb(0%, 72.109985%, 94.099426%)" offset="1"/></linearGradient><clipPath id="id12"><path d="M 93 106 L 282 106 L 282 157 L 93 157 Z M 93 106 " clip-rule="nonzero"/></clipPath><clipPath id="id13"><path d="M 243.75 156.25 L 100 156.25 C 99.40625 156.25 98.824219 156.167969 98.253906 156 C 97.683594 155.835938 97.148438 155.59375 96.648438 155.273438 C 96.148438 154.953125 95.699219 154.570312 95.308594 154.125 C 94.914062 153.679688 94.59375 153.1875 94.34375 152.652344 C 94.089844 152.113281 93.917969 151.550781 93.828125 150.964844 C 93.734375 150.378906 93.726562 149.789062 93.804688 149.199219 C 93.878906 148.613281 94.035156 148.046875 94.273438 147.5 C 94.511719 146.957031 94.820312 146.457031 95.199219 146 L 126.449219 108.5 C 127.042969 107.789062 127.761719 107.234375 128.601562 106.839844 C 129.4375 106.449219 130.324219 106.25 131.25 106.25 L 275 106.25 C 275.59375 106.25 276.175781 106.332031 276.746094 106.496094 C 277.316406 106.664062 277.851562 106.90625 278.355469 107.222656 C 278.855469 107.542969 279.304688 107.925781 279.695312 108.371094 C 280.089844 108.816406 280.410156 109.308594 280.664062 109.847656 C 280.914062 110.382812 281.085938 110.945312 281.179688 111.535156 C 281.269531 112.121094 281.277344 112.707031 281.203125 113.296875 C 281.125 113.886719 280.96875 114.453125 280.734375 115 C 280.496094 115.542969 280.1875 116.042969 279.804688 116.5 L 248.554688 154 C 247.960938 154.714844 247.246094 155.265625 246.402344 155.660156 C 245.5625 156.054688 244.679688 156.25 243.75 156.25 Z M 113.34375 143.75 L 240.84375 143.75 L 261.679688 118.75 L 134.179688 118.75 Z M 113.34375 143.75 " clip-rule="nonzero"/></clipPath><linearGradient x1="32" gradientTransform="matrix(6.249999, 0, 0, 6.249999, -12.499994, -12.5)" y1="27.000093" x2="32" gradientUnits="userSpaceOnUse" y2="18.999939" id="id14"><stop stop-opacity="1" stop-color="rgb(0%, 73.072815%, 94.099426%)" offset="0"/><stop stop-opacity="1" stop-color="rgb(0%, 73.179626%, 94.099426%)" offset="0.03125"/><stop stop-opacity="1" stop-color="rgb(0%, 73.39325%, 94.099426%)" offset="0.0625"/><stop stop-opacity="1" stop-color="rgb(0%, 73.606873%, 94.099426%)" offset="0.09375"/><stop stop-opacity="1" stop-color="rgb(0%, 73.820496%, 94.099426%)" offset="0.125"/><stop stop-opacity="1" stop-color="rgb(0%, 74.034119%, 94.099426%)" offset="0.15625"/><stop stop-opacity="1" stop-color="rgb(0%, 74.247742%, 94.099426%)" offset="0.1875"/><stop stop-opacity="1" stop-color="rgb(0%, 74.461365%, 94.099426%)" offset="0.21875"/><stop stop-opacity="1" stop-color="rgb(0%, 74.674988%, 94.099426%)" offset="0.25"/><stop stop-opacity="1" stop-color="rgb(0%, 74.888611%, 94.099426%)" offset="0.28125"/><stop stop-opacity="1" stop-color="rgb(0%, 75.102234%, 94.099426%)" offset="0.3125"/><stop stop-opacity="1" stop-color="rgb(0%, 75.315857%, 94.099426%)" offset="0.34375"/><stop stop-opacity="1" stop-color="rgb(0%, 75.52948%, 94.099426%)" offset="0.375"/><stop stop-opacity="1" stop-color="rgb(0%, 75.743103%, 94.099426%)" offset="0.40625"/><stop stop-opacity="1" stop-color="rgb(0%, 75.956726%, 94.099426%)" offset="0.4375"/><stop stop-opacity="1" stop-color="rgb(0%, 76.170349%, 94.099426%)" offset="0.46875"/><stop stop-opacity="1" stop-color="rgb(0%, 76.383972%, 94.099426%)" offset="0.5"/><stop stop-opacity="1" stop-color="rgb(0%, 76.597595%, 94.099426%)" offset="0.53125"/><stop stop-opacity="1" stop-color="rgb(0%, 76.812744%, 94.099426%)" offset="0.5625"/><stop stop-opacity="1" stop-color="rgb(0%, 77.026367%, 94.099426%)" offset="0.59375"/><stop stop-opacity="1" stop-color="rgb(0%, 77.23999%, 94.099426%)" offset="0.625"/><stop stop-opacity="1" stop-color="rgb(0%, 77.453613%, 94.099426%)" offset="0.65625"/><stop stop-opacity="1" stop-color="rgb(0%, 77.667236%, 94.099426%)" offset="0.6875"/><stop stop-opacity="1" stop-color="rgb(0%, 77.880859%, 94.099426%)" offset="0.71875"/><stop stop-opacity="1" stop-color="rgb(0%, 78.094482%, 94.099426%)" offset="0.75"/><stop stop-opacity="1" stop-color="rgb(0%, 78.308105%, 94.099426%)" offset="0.78125"/><stop stop-opacity="1" stop-color="rgb(0%, 78.521729%, 94.099426%)" offset="0.8125"/><stop stop-opacity="1" stop-color="rgb(0%, 78.735352%, 94.099426%)" offset="0.84375"/><stop stop-opacity="1" stop-color="rgb(0%, 78.948975%, 94.099426%)" offset="0.875"/><stop stop-opacity="1" stop-color="rgb(0%, 79.162598%, 94.099426%)" offset="0.90625"/><stop stop-opacity="1" stop-color="rgb(0%, 79.376221%, 94.099426%)" offset="0.9375"/><stop stop-opacity="1" stop-color="rgb(0%, 79.589844%, 94.099426%)" offset="0.96875"/><stop stop-opacity="1" stop-color="rgb(0%, 79.803467%, 94.099426%)" offset="1"/></linearGradient></defs><g clip-path="url(#id1)"><rect x="-37.5" fill="url(#id2)" width="450" y="-37.499999" height="449.999989"/></g><g clip-path="url(#id3)"><g clip-path="url(#id4)"><path fill="url(#id5)" d="M 25 25 L 25 350 L 350 350 L 350 25 Z M 25 25 " fill-rule="nonzero"/></g></g><g clip-path="url(#id6)"><g clip-path="url(#id7)"><path fill="url(#id8)" d="M 93.726562 218.75 L 93.726562 268.75 L 281.277344 268.75 L 281.277344 218.75 Z M 93.726562 218.75 " fill-rule="nonzero"/></g></g><g clip-path="url(#id9)"><g clip-path="url(#id10)"><path fill="url(#id11)" d="M 93.726562 162.5 L 93.726562 212.5 L 281.277344 212.5 L 281.277344 162.5 Z M 93.726562 162.5 " fill-rule="nonzero"/></g></g><g clip-path="url(#id12)"><g clip-path="url(#id13)"><path fill="url(#id14)" d="M 93.726562 106.25 L 93.726562 156.25 L 281.277344 156.25 L 281.277344 106.25 Z M 93.726562 106.25 " fill-rule="nonzero"/></g></g></svg>